0, 0, Header, 1, 2, 480
1, 0, Start_track
1, 0, Title_t, ""
1, 0, Tempo, 500000
1, 0, End_track
2, 0, Start_track
2, 0, Title_t, ""
2, 0, Program_c, 0, 4
2, 4171, Note_on_c, 0, 73, 66
2, 4171, Note_on_c, 0, 61, 88
2, 4193, Note_on_c, 0, 68, 45
2, 4460, Note_off_c, 0, 68, 0
2, 4461, Note_on_c, 0, 80, 56
2, 4472, Note_off_c, 0, 61, 0
2, 4472, Note_on_c, 0, 68, 77
2, 4472, Note_on_c, 0, 61, 77
2, 4773, Note_on_c, 0, 49, 64
2, 4795, Note_off_c, 0, 73, 0
2, 4962, Note_on_c, 0, 73, 63
2, 4962, Note_on_c, 0, 77, 55
2, 5152, Note_off_c, 0, 80, 0
2, 5252, Note_off_c, 0, 61, 0
2, 5352, Note_off_c, 0, 77, 0
2, 5464, Note_off_c, 0, 49, 0
2, 5486, Note_off_c, 0, 73, 0
2, 5609, Note_off_c, 0, 68, 0
2, 10773, Note_on_c, 0, 73, 76
2, 10773, Note_on_c, 0, 56, 80
2, 11543, Note_off_c, 0, 73, 0
2, 11599, Note_on_c, 0, 72, 92
2, 12424, Note_off_c, 0, 72, 0
2, 12435, Note_on_c, 0, 73, 78
2, 13484, Note_off_c, 0, 73, 0
2, 13662, Note_off_c, 0, 56, 0
2, 13684, Note_on_c, 0, 68, 104
2, 13796, Note_on_c, 0, 56, 49
2, 14097, Note_off_c, 0, 56, 0
2, 14108, Note_off_c, 0, 68, 0
2, 14108, Note_on_c, 0, 73, 80
2, 14108, Note_on_c, 0, 68, 47
2, 14108, Note_on_c, 0, 56, 83
2, 14375, Note_off_c, 0, 68, 0
2, 14922, Note_off_c, 0, 73, 0
2, 14944, Note_on_c, 0, 72, 90
2, 15781, Note_off_c, 0, 72, 0
2, 15781, Note_on_c, 0, 73, 82
2, 16572, Note_off_c, 0, 56, 0
2, 16617, Note_off_c, 0, 73, 0
2, 16617, Note_on_c, 0, 73, 93
2, 16817, Note_on_c, 0, 71, 61
2, 16851, Note_off_c, 0, 73, 0
2, 17040, Note_on_c, 0, 69, 94
2, 17231, Note_off_c, 0, 69, 0
2, 17231, Note_on_c, 0, 68, 90
2, 17454, Note_on_c, 0, 73, 70
2, 17454, Note_on_c, 0, 61, 54
2, 17454, Note_on_c, 0, 49, 79
2, 17487, Note_off_c, 0, 68, 0
2, 17487, Note_on_c, 0, 69, 43
2, 17532, Note_off_c, 0, 71, 0
2, 17744, Note_on_c, 0, 71, 38
2, 17944, Note_off_c, 0, 69, 0
2, 18090, Note_off_c, 0, 71, 0
2, 18123, Note_off_c, 0, 61, 0
2, 18256, Note_off_c, 0, 73, 0
2, 18279, Note_on_c, 0, 76, 96
2, 18490, Note_on_c, 0, 73, 100
2, 18502, Note_off_c, 0, 76, 0
2, 18502, Note_on_c, 0, 76, 73
2, 18702, Note_off_c, 0, 73, 0
2, 18702, Note_on_c, 0, 73, 102
2, 18914, Note_off_c, 0, 73, 0
2, 18914, Note_on_c, 0, 73, 103
2, 19082, Note_off_c, 0, 49, 0
2, 19127, Note_off_c, 0, 73, 0
2, 19127, Note_on_c, 0, 73, 92
2, 19306, Note_off_c, 0, 76, 0
2, 19328, Note_on_c, 0, 80, 86
2, 19539, Note_on_c, 0, 80, 90
2, 19540, Note_off_c, 0, 80, 0
2, 19751, Note_off_c, 0, 73, 0
2, 19751, Note_off_c, 0, 80, 0
2, 19751, Note_on_c, 0, 80, 96
2, 19751, Note_on_c, 0, 73, 75
2, 19952, Note_off_c, 0, 80, 0
2, 19952, Note_on_c, 0, 80, 83
2, 19963, Note_off_c, 0, 73, 0
2, 19963, Note_on_c, 0, 73, 64
2, 20141, Note_on_c, 0, 61, 42
2, 20286, Note_off_c, 0, 61, 0
2, 20353, Note_off_c, 0, 73, 0
2, 20364, Note_on_c, 0, 76, 98
2, 20376, Note_off_c, 0, 80, 0
2, 20598, Note_off_c, 0, 76, 0
2, 20598, Note_on_c, 0, 75, 75
2, 20787, Note_off_c, 0, 75, 0
2, 20799, Note_on_c, 0, 73, 72
2, 20799, Note_on_c, 0, 61, 55
2, 20799, Note_on_c, 0, 49, 79
2, 20810, Note_on_c, 0, 76, 64
2, 21079, Note_off_c, 0, 61, 0
2, 21603, Note_off_c, 0, 73, 0
2, 21614, Note_off_c, 0, 76, 0
2, 21614, Note_on_c, 0, 76, 98
2, 21837, Note_off_c, 0, 76, 0
2, 21837, Note_on_c, 0, 76, 75
2, 21837, Note_on_c, 0, 73, 103
2, 22048, Note_on_c, 0, 73, 105
2, 22049, Note_off_c, 0, 73, 0
2, 22260, Note_off_c, 0, 73, 0
2, 22260, Note_on_c, 0, 73, 105
2, 22416, Note_off_c, 0, 49, 0
2, 22472, Note_off_c, 0, 73, 0
2, 22472, Note_on_c, 0, 73, 95
2, 22651, Note_off_c, 0, 76, 0
2, 22673, Note_on_c, 0, 80, 86
2, 22884, Note_off_c, 0, 73, 0
2, 22884, Note_on_c, 0, 80, 92
2, 22884, Note_on_c, 0, 73, 76
2, 22885, Note_off_c, 0, 80, 0
2, 23075, Note_off_c, 0, 80, 0
2, 23075, Note_on_c, 0, 80, 91
2, 23286, Note_off_c, 0, 73, 0
2, 23287, Note_on_c, 0, 73, 51
2, 23298, Note_off_c, 0, 80, 0
2, 23298, Note_on_c, 0, 80, 81
2, 23666, Note_on_c, 0, 49, 52
2, 23933, Note_off_c, 0, 73, 0
2, 24112, Note_off_c, 0, 80, 0
2, 24123, Note_off_c, 0, 49, 0
2, 24134, Note_on_c, 0, 73, 69
2, 24134, Note_on_c, 0, 61, 47
2, 24134, Note_on_c, 0, 49, 86
2, 24669, Note_off_c, 0, 61, 0
2, 24927, Note_off_c, 0, 73, 0
2, 24960, Note_on_c, 0, 76, 92
2, 25160, Note_on_c, 0, 73, 105
2, 25160, Note_on_c, 0, 61, 38
2, 25383, Note_off_c, 0, 73, 0
2, 25383, Note_on_c, 0, 73, 107
2, 25461, Note_off_c, 0, 61, 0
2, 25584, Note_off_c, 0, 49, 0
2, 25595, Note_off_c, 0, 76, 0
2, 25595, Note_off_c, 0, 73, 0
2, 25595, Note_on_c, 0, 76, 71
2, 25595, Note_on_c, 0, 73, 107
2, 25796, Note_off_c, 0, 73, 0
2, 25796, Note_on_c, 0, 73, 105
2, 25996, Note_off_c, 0, 76, 0
2, 26008, Note_off_c, 0, 73, 0
2, 26008, Note_on_c, 0, 80, 89
2, 26008, Note_on_c, 0, 73, 82
2, 26219, Note_on_c, 0, 80, 95
2, 26220, Note_off_c, 0, 80, 0
2, 26420, Note_off_c, 0, 73, 0
2, 26420, Note_off_c, 0, 80, 0
2, 26420, Note_on_c, 0, 80, 94
2, 26420, Note_on_c, 0, 73, 63
2, 26632, Note_off_c, 0, 80, 0
2, 26632, Note_on_c, 0, 80, 80
2, 26767, Note_off_c, 0, 73, 0
2, 27034, Note_off_c, 0, 80, 0
2, 27045, Note_on_c, 0, 76, 95
2, 27268, Note_off_c, 0, 76, 0
2, 27268, Note_on_c, 0, 75, 64
2, 27457, Note_off_c, 0, 75, 0
2, 27458, Note_on_c, 0, 45, 97
2, 27458, Note_on_c, 0, 76, 56
2, 27469, Note_on_c, 0, 73, 85
2, 27815, Note_off_c, 0, 76, 0
2, 27870, Note_on_c, 0, 57, 54
2, 27881, Note_off_c, 0, 73, 0
2, 27881, Note_on_c, 0, 85, 62
2, 27881, Note_on_c, 0, 73, 46
2, 28271, Note_off_c, 0, 85, 0
2, 28305, Note_off_c, 0, 73, 0
2, 28305, Note_on_c, 0, 73, 69
2, 28718, Note_on_c, 0, 85, 65
2, 28741, Note_on_c, 0, 33, 38
2, 29086, Note_off_c, 0, 85, 0
2, 29109, Note_off_c, 0, 33, 0
2, 29120, Note_off_c, 0, 57, 0
2, 29131, Note_off_c, 0, 73, 0
2, 29131, Note_on_c, 0, 73, 82
2, 29354, Note_on_c, 0, 85, 68
2, 29365, Note_on_c, 0, 57, 54
2, 29465, Note_off_c, 0, 73, 0
2, 29554, Note_on_c, 0, 85, 83
2, 29555, Note_off_c, 0, 85, 0
2, 29766, Note_off_c, 0, 85, 0
2, 29766, Note_on_c, 0, 85, 85
2, 29777, Note_on_c, 0, 33, 45
2, 29978, Note_off_c, 0, 85, 0
2, 29978, Note_on_c, 0, 85, 88
2, 30435, Note_off_c, 0, 33, 0
2, 30592, Note_off_c, 0, 45, 0
2, 30592, Note_on_c, 0, 73, 60
2, 30592, Note_on_c, 0, 45, 74
2, 30603, Note_off_c, 0, 85, 0
2, 30770, Note_on_c, 0, 85, 45
2, 30782, Note_off_c, 0, 57, 0
2, 30793, Note_off_c, 0, 45, 0
2, 30793, Note_on_c, 0, 76, 72
2, 30793, Note_on_c, 0, 57, 57
2, 30793, Note_on_c, 0, 45, 50
2, 30804, Note_on_c, 0, 61, 48
2, 30804, Note_on_c, 0, 49, 77
2, 30882, Note_on_c, 0, 33, 49
2, 30971, Note_off_c, 0, 61, 0
2, 30982, Note_off_c, 0, 85, 0
2, 30994, Note_off_c, 0, 45, 0
2, 31016, Note_off_c, 0, 76, 0
2, 31016, Note_on_c, 0, 75, 63
2, 31127, Note_off_c, 0, 73, 0
2, 31216, Note_on_c, 0, 78, 93
2, 31217, Note_off_c, 0, 75, 0
2, 31317, Note_off_c, 0, 57, 0
2, 31428, Note_off_c, 0, 78, 0
2, 31428, Note_on_c, 0, 78, 48
2, 31428, Note_on_c, 0, 76, 51
2, 31428, Note_on_c, 0, 73, 99
2, 31450, Note_on_c, 0, 45, 49
2, 31595, Note_on_c, 0, 61, 52
2, 31639, Note_off_c, 0, 45, 0
2, 31640, Note_on_c, 0, 80, 69
2, 31651, Note_off_c, 0, 73, 0
2, 31651, Note_on_c, 0, 73, 50
2, 31796, Note_off_c, 0, 76, 0
2, 31818, Note_off_c, 0, 33, 0
2, 31829, Note_off_c, 0, 80, 0
2, 31840, Note_off_c, 0, 61, 0
2, 31851, Note_on_c, 0, 78, 72
2, 31852, Note_off_c, 0, 78, 0
2, 31863, Note_off_c, 0, 73, 0
2, 31863, Note_on_c, 0, 73, 50
2, 31985, Note_on_c, 0, 33, 41
2, 32063, Note_on_c, 0, 81, 86
2, 32209, Note_off_c, 0, 73, 0
2, 32264, Note_off_c, 0, 81, 0
2, 32264, Note_on_c, 0, 80, 68
2, 32455, Note_off_c, 0, 80, 0
2, 32476, Note_off_c, 0, 78, 0
2, 32477, Note_on_c, 0, 78, 74
2, 32589, Note_off_c, 0, 49, 0
2, 32633, Note_off_c, 0, 33, 0
2, 32677, Note_on_c, 0, 80, 74
2, 32878, Note_off_c, 0, 78, 0
2, 32889, Note_on_c, 0, 76, 100
2, 32900, Note_off_c, 0, 80, 0
2, 33112, Note_off_c, 0, 76, 0
2, 33112, Note_on_c, 0, 75, 73
2, 33301, Note_off_c, 0, 75, 0
2, 33313, Note_on_c, 0, 76, 85
2, 33525, Note_on_c, 0, 80, 65
2, 33725, Note_off_c, 0, 76, 0
2, 33725, Note_on_c, 0, 75, 73
2, 33937, Note_off_c, 0, 80, 0
2, 33937, Note_on_c, 0, 80, 72
2, 33948, Note_off_c, 0, 75, 0
2, 33948, Note_on_c, 0, 76, 48
2, 34137, Note_off_c, 0, 76, 0
2, 34149, Note_on_c, 0, 76, 50
2, 34149, Note_on_c, 0, 73, 83
2, 34149, Note_on_c, 0, 61, 57
2, 34149, Note_on_c, 0, 49, 79
2, 34227, Note_off_c, 0, 80, 0
2, 34329, Note_off_c, 0, 76, 0
2, 34339, Note_on_c, 0, 68, 73
2, 34340, Note_off_c, 0, 61, 0
2, 34551, Note_on_c, 0, 61, 49
2, 34562, Note_on_c, 0, 73, 78
2, 34563, Note_off_c, 0, 73, 0
2, 34752, Note_off_c, 0, 61, 0
2, 34774, Note_off_c, 0, 68, 0
2, 34774, Note_on_c, 0, 75, 74
2, 34774, Note_on_c, 0, 68, 54
2, 34975, Note_off_c, 0, 75, 0
2, 34986, Note_off_c, 0, 73, 0
2, 34986, Note_off_c, 0, 68, 0
2, 34986, Note_on_c, 0, 76, 78
2, 34986, Note_on_c, 0, 73, 41
2, 35120, Note_off_c, 0, 73, 0
2, 35198, Note_on_c, 0, 68, 87
2, 35387, Note_off_c, 0, 76, 0
2, 35398, Note_on_c, 0, 75, 72
2, 35610, Note_off_c, 0, 68, 0
2, 35610, Note_on_c, 0, 68, 92
2, 35632, Note_off_c, 0, 75, 0
2, 35666, Note_on_c, 0, 76, 47
2, 35789, Note_off_c, 0, 49, 0
2, 35811, Note_on_c, 0, 73, 81
2, 36000, Note_off_c, 0, 76, 0
2, 36022, Note_off_c, 0, 68, 0
2, 36022, Note_on_c, 0, 68, 89
2, 36235, Note_on_c, 0, 73, 85
2, 36236, Note_off_c, 0, 73, 0
2, 36436, Note_off_c, 0, 68, 0
2, 36436, Note_on_c, 0, 68, 86
2, 36647, Note_off_c, 0, 73, 0
2, 36648, Note_on_c, 0, 73, 76
2, 36860, Note_off_c, 0, 68, 0
2, 36860, Note_on_c, 0, 68, 85
2, 37060, Note_on_c, 0, 80, 55
2, 37160, Note_on_c, 0, 49, 48
2, 37450, Note_off_c, 0, 80, 0
2, 37472, Note_off_c, 0, 49, 0
2, 37473, Note_off_c, 0, 73, 0
2, 37473, Note_off_c, 0, 68, 0
2, 37484, Note_on_c, 0, 76, 83
2, 37484, Note_on_c, 0, 61, 53
2, 37484, Note_on_c, 0, 49, 85
2, 37863, Note_off_c, 0, 61, 0
2, 37907, Note_on_c, 0, 78, 95
2, 38097, Note_off_c, 0, 76, 0
2, 38119, Note_off_c, 0, 78, 0
2, 38119, Note_on_c, 0, 87, 41
2, 38119, Note_on_c, 0, 78, 64
2, 38119, Note_on_c, 0, 75, 76
2, 38310, Note_on_c, 0, 68, 42
2, 38332, Note_off_c, 0, 87, 0
2, 38444, Note_off_c, 0, 68, 0
2, 38488, Note_off_c, 0, 78, 0
2, 38488, Note_off_c, 0, 75, 0
2, 38521, Note_on_c, 0, 76, 84
2, 38934, Note_off_c, 0, 49, 0
2, 38945, Note_on_c, 0, 73, 89
2, 38945, Note_on_c, 0, 49, 47
2, 39291, Note_off_c, 0, 49, 0
2, 39357, Note_off_c, 0, 76, 0
2, 39380, Note_on_c, 0, 75, 72
2, 39424, Note_off_c, 0, 73, 0
2, 39759, Note_off_c, 0, 75, 0
2, 39781, Note_on_c, 0, 68, 105
2, 39982, Note_on_c, 0, 49, 45
2, 40128, Note_off_c, 0, 49, 0
2, 40195, Note_off_c, 0, 68, 0
2, 40195, Note_on_c, 0, 68, 105
2, 40261, Note_on_c, 0, 49, 52
2, 40551, Note_off_c, 0, 49, 0
2, 40618, Note_on_c, 0, 68, 63
2, 40619, Note_off_c, 0, 68, 0
2, 40819, Note_on_c, 0, 76, 86
2, 40819, Note_on_c, 0, 61, 42
2, 40819, Note_on_c, 0, 49, 83
2, 40964, Note_off_c, 0, 61, 0
2, 41186, Note_off_c, 0, 68, 0
2, 41242, Note_on_c, 0, 78, 93
2, 41454, Note_off_c, 0, 78, 0
2, 41454, Note_on_c, 0, 78, 49
2, 41454, Note_on_c, 0, 68, 42
2, 41465, Note_off_c, 0, 76, 0
2, 41465, Note_on_c, 0, 75, 74
2, 41766, Note_off_c, 0, 78, 0
2, 41822, Note_off_c, 0, 68, 0
2, 41833, Note_off_c, 0, 75, 0
2, 41866, Note_on_c, 0, 76, 74
2, 42236, Note_off_c, 0, 49, 0
2, 42280, Note_on_c, 0, 73, 92
2, 42358, Note_on_c, 0, 49, 55
2, 42625, Note_off_c, 0, 49, 0
2, 42704, Note_on_c, 0, 83, 77
2, 42726, Note_off_c, 0, 73, 0
2, 42770, Note_on_c, 0, 49, 48
2, 43004, Note_off_c, 0, 49, 0
2, 43083, Note_off_c, 0, 83, 0
2, 43093, Note_off_c, 0, 76, 0
2, 43116, Note_on_c, 0, 85, 71
2, 43250, Note_on_c, 0, 49, 58
2, 43417, Note_on_c, 0, 73, 40
2, 43875, Note_off_c, 0, 73, 0
2, 43887, Note_off_c, 0, 49, 0
2, 43920, Note_off_c, 0, 85, 0
2, 43953, Note_on_c, 0, 68, 88
2, 44165, Note_on_c, 0, 76, 82
2, 44165, Note_on_c, 0, 61, 54
2, 44165, Note_on_c, 0, 49, 76
2, 44209, Note_off_c, 0, 68, 0
2, 44533, Note_off_c, 0, 61, 0
2, 44577, Note_on_c, 0, 78, 94
2, 44789, Note_off_c, 0, 78, 0
2, 44789, Note_on_c, 0, 78, 57
2, 44800, Note_off_c, 0, 76, 0
2, 44800, Note_on_c, 0, 75, 76
2, 45157, Note_off_c, 0, 78, 0
2, 45179, Note_off_c, 0, 75, 0
2, 45213, Note_on_c, 0, 76, 81
2, 45625, Note_on_c, 0, 73, 83
2, 45983, Note_off_c, 0, 49, 0
2, 46028, Note_off_c, 0, 76, 0
2, 46039, Note_on_c, 0, 75, 77
2, 46206, Note_off_c, 0, 73, 0
2, 46462, Note_on_c, 0, 68, 106
2, 46474, Note_off_c, 0, 75, 0
2, 46585, Note_on_c, 0, 49, 48
2, 46830, Note_off_c, 0, 49, 0
2, 46874, Note_off_c, 0, 68, 0
2, 46874, Note_on_c, 0, 68, 98
2, 46964, Note_on_c, 0, 49, 57
2, 47499, Note_off_c, 0, 49, 0
2, 47510, Note_on_c, 0, 73, 98
2, 47510, Note_on_c, 0, 61, 47
2, 47510, Note_on_c, 0, 49, 89
2, 47543, Note_off_c, 0, 68, 0
2, 47712, Note_off_c, 0, 73, 0
2, 47712, Note_on_c, 0, 73, 99
2, 47779, Note_off_c, 0, 61, 0
2, 47912, Note_on_c, 0, 61, 37
2, 47923, Note_on_c, 0, 73, 102
2, 47924, Note_off_c, 0, 73, 0
2, 48124, Note_off_c, 0, 73, 0
2, 48124, Note_on_c, 0, 73, 96
2, 48179, Note_off_c, 0, 61, 0
2, 48548, Note_off_c, 0, 49, 0
2, 48548, Note_off_c, 0, 73, 0
2, 48548, Note_on_c, 0, 73, 88
2, 48548, Note_on_c, 0, 49, 67
2, 49976, Note_off_c, 0, 73, 0
2, 49976, Note_off_c, 0, 49, 0
2, 49998, Note_on_c, 0, 74, 61
2, 50209, Note_on_c, 0, 72, 87
2, 50421, Note_on_c, 0, 70, 92
2, 50443, Note_off_c, 0, 72, 0
2, 50644, Note_off_c, 0, 70, 0
2, 50644, Note_on_c, 0, 69, 91
2, 50845, Note_off_c, 0, 74, 0
2, 50845, Note_off_c, 0, 69, 0
2, 50845, Note_on_c, 0, 74, 80
2, 50845, Note_on_c, 0, 69, 45
2, 50845, Note_on_c, 0, 50, 75
2, 51280, Note_off_c, 0, 69, 0
2, 51660, Note_off_c, 0, 74, 0
2, 51671, Note_on_c, 0, 77, 82
2, 51871, Note_on_c, 0, 74, 103
2, 52094, Note_on_c, 0, 77, 71
2, 52095, Note_off_c, 0, 77, 0
2, 52105, Note_off_c, 0, 74, 0
2, 52105, Note_on_c, 0, 74, 107
2, 52306, Note_off_c, 0, 77, 0
2, 52306, Note_off_c, 0, 74, 0
2, 52306, Note_on_c, 0, 77, 56
2, 52306, Note_on_c, 0, 74, 102
2, 52518, Note_off_c, 0, 74, 0
2, 52518, Note_on_c, 0, 74, 68
2, 52696, Note_off_c, 0, 77, 0
2, 52730, Note_on_c, 0, 81, 89
2, 52930, Note_on_c, 0, 81, 87
2, 52931, Note_off_c, 0, 81, 0
2, 53120, Note_off_c, 0, 50, 0
2, 53142, Note_off_c, 0, 81, 0
2, 53142, Note_on_c, 0, 81, 94
2, 53354, Note_off_c, 0, 81, 0
2, 53354, Note_on_c, 0, 81, 80
2, 53400, Note_on_c, 0, 50, 50
2, 53690, Note_off_c, 0, 50, 0
2, 53723, Note_off_c, 0, 74, 0
2, 53734, Note_off_c, 0, 81, 0
2, 53756, Note_on_c, 0, 77, 88
2, 53968, Note_off_c, 0, 77, 0
2, 53968, Note_on_c, 0, 76, 93
2, 54180, Note_off_c, 0, 76, 0
2, 54180, Note_on_c, 0, 77, 42
2, 54180, Note_on_c, 0, 74, 77
2, 54180, Note_on_c, 0, 50, 71
2, 54815, Note_off_c, 0, 77, 0
2, 54994, Note_off_c, 0, 74, 0
2, 55016, Note_on_c, 0, 77, 69
2, 55227, Note_on_c, 0, 74, 100
2, 55440, Note_off_c, 0, 74, 0
2, 55440, Note_on_c, 0, 74, 106
2, 55641, Note_off_c, 0, 74, 0
2, 55641, Note_on_c, 0, 74, 108
2, 55842, Note_off_c, 0, 77, 0
2, 55853, Note_off_c, 0, 74, 0
2, 55853, Note_on_c, 0, 74, 69
2, 56065, Note_on_c, 0, 81, 84
2, 56265, Note_on_c, 0, 81, 84
2, 56266, Note_off_c, 0, 81, 0
2, 56477, Note_off_c, 0, 81, 0
2, 56477, Note_on_c, 0, 81, 87
2, 56656, Note_off_c, 0, 50, 0
2, 56678, Note_off_c, 0, 81, 0
2, 56678, Note_on_c, 0, 81, 75
2, 56778, Note_on_c, 0, 50, 55
2, 57493, Note_off_c, 0, 81, 0
2, 57504, Note_off_c, 0, 50, 0
2, 57515, Note_off_c, 0, 74, 0
2, 57515, Note_on_c, 0, 74, 83
2, 57515, Note_on_c, 0, 50, 72
2, 57526, Note_on_c, 0, 62, 45
2, 57894, Note_off_c, 0, 62, 0
2, 58317, Note_off_c, 0, 74, 0
2, 58362, Note_on_c, 0, 77, 84
2, 58574, Note_on_c, 0, 74, 100
2, 58774, Note_off_c, 0, 77, 0
2, 58774, Note_on_c, 0, 77, 68
2, 58774, Note_on_c, 0, 74, 107
2, 58775, Note_off_c, 0, 74, 0
2, 58986, Note_off_c, 0, 77, 0
2, 58986, Note_off_c, 0, 74, 0
2, 58986, Note_on_c, 0, 77, 55
2, 58986, Note_on_c, 0, 74, 105
2, 59143, Note_off_c, 0, 77, 0
2, 59188, Note_off_c, 0, 74, 0
2, 59188, Note_on_c, 0, 74, 98
2, 59377, Note_off_c, 0, 74, 0
2, 59377, Note_on_c, 0, 74, 56
2, 59388, Note_on_c, 0, 81, 85
2, 59600, Note_off_c, 0, 81, 0
2, 59600, Note_on_c, 0, 81, 88
2, 59801, Note_off_c, 0, 50, 0
2, 59812, Note_off_c, 0, 81, 0
2, 59812, Note_on_c, 0, 81, 87
2, 60024, Note_off_c, 0, 81, 0
2, 60024, Note_on_c, 0, 81, 68
2, 60124, Note_on_c, 0, 50, 46
2, 60202, Note_off_c, 0, 74, 0
2, 60347, Note_off_c, 0, 50, 0
2, 60447, Note_on_c, 0, 77, 84
2, 60526, Note_off_c, 0, 81, 0
2, 60659, Note_off_c, 0, 77, 0
2, 60659, Note_on_c, 0, 76, 63
2, 60860, Note_on_c, 0, 74, 90
2, 60860, Note_on_c, 0, 46, 89
2, 61184, Note_off_c, 0, 76, 0
2, 61273, Note_on_c, 0, 86, 63
2, 61273, Note_on_c, 0, 74, 77
2, 61274, Note_off_c, 0, 74, 0
2, 61607, Note_off_c, 0, 86, 0
2, 61697, Note_off_c, 0, 74, 0
2, 61697, Note_on_c, 0, 74, 99
2, 62109, Note_off_c, 0, 74, 0
2, 62109, Note_on_c, 0, 86, 71
2, 62109, Note_on_c, 0, 74, 82
2, 62421, Note_off_c, 0, 86, 0
2, 62521, Note_off_c, 0, 74, 0
2, 62522, Note_on_c, 0, 74, 72
2, 62744, Note_on_c, 0, 81, 86
2, 62935, Note_off_c, 0, 81, 0
2, 62935, Note_on_c, 0, 81, 88
2, 63158, Note_off_c, 0, 81, 0
2, 63158, Note_on_c, 0, 81, 85
2, 63370, Note_off_c, 0, 81, 0
2, 63370, Note_on_c, 0, 81, 71
2, 63738, Note_off_c, 0, 74, 0
2, 63771, Note_off_c, 0, 46, 0
2, 63782, Note_on_c, 0, 77, 84
2, 63916, Note_off_c, 0, 81, 0
2, 63983, Note_off_c, 0, 77, 0
2, 63983, Note_on_c, 0, 76, 80
2, 64195, Note_on_c, 0, 74, 80
2, 64195, Note_on_c, 0, 50, 72
2, 64273, Note_off_c, 0, 76, 0
2, 64273, Note_on_c, 0, 77, 43
2, 64451, Note_off_c, 0, 77, 0
2, 64876, Note_off_c, 0, 74, 0
2, 65032, Note_on_c, 0, 77, 83
2, 65232, Note_on_c, 0, 74, 98
2, 65444, Note_off_c, 0, 74, 0
2, 65444, Note_on_c, 0, 74, 103
2, 65455, Note_on_c, 0, 77, 54
2, 65456, Note_off_c, 0, 77, 0
2, 65656, Note_off_c, 0, 74, 0
2, 65656, Note_on_c, 0, 74, 101
2, 65834, Note_off_c, 0, 77, 0
2, 65868, Note_off_c, 0, 74, 0
2, 65868, Note_on_c, 0, 74, 74
2, 66079, Note_on_c, 0, 81, 79
2, 66291, Note_off_c, 0, 81, 0
2, 66291, Note_on_c, 0, 81, 82
2, 66470, Note_off_c, 0, 50, 0
2, 66503, Note_off_c, 0, 81, 0
2, 66503, Note_on_c, 0, 81, 89
2, 66626, Note_off_c, 0, 74, 0
2, 66715, Note_off_c, 0, 81, 0
2, 66715, Note_on_c, 0, 81, 80
2, 66749, Note_on_c, 0, 74, 53
2, 66783, Note_on_c, 0, 50, 47
2, 66950, Note_off_c, 0, 74, 0
2, 67039, Note_off_c, 0, 50, 0
2, 67051, Note_off_c, 0, 81, 0
2, 67117, Note_on_c, 0, 77, 89
2, 67318, Note_off_c, 0, 77, 0
2, 67318, Note_on_c, 0, 76, 92
2, 67541, Note_off_c, 0, 76, 0
2, 67541, Note_on_c, 0, 77, 42
2, 67541, Note_on_c, 0, 74, 76
2, 67541, Note_on_c, 0, 50, 72
2, 68154, Note_off_c, 0, 77, 0
2, 68332, Note_off_c, 0, 74, 0
2, 68377, Note_on_c, 0, 77, 82
2, 68588, Note_on_c, 0, 74, 99
2, 68790, Note_off_c, 0, 74, 0
2, 68790, Note_on_c, 0, 77, 62
2, 68790, Note_on_c, 0, 74, 98
2, 68791, Note_off_c, 0, 77, 0
2, 68991, Note_off_c, 0, 77, 0
2, 68991, Note_off_c, 0, 74, 0
2, 68991, Note_on_c, 0, 77, 49
2, 68991, Note_on_c, 0, 74, 99
2, 69203, Note_off_c, 0, 74, 0
2, 69203, Note_on_c, 0, 74, 67
2, 69381, Note_off_c, 0, 77, 0
2, 69426, Note_on_c, 0, 81, 83
2, 69626, Note_on_c, 0, 81, 85
2, 69627, Note_off_c, 0, 81, 0
2, 69782, Note_off_c, 0, 50, 0
2, 69838, Note_off_c, 0, 81, 0
2, 69838, Note_on_c, 0, 81, 89
2, 70039, Note_off_c, 0, 81, 0
2, 70039, Note_on_c, 0, 81, 63
2, 70206, Note_on_c, 0, 50, 52
2, 70843, Note_off_c, 0, 81, 0
2, 70865, Note_off_c, 0, 50, 0
2, 70876, Note_off_c, 0, 74, 0
2, 70876, Note_on_c, 0, 74, 85
2, 70876, Note_on_c, 0, 50, 70
2, 71010, Note_on_c, 0, 62, 42
2, 71166, Note_off_c, 0, 62, 0
2, 71701, Note_off_c, 0, 74, 0
2, 71712, Note_on_c, 0, 77, 68
2, 71923, Note_on_c, 0, 74, 97
2, 72124, Note_off_c, 0, 74, 0
2, 72124, Note_on_c, 0, 74, 103
2, 72336, Note_off_c, 0, 74, 0
2, 72336, Note_on_c, 0, 74, 106
2, 72527, Note_off_c, 0, 77, 0
2, 72549, Note_off_c, 0, 74, 0
2, 72549, Note_on_c, 0, 74, 74
2, 72749, Note_on_c, 0, 81, 83
2, 72961, Note_off_c, 0, 81, 0
2, 72961, Note_on_c, 0, 81, 88
2, 73173, Note_off_c, 0, 81, 0
2, 73173, Note_on_c, 0, 81, 86
2, 73329, Note_off_c, 0, 50, 0
2, 73374, Note_off_c, 0, 74, 0
2, 73385, Note_off_c, 0, 81, 0
2, 73385, Note_on_c, 0, 81, 71
2, 73485, Note_on_c, 0, 50, 52
2, 73730, Note_off_c, 0, 50, 0
2, 73797, Note_on_c, 0, 77, 87
2, 73953, Note_off_c, 0, 81, 0
2, 74020, Note_off_c, 0, 77, 0
2, 74020, Note_on_c, 0, 76, 77
2, 74221, Note_on_c, 0, 74, 80
2, 74221, Note_on_c, 0, 46, 90
2, 74354, Note_off_c, 0, 76, 0
2, 74634, Note_on_c, 0, 86, 61
2, 74946, Note_off_c, 0, 86, 0
2, 75047, Note_off_c, 0, 74, 0
2, 75047, Note_on_c, 0, 74, 98
2, 75459, Note_off_c, 0, 74, 0
2, 75459, Note_on_c, 0, 74, 85
2, 75470, Note_on_c, 0, 86, 69
2, 75827, Note_off_c, 0, 86, 0
2, 75883, Note_off_c, 0, 74, 0
2, 75883, Note_on_c, 0, 74, 75
2, 76105, Note_on_c, 0, 81, 93
2, 76296, Note_off_c, 0, 81, 0
2, 76296, Note_on_c, 0, 81, 95
2, 76508, Note_off_c, 0, 81, 0
2, 76508, Note_on_c, 0, 81, 94
2, 76720, Note_off_c, 0, 81, 0
2, 76720, Note_on_c, 0, 81, 85
2, 77210, Note_off_c, 0, 81, 0
2, 77322, Note_off_c, 0, 46, 0
2, 77355, Note_off_c, 0, 74, 0
2, 77355, Note_on_c, 0, 74, 80
2, 77544, Note_off_c, 0, 74, 0
2, 77556, Note_on_c, 0, 77, 64
2, 77556, Note_on_c, 0, 50, 80
2, 78136, Note_off_c, 0, 77, 0
2, 78180, Note_on_c, 0, 76, 70
2, 78281, Note_on_c, 0, 74, 60
2, 78382, Note_off_c, 0, 76, 0
2, 78382, Note_on_c, 0, 76, 78
2, 78783, Note_off_c, 0, 74, 0
2, 78805, Note_on_c, 0, 72, 88
2, 79184, Note_off_c, 0, 76, 0
2, 79218, Note_on_c, 0, 74, 83
2, 79218, Note_on_c, 0, 46, 89
2, 79229, Note_off_c, 0, 72, 0
2, 79363, Note_off_c, 0, 50, 0
2, 79820, Note_off_c, 0, 74, 0
2, 79853, Note_on_c, 0, 72, 67
2, 79953, Note_on_c, 0, 70, 75
2, 80065, Note_off_c, 0, 72, 0
2, 80065, Note_on_c, 0, 72, 82
2, 80098, Note_off_c, 0, 70, 0
2, 80478, Note_on_c, 0, 69, 98
2, 80557, Note_off_c, 0, 72, 0
2, 80890, Note_off_c, 0, 69, 0
2, 80891, Note_on_c, 0, 70, 79
2, 80891, Note_on_c, 0, 55, 90
2, 80891, Note_on_c, 0, 43, 36
2, 80947, Note_off_c, 0, 46, 0
2, 81136, Note_off_c, 0, 43, 0
2, 81504, Note_off_c, 0, 70, 0
2, 81526, Note_on_c, 0, 69, 80
2, 81593, Note_on_c, 0, 67, 71
2, 81626, Note_on_c, 0, 55, 70
2, 81627, Note_off_c, 0, 55, 0
2, 81727, Note_off_c, 0, 69, 0
2, 81727, Note_on_c, 0, 69, 74
2, 81738, Note_off_c, 0, 67, 0
2, 81738, Note_on_c, 0, 43, 48
2, 81927, Note_off_c, 0, 43, 0
2, 82140, Note_on_c, 0, 43, 58
2, 82151, Note_on_c, 0, 65, 84
2, 82441, Note_off_c, 0, 43, 0
2, 82475, Note_off_c, 0, 69, 0
2, 82563, Note_off_c, 0, 55, 0
2, 82563, Note_off_c, 0, 65, 0
2, 82564, Note_on_c, 0, 64, 82
2, 82564, Note_on_c, 0, 52, 82
2, 82564, Note_on_c, 0, 43, 54
2, 82910, Note_off_c, 0, 43, 0
2, 82965, Note_on_c, 0, 76, 52
2, 82976, Note_off_c, 0, 64, 0
2, 82976, Note_on_c, 0, 69, 91
2, 83076, Note_on_c, 0, 33, 41
2, 83154, Note_off_c, 0, 76, 0
2, 83288, Note_off_c, 0, 33, 0
2, 83388, Note_on_c, 0, 67, 82
2, 83388, Note_on_c, 0, 55, 53
2, 83400, Note_on_c, 0, 43, 43
2, 83422, Note_off_c, 0, 69, 0
2, 83555, Note_off_c, 0, 55, 0
2, 83611, Note_on_c, 0, 65, 71
2, 83644, Note_off_c, 0, 67, 0
2, 83812, Note_off_c, 0, 52, 0
2, 83812, Note_on_c, 0, 52, 60
2, 83823, Note_off_c, 0, 65, 0
2, 83823, Note_on_c, 0, 64, 76
2, 83970, Note_off_c, 0, 43, 0
2, 84014, Note_on_c, 0, 69, 58
2, 84181, Note_off_c, 0, 64, 0
2, 84214, Note_on_c, 0, 50, 71
2, 84237, Note_on_c, 0, 74, 68
2, 84337, Note_off_c, 0, 52, 0
2, 84649, Note_off_c, 0, 69, 0
2, 84649, Note_on_c, 0, 81, 69
2, 84649, Note_on_c, 0, 69, 44
2, 84961, Note_off_c, 0, 81, 0
2, 85073, Note_off_c, 0, 74, 0
2, 85073, Note_on_c, 0, 74, 83
2, 85418, Note_off_c, 0, 69, 0
2, 85485, Note_on_c, 0, 81, 77
2, 85899, Note_off_c, 0, 74, 0
2, 85899, Note_on_c, 0, 74, 74
2, 85910, Note_off_c, 0, 81, 0
2, 86099, Note_on_c, 0, 81, 89
2, 86322, Note_off_c, 0, 81, 0
2, 86322, Note_on_c, 0, 81, 93
2, 86523, Note_off_c, 0, 81, 0
2, 86523, Note_on_c, 0, 81, 87
2, 86667, Note_off_c, 0, 50, 0
2, 86668, Note_off_c, 0, 74, 0
2, 86746, Note_off_c, 0, 81, 0
2, 86746, Note_on_c, 0, 81, 78
2, 86946, Note_on_c, 0, 79, 79
2, 86947, Note_off_c, 0, 81, 0
2, 87158, Note_off_c, 0, 79, 0
2, 87158, Note_on_c, 0, 77, 78
2, 87370, Note_off_c, 0, 77, 0
2, 87370, Note_on_c, 0, 76, 85
2, 87571, Note_on_c, 0, 74, 81
2, 87571, Note_on_c, 0, 46, 98
2, 87615, Note_off_c, 0, 76, 0
2, 87984, Note_on_c, 0, 86, 60
2, 88341, Note_off_c, 0, 86, 0
2, 88408, Note_off_c, 0, 74, 0
2, 88408, Note_on_c, 0, 74, 100
2, 88408, Note_on_c, 0, 67, 39
2, 88408, Note_on_c, 0, 48, 88
2, 88464, Note_off_c, 0, 46, 0
2, 88687, Note_off_c, 0, 67, 0
2, 88820, Note_off_c, 0, 74, 0
2, 88820, Note_on_c, 0, 86, 65
2, 88820, Note_on_c, 0, 74, 81
2, 88820, Note_on_c, 0, 67, 45
2, 89166, Note_off_c, 0, 67, 0
2, 89199, Note_off_c, 0, 86, 0
2, 89232, Note_on_c, 0, 50, 75
2, 89233, Note_off_c, 0, 48, 0
2, 89244, Note_off_c, 0, 74, 0
2, 89244, Note_on_c, 0, 74, 77
2, 89455, Note_on_c, 0, 81, 79
2, 89657, Note_off_c, 0, 81, 0
2, 89657, Note_on_c, 0, 81, 85
2, 89791, Note_off_c, 0, 74, 0
2, 89869, Note_off_c, 0, 81, 0
2, 89869, Note_on_c, 0, 81, 82
2, 90081, Note_off_c, 0, 81, 0
2, 90081, Note_on_c, 0, 81, 79
2, 90281, Note_on_c, 0, 79, 84
2, 90282, Note_off_c, 0, 81, 0
2, 90493, Note_off_c, 0, 79, 0
2, 90493, Note_on_c, 0, 77, 81
2, 90705, Note_off_c, 0, 77, 0
2, 90705, Note_on_c, 0, 76, 55
2, 90906, Note_on_c, 0, 74, 79
2, 90906, Note_on_c, 0, 46, 100
2, 91017, Note_off_c, 0, 50, 0
2, 91564, Note_off_c, 0, 76, 0
2, 91732, Note_off_c, 0, 74, 0
2, 91743, Note_on_c, 0, 81, 82
2, 91743, Note_on_c, 0, 48, 83
2, 91754, Note_off_c, 0, 46, 0
2, 91954, Note_on_c, 0, 79, 73
2, 91954, Note_on_c, 0, 67, 40
2, 91966, Note_off_c, 0, 81, 0
2, 92155, Note_off_c, 0, 79, 0
2, 92166, Note_on_c, 0, 77, 72
2, 92277, Note_off_c, 0, 67, 0
2, 92578, Note_off_c, 0, 77, 0
2, 92579, Note_on_c, 0, 76, 75
2, 92579, Note_on_c, 0, 57, 54
2, 92579, Note_on_c, 0, 45, 92
2, 92679, Note_off_c, 0, 48, 0
2, 93393, Note_off_c, 0, 76, 0
2, 93393, Note_off_c, 0, 57, 0
2, 93426, Note_on_c, 0, 77, 69
2, 93828, Note_off_c, 0, 77, 0
2, 93828, Note_on_c, 0, 76, 71
2, 93828, Note_on_c, 0, 57, 52
2, 94241, Note_off_c, 0, 45, 0
2, 94241, Note_on_c, 0, 74, 90
2, 94241, Note_on_c, 0, 46, 98
2, 94586, Note_off_c, 0, 76, 0
2, 94619, Note_off_c, 0, 57, 0
2, 94675, Note_on_c, 0, 86, 60
2, 94675, Note_on_c, 0, 74, 75
2, 94676, Note_off_c, 0, 74, 0
2, 94798, Note_on_c, 0, 57, 39
2, 94998, Note_off_c, 0, 86, 0
2, 95010, Note_off_c, 0, 57, 0
2, 95087, Note_off_c, 0, 74, 0
2, 95088, Note_on_c, 0, 74, 101
2, 95099, Note_on_c, 0, 48, 86
2, 95144, Note_off_c, 0, 46, 0
2, 95401, Note_on_c, 0, 67, 42
2, 95501, Note_on_c, 0, 86, 60
2, 95501, Note_on_c, 0, 74, 79
2, 95502, Note_off_c, 0, 74, 0
2, 95824, Note_off_c, 0, 86, 0
2, 95825, Note_off_c, 0, 67, 0
2, 95913, Note_off_c, 0, 74, 0
2, 95914, Note_off_c, 0, 48, 0
2, 95914, Note_on_c, 0, 74, 85
2, 95914, Note_on_c, 0, 50, 77
2, 96125, Note_on_c, 0, 62, 50
2, 96137, Note_on_c, 0, 81, 82
2, 96281, Note_off_c, 0, 62, 0
2, 96348, Note_on_c, 0, 81, 81
2, 96349, Note_off_c, 0, 74, 0
2, 96349, Note_off_c, 0, 81, 0
2, 96549, Note_off_c, 0, 81, 0
2, 96549, Note_on_c, 0, 81, 86
2, 96761, Note_off_c, 0, 81, 0
2, 96761, Note_on_c, 0, 81, 79
2, 96972, Note_on_c, 0, 79, 84
2, 96995, Note_off_c, 0, 81, 0
2, 97173, Note_off_c, 0, 79, 0
2, 97173, Note_on_c, 0, 77, 85
2, 97375, Note_off_c, 0, 77, 0
2, 97375, Note_on_c, 0, 76, 87
2, 97565, Note_off_c, 0, 50, 0
2, 97587, Note_on_c, 0, 73, 100
2, 97798, Note_on_c, 0, 76, 66
2, 97798, Note_on_c, 0, 73, 97
2, 97799, Note_off_c, 0, 76, 0
2, 97799, Note_off_c, 0, 73, 0
2, 98010, Note_off_c, 0, 73, 0
2, 98010, Note_on_c, 0, 72, 105
2, 98222, Note_off_c, 0, 72, 0
2, 98222, Note_on_c, 0, 72, 98
2, 98422, Note_off_c, 0, 76, 0
2, 98423, Note_off_c, 0, 72, 0
2, 98423, Note_on_c, 0, 76, 53
2, 98423, Note_on_c, 0, 73, 101
2, 98634, Note_on_c, 0, 73, 99
2, 98635, Note_off_c, 0, 73, 0
2, 98802, Note_off_c, 0, 76, 0
2, 98835, Note_off_c, 0, 73, 0
2, 98835, Note_on_c, 0, 72, 102
2, 99058, Note_off_c, 0, 72, 0
2, 99058, Note_on_c, 0, 72, 97
2, 99260, Note_off_c, 0, 72, 0
2, 99260, Note_on_c, 0, 73, 97
2, 99472, Note_off_c, 0, 73, 0
2, 99472, Note_on_c, 0, 73, 90
2, 99683, Note_on_c, 0, 72, 97
2, 99684, Note_off_c, 0, 73, 0
2, 99884, Note_off_c, 0, 72, 0
2, 99884, Note_on_c, 0, 72, 95
2, 100096, Note_off_c, 0, 72, 0
2, 100096, Note_on_c, 0, 73, 92
2, 100096, Note_on_c, 0, 56, 86
2, 100307, Note_on_c, 0, 73, 93
2, 100307, Note_on_c, 0, 56, 81
2, 100308, Note_off_c, 0, 73, 0
2, 100308, Note_off_c, 0, 56, 0
2, 100508, Note_off_c, 0, 73, 0
2, 100508, Note_on_c, 0, 72, 96
2, 100519, Note_on_c, 0, 44, 41
2, 100719, Note_off_c, 0, 56, 0
2, 100720, Note_off_c, 0, 72, 0
2, 100720, Note_on_c, 0, 72, 96
2, 100720, Note_on_c, 0, 56, 67
2, 100887, Note_off_c, 0, 44, 0
2, 100932, Note_off_c, 0, 72, 0
2, 100932, Note_on_c, 0, 73, 98
2, 101133, Note_on_c, 0, 73, 97
2, 101134, Note_off_c, 0, 73, 0
2, 101345, Note_off_c, 0, 73, 0
2, 101345, Note_on_c, 0, 72, 97
2, 101557, Note_off_c, 0, 72, 0
2, 101557, Note_on_c, 0, 72, 98
2, 101758, Note_off_c, 0, 72, 0
2, 101758, Note_on_c, 0, 73, 102
2, 101969, Note_on_c, 0, 73, 98
2, 101970, Note_off_c, 0, 73, 0
2, 102181, Note_off_c, 0, 73, 0
2, 102181, Note_on_c, 0, 72, 102
2, 102348, Note_off_c, 0, 56, 0
2, 102404, Note_off_c, 0, 72, 0
2, 102404, Note_on_c, 0, 72, 97
2, 102605, Note_off_c, 0, 72, 0
2, 102605, Note_on_c, 0, 73, 93
2, 102605, Note_on_c, 0, 56, 73
2, 102816, Note_on_c, 0, 73, 94
2, 102817, Note_off_c, 0, 73, 0
2, 103007, Note_off_c, 0, 73, 0
2, 103007, Note_on_c, 0, 72, 94
2, 103219, Note_off_c, 0, 72, 0
2, 103219, Note_on_c, 0, 72, 91
2, 103431, Note_off_c, 0, 72, 0
2, 103431, Note_on_c, 0, 73, 96
2, 103642, Note_on_c, 0, 73, 93
2, 103643, Note_off_c, 0, 73, 0
2, 103843, Note_off_c, 0, 73, 0
2, 103843, Note_on_c, 0, 72, 98
2, 104066, Note_off_c, 0, 72, 0
2, 104066, Note_on_c, 0, 72, 93
2, 104267, Note_off_c, 0, 72, 0
2, 104267, Note_on_c, 0, 73, 94
2, 104478, Note_on_c, 0, 73, 95
2, 104479, Note_off_c, 0, 73, 0
2, 104646, Note_off_c, 0, 56, 0
2, 104690, Note_off_c, 0, 73, 0
2, 104690, Note_on_c, 0, 72, 97
2, 104892, Note_off_c, 0, 72, 0
2, 104892, Note_on_c, 0, 72, 94
2, 105093, Note_off_c, 0, 72, 0
2, 105093, Note_on_c, 0, 73, 96
2, 105104, Note_on_c, 0, 56, 84
2, 105304, Note_on_c, 0, 73, 91
2, 105304, Note_on_c, 0, 56, 85
2, 105305, Note_off_c, 0, 73, 0
2, 105305, Note_off_c, 0, 56, 0
2, 105527, Note_off_c, 0, 73, 0
2, 105527, Note_on_c, 0, 72, 100
2, 105728, Note_off_c, 0, 72, 0
2, 105728, Note_on_c, 0, 72, 95
2, 105940, Note_off_c, 0, 72, 0
2, 105940, Note_on_c, 0, 73, 95
2, 105950, Note_off_c, 0, 56, 0
2, 105951, Note_on_c, 0, 56, 62
2, 106151, Note_on_c, 0, 73, 95
2, 106152, Note_off_c, 0, 73, 0
2, 106352, Note_off_c, 0, 73, 0
2, 106352, Note_on_c, 0, 72, 94
2, 106564, Note_off_c, 0, 72, 0
2, 106564, Note_on_c, 0, 72, 90
2, 106776, Note_off_c, 0, 72, 0
2, 106776, Note_on_c, 0, 73, 99
2, 106977, Note_on_c, 0, 73, 65
2, 106978, Note_off_c, 0, 73, 0
2, 107189, Note_on_c, 0, 80, 66
2, 107545, Note_off_c, 0, 73, 0
2, 107568, Note_off_c, 0, 80, 0
2, 107602, Note_on_c, 0, 81, 76
2, 107613, Note_off_c, 0, 56, 0
2, 107613, Note_on_c, 0, 56, 88
2, 107813, Note_on_c, 0, 80, 66
2, 107814, Note_off_c, 0, 81, 0
2, 108002, Note_off_c, 0, 80, 0
2, 108025, Note_on_c, 0, 78, 72
2, 108237, Note_on_c, 0, 80, 58
2, 108248, Note_off_c, 0, 56, 0
2, 108248, Note_on_c, 0, 56, 71
2, 108371, Note_off_c, 0, 78, 0
2, 108437, Note_on_c, 0, 76, 76
2, 108493, Note_off_c, 0, 80, 0
2, 108660, Note_on_c, 0, 78, 90
2, 108851, Note_off_c, 0, 76, 0
2, 108862, Note_off_c, 0, 78, 0
2, 108862, Note_on_c, 0, 78, 64
2, 108862, Note_on_c, 0, 75, 73
2, 109051, Note_off_c, 0, 78, 0
2, 109063, Note_off_c, 0, 75, 0
2, 109063, Note_on_c, 0, 76, 89
2, 109286, Note_off_c, 0, 76, 0
2, 109286, Note_on_c, 0, 75, 80
2, 109475, Note_off_c, 0, 75, 0
2, 109475, Note_on_c, 0, 76, 91
2, 109698, Note_off_c, 0, 76, 0
2, 109698, Note_on_c, 0, 75, 73
2, 109876, Note_off_c, 0, 56, 0
2, 109899, Note_on_c, 0, 72, 93
2, 109943, Note_off_c, 0, 75, 0
2, 109943, Note_on_c, 0, 76, 63
2, 109988, Note_on_c, 0, 44, 37
2, 110099, Note_off_c, 0, 76, 0
2, 110111, Note_off_c, 0, 72, 0
2, 110111, Note_on_c, 0, 76, 57
2, 110111, Note_on_c, 0, 73, 59
2, 110111, Note_on_c, 0, 61, 48
2, 110111, Note_on_c, 0, 49, 89
2, 110200, Note_off_c, 0, 44, 0
2, 110334, Note_off_c, 0, 61, 0
2, 111349, Note_off_c, 0, 76, 0
2, 111405, Note_off_c, 0, 73, 0
2, 111795, Note_on_c, 0, 76, 52
2, 111839, Note_on_c, 0, 73, 50
2, 112485, Note_off_c, 0, 73, 0
2, 112755, Note_off_c, 0, 76, 0
2, 112899, Note_on_c, 0, 68, 47
2, 113034, Note_off_c, 0, 49, 0
2, 113290, Note_on_c, 0, 56, 50
2, 113368, Note_on_c, 0, 76, 46
2, 113368, Note_on_c, 0, 49, 65
2, 113702, Note_off_c, 0, 76, 0
2, 114114, Note_off_c, 0, 68, 0
2, 114204, Note_off_c, 0, 56, 0
2, 114249, Note_off_c, 0, 49, 0
2, 117293, Note_on_c, 0, 73, 67
2, 117304, Note_on_c, 0, 61, 89
2, 117338, Note_on_c, 0, 68, 45
2, 117583, Note_off_c, 0, 68, 0
2, 117583, Note_on_c, 0, 80, 70
2, 117594, Note_off_c, 0, 61, 0
2, 117594, Note_on_c, 0, 68, 87
2, 117594, Note_on_c, 0, 61, 79
2, 117873, Note_off_c, 0, 73, 0
2, 117884, Note_on_c, 0, 49, 71
2, 117962, Note_off_c, 0, 80, 0
2, 118096, Note_on_c, 0, 73, 83
2, 118096, Note_on_c, 0, 77, 70
2, 118096, Note_on_c, 0, 80, 54
2, 118354, Note_off_c, 0, 80, 0
2, 118476, Note_off_c, 0, 49, 0
2, 118476, Note_off_c, 0, 77, 0
2, 118487, Note_off_c, 0, 68, 0
2, 118487, Note_off_c, 0, 61, 0
2, 118487, Note_off_c, 0, 73, 0
2, 118487, Note_on_c, 0, 65, 0
2, 118498, Note_off_c, 0, 65, 0
2, 118498, End_track
0, 0, End_of_file
