0, 0, Header, 1, 2, 480
1, 0, Start_track
1, 0, Title_t, ""
1, 0, Tempo, 500000
1, 0, End_track
2, 0, Start_track
2, 0, Title_t, ""
2, 0, Program_c, 0, 4
2, 1304, Note_on_c, 0, 59, 98
2, 1538, Note_off_c, 0, 59, 0
2, 1538, Note_on_c, 0, 59, 98
2, 1783, Note_off_c, 0, 59, 0
2, 1783, Note_on_c, 0, 59, 71
2, 1906, Note_on_c, 0, 57, 79
2, 2130, Note_off_c, 0, 59, 0
2, 2130, Note_on_c, 0, 59, 79
2, 2286, Note_off_c, 0, 57, 0
2, 2364, Note_on_c, 0, 62, 88
2, 2442, Note_off_c, 0, 59, 0
2, 2620, Note_on_c, 0, 59, 90
2, 2631, Note_off_c, 0, 62, 0
2, 2855, Note_on_c, 0, 54, 79
2, 2876, Note_off_c, 0, 59, 0
2, 2977, Note_on_c, 0, 57, 86
2, 3167, Note_off_c, 0, 54, 0
2, 3222, Note_on_c, 0, 59, 85
2, 3423, Note_off_c, 0, 57, 0
2, 3467, Note_off_c, 0, 59, 0
2, 3468, Note_on_c, 0, 59, 91
2, 3702, Note_off_c, 0, 59, 0
2, 3702, Note_on_c, 0, 59, 67
2, 3814, Note_on_c, 0, 57, 79
2, 4048, Note_on_c, 0, 59, 73
2, 4049, Note_off_c, 0, 59, 0
2, 4137, Note_off_c, 0, 57, 0
2, 4294, Note_on_c, 0, 65, 101
2, 4427, Note_off_c, 0, 59, 0
2, 4539, Note_off_c, 0, 65, 0
2, 4539, Note_on_c, 0, 64, 85
2, 4773, Note_on_c, 0, 62, 77
2, 4829, Note_off_c, 0, 64, 0
2, 4907, Note_on_c, 0, 57, 86
2, 5052, Note_off_c, 0, 62, 0
2, 5174, Note_on_c, 0, 59, 90
2, 5331, Note_off_c, 0, 57, 0
2, 5352, Note_off_c, 0, 59, 0
2, 5352, Note_on_c, 0, 59, 93
2, 5597, Note_off_c, 0, 59, 0
2, 5598, Note_on_c, 0, 59, 71
2, 5720, Note_on_c, 0, 57, 82
2, 5944, Note_on_c, 0, 59, 69
2, 5945, Note_off_c, 0, 59, 0
2, 6044, Note_off_c, 0, 57, 0
2, 6178, Note_on_c, 0, 62, 91
2, 6434, Note_off_c, 0, 59, 0
2, 6434, Note_off_c, 0, 62, 0
2, 6435, Note_on_c, 0, 59, 90
2, 6680, Note_on_c, 0, 54, 77
2, 6702, Note_off_c, 0, 59, 0
2, 6803, Note_on_c, 0, 57, 88
2, 6981, Note_off_c, 0, 54, 0
2, 7037, Note_on_c, 0, 59, 89
2, 7249, Note_off_c, 0, 57, 0
2, 7282, Note_off_c, 0, 59, 0
2, 7282, Note_on_c, 0, 59, 96
2, 7516, Note_off_c, 0, 59, 0
2, 7516, Note_on_c, 0, 71, 46
2, 7516, Note_on_c, 0, 59, 77
2, 7629, Note_on_c, 0, 57, 73
2, 7740, Note_off_c, 0, 71, 0
2, 7740, Note_on_c, 0, 71, 52
2, 7751, Note_off_c, 0, 59, 0
2, 7751, Note_on_c, 0, 59, 74
2, 7863, Note_on_c, 0, 62, 83
2, 7907, Note_off_c, 0, 71, 0
2, 7952, Note_off_c, 0, 57, 0
2, 8074, Note_off_c, 0, 59, 0
2, 8108, Note_on_c, 0, 65, 101
2, 8119, Note_off_c, 0, 62, 0
2, 8364, Note_off_c, 0, 65, 0
2, 8364, Note_on_c, 0, 64, 88
2, 8587, Note_on_c, 0, 62, 76
2, 8598, Note_off_c, 0, 64, 0
2, 8721, Note_on_c, 0, 57, 85
2, 8877, Note_off_c, 0, 62, 0
2, 8955, Note_on_c, 0, 59, 48
2, 8955, Note_on_c, 0, 47, 91
2, 9145, Note_off_c, 0, 57, 0
2, 9189, Note_off_c, 0, 59, 0
2, 9189, Note_on_c, 0, 59, 83
2, 9200, Note_off_c, 0, 47, 0
2, 9200, Note_on_c, 0, 47, 75
2, 9434, Note_off_c, 0, 59, 0
2, 9434, Note_off_c, 0, 47, 0
2, 9434, Note_on_c, 0, 59, 52
2, 9434, Note_on_c, 0, 47, 77
2, 9456, Note_on_c, 0, 71, 50
2, 9558, Note_on_c, 0, 57, 87
2, 9580, Note_off_c, 0, 71, 0
2, 9792, Note_off_c, 0, 59, 0
2, 9792, Note_on_c, 0, 59, 87
2, 9803, Note_off_c, 0, 57, 0
2, 9903, Note_off_c, 0, 47, 0
2, 9903, Note_on_c, 0, 66, 36
2, 9903, Note_on_c, 0, 47, 75
2, 9948, Note_off_c, 0, 59, 0
2, 10026, Note_on_c, 0, 62, 83
2, 10159, Note_off_c, 0, 66, 0
2, 10271, Note_off_c, 0, 62, 0
2, 10271, Note_on_c, 0, 59, 84
2, 10393, Note_off_c, 0, 47, 0
2, 10394, Note_on_c, 0, 47, 75
2, 10438, Note_off_c, 0, 59, 0
2, 10516, Note_on_c, 0, 54, 73
2, 10639, Note_on_c, 0, 57, 87
2, 10673, Note_off_c, 0, 47, 0
2, 10806, Note_off_c, 0, 54, 0
2, 10873, Note_on_c, 0, 59, 55
2, 10873, Note_on_c, 0, 47, 95
2, 11074, Note_off_c, 0, 57, 0
2, 11118, Note_off_c, 0, 59, 0
2, 11118, Note_off_c, 0, 47, 0
2, 11118, Note_on_c, 0, 59, 84
2, 11118, Note_on_c, 0, 47, 73
2, 11363, Note_off_c, 0, 59, 0
2, 11363, Note_off_c, 0, 47, 0
2, 11364, Note_on_c, 0, 59, 50
2, 11364, Note_on_c, 0, 47, 72
2, 11476, Note_on_c, 0, 57, 84
2, 11710, Note_on_c, 0, 59, 85
2, 11711, Note_off_c, 0, 59, 0
2, 11721, Note_off_c, 0, 57, 0
2, 11822, Note_off_c, 0, 47, 0
2, 11822, Note_on_c, 0, 47, 69
2, 11866, Note_off_c, 0, 59, 0
2, 11944, Note_on_c, 0, 65, 91
2, 12200, Note_off_c, 0, 65, 0
2, 12201, Note_on_c, 0, 64, 83
2, 12301, Note_off_c, 0, 47, 0
2, 12301, Note_on_c, 0, 47, 60
2, 12413, Note_off_c, 0, 64, 0
2, 12424, Note_on_c, 0, 62, 70
2, 12557, Note_on_c, 0, 57, 86
2, 12703, Note_off_c, 0, 62, 0
2, 12803, Note_off_c, 0, 47, 0
2, 12803, Note_on_c, 0, 59, 60
2, 12803, Note_on_c, 0, 47, 97
2, 12992, Note_off_c, 0, 57, 0
2, 13037, Note_off_c, 0, 59, 0
2, 13037, Note_off_c, 0, 47, 0
2, 13037, Note_on_c, 0, 59, 89
2, 13037, Note_on_c, 0, 47, 79
2, 13282, Note_off_c, 0, 59, 0
2, 13282, Note_off_c, 0, 47, 0
2, 13282, Note_on_c, 0, 71, 48
2, 13282, Note_on_c, 0, 59, 62
2, 13282, Note_on_c, 0, 47, 76
2, 13394, Note_on_c, 0, 57, 87
2, 13406, Note_off_c, 0, 71, 0
2, 13473, Note_off_c, 0, 59, 0
2, 13629, Note_on_c, 0, 59, 88
2, 13650, Note_off_c, 0, 57, 0
2, 13740, Note_off_c, 0, 47, 0
2, 13740, Note_on_c, 0, 47, 73
2, 13751, Note_on_c, 0, 66, 39
2, 13785, Note_off_c, 0, 59, 0
2, 13863, Note_on_c, 0, 62, 81
2, 13974, Note_off_c, 0, 66, 0
2, 14108, Note_off_c, 0, 62, 0
2, 14108, Note_on_c, 0, 59, 88
2, 14230, Note_off_c, 0, 47, 0
2, 14230, Note_on_c, 0, 47, 61
2, 14275, Note_off_c, 0, 59, 0
2, 14353, Note_on_c, 0, 54, 78
2, 14487, Note_on_c, 0, 57, 86
2, 14665, Note_off_c, 0, 54, 0
2, 14709, Note_off_c, 0, 47, 0
2, 14710, Note_on_c, 0, 47, 97
2, 14721, Note_on_c, 0, 59, 58
2, 14911, Note_off_c, 0, 57, 0
2, 14955, Note_off_c, 0, 47, 0
2, 14955, Note_off_c, 0, 59, 0
2, 14955, Note_on_c, 0, 59, 87
2, 14955, Note_on_c, 0, 47, 76
2, 15200, Note_off_c, 0, 59, 0
2, 15200, Note_off_c, 0, 47, 0
2, 15200, Note_on_c, 0, 59, 68
2, 15200, Note_on_c, 0, 47, 71
2, 15391, Note_off_c, 0, 59, 0
2, 15424, Note_on_c, 0, 57, 77
2, 15547, Note_on_c, 0, 59, 81
2, 15658, Note_off_c, 0, 47, 0
2, 15658, Note_on_c, 0, 47, 90
2, 15703, Note_off_c, 0, 59, 0
2, 15848, Note_off_c, 0, 57, 0
2, 16349, Note_off_c, 0, 47, 0
2, 16639, Note_on_c, 0, 71, 84
2, 16639, Note_on_c, 0, 47, 89
2, 16873, Note_off_c, 0, 71, 0
2, 16873, Note_on_c, 0, 71, 93
2, 17118, Note_off_c, 0, 47, 0
2, 17118, Note_off_c, 0, 71, 0
2, 17118, Note_on_c, 0, 71, 85
2, 17118, Note_on_c, 0, 47, 84
2, 17231, Note_on_c, 0, 69, 95
2, 17231, Note_on_c, 0, 66, 52
2, 17275, Note_off_c, 0, 71, 0
2, 17409, Note_off_c, 0, 66, 0
2, 17476, Note_off_c, 0, 69, 0
2, 17476, Note_on_c, 0, 71, 90
2, 17587, Note_off_c, 0, 47, 0
2, 17588, Note_on_c, 0, 47, 82
2, 17643, Note_off_c, 0, 71, 0
2, 17710, Note_on_c, 0, 74, 92
2, 17933, Note_off_c, 0, 74, 0
2, 17955, Note_on_c, 0, 71, 90
2, 18122, Note_off_c, 0, 71, 0
2, 18190, Note_off_c, 0, 47, 0
2, 18190, Note_on_c, 0, 66, 77
2, 18190, Note_on_c, 0, 47, 82
2, 18312, Note_on_c, 0, 69, 97
2, 18557, Note_on_c, 0, 71, 70
2, 18557, Note_on_c, 0, 47, 88
2, 18558, Note_off_c, 0, 47, 0
2, 18579, Note_off_c, 0, 69, 0
2, 18580, Note_off_c, 0, 66, 0
2, 18791, Note_off_c, 0, 71, 0
2, 18791, Note_on_c, 0, 71, 89
2, 19036, Note_off_c, 0, 71, 0
2, 19037, Note_on_c, 0, 71, 86
2, 19037, Note_on_c, 0, 66, 27
2, 19047, Note_off_c, 0, 47, 0
2, 19048, Note_on_c, 0, 47, 87
2, 19160, Note_on_c, 0, 69, 94
2, 19160, Note_on_c, 0, 66, 53
2, 19161, Note_off_c, 0, 66, 0
2, 19194, Note_off_c, 0, 71, 0
2, 19327, Note_off_c, 0, 66, 0
2, 19394, Note_off_c, 0, 69, 0
2, 19394, Note_on_c, 0, 71, 92
2, 19517, Note_off_c, 0, 47, 0
2, 19517, Note_on_c, 0, 47, 89
2, 19583, Note_off_c, 0, 71, 0
2, 19629, Note_on_c, 0, 77, 82
2, 19841, Note_off_c, 0, 77, 0
2, 19874, Note_on_c, 0, 76, 86
2, 19996, Note_off_c, 0, 47, 0
2, 19996, Note_on_c, 0, 47, 87
2, 20086, Note_off_c, 0, 76, 0
2, 20108, Note_on_c, 0, 74, 83
2, 20230, Note_on_c, 0, 66, 54
2, 20242, Note_on_c, 0, 69, 98
2, 20375, Note_off_c, 0, 74, 0
2, 20464, Note_off_c, 0, 66, 0
2, 20464, Note_on_c, 0, 71, 75
2, 20486, Note_off_c, 0, 47, 0
2, 20487, Note_on_c, 0, 47, 86
2, 20509, Note_off_c, 0, 69, 0
2, 20720, Note_off_c, 0, 71, 0
2, 20721, Note_on_c, 0, 71, 82
2, 20955, Note_off_c, 0, 71, 0
2, 20955, Note_on_c, 0, 71, 85
2, 20955, Note_on_c, 0, 66, 26
2, 20966, Note_off_c, 0, 47, 0
2, 20966, Note_on_c, 0, 47, 82
2, 21079, Note_off_c, 0, 66, 0
2, 21079, Note_on_c, 0, 69, 92
2, 21079, Note_on_c, 0, 66, 54
2, 21112, Note_off_c, 0, 71, 0
2, 21235, Note_off_c, 0, 66, 0
2, 21302, Note_off_c, 0, 69, 0
2, 21313, Note_on_c, 0, 71, 90
2, 21424, Note_off_c, 0, 47, 0
2, 21424, Note_on_c, 0, 47, 85
2, 21491, Note_off_c, 0, 71, 0
2, 21547, Note_on_c, 0, 74, 88
2, 21759, Note_off_c, 0, 74, 0
2, 21792, Note_on_c, 0, 71, 88
2, 21959, Note_off_c, 0, 71, 0
2, 22026, Note_off_c, 0, 47, 0
2, 22026, Note_on_c, 0, 66, 76
2, 22026, Note_on_c, 0, 47, 84
2, 22160, Note_on_c, 0, 69, 97
2, 22394, Note_on_c, 0, 71, 66
2, 22405, Note_off_c, 0, 47, 0
2, 22405, Note_on_c, 0, 47, 88
2, 22427, Note_off_c, 0, 69, 0
2, 22438, Note_off_c, 0, 66, 0
2, 22639, Note_off_c, 0, 71, 0
2, 22639, Note_on_c, 0, 71, 88
2, 22873, Note_off_c, 0, 71, 0
2, 22873, Note_on_c, 0, 71, 71
2, 22873, Note_on_c, 0, 66, 38
2, 22884, Note_off_c, 0, 47, 0
2, 22884, Note_on_c, 0, 47, 80
2, 22997, Note_on_c, 0, 69, 84
2, 23097, Note_off_c, 0, 66, 0
2, 23108, Note_off_c, 0, 71, 0
2, 23108, Note_on_c, 0, 71, 75
2, 23198, Note_off_c, 0, 69, 0
2, 23220, Note_on_c, 0, 74, 89
2, 23309, Note_off_c, 0, 71, 0
2, 23342, Note_off_c, 0, 47, 0
2, 23342, Note_on_c, 0, 47, 87
2, 23443, Note_off_c, 0, 74, 0
2, 23454, Note_on_c, 0, 77, 78
2, 23688, Note_off_c, 0, 77, 0
2, 23710, Note_on_c, 0, 76, 86
2, 23832, Note_off_c, 0, 47, 0
2, 23833, Note_on_c, 0, 47, 87
2, 23911, Note_off_c, 0, 76, 0
2, 23944, Note_on_c, 0, 74, 84
2, 24078, Note_on_c, 0, 69, 100
2, 24078, Note_on_c, 0, 66, 53
2, 24234, Note_off_c, 0, 74, 0
2, 24312, Note_on_c, 0, 71, 69
2, 24323, Note_off_c, 0, 47, 0
2, 24323, Note_on_c, 0, 47, 90
2, 24345, Note_off_c, 0, 69, 0
2, 24379, Note_off_c, 0, 66, 0
2, 24557, Note_off_c, 0, 71, 0
2, 24557, Note_on_c, 0, 71, 87
2, 24791, Note_on_c, 0, 66, 25
2, 24792, Note_off_c, 0, 47, 0
2, 24792, Note_off_c, 0, 71, 0
2, 24793, Note_on_c, 0, 71, 86
2, 24793, Note_on_c, 0, 47, 84
2, 24915, Note_off_c, 0, 66, 0
2, 24915, Note_on_c, 0, 69, 92
2, 24915, Note_on_c, 0, 66, 53
2, 24960, Note_off_c, 0, 71, 0
2, 25082, Note_off_c, 0, 66, 0
2, 25138, Note_off_c, 0, 69, 0
2, 25149, Note_on_c, 0, 71, 90
2, 25272, Note_off_c, 0, 47, 0
2, 25272, Note_on_c, 0, 47, 83
2, 25316, Note_off_c, 0, 71, 0
2, 25383, Note_on_c, 0, 74, 89
2, 25617, Note_off_c, 0, 74, 0
2, 25629, Note_on_c, 0, 71, 87
2, 25796, Note_off_c, 0, 71, 0
2, 25874, Note_off_c, 0, 47, 0
2, 25874, Note_on_c, 0, 66, 77
2, 25874, Note_on_c, 0, 47, 84
2, 25996, Note_on_c, 0, 69, 96
2, 26230, Note_on_c, 0, 71, 69
2, 26242, Note_off_c, 0, 66, 0
2, 26242, Note_off_c, 0, 47, 0
2, 26242, Note_on_c, 0, 47, 86
2, 26263, Note_off_c, 0, 69, 0
2, 26475, Note_off_c, 0, 71, 0
2, 26476, Note_on_c, 0, 71, 84
2, 26700, Note_off_c, 0, 71, 0
2, 26700, Note_on_c, 0, 71, 85
2, 26700, Note_on_c, 0, 66, 28
2, 26711, Note_off_c, 0, 47, 0
2, 26711, Note_on_c, 0, 47, 84
2, 26834, Note_on_c, 0, 69, 91
2, 26845, Note_off_c, 0, 66, 0
2, 26845, Note_on_c, 0, 66, 54
2, 26889, Note_off_c, 0, 71, 0
2, 27012, Note_off_c, 0, 66, 0
2, 27068, Note_off_c, 0, 69, 0
2, 27068, Note_on_c, 0, 71, 91
2, 27190, Note_off_c, 0, 47, 0
2, 27190, Note_on_c, 0, 47, 87
2, 27257, Note_off_c, 0, 71, 0
2, 27302, Note_on_c, 0, 77, 82
2, 27503, Note_off_c, 0, 77, 0
2, 27547, Note_on_c, 0, 76, 85
2, 27669, Note_off_c, 0, 47, 0
2, 27669, Note_on_c, 0, 47, 87
2, 27759, Note_off_c, 0, 76, 0
2, 27781, Note_on_c, 0, 74, 83
2, 27915, Note_on_c, 0, 69, 97
2, 27915, Note_on_c, 0, 66, 52
2, 28048, Note_off_c, 0, 74, 0
2, 28149, Note_on_c, 0, 71, 70
2, 28159, Note_off_c, 0, 47, 0
2, 28160, Note_on_c, 0, 47, 89
2, 28194, Note_off_c, 0, 69, 0
2, 28238, Note_off_c, 0, 66, 0
2, 28405, Note_off_c, 0, 71, 0
2, 28405, Note_on_c, 0, 71, 82
2, 28629, Note_off_c, 0, 71, 0
2, 28629, Note_on_c, 0, 71, 83
2, 28629, Note_on_c, 0, 66, 24
2, 28640, Note_off_c, 0, 47, 0
2, 28640, Note_on_c, 0, 47, 81
2, 28752, Note_on_c, 0, 69, 87
2, 28763, Note_off_c, 0, 66, 0
2, 28763, Note_on_c, 0, 66, 52
2, 28796, Note_off_c, 0, 71, 0
2, 28919, Note_off_c, 0, 66, 0
2, 28986, Note_off_c, 0, 69, 0
2, 28986, Note_on_c, 0, 71, 87
2, 29108, Note_off_c, 0, 47, 0
2, 29108, Note_on_c, 0, 47, 84
2, 29164, Note_off_c, 0, 71, 0
2, 29220, Note_on_c, 0, 74, 90
2, 29443, Note_off_c, 0, 74, 0
2, 29476, Note_on_c, 0, 71, 88
2, 29632, Note_off_c, 0, 71, 0
2, 29710, Note_off_c, 0, 47, 0
2, 29710, Note_on_c, 0, 66, 76
2, 29710, Note_on_c, 0, 47, 86
2, 29833, Note_on_c, 0, 69, 98
2, 30078, Note_on_c, 0, 71, 68
2, 30089, Note_off_c, 0, 47, 0
2, 30089, Note_on_c, 0, 47, 87
2, 30112, Note_off_c, 0, 69, 0
2, 30145, Note_off_c, 0, 66, 0
2, 30323, Note_off_c, 0, 71, 0
2, 30323, Note_on_c, 0, 71, 84
2, 30547, Note_off_c, 0, 71, 0
2, 30547, Note_on_c, 0, 71, 83
2, 30558, Note_off_c, 0, 47, 0
2, 30559, Note_on_c, 0, 47, 80
2, 30736, Note_off_c, 0, 71, 0
2, 30793, Note_on_c, 0, 69, 84
2, 30904, Note_on_c, 0, 71, 88
2, 31005, Note_off_c, 0, 69, 0
2, 31027, Note_off_c, 0, 47, 0
2, 31027, Note_on_c, 0, 47, 88
2, 31082, Note_off_c, 0, 71, 0
2, 31517, Note_on_c, 0, 71, 43
2, 31517, Note_on_c, 0, 59, 78
2, 31595, Note_off_c, 0, 47, 0
2, 31629, Note_on_c, 0, 62, 77
2, 31684, Note_off_c, 0, 71, 0
2, 31762, Note_on_c, 0, 64, 76
2, 31784, Note_off_c, 0, 59, 0
2, 31841, Note_off_c, 0, 62, 0
2, 31951, Note_off_c, 0, 64, 0
2, 31996, Note_on_c, 0, 66, 71
2, 31996, Note_on_c, 0, 47, 94
2, 32465, Note_off_c, 0, 47, 0
2, 32466, Note_on_c, 0, 47, 95
2, 32633, Note_off_c, 0, 66, 0
2, 32945, Note_off_c, 0, 47, 0
2, 32945, Note_on_c, 0, 47, 92
2, 33201, Note_off_c, 0, 47, 0
2, 33201, Note_on_c, 0, 59, 80
2, 33201, Note_on_c, 0, 47, 86
2, 33424, Note_off_c, 0, 47, 0
2, 33424, Note_on_c, 0, 66, 43
2, 33424, Note_on_c, 0, 47, 79
2, 33435, Note_on_c, 0, 62, 76
2, 33457, Note_off_c, 0, 59, 0
2, 33680, Note_off_c, 0, 66, 0
2, 33681, Note_on_c, 0, 69, 101
2, 33681, Note_on_c, 0, 66, 48
2, 33803, Note_off_c, 0, 62, 0
2, 33915, Note_off_c, 0, 69, 0
2, 33915, Note_on_c, 0, 68, 88
2, 33926, Note_off_c, 0, 47, 0
2, 33926, Note_on_c, 0, 47, 95
2, 33971, Note_off_c, 0, 66, 0
2, 34384, Note_off_c, 0, 47, 0
2, 34384, Note_on_c, 0, 47, 96
2, 34719, Note_off_c, 0, 68, 0
2, 34874, Note_off_c, 0, 47, 0
2, 34874, Note_on_c, 0, 47, 89
2, 35108, Note_on_c, 0, 66, 82
2, 35353, Note_off_c, 0, 47, 0
2, 35354, Note_on_c, 0, 47, 84
2, 35476, Note_on_c, 0, 64, 89
2, 35498, Note_off_c, 0, 66, 0
2, 35833, Note_off_c, 0, 47, 0
2, 35833, Note_on_c, 0, 66, 71
2, 35833, Note_on_c, 0, 47, 92
2, 35855, Note_off_c, 0, 64, 0
2, 36313, Note_off_c, 0, 47, 0
2, 36313, Note_on_c, 0, 47, 97
2, 36514, Note_off_c, 0, 66, 0
2, 36792, Note_off_c, 0, 47, 0
2, 36793, Note_on_c, 0, 47, 95
2, 37272, Note_off_c, 0, 47, 0
2, 37272, Note_on_c, 0, 47, 95
2, 37751, Note_off_c, 0, 47, 0
2, 37751, Note_on_c, 0, 47, 91
2, 38243, Note_on_c, 0, 44, 91
2, 38343, Note_off_c, 0, 47, 0
2, 38722, Note_off_c, 0, 44, 0
2, 38722, Note_on_c, 0, 45, 90
2, 39190, Note_on_c, 0, 71, 46
2, 39201, Note_off_c, 0, 45, 0
2, 39201, Note_on_c, 0, 59, 78
2, 39302, Note_on_c, 0, 62, 77
2, 39302, Note_on_c, 0, 46, 74
2, 39324, Note_off_c, 0, 71, 0
2, 39446, Note_off_c, 0, 59, 0
2, 39447, Note_on_c, 0, 64, 71
2, 39503, Note_off_c, 0, 62, 0
2, 39636, Note_off_c, 0, 64, 0
2, 39659, Note_off_c, 0, 46, 0
2, 39681, Note_on_c, 0, 66, 70
2, 39681, Note_on_c, 0, 47, 94
2, 40150, Note_off_c, 0, 47, 0
2, 40150, Note_on_c, 0, 47, 92
2, 40306, Note_off_c, 0, 66, 0
2, 40629, Note_off_c, 0, 47, 0
2, 40629, Note_on_c, 0, 47, 90
2, 40874, Note_off_c, 0, 47, 0
2, 40874, Note_on_c, 0, 59, 80
2, 40874, Note_on_c, 0, 47, 82
2, 41108, Note_off_c, 0, 47, 0
2, 41108, Note_on_c, 0, 66, 43
2, 41108, Note_on_c, 0, 62, 76
2, 41108, Note_on_c, 0, 47, 79
2, 41130, Note_off_c, 0, 59, 0
2, 41364, Note_off_c, 0, 66, 0
2, 41365, Note_on_c, 0, 69, 100
2, 41365, Note_on_c, 0, 66, 47
2, 41454, Note_off_c, 0, 62, 0
2, 41599, Note_off_c, 0, 69, 0
2, 41599, Note_on_c, 0, 68, 93
2, 41621, Note_off_c, 0, 47, 0
2, 41621, Note_on_c, 0, 47, 96
2, 41644, Note_off_c, 0, 66, 0
2, 42068, Note_off_c, 0, 47, 0
2, 42068, Note_on_c, 0, 47, 90
2, 42280, Note_off_c, 0, 68, 0
2, 42313, Note_on_c, 0, 69, 73
2, 42313, Note_on_c, 0, 66, 53
2, 42558, Note_off_c, 0, 47, 0
2, 42558, Note_off_c, 0, 66, 0
2, 42559, Note_on_c, 0, 66, 49
2, 42559, Note_on_c, 0, 47, 94
2, 42704, Note_off_c, 0, 66, 0
2, 42937, Note_off_c, 0, 69, 0
2, 43038, Note_off_c, 0, 47, 0
2, 43038, Note_on_c, 0, 71, 75
2, 43038, Note_on_c, 0, 59, 36
2, 43038, Note_on_c, 0, 47, 86
2, 43172, Note_off_c, 0, 59, 0
2, 43495, Note_off_c, 0, 71, 0
2, 43517, Note_on_c, 0, 68, 99
2, 43539, Note_on_c, 0, 47, 83
2, 43540, Note_off_c, 0, 47, 0
2, 43864, Note_on_c, 0, 66, 70
2, 43875, Note_off_c, 0, 68, 0
2, 43986, Note_off_c, 0, 47, 0
2, 43987, Note_on_c, 0, 47, 93
2, 44477, Note_off_c, 0, 47, 0
2, 44477, Note_on_c, 0, 47, 91
2, 44533, Note_off_c, 0, 66, 0
2, 44956, Note_off_c, 0, 47, 0
2, 44956, Note_on_c, 0, 47, 95
2, 45435, Note_off_c, 0, 47, 0
2, 45435, Note_on_c, 0, 47, 86
2, 45927, Note_on_c, 0, 44, 92
2, 46072, Note_off_c, 0, 47, 0
2, 46406, Note_off_c, 0, 44, 0
2, 46406, Note_on_c, 0, 45, 92
2, 46874, Note_on_c, 0, 71, 81
2, 46885, Note_off_c, 0, 45, 0
2, 46886, Note_on_c, 0, 46, 89
2, 46986, Note_on_c, 0, 74, 81
2, 47119, Note_off_c, 0, 71, 0
2, 47175, Note_off_c, 0, 74, 0
2, 47220, Note_on_c, 0, 77, 77
2, 47343, Note_off_c, 0, 46, 0
2, 47354, Note_off_c, 0, 77, 0
2, 47354, Note_on_c, 0, 78, 71
2, 47354, Note_on_c, 0, 66, 42
2, 47365, Note_on_c, 0, 47, 94
2, 47621, Note_off_c, 0, 78, 0
2, 47701, Note_off_c, 0, 66, 0
2, 47834, Note_off_c, 0, 47, 0
2, 47834, Note_on_c, 0, 47, 97
2, 48313, Note_off_c, 0, 47, 0
2, 48313, Note_on_c, 0, 47, 89
2, 48548, Note_on_c, 0, 71, 93
2, 48559, Note_on_c, 0, 59, 44
2, 48693, Note_off_c, 0, 59, 0
2, 48782, Note_on_c, 0, 74, 89
2, 48792, Note_off_c, 0, 47, 0
2, 48793, Note_on_c, 0, 47, 87
2, 48849, Note_off_c, 0, 71, 0
2, 49027, Note_on_c, 0, 81, 77
2, 49105, Note_off_c, 0, 74, 0
2, 49283, Note_off_c, 0, 47, 0
2, 49283, Note_off_c, 0, 81, 0
2, 49283, Note_on_c, 0, 80, 82
2, 49283, Note_on_c, 0, 47, 102
2, 49752, Note_off_c, 0, 47, 0
2, 49752, Note_on_c, 0, 47, 100
2, 49775, Note_off_c, 0, 80, 0
2, 50231, Note_off_c, 0, 47, 0
2, 50232, Note_on_c, 0, 47, 99
2, 50466, Note_on_c, 0, 97, 50
2, 50466, Note_on_c, 0, 90, 63
2, 50466, Note_on_c, 0, 78, 84
2, 50466, Note_on_c, 0, 66, 42
2, 50466, Note_on_c, 0, 59, 34
2, 50477, Note_off_c, 0, 47, 0
2, 50477, Note_on_c, 0, 47, 92
2, 50600, Note_off_c, 0, 59, 0
2, 50611, Note_off_c, 0, 97, 0
2, 50633, Note_off_c, 0, 90, 0
2, 50722, Note_off_c, 0, 47, 0
2, 50722, Note_on_c, 0, 47, 98
2, 50767, Note_off_c, 0, 78, 0
2, 50834, Note_off_c, 0, 66, 0
2, 50834, Note_on_c, 0, 76, 92
2, 50834, Note_on_c, 0, 66, 50
2, 50979, Note_off_c, 0, 66, 0
2, 51190, Note_on_c, 0, 90, 62
2, 51190, Note_on_c, 0, 78, 74
2, 51190, Note_on_c, 0, 66, 50
2, 51201, Note_off_c, 0, 47, 0
2, 51201, Note_on_c, 0, 47, 101
2, 51202, Note_off_c, 0, 76, 0
2, 51357, Note_off_c, 0, 90, 0
2, 51469, Note_off_c, 0, 66, 0
2, 51480, Note_off_c, 0, 78, 0
2, 51670, Note_off_c, 0, 47, 0
2, 51671, Note_on_c, 0, 47, 103
2, 52150, Note_off_c, 0, 47, 0
2, 52150, Note_on_c, 0, 47, 101
2, 52640, Note_off_c, 0, 47, 0
2, 52640, Note_on_c, 0, 47, 102
2, 53119, Note_off_c, 0, 47, 0
2, 53120, Note_on_c, 0, 47, 90
2, 53611, Note_on_c, 0, 44, 91
2, 53734, Note_off_c, 0, 47, 0
2, 54090, Note_off_c, 0, 44, 0
2, 54091, Note_on_c, 0, 45, 93
2, 54559, Note_on_c, 0, 71, 80
2, 54570, Note_off_c, 0, 45, 0
2, 54570, Note_on_c, 0, 46, 87
2, 54670, Note_on_c, 0, 74, 78
2, 54793, Note_on_c, 0, 76, 83
2, 54804, Note_off_c, 0, 71, 0
2, 54859, Note_off_c, 0, 74, 0
2, 54971, Note_off_c, 0, 76, 0
2, 55027, Note_off_c, 0, 46, 0
2, 55027, Note_on_c, 0, 90, 51
2, 55027, Note_on_c, 0, 78, 71
2, 55027, Note_on_c, 0, 66, 42
2, 55038, Note_on_c, 0, 47, 93
2, 55161, Note_off_c, 0, 90, 0
2, 55306, Note_off_c, 0, 78, 0
2, 55363, Note_off_c, 0, 66, 0
2, 55507, Note_off_c, 0, 47, 0
2, 55507, Note_on_c, 0, 47, 97
2, 55986, Note_off_c, 0, 47, 0
2, 55987, Note_on_c, 0, 47, 89
2, 56232, Note_on_c, 0, 71, 93
2, 56466, Note_on_c, 0, 74, 90
2, 56477, Note_off_c, 0, 47, 0
2, 56477, Note_on_c, 0, 47, 90
2, 56522, Note_off_c, 0, 71, 0
2, 56711, Note_on_c, 0, 81, 81
2, 56767, Note_off_c, 0, 74, 0
2, 56945, Note_on_c, 0, 83, 81
2, 56956, Note_off_c, 0, 47, 0
2, 56956, Note_off_c, 0, 81, 0
2, 56956, Note_on_c, 0, 47, 95
2, 57425, Note_off_c, 0, 47, 0
2, 57426, Note_on_c, 0, 47, 89
2, 57492, Note_off_c, 0, 83, 0
2, 57660, Note_on_c, 0, 81, 66
2, 57916, Note_off_c, 0, 47, 0
2, 57916, Note_on_c, 0, 47, 94
2, 58184, Note_off_c, 0, 81, 0
2, 58395, Note_on_c, 0, 80, 84
2, 58406, Note_off_c, 0, 47, 0
2, 58406, Note_on_c, 0, 47, 101
2, 58852, Note_off_c, 0, 80, 0
2, 58863, Note_on_c, 0, 78, 69
2, 58874, Note_off_c, 0, 47, 0
2, 58874, Note_on_c, 0, 66, 40
2, 58874, Note_on_c, 0, 47, 96
2, 59119, Note_off_c, 0, 78, 0
2, 59154, Note_off_c, 0, 66, 0
2, 59343, Note_off_c, 0, 47, 0
2, 59344, Note_on_c, 0, 47, 93
2, 59834, Note_off_c, 0, 47, 0
2, 59834, Note_on_c, 0, 47, 99
2, 60313, Note_off_c, 0, 47, 0
2, 60313, Note_on_c, 0, 47, 100
2, 60792, Note_off_c, 0, 47, 0
2, 60793, Note_on_c, 0, 47, 92
2, 61273, Note_on_c, 0, 44, 89
2, 61396, Note_off_c, 0, 47, 0
2, 61775, Note_off_c, 0, 44, 0
2, 61775, Note_on_c, 0, 45, 91
2, 62198, Note_on_c, 0, 74, 85
2, 62232, Note_off_c, 0, 45, 0
2, 62232, Note_on_c, 0, 46, 89
2, 62332, Note_off_c, 0, 74, 0
2, 62343, Note_on_c, 0, 73, 87
2, 62477, Note_on_c, 0, 71, 88
2, 62532, Note_off_c, 0, 73, 0
2, 62711, Note_off_c, 0, 46, 0
2, 62711, Note_on_c, 0, 66, 52
2, 62722, Note_on_c, 0, 69, 92
2, 62722, Note_on_c, 0, 47, 86
2, 62733, Note_off_c, 0, 71, 0
2, 63013, Note_off_c, 0, 66, 0
2, 63069, Note_off_c, 0, 69, 0
2, 63069, Note_on_c, 0, 71, 89
2, 63191, Note_off_c, 0, 47, 0
2, 63192, Note_on_c, 0, 47, 84
2, 63270, Note_off_c, 0, 71, 0
2, 63437, Note_on_c, 0, 71, 92
2, 63671, Note_off_c, 0, 47, 0
2, 63671, Note_on_c, 0, 47, 87
2, 63738, Note_off_c, 0, 71, 0
2, 63905, Note_on_c, 0, 66, 79
2, 64161, Note_off_c, 0, 47, 0
2, 64161, Note_on_c, 0, 69, 93
2, 64161, Note_on_c, 0, 47, 85
2, 64384, Note_off_c, 0, 66, 0
2, 64395, Note_on_c, 0, 71, 91
2, 64417, Note_off_c, 0, 69, 0
2, 64640, Note_off_c, 0, 47, 0
2, 64640, Note_on_c, 0, 73, 92
2, 64640, Note_on_c, 0, 47, 87
2, 64651, Note_off_c, 0, 71, 0
2, 64998, Note_on_c, 0, 69, 94
2, 65042, Note_off_c, 0, 73, 0
2, 65109, Note_off_c, 0, 47, 0
2, 65110, Note_on_c, 0, 66, 51
2, 65110, Note_on_c, 0, 47, 89
2, 65299, Note_off_c, 0, 66, 0
2, 65321, Note_off_c, 0, 69, 0
2, 65344, Note_on_c, 0, 71, 84
2, 65355, Note_on_c, 0, 59, 42
2, 65500, Note_off_c, 0, 59, 0
2, 65589, Note_off_c, 0, 47, 0
2, 65589, Note_on_c, 0, 47, 89
2, 65768, Note_off_c, 0, 71, 0
2, 66035, Note_on_c, 0, 74, 95
2, 66079, Note_on_c, 0, 45, 79
2, 66113, Note_off_c, 0, 47, 0
2, 66180, Note_off_c, 0, 74, 0
2, 66191, Note_on_c, 0, 73, 74
2, 66314, Note_on_c, 0, 71, 93
2, 66380, Note_off_c, 0, 73, 0
2, 66559, Note_on_c, 0, 69, 95
2, 66559, Note_on_c, 0, 47, 84
2, 66570, Note_off_c, 0, 71, 0
2, 66570, Note_on_c, 0, 66, 50
2, 66581, Note_off_c, 0, 45, 0
2, 66861, Note_off_c, 0, 66, 0
2, 66905, Note_on_c, 0, 71, 88
2, 66906, Note_off_c, 0, 69, 0
2, 67028, Note_off_c, 0, 47, 0
2, 67028, Note_on_c, 0, 47, 85
2, 67083, Note_off_c, 0, 71, 0
2, 67273, Note_on_c, 0, 71, 89
2, 67507, Note_off_c, 0, 47, 0
2, 67507, Note_on_c, 0, 47, 86
2, 67585, Note_off_c, 0, 71, 0
2, 67753, Note_on_c, 0, 66, 79
2, 67987, Note_on_c, 0, 73, 93
2, 67997, Note_off_c, 0, 47, 0
2, 67998, Note_on_c, 0, 47, 84
2, 68110, Note_off_c, 0, 66, 0
2, 68232, Note_off_c, 0, 73, 0
2, 68232, Note_on_c, 0, 74, 96
2, 68477, Note_off_c, 0, 47, 0
2, 68477, Note_off_c, 0, 74, 0
2, 68477, Note_on_c, 0, 73, 87
2, 68477, Note_on_c, 0, 47, 84
2, 68835, Note_on_c, 0, 69, 93
2, 68868, Note_off_c, 0, 73, 0
2, 68946, Note_off_c, 0, 47, 0
2, 68946, Note_on_c, 0, 66, 53
2, 68946, Note_on_c, 0, 47, 83
2, 69113, Note_off_c, 0, 66, 0
2, 69114, Note_off_c, 0, 69, 0
2, 69192, Note_on_c, 0, 64, 84
2, 69436, Note_off_c, 0, 47, 0
2, 69437, Note_on_c, 0, 47, 88
2, 69783, Note_off_c, 0, 64, 0
2, 69883, Note_on_c, 0, 74, 96
2, 69916, Note_on_c, 0, 45, 78
2, 69950, Note_off_c, 0, 47, 0
2, 70017, Note_off_c, 0, 74, 0
2, 70027, Note_on_c, 0, 73, 75
2, 70161, Note_on_c, 0, 71, 95
2, 70250, Note_off_c, 0, 73, 0
2, 70395, Note_on_c, 0, 69, 95
2, 70406, Note_off_c, 0, 71, 0
2, 70406, Note_on_c, 0, 66, 52
2, 70406, Note_on_c, 0, 47, 88
2, 70473, Note_off_c, 0, 45, 0
2, 70697, Note_off_c, 0, 66, 0
2, 70742, Note_on_c, 0, 71, 91
2, 70753, Note_off_c, 0, 69, 0
2, 70875, Note_off_c, 0, 47, 0
2, 70876, Note_on_c, 0, 47, 86
2, 70931, Note_off_c, 0, 71, 0
2, 71110, Note_on_c, 0, 71, 92
2, 71355, Note_off_c, 0, 47, 0
2, 71355, Note_on_c, 0, 47, 86
2, 71400, Note_off_c, 0, 71, 0
2, 71589, Note_on_c, 0, 66, 75
2, 71834, Note_on_c, 0, 69, 93
2, 71845, Note_off_c, 0, 47, 0
2, 71845, Note_on_c, 0, 47, 84
2, 72079, Note_on_c, 0, 71, 90
2, 72101, Note_off_c, 0, 69, 0
2, 72102, Note_off_c, 0, 66, 0
2, 72313, Note_off_c, 0, 47, 0
2, 72314, Note_on_c, 0, 73, 91
2, 72314, Note_on_c, 0, 47, 85
2, 72335, Note_off_c, 0, 71, 0
2, 72683, Note_on_c, 0, 69, 93
2, 72728, Note_off_c, 0, 73, 0
2, 72794, Note_off_c, 0, 47, 0
2, 72794, Note_on_c, 0, 66, 52
2, 72794, Note_on_c, 0, 47, 90
2, 72961, Note_off_c, 0, 66, 0
2, 72962, Note_off_c, 0, 69, 0
2, 73028, Note_on_c, 0, 71, 91
2, 73273, Note_off_c, 0, 47, 0
2, 73273, Note_on_c, 0, 47, 92
2, 73385, Note_off_c, 0, 71, 0
2, 73719, Note_on_c, 0, 74, 97
2, 73753, Note_on_c, 0, 45, 82
2, 73763, Note_off_c, 0, 47, 0
2, 73853, Note_off_c, 0, 74, 0
2, 73864, Note_on_c, 0, 73, 78
2, 73987, Note_on_c, 0, 71, 96
2, 74065, Note_off_c, 0, 73, 0
2, 74243, Note_on_c, 0, 69, 89
2, 74243, Note_on_c, 0, 66, 53
2, 74243, Note_on_c, 0, 47, 86
2, 74254, Note_off_c, 0, 71, 0
2, 74288, Note_off_c, 0, 45, 0
2, 74378, Note_on_c, 0, 74, 83
2, 74467, Note_off_c, 0, 66, 0
2, 74501, Note_off_c, 0, 69, 0
2, 74545, Note_on_c, 0, 78, 88
2, 74657, Note_off_c, 0, 74, 0
2, 74712, Note_off_c, 0, 47, 0
2, 74712, Note_off_c, 0, 78, 0
2, 74712, Note_on_c, 0, 76, 89
2, 74712, Note_on_c, 0, 66, 57
2, 74712, Note_on_c, 0, 47, 88
2, 74846, Note_off_c, 0, 66, 0
2, 74868, Note_off_c, 0, 76, 0
2, 74868, Note_on_c, 0, 75, 79
2, 75024, Note_on_c, 0, 71, 87
2, 75124, Note_off_c, 0, 75, 0
2, 75180, Note_on_c, 0, 81, 67
2, 75191, Note_off_c, 0, 47, 0
2, 75192, Note_on_c, 0, 47, 90
2, 75258, Note_off_c, 0, 71, 0
2, 75347, Note_off_c, 0, 81, 0
2, 75348, Note_on_c, 0, 80, 89
2, 75504, Note_on_c, 0, 78, 79
2, 75537, Note_off_c, 0, 80, 0
2, 75671, Note_on_c, 0, 74, 96
2, 75682, Note_off_c, 0, 47, 0
2, 75682, Note_on_c, 0, 47, 75
2, 75727, Note_off_c, 0, 78, 0
2, 75838, Note_off_c, 0, 74, 0
2, 75838, Note_on_c, 0, 73, 87
2, 75994, Note_on_c, 0, 71, 81
2, 76050, Note_off_c, 0, 73, 0
2, 76172, Note_on_c, 0, 69, 77
2, 76172, Note_on_c, 0, 45, 53
2, 76273, Note_off_c, 0, 47, 0
2, 76273, Note_off_c, 0, 71, 0
2, 76273, Note_on_c, 0, 71, 65
2, 76273, Note_on_c, 0, 66, 32
2, 76273, Note_on_c, 0, 47, 68
2, 76352, Note_off_c, 0, 69, 0
2, 76408, Note_off_c, 0, 66, 0
2, 76519, Note_off_c, 0, 45, 0
2, 76519, Note_on_c, 0, 69, 81
2, 76519, Note_on_c, 0, 45, 65
2, 76631, Note_off_c, 0, 71, 0
2, 76631, Note_off_c, 0, 47, 0
2, 76631, Note_on_c, 0, 71, 67
2, 76631, Note_on_c, 0, 47, 69
2, 76697, Note_off_c, 0, 69, 0
2, 76742, Note_off_c, 0, 45, 0
2, 76876, Note_on_c, 0, 69, 79
2, 76876, Note_on_c, 0, 45, 63
2, 76987, Note_on_c, 0, 71, 67
2, 76987, Note_on_c, 0, 47, 69
2, 76988, Note_off_c, 0, 71, 0
2, 76988, Note_off_c, 0, 47, 0
2, 77065, Note_off_c, 0, 69, 0
2, 77099, Note_off_c, 0, 45, 0
2, 77244, Note_on_c, 0, 69, 80
2, 77244, Note_on_c, 0, 45, 53
2, 77355, Note_off_c, 0, 71, 0
2, 77355, Note_off_c, 0, 47, 0
2, 77355, Note_on_c, 0, 71, 66
2, 77355, Note_on_c, 0, 47, 66
2, 77433, Note_off_c, 0, 69, 0
2, 77600, Note_on_c, 0, 69, 66
2, 77600, Note_on_c, 0, 45, 67
2, 77601, Note_off_c, 0, 45, 0
2, 77712, Note_off_c, 0, 47, 0
2, 77712, Note_on_c, 0, 47, 73
2, 77723, Note_off_c, 0, 71, 0
2, 77723, Note_on_c, 0, 71, 75
2, 77823, Note_off_c, 0, 45, 0
2, 77834, Note_on_c, 0, 74, 86
2, 77834, Note_on_c, 0, 50, 75
2, 77890, Note_off_c, 0, 71, 0
2, 77946, Note_off_c, 0, 69, 0
2, 78068, Note_on_c, 0, 78, 73
2, 78068, Note_on_c, 0, 66, 39
2, 78068, Note_on_c, 0, 47, 94
2, 78069, Note_off_c, 0, 47, 0
2, 78113, Note_off_c, 0, 74, 0
2, 78270, Note_off_c, 0, 50, 0
2, 78314, Note_off_c, 0, 78, 0
2, 78348, Note_off_c, 0, 66, 0
2, 78760, Note_off_c, 0, 47, 0
2, 78794, Note_on_c, 0, 74, 86
2, 78805, Note_on_c, 0, 44, 96
2, 79240, Note_off_c, 0, 74, 0
2, 79719, Note_off_c, 0, 44, 0
2, 79753, Note_on_c, 0, 74, 90
2, 79965, Note_off_c, 0, 74, 0
2, 79987, Note_on_c, 0, 77, 61
2, 79998, Note_on_c, 0, 49, 78
2, 80311, Note_off_c, 0, 77, 0
2, 80356, Note_on_c, 0, 76, 93
2, 80701, Note_on_c, 0, 74, 98
2, 80713, Note_off_c, 0, 76, 0
2, 80913, Note_off_c, 0, 49, 0
2, 80946, Note_off_c, 0, 74, 0
2, 80946, Note_on_c, 0, 73, 81
2, 80946, Note_on_c, 0, 42, 90
2, 81269, Note_off_c, 0, 73, 0
2, 81303, Note_on_c, 0, 74, 88
2, 81660, Note_off_c, 0, 74, 0
2, 81671, Note_on_c, 0, 76, 90
2, 81916, Note_on_c, 0, 78, 67
2, 81916, Note_on_c, 0, 66, 45
2, 81916, Note_on_c, 0, 47, 96
2, 81938, Note_off_c, 0, 42, 0
2, 81938, Note_off_c, 0, 76, 0
2, 82118, Note_off_c, 0, 66, 0
2, 82162, Note_off_c, 0, 78, 0
2, 82597, Note_off_c, 0, 47, 0
2, 82619, Note_on_c, 0, 83, 90
2, 82642, Note_on_c, 0, 44, 94
2, 83187, Note_off_c, 0, 83, 0
2, 83355, Note_on_c, 0, 71, 89
2, 83389, Note_off_c, 0, 44, 0
2, 83589, Note_on_c, 0, 73, 101
2, 83734, Note_off_c, 0, 71, 0
2, 83834, Note_off_c, 0, 73, 0
2, 83834, Note_on_c, 0, 74, 86
2, 83845, Note_on_c, 0, 49, 79
2, 84170, Note_off_c, 0, 74, 0
2, 84192, Note_on_c, 0, 76, 93
2, 84538, Note_on_c, 0, 74, 98
2, 84549, Note_off_c, 0, 76, 0
2, 84738, Note_off_c, 0, 49, 0
2, 84783, Note_off_c, 0, 74, 0
2, 84783, Note_on_c, 0, 73, 78
2, 84783, Note_on_c, 0, 42, 84
2, 85106, Note_off_c, 0, 73, 0
2, 85151, Note_on_c, 0, 81, 84
2, 85508, Note_off_c, 0, 81, 0
2, 85519, Note_on_c, 0, 79, 88
2, 85753, Note_off_c, 0, 42, 0
2, 85753, Note_off_c, 0, 79, 0
2, 85753, Note_on_c, 0, 78, 71
2, 85753, Note_on_c, 0, 47, 92
2, 86011, Note_off_c, 0, 78, 0
2, 86233, Note_off_c, 0, 47, 0
2, 86233, Note_on_c, 0, 47, 87
2, 86467, Note_on_c, 0, 74, 90
2, 86735, Note_on_c, 0, 44, 97
2, 86813, Note_off_c, 0, 47, 0
2, 86902, Note_off_c, 0, 74, 0
2, 87214, Note_off_c, 0, 44, 0
2, 87214, Note_on_c, 0, 44, 82
2, 87426, Note_on_c, 0, 74, 87
2, 87526, Note_on_c, 0, 76, 88
2, 87638, Note_off_c, 0, 74, 0
2, 87660, Note_off_c, 0, 76, 0
2, 87671, Note_on_c, 0, 77, 59
2, 87682, Note_on_c, 0, 49, 90
2, 87873, Note_off_c, 0, 44, 0
2, 87984, Note_off_c, 0, 77, 0
2, 88029, Note_on_c, 0, 76, 88
2, 88151, Note_off_c, 0, 49, 0
2, 88151, Note_on_c, 0, 49, 90
2, 88385, Note_on_c, 0, 74, 93
2, 88386, Note_off_c, 0, 76, 0
2, 88630, Note_off_c, 0, 74, 0
2, 88631, Note_on_c, 0, 73, 81
2, 88642, Note_on_c, 0, 42, 91
2, 88653, Note_on_c, 0, 54, 40
2, 88664, Note_off_c, 0, 49, 0
2, 88798, Note_off_c, 0, 54, 0
2, 88943, Note_off_c, 0, 73, 0
2, 88987, Note_on_c, 0, 74, 83
2, 89132, Note_off_c, 0, 42, 0
2, 89132, Note_on_c, 0, 42, 84
2, 89333, Note_off_c, 0, 74, 0
2, 89355, Note_on_c, 0, 76, 85
2, 89589, Note_on_c, 0, 90, 50
2, 89589, Note_on_c, 0, 78, 69
2, 89589, Note_on_c, 0, 66, 42
2, 89589, Note_on_c, 0, 47, 97
2, 89611, Note_off_c, 0, 76, 0
2, 89713, Note_off_c, 0, 90, 0
2, 89880, Note_off_c, 0, 42, 0
2, 89891, Note_off_c, 0, 78, 0
2, 90069, Note_off_c, 0, 47, 0
2, 90070, Note_on_c, 0, 47, 101
2, 90125, Note_off_c, 0, 66, 0
2, 90304, Note_on_c, 0, 83, 78
2, 90315, Note_off_c, 0, 47, 0
2, 90315, Note_on_c, 0, 47, 80
2, 90571, Note_on_c, 0, 44, 99
2, 90694, Note_off_c, 0, 47, 0
2, 91028, Note_off_c, 0, 83, 0
2, 91028, Note_on_c, 0, 83, 96
2, 91039, Note_off_c, 0, 44, 0
2, 91039, Note_on_c, 0, 44, 84
2, 91262, Note_on_c, 0, 85, 65
2, 91329, Note_off_c, 0, 83, 0
2, 91463, Note_off_c, 0, 85, 0
2, 91519, Note_on_c, 0, 86, 52
2, 91519, Note_on_c, 0, 49, 94
2, 91665, Note_off_c, 0, 86, 0
2, 91731, Note_off_c, 0, 44, 0
2, 91865, Note_on_c, 0, 79, 81
2, 91999, Note_off_c, 0, 49, 0
2, 91999, Note_on_c, 0, 49, 81
2, 92211, Note_off_c, 0, 79, 0
2, 92222, Note_on_c, 0, 78, 80
2, 92467, Note_off_c, 0, 78, 0
2, 92467, Note_on_c, 0, 77, 79
2, 92478, Note_on_c, 0, 42, 90
2, 92590, Note_off_c, 0, 49, 0
2, 92801, Note_off_c, 0, 77, 0
2, 92824, Note_on_c, 0, 86, 72
2, 92991, Note_off_c, 0, 42, 0
2, 92991, Note_on_c, 0, 42, 80
2, 93002, Note_off_c, 0, 86, 0
2, 93192, Note_on_c, 0, 82, 82
2, 93437, Note_on_c, 0, 71, 82
2, 93448, Note_off_c, 0, 82, 0
2, 93448, Note_on_c, 0, 47, 90
2, 93583, Note_off_c, 0, 42, 0
2, 93672, Note_off_c, 0, 71, 0
2, 93672, Note_on_c, 0, 71, 93
2, 93906, Note_off_c, 0, 71, 0
2, 93906, Note_on_c, 0, 71, 86
2, 93906, Note_on_c, 0, 66, 24
2, 93917, Note_off_c, 0, 47, 0
2, 93917, Note_on_c, 0, 47, 85
2, 94029, Note_on_c, 0, 69, 94
2, 94040, Note_off_c, 0, 66, 0
2, 94040, Note_on_c, 0, 66, 56
2, 94084, Note_off_c, 0, 71, 0
2, 94207, Note_off_c, 0, 66, 0
2, 94274, Note_on_c, 0, 71, 90
2, 94285, Note_off_c, 0, 69, 0
2, 94385, Note_off_c, 0, 47, 0
2, 94385, Note_on_c, 0, 47, 84
2, 94452, Note_off_c, 0, 71, 0
2, 94508, Note_on_c, 0, 74, 90
2, 94742, Note_off_c, 0, 74, 0
2, 94753, Note_on_c, 0, 71, 88
2, 94931, Note_off_c, 0, 71, 0
2, 94998, Note_off_c, 0, 47, 0
2, 94998, Note_on_c, 0, 66, 74
2, 94998, Note_on_c, 0, 47, 85
2, 95121, Note_on_c, 0, 69, 97
2, 95355, Note_on_c, 0, 71, 71
2, 95356, Note_off_c, 0, 47, 0
2, 95356, Note_on_c, 0, 47, 86
2, 95379, Note_off_c, 0, 69, 0
2, 95423, Note_off_c, 0, 66, 0
2, 95590, Note_off_c, 0, 71, 0
2, 95590, Note_on_c, 0, 71, 86
2, 95824, Note_off_c, 0, 71, 0
2, 95824, Note_on_c, 0, 71, 86
2, 95824, Note_on_c, 0, 66, 26
2, 95835, Note_off_c, 0, 47, 0
2, 95836, Note_on_c, 0, 47, 83
2, 95947, Note_on_c, 0, 69, 93
2, 95958, Note_off_c, 0, 66, 0
2, 95958, Note_on_c, 0, 66, 51
2, 95980, Note_off_c, 0, 71, 0
2, 96147, Note_off_c, 0, 66, 0
2, 96192, Note_on_c, 0, 71, 88
2, 96203, Note_off_c, 0, 69, 0
2, 96315, Note_off_c, 0, 47, 0
2, 96315, Note_on_c, 0, 47, 88
2, 96393, Note_off_c, 0, 71, 0
2, 96426, Note_on_c, 0, 77, 82
2, 96649, Note_off_c, 0, 77, 0
2, 96671, Note_on_c, 0, 76, 87
2, 96794, Note_off_c, 0, 47, 0
2, 96794, Note_on_c, 0, 47, 88
2, 96883, Note_off_c, 0, 76, 0
2, 96906, Note_on_c, 0, 74, 84
2, 97039, Note_on_c, 0, 69, 100
2, 97039, Note_on_c, 0, 66, 56
2, 97173, Note_off_c, 0, 74, 0
2, 97263, Note_on_c, 0, 71, 80
2, 97274, Note_off_c, 0, 47, 0
2, 97274, Note_off_c, 0, 66, 0
2, 97275, Note_on_c, 0, 47, 90
2, 97297, Note_off_c, 0, 69, 0
2, 97508, Note_off_c, 0, 71, 0
2, 97509, Note_on_c, 0, 71, 85
2, 97754, Note_off_c, 0, 71, 0
2, 97754, Note_on_c, 0, 71, 84
2, 97765, Note_off_c, 0, 47, 0
2, 97765, Note_on_c, 0, 47, 81
2, 97876, Note_on_c, 0, 69, 91
2, 97876, Note_on_c, 0, 66, 52
2, 97921, Note_off_c, 0, 71, 0
2, 98054, Note_off_c, 0, 66, 0
2, 98110, Note_off_c, 0, 69, 0
2, 98111, Note_on_c, 0, 71, 88
2, 98233, Note_off_c, 0, 47, 0
2, 98233, Note_on_c, 0, 47, 84
2, 98300, Note_off_c, 0, 71, 0
2, 98345, Note_on_c, 0, 74, 88
2, 98568, Note_off_c, 0, 74, 0
2, 98590, Note_on_c, 0, 71, 89
2, 98768, Note_off_c, 0, 71, 0
2, 98824, Note_on_c, 0, 66, 76
2, 98835, Note_off_c, 0, 47, 0
2, 98835, Note_on_c, 0, 47, 84
2, 98958, Note_on_c, 0, 69, 95
2, 99193, Note_off_c, 0, 47, 0
2, 99193, Note_on_c, 0, 71, 69
2, 99193, Note_on_c, 0, 47, 90
2, 99227, Note_off_c, 0, 69, 0
2, 99238, Note_off_c, 0, 66, 0
2, 99427, Note_off_c, 0, 71, 0
2, 99427, Note_on_c, 0, 71, 90
2, 99672, Note_off_c, 0, 47, 0
2, 99672, Note_off_c, 0, 71, 0
2, 99672, Note_on_c, 0, 71, 75
2, 99672, Note_on_c, 0, 66, 35
2, 99672, Note_on_c, 0, 47, 84
2, 99795, Note_on_c, 0, 69, 87
2, 99906, Note_off_c, 0, 66, 0
2, 99917, Note_off_c, 0, 71, 0
2, 99917, Note_on_c, 0, 71, 79
2, 100007, Note_off_c, 0, 69, 0
2, 100029, Note_on_c, 0, 74, 92
2, 100118, Note_off_c, 0, 71, 0
2, 100151, Note_off_c, 0, 47, 0
2, 100151, Note_on_c, 0, 47, 89
2, 100241, Note_off_c, 0, 74, 0
2, 100263, Note_on_c, 0, 77, 82
2, 100475, Note_off_c, 0, 77, 0
2, 100508, Note_on_c, 0, 76, 84
2, 100630, Note_off_c, 0, 47, 0
2, 100631, Note_on_c, 0, 47, 87
2, 100709, Note_off_c, 0, 76, 0
2, 100742, Note_on_c, 0, 74, 84
2, 100887, Note_on_c, 0, 69, 99
2, 100887, Note_on_c, 0, 66, 54
2, 101032, Note_off_c, 0, 74, 0
2, 101111, Note_off_c, 0, 47, 0
2, 101111, Note_on_c, 0, 71, 69
2, 101111, Note_on_c, 0, 47, 92
2, 101145, Note_off_c, 0, 69, 0
2, 101178, Note_off_c, 0, 66, 0
2, 101345, Note_off_c, 0, 71, 0
2, 101345, Note_on_c, 0, 71, 85
2, 101590, Note_off_c, 0, 71, 0
2, 101590, Note_on_c, 0, 71, 87
2, 101601, Note_off_c, 0, 47, 0
2, 101602, Note_on_c, 0, 47, 86
2, 101713, Note_on_c, 0, 69, 90
2, 101713, Note_on_c, 0, 66, 51
2, 101757, Note_off_c, 0, 71, 0
2, 101891, Note_off_c, 0, 66, 0
2, 101947, Note_off_c, 0, 69, 0
2, 101947, Note_on_c, 0, 71, 92
2, 102070, Note_off_c, 0, 47, 0
2, 102070, Note_on_c, 0, 47, 84
2, 102114, Note_off_c, 0, 71, 0
2, 102181, Note_on_c, 0, 74, 91
2, 102415, Note_off_c, 0, 74, 0
2, 102437, Note_on_c, 0, 71, 88
2, 102593, Note_off_c, 0, 71, 0
2, 102672, Note_off_c, 0, 47, 0
2, 102672, Note_on_c, 0, 66, 77
2, 102672, Note_on_c, 0, 47, 83
2, 102805, Note_on_c, 0, 69, 98
2, 103029, Note_on_c, 0, 71, 70
2, 103029, Note_on_c, 0, 47, 87
2, 103030, Note_off_c, 0, 47, 0
2, 103041, Note_off_c, 0, 66, 0
2, 103051, Note_off_c, 0, 69, 0
2, 103263, Note_off_c, 0, 71, 0
2, 103263, Note_on_c, 0, 71, 83
2, 103508, Note_off_c, 0, 71, 0
2, 103509, Note_on_c, 0, 71, 86
2, 103519, Note_off_c, 0, 47, 0
2, 103520, Note_on_c, 0, 47, 81
2, 103631, Note_on_c, 0, 69, 91
2, 103631, Note_on_c, 0, 66, 49
2, 103676, Note_off_c, 0, 71, 0
2, 103798, Note_off_c, 0, 66, 0
2, 103854, Note_off_c, 0, 69, 0
2, 103865, Note_on_c, 0, 71, 89
2, 103999, Note_off_c, 0, 47, 0
2, 103999, Note_on_c, 0, 47, 88
2, 104066, Note_off_c, 0, 71, 0
2, 104111, Note_on_c, 0, 77, 79
2, 104312, Note_off_c, 0, 77, 0
2, 104356, Note_on_c, 0, 76, 86
2, 104478, Note_off_c, 0, 47, 0
2, 104478, Note_on_c, 0, 47, 86
2, 104557, Note_off_c, 0, 76, 0
2, 104590, Note_on_c, 0, 74, 83
2, 104724, Note_on_c, 0, 69, 99
2, 104724, Note_on_c, 0, 66, 54
2, 104857, Note_off_c, 0, 74, 0
2, 104948, Note_on_c, 0, 71, 72
2, 104958, Note_off_c, 0, 47, 0
2, 104959, Note_on_c, 0, 47, 91
2, 104970, Note_off_c, 0, 66, 0
2, 104982, Note_off_c, 0, 69, 0
2, 105182, Note_off_c, 0, 71, 0
2, 105182, Note_on_c, 0, 71, 88
2, 105427, Note_off_c, 0, 47, 0
2, 105427, Note_off_c, 0, 71, 0
2, 105427, Note_on_c, 0, 71, 89
2, 105427, Note_on_c, 0, 47, 84
2, 105561, Note_on_c, 0, 69, 91
2, 105561, Note_on_c, 0, 66, 49
2, 105594, Note_off_c, 0, 71, 0
2, 105728, Note_off_c, 0, 66, 0
2, 105784, Note_off_c, 0, 69, 0
2, 105795, Note_on_c, 0, 71, 89
2, 105917, Note_off_c, 0, 47, 0
2, 105917, Note_on_c, 0, 47, 83
2, 105962, Note_off_c, 0, 71, 0
2, 106029, Note_on_c, 0, 74, 89
2, 106252, Note_off_c, 0, 74, 0
2, 106274, Note_on_c, 0, 71, 88
2, 106430, Note_off_c, 0, 71, 0
2, 106508, Note_off_c, 0, 47, 0
2, 106508, Note_on_c, 0, 66, 78
2, 106508, Note_on_c, 0, 47, 83
2, 106642, Note_on_c, 0, 69, 98
2, 106866, Note_off_c, 0, 47, 0
2, 106866, Note_on_c, 0, 71, 66
2, 106866, Note_on_c, 0, 47, 88
2, 106877, Note_off_c, 0, 66, 0
2, 106888, Note_off_c, 0, 69, 0
2, 107111, Note_off_c, 0, 71, 0
2, 107111, Note_on_c, 0, 71, 86
2, 107356, Note_off_c, 0, 47, 0
2, 107356, Note_off_c, 0, 71, 0
2, 107356, Note_on_c, 0, 71, 86
2, 107356, Note_on_c, 0, 47, 82
2, 107545, Note_off_c, 0, 71, 0
2, 107602, Note_on_c, 0, 69, 86
2, 107713, Note_on_c, 0, 71, 87
2, 107824, Note_on_c, 0, 74, 71
2, 107836, Note_off_c, 0, 69, 0
2, 107836, Note_on_c, 0, 69, 88
2, 107836, Note_on_c, 0, 66, 48
2, 107846, Note_off_c, 0, 47, 0
2, 107847, Note_on_c, 0, 47, 92
2, 107858, Note_off_c, 0, 71, 0
2, 108314, Note_off_c, 0, 74, 0
2, 108315, Note_off_c, 0, 69, 0
2, 108315, Note_off_c, 0, 66, 0
2, 108315, Note_off_c, 0, 47, 0
2, 108315, Note_on_c, 0, 74, 77
2, 108315, Note_on_c, 0, 69, 95
2, 108315, Note_on_c, 0, 66, 55
2, 108315, Note_on_c, 0, 47, 95
2, 108706, Note_off_c, 0, 66, 0
2, 108729, Note_off_c, 0, 74, 0
2, 108740, Note_off_c, 0, 69, 0
2, 108784, Note_off_c, 0, 47, 0
2, 108784, Note_on_c, 0, 90, 62
2, 108784, Note_on_c, 0, 78, 77
2, 108784, Note_on_c, 0, 66, 38
2, 108784, Note_on_c, 0, 47, 100
2, 108940, Note_off_c, 0, 90, 0
2, 109063, Note_off_c, 0, 78, 0
2, 109174, Note_off_c, 0, 66, 0
2, 109274, Note_off_c, 0, 47, 0
2, 109275, Note_on_c, 0, 47, 100
2, 109754, Note_off_c, 0, 47, 0
2, 109754, Note_on_c, 0, 47, 96
2, 109988, Note_on_c, 0, 76, 84
2, 109988, Note_on_c, 0, 66, 39
2, 110244, Note_off_c, 0, 47, 0
2, 110244, Note_on_c, 0, 47, 93
2, 110334, Note_off_c, 0, 66, 0
2, 110434, Note_off_c, 0, 76, 0
2, 110478, Note_on_c, 0, 74, 94
2, 110702, Note_on_c, 0, 76, 84
2, 110713, Note_off_c, 0, 47, 0
2, 110714, Note_on_c, 0, 47, 93
2, 110736, Note_off_c, 0, 74, 0
2, 111059, Note_on_c, 0, 73, 85
2, 111081, Note_off_c, 0, 76, 0
2, 111193, Note_off_c, 0, 47, 0
2, 111193, Note_on_c, 0, 47, 88
2, 111438, Note_on_c, 0, 69, 79
2, 111438, Note_on_c, 0, 66, 58
2, 111516, Note_off_c, 0, 73, 0
2, 111672, Note_off_c, 0, 47, 0
2, 111672, Note_off_c, 0, 66, 0
2, 111672, Note_on_c, 0, 66, 47
2, 111672, Note_on_c, 0, 47, 95
2, 111884, Note_off_c, 0, 66, 0
2, 111995, Note_off_c, 0, 69, 0
2, 112162, Note_off_c, 0, 47, 0
2, 112163, Note_on_c, 0, 71, 83
2, 112163, Note_on_c, 0, 47, 78
2, 112408, Note_off_c, 0, 71, 0
2, 112408, Note_on_c, 0, 69, 86
2, 112520, Note_on_c, 0, 64, 84
2, 112632, Note_off_c, 0, 47, 0
2, 112632, Note_off_c, 0, 69, 0
2, 112632, Note_on_c, 0, 47, 81
2, 112855, Note_on_c, 0, 62, 86
2, 112944, Note_off_c, 0, 64, 0
2, 113100, Note_off_c, 0, 47, 0
2, 113100, Note_off_c, 0, 62, 0
2, 113100, Note_on_c, 0, 66, 43
2, 113100, Note_on_c, 0, 62, 80
2, 113100, Note_on_c, 0, 47, 84
2, 113312, Note_off_c, 0, 62, 0
2, 113345, Note_off_c, 0, 66, 0
2, 113345, Note_on_c, 0, 66, 67
2, 113590, Note_off_c, 0, 47, 0
2, 113590, Note_on_c, 0, 62, 82
2, 113590, Note_on_c, 0, 47, 89
2, 113791, Note_off_c, 0, 66, 0
2, 114058, Note_off_c, 0, 62, 0
2, 114080, Note_off_c, 0, 47, 0
2, 114081, Note_on_c, 0, 47, 92
2, 114550, Note_off_c, 0, 47, 0
2, 114550, Note_on_c, 0, 47, 87
2, 114784, Note_on_c, 0, 71, 87
2, 115029, Note_off_c, 0, 71, 0
2, 115029, Note_on_c, 0, 66, 31
2, 115040, Note_off_c, 0, 47, 0
2, 115041, Note_on_c, 0, 47, 82
2, 115163, Note_off_c, 0, 66, 0
2, 115163, Note_on_c, 0, 69, 84
2, 115163, Note_on_c, 0, 66, 58
2, 115386, Note_off_c, 0, 66, 0
2, 115386, Note_on_c, 0, 66, 77
2, 115520, Note_off_c, 0, 47, 0
2, 115520, Note_off_c, 0, 69, 0
2, 115520, Note_on_c, 0, 69, 94
2, 115520, Note_on_c, 0, 47, 86
2, 115720, Note_off_c, 0, 66, 0
2, 115754, Note_on_c, 0, 71, 90
2, 115765, Note_off_c, 0, 69, 0
2, 115988, Note_on_c, 0, 74, 91
2, 115999, Note_off_c, 0, 47, 0
2, 115999, Note_off_c, 0, 71, 0
2, 115999, Note_on_c, 0, 47, 89
2, 116233, Note_off_c, 0, 74, 0
2, 116233, Note_on_c, 0, 76, 89
2, 116446, Note_off_c, 0, 76, 0
2, 116457, Note_on_c, 0, 90, 48
2, 116457, Note_on_c, 0, 78, 72
2, 116457, Note_on_c, 0, 66, 42
2, 116468, Note_off_c, 0, 47, 0
2, 116468, Note_on_c, 0, 47, 95
2, 116591, Note_off_c, 0, 90, 0
2, 116747, Note_off_c, 0, 78, 0
2, 116825, Note_off_c, 0, 66, 0
2, 116958, Note_off_c, 0, 47, 0
2, 116959, Note_on_c, 0, 71, 84
2, 116959, Note_on_c, 0, 47, 88
2, 117070, Note_on_c, 0, 74, 86
2, 117148, Note_off_c, 0, 71, 0
2, 117193, Note_on_c, 0, 76, 87
2, 117259, Note_off_c, 0, 74, 0
2, 117304, Note_on_c, 0, 81, 70
2, 117304, Note_on_c, 0, 47, 77
2, 117305, Note_off_c, 0, 47, 0
2, 117438, Note_off_c, 0, 76, 0
2, 117438, Note_off_c, 0, 47, 0
2, 117438, Note_on_c, 0, 47, 96
2, 117872, Note_off_c, 0, 81, 0
2, 117917, Note_off_c, 0, 47, 0
2, 117917, Note_on_c, 0, 47, 97
2, 118387, Note_on_c, 0, 76, 84
2, 118397, Note_off_c, 0, 47, 0
2, 118398, Note_on_c, 0, 47, 86
2, 118509, Note_on_c, 0, 74, 67
2, 118565, Note_off_c, 0, 76, 0
2, 118632, Note_on_c, 0, 71, 92
2, 118866, Note_off_c, 0, 74, 0
2, 118866, Note_on_c, 0, 74, 91
2, 118877, Note_off_c, 0, 47, 0
2, 118877, Note_on_c, 0, 47, 92
2, 118922, Note_off_c, 0, 71, 0
2, 119111, Note_on_c, 0, 76, 83
2, 119156, Note_off_c, 0, 74, 0
2, 119356, Note_off_c, 0, 47, 0
2, 119356, Note_on_c, 0, 47, 93
2, 119568, Note_off_c, 0, 76, 0
2, 119579, Note_on_c, 0, 74, 74
2, 119835, Note_off_c, 0, 47, 0
2, 119836, Note_on_c, 0, 47, 95
2, 119947, Note_off_c, 0, 74, 0
2, 119947, Note_on_c, 0, 74, 81
2, 120305, Note_off_c, 0, 74, 0
2, 120305, Note_on_c, 0, 74, 80
2, 120316, Note_off_c, 0, 47, 0
2, 120316, Note_on_c, 0, 47, 94
2, 120662, Note_off_c, 0, 74, 0
2, 120662, Note_on_c, 0, 74, 72
2, 120795, Note_off_c, 0, 47, 0
2, 120795, Note_on_c, 0, 47, 94
2, 121018, Note_on_c, 0, 74, 101
2, 121019, Note_off_c, 0, 74, 0
2, 121274, Note_off_c, 0, 47, 0
2, 121274, Note_off_c, 0, 74, 0
2, 121275, Note_on_c, 0, 74, 75
2, 121275, Note_on_c, 0, 47, 88
2, 121386, Note_on_c, 0, 78, 80
2, 121386, Note_on_c, 0, 66, 39
2, 121620, Note_off_c, 0, 66, 0
2, 121631, Note_on_c, 0, 74, 83
2, 121632, Note_off_c, 0, 74, 0
2, 121676, Note_off_c, 0, 78, 0
2, 121754, Note_on_c, 0, 76, 85
2, 121765, Note_off_c, 0, 47, 0
2, 121765, Note_on_c, 0, 47, 85
2, 121876, Note_off_c, 0, 74, 0
2, 121877, Note_on_c, 0, 74, 64
2, 121921, Note_off_c, 0, 76, 0
2, 121999, Note_on_c, 0, 71, 82
2, 122223, Note_on_c, 0, 74, 84
2, 122224, Note_off_c, 0, 74, 0
2, 122234, Note_off_c, 0, 47, 0
2, 122234, Note_on_c, 0, 47, 90
2, 122346, Note_off_c, 0, 71, 0
2, 122346, Note_on_c, 0, 71, 89
2, 122468, Note_off_c, 0, 74, 0
2, 122702, Note_off_c, 0, 47, 0
2, 122703, Note_on_c, 0, 47, 95
2, 122747, Note_off_c, 0, 71, 0
2, 123193, Note_off_c, 0, 47, 0
2, 123193, Note_on_c, 0, 47, 97
2, 123672, Note_off_c, 0, 47, 0
2, 123672, Note_on_c, 0, 47, 90
2, 123906, Note_on_c, 0, 74, 89
2, 124019, Note_on_c, 0, 76, 81
2, 124108, Note_off_c, 0, 74, 0
2, 124141, Note_off_c, 0, 47, 0
2, 124142, Note_on_c, 0, 81, 71
2, 124142, Note_on_c, 0, 47, 99
2, 124275, Note_off_c, 0, 76, 0
2, 124632, Note_off_c, 0, 81, 0
2, 124632, Note_off_c, 0, 47, 0
2, 124632, Note_on_c, 0, 81, 79
2, 124632, Note_on_c, 0, 47, 102
2, 124955, Note_on_c, 0, 66, 38
2, 125111, Note_off_c, 0, 47, 0
2, 125111, Note_on_c, 0, 47, 102
2, 125134, Note_off_c, 0, 81, 0
2, 125167, Note_off_c, 0, 66, 0
2, 125256, Note_on_c, 0, 81, 43
2, 125512, Note_off_c, 0, 81, 0
2, 125590, Note_off_c, 0, 47, 0
2, 125590, Note_on_c, 0, 47, 100
2, 126070, Note_off_c, 0, 47, 0
2, 126071, Note_on_c, 0, 47, 94
2, 126550, Note_off_c, 0, 47, 0
2, 126550, Note_on_c, 0, 47, 93
2, 126795, Note_on_c, 0, 80, 71
2, 127029, Note_off_c, 0, 47, 0
2, 127029, Note_on_c, 0, 47, 98
2, 127486, Note_off_c, 0, 80, 0
2, 127508, Note_off_c, 0, 47, 0
2, 127509, Note_on_c, 0, 47, 88
2, 127754, Note_on_c, 0, 78, 80
2, 127754, Note_on_c, 0, 66, 40
2, 127867, Note_on_c, 0, 76, 78
2, 127878, Note_off_c, 0, 78, 0
2, 127978, Note_off_c, 0, 66, 0
2, 127989, Note_on_c, 0, 80, 84
2, 128000, Note_on_c, 0, 47, 92
2, 128001, Note_off_c, 0, 47, 0
2, 128056, Note_off_c, 0, 76, 0
2, 128346, Note_off_c, 0, 80, 0
2, 128346, Note_on_c, 0, 78, 72
2, 128346, Note_on_c, 0, 66, 35
2, 128468, Note_off_c, 0, 47, 0
2, 128468, Note_on_c, 0, 47, 93
2, 128591, Note_off_c, 0, 66, 0
2, 128602, Note_off_c, 0, 78, 0
2, 128947, Note_off_c, 0, 47, 0
2, 128948, Note_on_c, 0, 47, 96
2, 129438, Note_off_c, 0, 47, 0
2, 129438, Note_on_c, 0, 47, 94
2, 129672, Note_on_c, 0, 74, 104
2, 129907, Note_off_c, 0, 47, 0
2, 129907, Note_off_c, 0, 74, 0
2, 129908, Note_on_c, 0, 74, 95
2, 129908, Note_on_c, 0, 47, 93
2, 130142, Note_off_c, 0, 74, 0
2, 130142, Note_on_c, 0, 74, 103
2, 130387, Note_off_c, 0, 47, 0
2, 130387, Note_off_c, 0, 74, 0
2, 130387, Note_on_c, 0, 74, 97
2, 130387, Note_on_c, 0, 47, 91
2, 130621, Note_off_c, 0, 74, 0
2, 130621, Note_on_c, 0, 74, 106
2, 130755, Note_off_c, 0, 74, 0
2, 130755, Note_on_c, 0, 74, 96
2, 130877, Note_off_c, 0, 47, 0
2, 130877, Note_on_c, 0, 47, 91
2, 130989, Note_off_c, 0, 74, 0
2, 130989, Note_on_c, 0, 74, 99
2, 131356, Note_off_c, 0, 47, 0
2, 131356, Note_on_c, 0, 74, 95
2, 131356, Note_on_c, 0, 47, 91
2, 131357, Note_off_c, 0, 74, 0
2, 131590, Note_off_c, 0, 74, 0
2, 131590, Note_on_c, 0, 74, 86
2, 131825, Note_off_c, 0, 47, 0
2, 131826, Note_on_c, 0, 86, 62
2, 131826, Note_on_c, 0, 47, 93
2, 131960, Note_off_c, 0, 86, 0
2, 131992, Note_off_c, 0, 74, 0
2, 132182, Note_on_c, 0, 86, 75
2, 132316, Note_off_c, 0, 47, 0
2, 132316, Note_on_c, 0, 47, 102
2, 132349, Note_off_c, 0, 86, 0
2, 132795, Note_off_c, 0, 47, 0
2, 132795, Note_on_c, 0, 47, 96
2, 133030, Note_on_c, 0, 85, 64
2, 133063, Note_on_c, 0, 66, 46
2, 133208, Note_off_c, 0, 85, 0
2, 133208, Note_off_c, 0, 66, 0
2, 133264, Note_on_c, 0, 83, 92
2, 133274, Note_off_c, 0, 47, 0
2, 133275, Note_on_c, 0, 47, 92
2, 133499, Note_on_c, 0, 81, 80
2, 133522, Note_off_c, 0, 83, 0
2, 133744, Note_on_c, 0, 76, 88
2, 133755, Note_off_c, 0, 47, 0
2, 133755, Note_on_c, 0, 47, 85
2, 133766, Note_off_c, 0, 81, 0
2, 133867, Note_on_c, 0, 74, 77
2, 133911, Note_off_c, 0, 76, 0
2, 133989, Note_on_c, 0, 71, 93
2, 134112, Note_off_c, 0, 74, 0
2, 134234, Note_on_c, 0, 69, 93
2, 134234, Note_on_c, 0, 66, 56
2, 134245, Note_off_c, 0, 47, 0
2, 134246, Note_on_c, 0, 47, 87
2, 134256, Note_off_c, 0, 71, 0
2, 134457, Note_off_c, 0, 66, 0
2, 134469, Note_on_c, 0, 71, 92
2, 134480, Note_on_c, 0, 59, 46
2, 134513, Note_off_c, 0, 69, 0
2, 134625, Note_off_c, 0, 59, 0
2, 134714, Note_off_c, 0, 47, 0
2, 134714, Note_on_c, 0, 47, 97
2, 134748, Note_off_c, 0, 71, 0
2, 135193, Note_off_c, 0, 47, 0
2, 135193, Note_on_c, 0, 47, 89
2, 135428, Note_on_c, 0, 71, 92
2, 135439, Note_on_c, 0, 59, 41
2, 135584, Note_off_c, 0, 59, 0
2, 135673, Note_off_c, 0, 47, 0
2, 135673, Note_on_c, 0, 74, 93
2, 135673, Note_on_c, 0, 47, 90
2, 135729, Note_off_c, 0, 71, 0
2, 136030, Note_off_c, 0, 74, 0
2, 136030, Note_on_c, 0, 76, 86
2, 136152, Note_off_c, 0, 47, 0
2, 136153, Note_on_c, 0, 47, 93
2, 136387, Note_off_c, 0, 76, 0
2, 136387, Note_on_c, 0, 78, 80
2, 136387, Note_on_c, 0, 66, 41
2, 136632, Note_off_c, 0, 47, 0
2, 136632, Note_on_c, 0, 47, 92
2, 136654, Note_off_c, 0, 78, 0
2, 136721, Note_off_c, 0, 66, 0
2, 136866, Note_on_c, 0, 81, 83
2, 137111, Note_on_c, 0, 83, 89
2, 137122, Note_off_c, 0, 47, 0
2, 137122, Note_on_c, 0, 47, 98
2, 137133, Note_off_c, 0, 81, 0
2, 137347, Note_on_c, 0, 86, 76
2, 137447, Note_off_c, 0, 83, 0
2, 137548, Note_off_c, 0, 86, 0
2, 137591, Note_off_c, 0, 47, 0
2, 137592, Note_on_c, 0, 47, 103
2, 138071, Note_off_c, 0, 47, 0
2, 138071, Note_on_c, 0, 47, 102
2, 138550, Note_off_c, 0, 47, 0
2, 138550, Note_on_c, 0, 47, 98
2, 139040, Note_off_c, 0, 47, 0
2, 139041, Note_on_c, 0, 47, 99
2, 139510, Note_off_c, 0, 47, 0
2, 139510, Note_on_c, 0, 76, 78
2, 139510, Note_on_c, 0, 47, 101
2, 139878, Note_on_c, 0, 66, 38
2, 139989, Note_off_c, 0, 47, 0
2, 139989, Note_on_c, 0, 47, 91
2, 140034, Note_off_c, 0, 66, 0
2, 140145, Note_off_c, 0, 76, 0
2, 140201, Note_on_c, 0, 73, 98
2, 140335, Note_off_c, 0, 73, 0
2, 140346, Note_on_c, 0, 74, 85
2, 140469, Note_on_c, 0, 76, 76
2, 140479, Note_off_c, 0, 47, 0
2, 140480, Note_on_c, 0, 66, 46
2, 140480, Note_on_c, 0, 47, 98
2, 140547, Note_off_c, 0, 74, 0
2, 140636, Note_off_c, 0, 66, 0
2, 140959, Note_off_c, 0, 47, 0
2, 140959, Note_on_c, 0, 47, 91
2, 141115, Note_off_c, 0, 76, 0
2, 141150, Note_on_c, 0, 73, 99
2, 141284, Note_off_c, 0, 73, 0
2, 141295, Note_on_c, 0, 74, 84
2, 141428, Note_off_c, 0, 47, 0
2, 141428, Note_on_c, 0, 76, 90
2, 141428, Note_on_c, 0, 66, 49
2, 141428, Note_on_c, 0, 47, 94
2, 141496, Note_off_c, 0, 74, 0
2, 141562, Note_off_c, 0, 66, 0
2, 141662, Note_on_c, 0, 74, 80
2, 141684, Note_off_c, 0, 76, 0
2, 141918, Note_off_c, 0, 47, 0
2, 141919, Note_on_c, 0, 47, 89
2, 142030, Note_off_c, 0, 74, 0
2, 142030, Note_on_c, 0, 74, 95
2, 142264, Note_off_c, 0, 74, 0
2, 142264, Note_on_c, 0, 73, 87
2, 142398, Note_off_c, 0, 47, 0
2, 142398, Note_on_c, 0, 47, 96
2, 142777, Note_off_c, 0, 73, 0
2, 142877, Note_off_c, 0, 47, 0
2, 142877, Note_on_c, 0, 47, 92
2, 143101, Note_on_c, 0, 74, 102
2, 143346, Note_off_c, 0, 74, 0
2, 143347, Note_on_c, 0, 73, 94
2, 143357, Note_off_c, 0, 47, 0
2, 143358, Note_on_c, 0, 47, 87
2, 143592, Note_on_c, 0, 71, 92
2, 143603, Note_off_c, 0, 73, 0
2, 143837, Note_off_c, 0, 47, 0
2, 143837, Note_on_c, 0, 69, 95
2, 143837, Note_on_c, 0, 66, 58
2, 143837, Note_on_c, 0, 47, 90
2, 143859, Note_off_c, 0, 71, 0
2, 144060, Note_off_c, 0, 66, 0
2, 144071, Note_on_c, 0, 71, 71
2, 144082, Note_on_c, 0, 59, 48
2, 144104, Note_off_c, 0, 69, 0
2, 144216, Note_off_c, 0, 59, 0
2, 144316, Note_off_c, 0, 47, 0
2, 144316, Note_on_c, 0, 47, 94
2, 144740, Note_off_c, 0, 71, 0
2, 144795, Note_off_c, 0, 47, 0
2, 144795, Note_on_c, 0, 69, 92
2, 144795, Note_on_c, 0, 66, 57
2, 144795, Note_on_c, 0, 47, 85
2, 145008, Note_off_c, 0, 66, 0
2, 145042, Note_on_c, 0, 64, 85
2, 145131, Note_off_c, 0, 69, 0
2, 145264, Note_off_c, 0, 47, 0
2, 145265, Note_on_c, 0, 62, 73
2, 145265, Note_on_c, 0, 47, 89
2, 145354, Note_off_c, 0, 64, 0
2, 145744, Note_on_c, 0, 66, 40
2, 145755, Note_off_c, 0, 47, 0
2, 145755, Note_on_c, 0, 47, 81
2, 145867, Note_off_c, 0, 62, 0
2, 145867, Note_on_c, 0, 62, 83
2, 146101, Note_off_c, 0, 62, 0
2, 146101, Note_on_c, 0, 73, 39
2, 146101, Note_on_c, 0, 61, 71
2, 146201, Note_off_c, 0, 66, 0
2, 146234, Note_off_c, 0, 47, 0
2, 146234, Note_on_c, 0, 47, 93
2, 146547, Note_off_c, 0, 73, 0
2, 146724, Note_off_c, 0, 47, 0
2, 146725, Note_on_c, 0, 47, 93
2, 146837, Note_off_c, 0, 61, 0
2, 147194, Note_off_c, 0, 47, 0
2, 147194, Note_on_c, 0, 59, 62
2, 147194, Note_on_c, 0, 47, 82
2, 147428, Note_on_c, 0, 62, 82
2, 147517, Note_off_c, 0, 59, 0
2, 147673, Note_off_c, 0, 47, 0
2, 147674, Note_on_c, 0, 64, 91
2, 147674, Note_on_c, 0, 47, 74
2, 147695, Note_off_c, 0, 62, 0
2, 147919, Note_off_c, 0, 64, 0
2, 147919, Note_on_c, 0, 64, 74
2, 148030, Note_on_c, 0, 66, 81
2, 148164, Note_off_c, 0, 47, 0
2, 148164, Note_off_c, 0, 64, 0
2, 148164, Note_on_c, 0, 64, 88
2, 148164, Note_on_c, 0, 47, 82
2, 148208, Note_off_c, 0, 66, 0
2, 148632, Note_on_c, 0, 62, 76
2, 148643, Note_off_c, 0, 64, 0
2, 148755, Note_off_c, 0, 47, 0
2, 148755, Note_on_c, 0, 59, 70
2, 148755, Note_on_c, 0, 47, 72
2, 148856, Note_off_c, 0, 62, 0
2, 148856, Note_on_c, 0, 62, 74
2, 148990, Note_off_c, 0, 59, 0
2, 149101, Note_on_c, 0, 66, 80
2, 149101, Note_on_c, 0, 47, 79
2, 149102, Note_off_c, 0, 47, 0
2, 149190, Note_off_c, 0, 62, 0
2, 149358, Note_on_c, 0, 69, 86
2, 149469, Note_on_c, 0, 71, 76
2, 149513, Note_off_c, 0, 66, 0
2, 149559, Note_off_c, 0, 69, 0
2, 149591, Note_off_c, 0, 47, 0
2, 149592, Note_on_c, 0, 47, 84
2, 149714, Note_on_c, 0, 74, 70
2, 149837, Note_off_c, 0, 71, 0
2, 149837, Note_on_c, 0, 71, 82
2, 150071, Note_off_c, 0, 74, 0
2, 150071, Note_on_c, 0, 74, 71
2, 150082, Note_off_c, 0, 47, 0
2, 150082, Note_on_c, 0, 47, 87
2, 150194, Note_off_c, 0, 71, 0
2, 150194, Note_on_c, 0, 71, 77
2, 150428, Note_off_c, 0, 74, 0
2, 150428, Note_on_c, 0, 74, 83
2, 150561, Note_off_c, 0, 47, 0
2, 150561, Note_on_c, 0, 71, 77
2, 150561, Note_on_c, 0, 47, 95
2, 150562, Note_off_c, 0, 71, 0
2, 150663, Note_off_c, 0, 74, 0
2, 150897, Note_off_c, 0, 71, 0
2, 151019, Note_off_c, 0, 47, 0
2, 151020, Note_on_c, 0, 90, 50
2, 151020, Note_on_c, 0, 78, 74
2, 151020, Note_on_c, 0, 47, 87
2, 151142, Note_on_c, 0, 74, 81
2, 151165, Note_off_c, 0, 90, 0
2, 151198, Note_off_c, 0, 78, 0
2, 151276, Note_on_c, 0, 71, 92
2, 151398, Note_off_c, 0, 74, 0
2, 151510, Note_on_c, 0, 76, 80
2, 151521, Note_on_c, 0, 47, 80
2, 151522, Note_off_c, 0, 47, 0
2, 151555, Note_off_c, 0, 71, 0
2, 151633, Note_on_c, 0, 73, 87
2, 151722, Note_off_c, 0, 76, 0
2, 151755, Note_on_c, 0, 69, 88
2, 151766, Note_on_c, 0, 66, 41
2, 151867, Note_off_c, 0, 73, 0
2, 151878, Note_on_c, 0, 71, 85
2, 151967, Note_off_c, 0, 69, 0
2, 151989, Note_off_c, 0, 66, 0
2, 151989, Note_on_c, 0, 66, 38
2, 152000, Note_off_c, 0, 47, 0
2, 152000, Note_on_c, 0, 47, 82
2, 152123, Note_off_c, 0, 71, 0
2, 152123, Note_off_c, 0, 66, 0
2, 152123, Note_on_c, 0, 69, 83
2, 152123, Note_on_c, 0, 66, 55
2, 152324, Note_off_c, 0, 66, 0
2, 152357, Note_on_c, 0, 71, 87
2, 152479, Note_off_c, 0, 47, 0
2, 152480, Note_off_c, 0, 69, 0
2, 152480, Note_on_c, 0, 69, 93
2, 152480, Note_on_c, 0, 66, 54
2, 152480, Note_on_c, 0, 47, 94
2, 152513, Note_off_c, 0, 71, 0
2, 152838, Note_off_c, 0, 66, 0
2, 152882, Note_off_c, 0, 69, 0
2, 152949, Note_on_c, 0, 71, 71
2, 152949, Note_on_c, 0, 66, 24
2, 152960, Note_off_c, 0, 47, 0
2, 152960, Note_on_c, 0, 47, 84
2, 153083, Note_off_c, 0, 66, 0
2, 153083, Note_on_c, 0, 69, 84
2, 153083, Note_on_c, 0, 66, 47
2, 153194, Note_off_c, 0, 71, 0
2, 153194, Note_on_c, 0, 71, 86
2, 153194, Note_on_c, 0, 59, 43
2, 153261, Note_off_c, 0, 66, 0
2, 153295, Note_off_c, 0, 69, 0
2, 153339, Note_off_c, 0, 59, 0
2, 153428, Note_on_c, 0, 76, 77
2, 153439, Note_off_c, 0, 47, 0
2, 153439, Note_on_c, 0, 47, 98
2, 153461, Note_off_c, 0, 71, 0
2, 153551, Note_on_c, 0, 80, 72
2, 153651, Note_off_c, 0, 76, 0
2, 153785, Note_off_c, 0, 47, 0
2, 153785, Note_on_c, 0, 47, 81
2, 153908, Note_off_c, 0, 80, 0
2, 153908, Note_on_c, 0, 80, 81
2, 153919, Note_off_c, 0, 47, 0
2, 153919, Note_on_c, 0, 47, 94
2, 154153, Note_on_c, 0, 76, 77
2, 154187, Note_off_c, 0, 80, 0
2, 154264, Note_on_c, 0, 90, 51
2, 154264, Note_on_c, 0, 78, 73
2, 154264, Note_on_c, 0, 66, 39
2, 154309, Note_off_c, 0, 47, 0
2, 154309, Note_on_c, 0, 47, 92
2, 154376, Note_off_c, 0, 76, 0
2, 154398, Note_off_c, 0, 66, 0
2, 154398, Note_on_c, 0, 66, 49
2, 154431, Note_off_c, 0, 90, 0
2, 154511, Note_off_c, 0, 47, 0
2, 154511, Note_on_c, 0, 81, 76
2, 154511, Note_on_c, 0, 47, 93
2, 154544, Note_off_c, 0, 78, 0
2, 154611, Note_off_c, 0, 66, 0
2, 154622, Note_on_c, 0, 83, 86
2, 154689, Note_off_c, 0, 81, 0
2, 154745, Note_on_c, 0, 66, 43
2, 154834, Note_off_c, 0, 83, 0
2, 154867, Note_on_c, 0, 86, 54
2, 154878, Note_on_c, 0, 47, 103
2, 154879, Note_off_c, 0, 47, 0
2, 154934, Note_off_c, 0, 66, 0
2, 155324, Note_off_c, 0, 86, 0
2, 155346, Note_off_c, 0, 47, 0
2, 155347, Note_on_c, 0, 47, 102
2, 155837, Note_off_c, 0, 47, 0
2, 155837, Note_on_c, 0, 47, 102
2, 156071, Note_on_c, 0, 83, 75
2, 156082, Note_off_c, 0, 47, 0
2, 156082, Note_on_c, 0, 47, 93
2, 156316, Note_on_c, 0, 86, 75
2, 156327, Note_off_c, 0, 47, 0
2, 156327, Note_on_c, 0, 47, 104
2, 156484, Note_off_c, 0, 86, 0
2, 156540, Note_off_c, 0, 83, 0
2, 156540, Note_on_c, 0, 83, 91
2, 156551, Note_off_c, 0, 47, 0
2, 156552, Note_on_c, 0, 47, 91
2, 156786, Note_off_c, 0, 47, 0
2, 156786, Note_on_c, 0, 47, 99
2, 157020, Note_on_c, 0, 86, 75
2, 157030, Note_off_c, 0, 83, 0
2, 157221, Note_off_c, 0, 86, 0
2, 157265, Note_off_c, 0, 47, 0
2, 157265, Note_on_c, 0, 47, 99
2, 157510, Note_on_c, 0, 86, 77
2, 157711, Note_off_c, 0, 86, 0
2, 157744, Note_on_c, 0, 83, 87
2, 157755, Note_off_c, 0, 47, 0
2, 157755, Note_on_c, 0, 47, 99
2, 158234, Note_off_c, 0, 47, 0
2, 158235, Note_on_c, 0, 47, 96
2, 158325, Note_off_c, 0, 83, 0
2, 158436, Note_on_c, 0, 85, 67
2, 158570, Note_off_c, 0, 85, 0
2, 158581, Note_on_c, 0, 86, 77
2, 158704, Note_on_c, 0, 66, 47
2, 158715, Note_off_c, 0, 47, 0
2, 158715, Note_off_c, 0, 86, 0
2, 158715, Note_on_c, 0, 47, 101
2, 158849, Note_off_c, 0, 66, 0
2, 158938, Note_on_c, 0, 83, 80
2, 158949, Note_off_c, 0, 47, 0
2, 158949, Note_on_c, 0, 47, 82
2, 159183, Note_off_c, 0, 83, 0
2, 159183, Note_on_c, 0, 83, 65
2, 159194, Note_off_c, 0, 47, 0
2, 159194, Note_on_c, 0, 47, 87
2, 159428, Note_on_c, 0, 81, 54
2, 159551, Note_off_c, 0, 83, 0
2, 159551, Note_on_c, 0, 83, 87
2, 159673, Note_off_c, 0, 47, 0
2, 159673, Note_off_c, 0, 81, 0
2, 159674, Note_on_c, 0, 81, 69
2, 159674, Note_on_c, 0, 47, 94
2, 159696, Note_off_c, 0, 83, 0
2, 159897, Note_off_c, 0, 81, 0
2, 159919, Note_on_c, 0, 80, 79
2, 160153, Note_off_c, 0, 80, 0
2, 160153, Note_on_c, 0, 80, 67
2, 160164, Note_off_c, 0, 47, 0
2, 160164, Note_on_c, 0, 47, 93
2, 160377, Note_on_c, 0, 78, 65
2, 160500, Note_off_c, 0, 80, 0
2, 160500, Note_on_c, 0, 80, 82
2, 160622, Note_off_c, 0, 78, 0
2, 160622, Note_on_c, 0, 78, 74
2, 160622, Note_on_c, 0, 66, 40
2, 160633, Note_off_c, 0, 47, 0
2, 160633, Note_on_c, 0, 47, 94
2, 160645, Note_off_c, 0, 80, 0
2, 160756, Note_off_c, 0, 66, 0
2, 160789, Note_on_c, 0, 80, 85
2, 160800, Note_off_c, 0, 78, 0
2, 160945, Note_on_c, 0, 78, 77
2, 160967, Note_off_c, 0, 80, 0
2, 161090, Note_on_c, 0, 66, 55
2, 161112, Note_off_c, 0, 47, 0
2, 161113, Note_on_c, 0, 76, 66
2, 161113, Note_on_c, 0, 47, 91
2, 161123, Note_off_c, 0, 78, 0
2, 161224, Note_off_c, 0, 66, 0
2, 161269, Note_on_c, 0, 78, 70
2, 161269, Note_on_c, 0, 66, 45
2, 161425, Note_off_c, 0, 78, 0
2, 161436, Note_off_c, 0, 76, 0
2, 161436, Note_on_c, 0, 76, 61
2, 161592, Note_off_c, 0, 47, 0
2, 161592, Note_on_c, 0, 74, 70
2, 161592, Note_on_c, 0, 47, 89
2, 161637, Note_off_c, 0, 66, 0
2, 161748, Note_off_c, 0, 76, 0
2, 161748, Note_on_c, 0, 76, 87
2, 161904, Note_off_c, 0, 74, 0
2, 161904, Note_on_c, 0, 74, 99
2, 161937, Note_off_c, 0, 76, 0
2, 162071, Note_off_c, 0, 47, 0
2, 162071, Note_off_c, 0, 74, 0
2, 162071, Note_on_c, 0, 73, 93
2, 162071, Note_on_c, 0, 47, 82
2, 162228, Note_off_c, 0, 73, 0
2, 162228, Note_on_c, 0, 74, 94
2, 162384, Note_off_c, 0, 74, 0
2, 162384, Note_on_c, 0, 73, 91
2, 162552, Note_on_c, 0, 71, 76
2, 162563, Note_off_c, 0, 47, 0
2, 162563, Note_on_c, 0, 47, 90
2, 162585, Note_off_c, 0, 73, 0
2, 163031, Note_off_c, 0, 71, 0
2, 163031, Note_off_c, 0, 47, 0
2, 163031, Note_on_c, 0, 47, 91
2, 163510, Note_off_c, 0, 47, 0
2, 163510, Note_on_c, 0, 47, 88
2, 163755, Note_on_c, 0, 66, 84
2, 164000, Note_on_c, 0, 71, 82
2, 164012, Note_off_c, 0, 47, 0
2, 164012, Note_on_c, 0, 47, 87
2, 164068, Note_off_c, 0, 66, 0
2, 164225, Note_on_c, 0, 66, 79
2, 164246, Note_off_c, 0, 71, 0
2, 164470, Note_off_c, 0, 47, 0
2, 164470, Note_on_c, 0, 62, 82
2, 164470, Note_on_c, 0, 47, 76
2, 164649, Note_off_c, 0, 66, 0
2, 164715, Note_on_c, 0, 64, 85
2, 164749, Note_off_c, 0, 62, 0
2, 164982, Note_off_c, 0, 64, 0
2, 165072, Note_off_c, 0, 47, 0
2, 165072, Note_on_c, 0, 66, 72
2, 165072, Note_on_c, 0, 47, 81
2, 165306, Note_off_c, 0, 66, 0
2, 165306, Note_on_c, 0, 66, 72
2, 165440, Note_off_c, 0, 47, 0
2, 165440, Note_on_c, 0, 47, 95
2, 165919, Note_off_c, 0, 47, 0
2, 165919, Note_on_c, 0, 47, 92
2, 165943, Note_off_c, 0, 66, 0
2, 166388, Note_on_c, 0, 71, 76
2, 166399, Note_off_c, 0, 47, 0
2, 166399, Note_on_c, 0, 47, 90
2, 166867, Note_off_c, 0, 71, 0
2, 166867, Note_off_c, 0, 47, 0
2, 166867, Note_on_c, 0, 47, 94
2, 167357, Note_off_c, 0, 47, 0
2, 167358, Note_on_c, 0, 47, 93
2, 167827, Note_off_c, 0, 47, 0
2, 167827, Note_on_c, 0, 47, 92
2, 168306, Note_off_c, 0, 47, 0
2, 168306, Note_on_c, 0, 71, 71
2, 168306, Note_on_c, 0, 66, 80
2, 168306, Note_on_c, 0, 47, 89
2, 168674, Note_off_c, 0, 71, 0
2, 168674, Note_off_c, 0, 66, 0
2, 168674, Note_off_c, 0, 47, 0
2, 168674, Note_on_c, 0, 71, 71
2, 168674, Note_on_c, 0, 66, 82
2, 168674, Note_on_c, 0, 47, 86
2, 169031, Note_off_c, 0, 66, 0
2, 169031, Note_off_c, 0, 47, 0
2, 169031, Note_on_c, 0, 66, 71
2, 169031, Note_on_c, 0, 47, 91
2, 169042, Note_off_c, 0, 71, 0
2, 169042, Note_on_c, 0, 71, 57
2, 169700, Note_off_c, 0, 71, 0
2, 169745, Note_on_c, 0, 47, 90
2, 169746, Note_off_c, 0, 47, 0
2, 169779, Note_off_c, 0, 66, 0
2, 170225, Note_on_c, 0, 78, 63
2, 170225, Note_on_c, 0, 73, 91
2, 170225, Note_on_c, 0, 44, 93
2, 170258, Note_off_c, 0, 47, 0
2, 170704, Note_off_c, 0, 73, 0
2, 170738, Note_off_c, 0, 78, 0
2, 170949, Note_off_c, 0, 44, 0
2, 170949, Note_on_c, 0, 76, 62
2, 170960, Note_on_c, 0, 71, 85
2, 170960, Note_on_c, 0, 42, 95
2, 171730, Note_off_c, 0, 76, 0
2, 171819, Note_off_c, 0, 71, 0
2, 172154, Note_off_c, 0, 42, 0
2, 172154, Note_on_c, 0, 76, 66
2, 172154, Note_on_c, 0, 71, 89
2, 172154, Note_on_c, 0, 42, 95
2, 172823, Note_off_c, 0, 76, 0
2, 172834, Note_off_c, 0, 71, 0
2, 172856, Note_on_c, 0, 40, 89
2, 172867, Note_off_c, 0, 42, 0
2, 172867, Note_on_c, 0, 74, 78
2, 172879, Note_on_c, 0, 69, 79
2, 173268, Note_off_c, 0, 74, 0
2, 173414, Note_off_c, 0, 69, 0
2, 173983, Note_off_c, 0, 40, 0
2, 174072, Note_on_c, 0, 81, 65
2, 174072, Note_on_c, 0, 76, 76
2, 174072, Note_on_c, 0, 49, 90
2, 174718, Note_off_c, 0, 81, 0
2, 174752, Note_off_c, 0, 76, 0
2, 174763, Note_off_c, 0, 49, 0
2, 174797, Note_on_c, 0, 80, 67
2, 174797, Note_on_c, 0, 73, 82
2, 174797, Note_on_c, 0, 47, 96
2, 175276, Note_off_c, 0, 73, 0
2, 175399, Note_on_c, 0, 73, 48
2, 175634, Note_off_c, 0, 73, 0
2, 175656, Note_off_c, 0, 80, 0
2, 175946, Note_off_c, 0, 47, 0
2, 175991, Note_on_c, 0, 80, 66
2, 175991, Note_on_c, 0, 75, 79
2, 175991, Note_on_c, 0, 46, 96
2, 176660, Note_off_c, 0, 80, 0
2, 176715, Note_on_c, 0, 79, 75
2, 176726, Note_on_c, 0, 75, 73
2, 176726, Note_on_c, 0, 46, 99
2, 176727, Note_off_c, 0, 75, 0
2, 176727, Note_off_c, 0, 46, 0
2, 177474, Note_off_c, 0, 75, 0
2, 177508, Note_off_c, 0, 79, 0
2, 177864, Note_off_c, 0, 46, 0
2, 177909, Note_on_c, 0, 83, 78
2, 177920, Note_on_c, 0, 78, 72
2, 177920, Note_on_c, 0, 43, 96
2, 178355, Note_off_c, 0, 78, 0
2, 178388, Note_off_c, 0, 83, 0
2, 178410, Note_off_c, 0, 43, 0
2, 178410, Note_on_c, 0, 43, 98
2, 178900, Note_off_c, 0, 43, 0
2, 178901, Note_on_c, 0, 43, 97
2, 179370, Note_off_c, 0, 43, 0
2, 179370, Note_on_c, 0, 43, 98
2, 179827, Note_off_c, 0, 43, 0
2, 179827, Note_on_c, 0, 43, 104
2, 179838, Note_on_c, 0, 76, 77
2, 179838, Note_on_c, 0, 71, 73
2, 180317, Note_off_c, 0, 76, 0
2, 180340, Note_off_c, 0, 43, 0
2, 180340, Note_on_c, 0, 43, 103
2, 180418, Note_off_c, 0, 71, 0
2, 180786, Note_on_c, 0, 78, 66
2, 180797, Note_off_c, 0, 43, 0
2, 180797, Note_on_c, 0, 71, 77
2, 180797, Note_on_c, 0, 43, 100
2, 181222, Note_off_c, 0, 78, 0
2, 181300, Note_off_c, 0, 43, 0
2, 181300, Note_on_c, 0, 43, 97
2, 181378, Note_off_c, 0, 71, 0
2, 181745, Note_on_c, 0, 90, 50
2, 181745, Note_on_c, 0, 83, 75
2, 181745, Note_on_c, 0, 78, 75
2, 181745, Note_on_c, 0, 42, 95
2, 181746, Note_off_c, 0, 43, 0
2, 181901, Note_off_c, 0, 90, 0
2, 182202, Note_off_c, 0, 78, 0
2, 182247, Note_off_c, 0, 42, 0
2, 182247, Note_on_c, 0, 42, 100
2, 182626, Note_off_c, 0, 83, 0
2, 182749, Note_off_c, 0, 42, 0
2, 182749, Note_on_c, 0, 42, 99
2, 183207, Note_off_c, 0, 42, 0
2, 183207, Note_on_c, 0, 42, 100
2, 183664, Note_off_c, 0, 42, 0
2, 183664, Note_on_c, 0, 90, 55
2, 183664, Note_on_c, 0, 78, 71
2, 183664, Note_on_c, 0, 42, 99
2, 183675, Note_on_c, 0, 97, 58
2, 183675, Note_on_c, 0, 82, 62
2, 183809, Note_off_c, 0, 97, 0
2, 183820, Note_off_c, 0, 90, 0
2, 184132, Note_off_c, 0, 78, 0
2, 184143, Note_off_c, 0, 82, 0
2, 184176, Note_on_c, 0, 42, 96
2, 184177, Note_off_c, 0, 42, 0
2, 184655, Note_off_c, 0, 42, 0
2, 184656, Note_on_c, 0, 42, 95
2, 185125, Note_off_c, 0, 42, 0
2, 185125, Note_on_c, 0, 42, 83
2, 185582, Note_on_c, 0, 59, 70
2, 185593, Note_on_c, 0, 47, 90
2, 185760, Note_off_c, 0, 42, 0
2, 185916, Note_off_c, 0, 59, 0
2, 185950, Note_off_c, 0, 47, 0
2, 185950, Note_on_c, 0, 61, 81
2, 185950, Note_on_c, 0, 46, 82
2, 186284, Note_off_c, 0, 61, 0
2, 186306, Note_on_c, 0, 62, 85
2, 186329, Note_off_c, 0, 46, 0
2, 186329, Note_on_c, 0, 45, 83
2, 186663, Note_off_c, 0, 62, 0
2, 186663, Note_off_c, 0, 45, 0
2, 186663, Note_on_c, 0, 44, 76
2, 186674, Note_on_c, 0, 66, 97
2, 187021, Note_off_c, 0, 44, 0
2, 187021, Note_off_c, 0, 66, 0
2, 187021, Note_on_c, 0, 65, 89
2, 187021, Note_on_c, 0, 43, 76
2, 187266, Note_off_c, 0, 65, 0
2, 187266, Note_on_c, 0, 66, 86
2, 187277, Note_off_c, 0, 43, 0
2, 187277, Note_on_c, 0, 42, 72
2, 187500, Note_off_c, 0, 66, 0
2, 187511, Note_on_c, 0, 71, 83
2, 187511, Note_on_c, 0, 59, 41
2, 187511, Note_on_c, 0, 47, 86
2, 187667, Note_off_c, 0, 59, 0
2, 187745, Note_off_c, 0, 42, 0
2, 187812, Note_off_c, 0, 71, 0
2, 187868, Note_on_c, 0, 73, 90
2, 187879, Note_off_c, 0, 47, 0
2, 187879, Note_on_c, 0, 46, 86
2, 188191, Note_off_c, 0, 73, 0
2, 188225, Note_on_c, 0, 74, 91
2, 188247, Note_off_c, 0, 46, 0
2, 188247, Note_on_c, 0, 45, 84
2, 188548, Note_off_c, 0, 74, 0
2, 188593, Note_on_c, 0, 75, 77
2, 188604, Note_off_c, 0, 45, 0
2, 188604, Note_on_c, 0, 44, 76
2, 188873, Note_off_c, 0, 75, 0
2, 188950, Note_on_c, 0, 78, 67
2, 189018, Note_off_c, 0, 44, 0
2, 189062, Note_on_c, 0, 43, 86
2, 189184, Note_off_c, 0, 78, 0
2, 189184, Note_on_c, 0, 78, 75
2, 189207, Note_off_c, 0, 43, 0
2, 189207, Note_on_c, 0, 42, 79
2, 189373, Note_off_c, 0, 78, 0
2, 189430, Note_on_c, 0, 71, 87
2, 189430, Note_on_c, 0, 59, 46
2, 189430, Note_on_c, 0, 47, 90
2, 189653, Note_off_c, 0, 59, 0
2, 189675, Note_off_c, 0, 42, 0
2, 189764, Note_off_c, 0, 71, 0
2, 189786, Note_on_c, 0, 73, 93
2, 189797, Note_on_c, 0, 46, 92
2, 189798, Note_off_c, 0, 47, 0
2, 190120, Note_off_c, 0, 73, 0
2, 190143, Note_on_c, 0, 74, 94
2, 190154, Note_off_c, 0, 46, 0
2, 190154, Note_on_c, 0, 45, 89
2, 190477, Note_off_c, 0, 74, 0
2, 190500, Note_on_c, 0, 97, 45
2, 190511, Note_on_c, 0, 90, 65
2, 190522, Note_off_c, 0, 45, 0
2, 190522, Note_on_c, 0, 78, 80
2, 190522, Note_on_c, 0, 44, 96
2, 190645, Note_off_c, 0, 97, 0
2, 190678, Note_off_c, 0, 90, 0
2, 190813, Note_off_c, 0, 78, 0
2, 190858, Note_off_c, 0, 44, 0
2, 190858, Note_on_c, 0, 43, 94
2, 190869, Note_on_c, 0, 77, 64
2, 191103, Note_off_c, 0, 77, 0
2, 191103, Note_on_c, 0, 77, 77
2, 191114, Note_off_c, 0, 43, 0
2, 191114, Note_on_c, 0, 43, 98
2, 191292, Note_off_c, 0, 77, 0
2, 191348, Note_on_c, 0, 90, 56
2, 191348, Note_on_c, 0, 83, 78
2, 191348, Note_on_c, 0, 78, 75
2, 191359, Note_off_c, 0, 43, 0
2, 191359, Note_on_c, 0, 42, 96
2, 191526, Note_off_c, 0, 90, 0
2, 191894, Note_off_c, 0, 78, 0
2, 192318, Note_off_c, 0, 83, 0
2, 193266, Note_off_c, 0, 42, 0
2, 193266, Note_on_c, 0, 97, 58
2, 193266, Note_on_c, 0, 90, 54
2, 193266, Note_on_c, 0, 82, 63
2, 193266, Note_on_c, 0, 78, 78
2, 193266, Note_on_c, 0, 54, 38
2, 193266, Note_on_c, 0, 42, 93
2, 193411, Note_off_c, 0, 97, 0
2, 193411, Note_off_c, 0, 54, 0
2, 193422, Note_off_c, 0, 90, 0
2, 193667, Note_off_c, 0, 78, 0
2, 193756, Note_off_c, 0, 82, 0
2, 194683, Note_off_c, 0, 42, 0
2, 194705, Note_on_c, 0, 71, 43
2, 194705, Note_on_c, 0, 59, 80
2, 194828, Note_on_c, 0, 62, 76
2, 194861, Note_off_c, 0, 71, 0
2, 194950, Note_on_c, 0, 64, 76
2, 194984, Note_off_c, 0, 59, 0
2, 195029, Note_off_c, 0, 62, 0
2, 195151, Note_off_c, 0, 64, 0
2, 195184, Note_on_c, 0, 66, 74
2, 195184, Note_on_c, 0, 47, 94
2, 195674, Note_off_c, 0, 47, 0
2, 195675, Note_on_c, 0, 47, 94
2, 195786, Note_off_c, 0, 66, 0
2, 196154, Note_off_c, 0, 47, 0
2, 196154, Note_on_c, 0, 47, 92
2, 196399, Note_off_c, 0, 47, 0
2, 196399, Note_on_c, 0, 59, 80
2, 196399, Note_on_c, 0, 47, 81
2, 196623, Note_off_c, 0, 47, 0
2, 196623, Note_on_c, 0, 66, 46
2, 196623, Note_on_c, 0, 62, 76
2, 196623, Note_on_c, 0, 47, 79
2, 196634, Note_off_c, 0, 59, 0
2, 196880, Note_on_c, 0, 69, 100
2, 197002, Note_off_c, 0, 62, 0
2, 197069, Note_off_c, 0, 66, 0
2, 197114, Note_off_c, 0, 69, 0
2, 197114, Note_on_c, 0, 68, 84
2, 197136, Note_off_c, 0, 47, 0
2, 197136, Note_on_c, 0, 47, 95
2, 197593, Note_off_c, 0, 47, 0
2, 197593, Note_on_c, 0, 47, 95
2, 197950, Note_off_c, 0, 68, 0
2, 198072, Note_off_c, 0, 47, 0
2, 198072, Note_on_c, 0, 47, 89
2, 198306, Note_on_c, 0, 66, 81
2, 198552, Note_off_c, 0, 47, 0
2, 198553, Note_on_c, 0, 47, 81
2, 198676, Note_on_c, 0, 64, 88
2, 198697, Note_off_c, 0, 66, 0
2, 199032, Note_off_c, 0, 47, 0
2, 199032, Note_on_c, 0, 66, 74
2, 199032, Note_on_c, 0, 47, 91
2, 199055, Note_off_c, 0, 64, 0
2, 199511, Note_off_c, 0, 47, 0
2, 199511, Note_on_c, 0, 47, 94
2, 199634, Note_off_c, 0, 66, 0
2, 200001, Note_off_c, 0, 47, 0
2, 200002, Note_on_c, 0, 47, 101
2, 200471, Note_off_c, 0, 47, 0
2, 200471, Note_on_c, 0, 47, 103
2, 200950, Note_off_c, 0, 47, 0
2, 200950, Note_on_c, 0, 47, 96
2, 201441, Note_on_c, 0, 44, 90
2, 201541, Note_off_c, 0, 47, 0
2, 201931, Note_off_c, 0, 44, 0
2, 201942, Note_on_c, 0, 45, 89
2, 202389, Note_off_c, 0, 45, 0
2, 202389, Note_on_c, 0, 59, 76
2, 202389, Note_on_c, 0, 46, 75
2, 202501, Note_on_c, 0, 62, 78
2, 202634, Note_off_c, 0, 59, 0
2, 202635, Note_on_c, 0, 64, 72
2, 202679, Note_off_c, 0, 62, 0
2, 202824, Note_off_c, 0, 64, 0
2, 202846, Note_off_c, 0, 46, 0
2, 202869, Note_on_c, 0, 66, 73
2, 202869, Note_on_c, 0, 47, 92
2, 203359, Note_off_c, 0, 47, 0
2, 203359, Note_on_c, 0, 47, 94
2, 203471, Note_off_c, 0, 66, 0
2, 203838, Note_off_c, 0, 47, 0
2, 203838, Note_on_c, 0, 47, 93
2, 204073, Note_off_c, 0, 47, 0
2, 204074, Note_on_c, 0, 59, 80
2, 204074, Note_on_c, 0, 47, 85
2, 204297, Note_off_c, 0, 47, 0
2, 204297, Note_on_c, 0, 66, 49
2, 204297, Note_on_c, 0, 62, 75
2, 204297, Note_on_c, 0, 47, 81
2, 204319, Note_off_c, 0, 59, 0
2, 204553, Note_on_c, 0, 69, 100
2, 204665, Note_off_c, 0, 62, 0
2, 204765, Note_off_c, 0, 66, 0
2, 204798, Note_off_c, 0, 69, 0
2, 204798, Note_on_c, 0, 68, 93
2, 204809, Note_on_c, 0, 47, 94
2, 204810, Note_off_c, 0, 47, 0
2, 205277, Note_off_c, 0, 47, 0
2, 205277, Note_on_c, 0, 47, 91
2, 205489, Note_off_c, 0, 68, 0
2, 205523, Note_on_c, 0, 69, 73
2, 205523, Note_on_c, 0, 66, 51
2, 205756, Note_off_c, 0, 47, 0
2, 205757, Note_off_c, 0, 66, 0
2, 205757, Note_on_c, 0, 66, 42
2, 205757, Note_on_c, 0, 47, 94
2, 205992, Note_off_c, 0, 66, 0
2, 206137, Note_off_c, 0, 69, 0
2, 206226, Note_on_c, 0, 71, 76
2, 206237, Note_off_c, 0, 47, 0
2, 206237, Note_on_c, 0, 47, 87
2, 206694, Note_off_c, 0, 71, 0
2, 206716, Note_on_c, 0, 68, 99
2, 206727, Note_off_c, 0, 47, 0
2, 206728, Note_on_c, 0, 47, 85
2, 207073, Note_on_c, 0, 66, 71
2, 207084, Note_off_c, 0, 68, 0
2, 207196, Note_off_c, 0, 47, 0
2, 207196, Note_on_c, 0, 47, 94
2, 207675, Note_off_c, 0, 47, 0
2, 207675, Note_on_c, 0, 47, 98
2, 207719, Note_off_c, 0, 66, 0
2, 208155, Note_off_c, 0, 47, 0
2, 208155, Note_on_c, 0, 47, 99
2, 208634, Note_off_c, 0, 47, 0
2, 208635, Note_on_c, 0, 47, 90
2, 209125, Note_on_c, 0, 44, 93
2, 209259, Note_off_c, 0, 47, 0
2, 209615, Note_off_c, 0, 44, 0
2, 209615, Note_on_c, 0, 45, 93
2, 210074, Note_on_c, 0, 71, 81
2, 210084, Note_off_c, 0, 45, 0
2, 210085, Note_on_c, 0, 46, 88
2, 210185, Note_on_c, 0, 74, 80
2, 210308, Note_on_c, 0, 76, 82
2, 210319, Note_off_c, 0, 71, 0
2, 210374, Note_off_c, 0, 74, 0
2, 210497, Note_off_c, 0, 76, 0
2, 210531, Note_off_c, 0, 46, 0
2, 210542, Note_on_c, 0, 90, 51
2, 210542, Note_on_c, 0, 78, 74
2, 210542, Note_on_c, 0, 66, 44
2, 210553, Note_on_c, 0, 47, 94
2, 210676, Note_off_c, 0, 90, 0
2, 210787, Note_off_c, 0, 78, 0
2, 210954, Note_off_c, 0, 66, 0
2, 211043, Note_off_c, 0, 47, 0
2, 211043, Note_on_c, 0, 47, 95
2, 211522, Note_off_c, 0, 47, 0
2, 211523, Note_on_c, 0, 47, 85
2, 211747, Note_on_c, 0, 71, 91
2, 211981, Note_on_c, 0, 74, 85
2, 211992, Note_off_c, 0, 47, 0
2, 211992, Note_on_c, 0, 47, 87
2, 212037, Note_off_c, 0, 71, 0
2, 212226, Note_on_c, 0, 81, 79
2, 212304, Note_off_c, 0, 74, 0
2, 212471, Note_off_c, 0, 47, 0
2, 212471, Note_off_c, 0, 81, 0
2, 212471, Note_on_c, 0, 80, 84
2, 212471, Note_on_c, 0, 47, 103
2, 212961, Note_off_c, 0, 47, 0
2, 212962, Note_on_c, 0, 47, 99
2, 212973, Note_off_c, 0, 80, 0
2, 213441, Note_off_c, 0, 47, 0
2, 213441, Note_on_c, 0, 47, 91
2, 213654, Note_on_c, 0, 78, 79
2, 213910, Note_off_c, 0, 47, 0
2, 213910, Note_on_c, 0, 66, 42
2, 213910, Note_on_c, 0, 47, 95
2, 213921, Note_off_c, 0, 78, 0
2, 214022, Note_on_c, 0, 76, 91
2, 214177, Note_off_c, 0, 66, 0
2, 214389, Note_off_c, 0, 47, 0
2, 214389, Note_on_c, 0, 90, 58
2, 214389, Note_on_c, 0, 78, 72
2, 214389, Note_on_c, 0, 66, 45
2, 214389, Note_on_c, 0, 47, 98
2, 214412, Note_off_c, 0, 76, 0
2, 214545, Note_off_c, 0, 90, 0
2, 214690, Note_off_c, 0, 78, 0
2, 214879, Note_off_c, 0, 47, 0
2, 214880, Note_on_c, 0, 47, 100
2, 214946, Note_off_c, 0, 66, 0
2, 215181, Note_on_c, 0, 66, 38
2, 215359, Note_off_c, 0, 47, 0
2, 215359, Note_off_c, 0, 66, 0
2, 215359, Note_on_c, 0, 47, 102
2, 215828, Note_off_c, 0, 47, 0
2, 215829, Note_on_c, 0, 47, 101
2, 216308, Note_off_c, 0, 47, 0
2, 216308, Note_on_c, 0, 47, 90
2, 216809, Note_on_c, 0, 44, 94
2, 216954, Note_off_c, 0, 47, 0
2, 217299, Note_off_c, 0, 44, 0
2, 217300, Note_on_c, 0, 45, 93
2, 217758, Note_off_c, 0, 45, 0
2, 217758, Note_on_c, 0, 71, 81
2, 217758, Note_on_c, 0, 46, 86
2, 217858, Note_on_c, 0, 74, 80
2, 217992, Note_on_c, 0, 76, 82
2, 218003, Note_off_c, 0, 71, 0
2, 218059, Note_off_c, 0, 74, 0
2, 218181, Note_off_c, 0, 76, 0
2, 218226, Note_off_c, 0, 46, 0
2, 218226, Note_on_c, 0, 78, 72
2, 218226, Note_on_c, 0, 66, 41
2, 218237, Note_on_c, 0, 47, 95
2, 218493, Note_off_c, 0, 78, 0
2, 218527, Note_off_c, 0, 66, 0
2, 218716, Note_off_c, 0, 47, 0
2, 218716, Note_on_c, 0, 47, 96
2, 219195, Note_off_c, 0, 47, 0
2, 219196, Note_on_c, 0, 47, 90
2, 219431, Note_on_c, 0, 71, 93
2, 219431, Note_on_c, 0, 59, 38
2, 219576, Note_off_c, 0, 59, 0
2, 219665, Note_on_c, 0, 74, 89
2, 219676, Note_off_c, 0, 47, 0
2, 219676, Note_on_c, 0, 47, 89
2, 219721, Note_off_c, 0, 71, 0
2, 219899, Note_on_c, 0, 81, 81
2, 219988, Note_off_c, 0, 74, 0
2, 220133, Note_off_c, 0, 81, 0
2, 220144, Note_off_c, 0, 47, 0
2, 220144, Note_on_c, 0, 83, 80
2, 220144, Note_on_c, 0, 47, 92
2, 220634, Note_off_c, 0, 47, 0
2, 220635, Note_on_c, 0, 47, 88
2, 220679, Note_off_c, 0, 83, 0
2, 220869, Note_on_c, 0, 81, 57
2, 221114, Note_off_c, 0, 47, 0
2, 221114, Note_on_c, 0, 47, 94
2, 221483, Note_off_c, 0, 81, 0
2, 221583, Note_on_c, 0, 80, 84
2, 221594, Note_off_c, 0, 47, 0
2, 221594, Note_on_c, 0, 47, 102
2, 222062, Note_off_c, 0, 80, 0
2, 222063, Note_on_c, 0, 97, 46
2, 222063, Note_on_c, 0, 78, 74
2, 222073, Note_off_c, 0, 47, 0
2, 222074, Note_on_c, 0, 90, 64
2, 222074, Note_on_c, 0, 66, 43
2, 222074, Note_on_c, 0, 59, 38
2, 222074, Note_on_c, 0, 47, 100
2, 222197, Note_off_c, 0, 97, 0
2, 222219, Note_off_c, 0, 59, 0
2, 222230, Note_off_c, 0, 90, 0
2, 222386, Note_off_c, 0, 78, 0
2, 222442, Note_off_c, 0, 66, 0
2, 222553, Note_off_c, 0, 47, 0
2, 222553, Note_on_c, 0, 47, 100
2, 223032, Note_off_c, 0, 47, 0
2, 223032, Note_on_c, 0, 47, 101
2, 223512, Note_off_c, 0, 47, 0
2, 223513, Note_on_c, 0, 47, 100
2, 223992, Note_off_c, 0, 47, 0
2, 223992, Note_on_c, 0, 47, 100
2, 224471, Note_off_c, 0, 47, 0
2, 224471, Note_on_c, 0, 47, 99
2, 224950, Note_off_c, 0, 47, 0
2, 224951, Note_on_c, 0, 47, 92
2, 225398, Note_on_c, 0, 74, 100
2, 225521, Note_off_c, 0, 47, 0
2, 225532, Note_off_c, 0, 74, 0
2, 225542, Note_on_c, 0, 73, 84
2, 225676, Note_on_c, 0, 71, 99
2, 225776, Note_off_c, 0, 73, 0
2, 225921, Note_on_c, 0, 69, 95
2, 225921, Note_on_c, 0, 66, 54
2, 225921, Note_on_c, 0, 47, 90
2, 225932, Note_off_c, 0, 71, 0
2, 226233, Note_off_c, 0, 66, 0
2, 226267, Note_on_c, 0, 71, 65
2, 226278, Note_off_c, 0, 69, 0
2, 226389, Note_off_c, 0, 47, 0
2, 226390, Note_on_c, 0, 47, 86
2, 226635, Note_off_c, 0, 71, 0
2, 226635, Note_on_c, 0, 71, 92
2, 226880, Note_off_c, 0, 47, 0
2, 226880, Note_on_c, 0, 47, 87
2, 226948, Note_off_c, 0, 71, 0
2, 227104, Note_on_c, 0, 66, 78
2, 227360, Note_off_c, 0, 47, 0
2, 227360, Note_on_c, 0, 69, 92
2, 227360, Note_on_c, 0, 47, 84
2, 227594, Note_off_c, 0, 66, 0
2, 227594, Note_on_c, 0, 71, 92
2, 227616, Note_off_c, 0, 69, 0
2, 227828, Note_off_c, 0, 47, 0
2, 227828, Note_off_c, 0, 71, 0
2, 227829, Note_on_c, 0, 73, 89
2, 227829, Note_on_c, 0, 47, 81
2, 228196, Note_on_c, 0, 69, 95
2, 228241, Note_off_c, 0, 73, 0
2, 228319, Note_off_c, 0, 47, 0
2, 228319, Note_on_c, 0, 66, 53
2, 228319, Note_on_c, 0, 47, 90
2, 228508, Note_off_c, 0, 66, 0
2, 228530, Note_off_c, 0, 69, 0
2, 228553, Note_on_c, 0, 71, 86
2, 228798, Note_off_c, 0, 47, 0
2, 228798, Note_on_c, 0, 47, 92
2, 228955, Note_off_c, 0, 71, 0
2, 229234, Note_on_c, 0, 74, 94
2, 229268, Note_on_c, 0, 45, 77
2, 229290, Note_off_c, 0, 47, 0
2, 229368, Note_off_c, 0, 74, 0
2, 229379, Note_on_c, 0, 73, 77
2, 229513, Note_on_c, 0, 71, 94
2, 229568, Note_off_c, 0, 73, 0
2, 229758, Note_on_c, 0, 69, 93
2, 229758, Note_on_c, 0, 66, 51
2, 229758, Note_on_c, 0, 47, 86
2, 229769, Note_off_c, 0, 71, 0
2, 229836, Note_off_c, 0, 45, 0
2, 230048, Note_off_c, 0, 66, 0
2, 230115, Note_off_c, 0, 69, 0
2, 230115, Note_on_c, 0, 71, 89
2, 230237, Note_off_c, 0, 47, 0
2, 230237, Note_on_c, 0, 47, 86
2, 230293, Note_off_c, 0, 71, 0
2, 230482, Note_on_c, 0, 71, 89
2, 230716, Note_off_c, 0, 47, 0
2, 230716, Note_on_c, 0, 47, 87
2, 230784, Note_off_c, 0, 71, 0
2, 230941, Note_on_c, 0, 66, 79
2, 231186, Note_on_c, 0, 73, 93
2, 231196, Note_off_c, 0, 47, 0
2, 231197, Note_on_c, 0, 47, 87
2, 231287, Note_off_c, 0, 66, 0
2, 231420, Note_off_c, 0, 73, 0
2, 231420, Note_on_c, 0, 74, 100
2, 231665, Note_off_c, 0, 74, 0
2, 231665, Note_on_c, 0, 73, 90
2, 231676, Note_off_c, 0, 47, 0
2, 231676, Note_on_c, 0, 47, 85
2, 232044, Note_on_c, 0, 69, 93
2, 232089, Note_off_c, 0, 73, 0
2, 232155, Note_off_c, 0, 47, 0
2, 232155, Note_on_c, 0, 66, 53
2, 232155, Note_on_c, 0, 47, 84
2, 232344, Note_off_c, 0, 66, 0
2, 232345, Note_off_c, 0, 69, 0
2, 232401, Note_on_c, 0, 64, 84
2, 232634, Note_off_c, 0, 47, 0
2, 232635, Note_on_c, 0, 47, 88
2, 232971, Note_off_c, 0, 64, 0
2, 233082, Note_on_c, 0, 74, 95
2, 233115, Note_on_c, 0, 45, 77
2, 233149, Note_off_c, 0, 47, 0
2, 233216, Note_off_c, 0, 74, 0
2, 233227, Note_on_c, 0, 73, 76
2, 233349, Note_on_c, 0, 71, 96
2, 233439, Note_off_c, 0, 73, 0
2, 233595, Note_on_c, 0, 69, 97
2, 233595, Note_on_c, 0, 66, 52
2, 233605, Note_off_c, 0, 71, 0
2, 233606, Note_on_c, 0, 47, 88
2, 233706, Note_off_c, 0, 45, 0
2, 233896, Note_off_c, 0, 66, 0
2, 233951, Note_on_c, 0, 71, 89
2, 233952, Note_off_c, 0, 69, 0
2, 234074, Note_off_c, 0, 47, 0
2, 234074, Note_on_c, 0, 47, 86
2, 234140, Note_off_c, 0, 71, 0
2, 234308, Note_on_c, 0, 71, 94
2, 234319, Note_on_c, 0, 59, 40
2, 234464, Note_off_c, 0, 59, 0
2, 234553, Note_off_c, 0, 47, 0
2, 234553, Note_on_c, 0, 47, 87
2, 234599, Note_off_c, 0, 71, 0
2, 234788, Note_on_c, 0, 66, 78
2, 235033, Note_off_c, 0, 47, 0
2, 235034, Note_on_c, 0, 69, 92
2, 235034, Note_on_c, 0, 47, 83
2, 235267, Note_off_c, 0, 66, 0
2, 235268, Note_on_c, 0, 71, 89
2, 235301, Note_off_c, 0, 69, 0
2, 235513, Note_off_c, 0, 47, 0
2, 235513, Note_on_c, 0, 73, 88
2, 235513, Note_on_c, 0, 47, 82
2, 235535, Note_off_c, 0, 71, 0
2, 235881, Note_on_c, 0, 69, 89
2, 235925, Note_off_c, 0, 73, 0
2, 235992, Note_off_c, 0, 47, 0
2, 235992, Note_on_c, 0, 66, 51
2, 235992, Note_on_c, 0, 47, 87
2, 236159, Note_off_c, 0, 66, 0
2, 236160, Note_off_c, 0, 69, 0
2, 236237, Note_on_c, 0, 71, 91
2, 236248, Note_on_c, 0, 59, 41
2, 236382, Note_off_c, 0, 59, 0
2, 236482, Note_off_c, 0, 47, 0
2, 236482, Note_on_c, 0, 47, 93
2, 236584, Note_off_c, 0, 71, 0
2, 236907, Note_on_c, 0, 74, 94
2, 236952, Note_on_c, 0, 45, 79
2, 236962, Note_off_c, 0, 47, 0
2, 237052, Note_off_c, 0, 74, 0
2, 237063, Note_on_c, 0, 73, 76
2, 237186, Note_on_c, 0, 71, 94
2, 237264, Note_off_c, 0, 73, 0
2, 237431, Note_on_c, 0, 69, 89
2, 237431, Note_on_c, 0, 47, 86
2, 237442, Note_on_c, 0, 66, 53
2, 237453, Note_off_c, 0, 71, 0
2, 237498, Note_off_c, 0, 45, 0
2, 237587, Note_on_c, 0, 74, 84
2, 237687, Note_off_c, 0, 66, 0
2, 237698, Note_off_c, 0, 69, 0
2, 237743, Note_on_c, 0, 78, 88
2, 237743, Note_on_c, 0, 66, 42
2, 237866, Note_off_c, 0, 74, 0
2, 237910, Note_on_c, 0, 76, 88
2, 237921, Note_off_c, 0, 47, 0
2, 237921, Note_off_c, 0, 78, 0
2, 237921, Note_on_c, 0, 47, 87
2, 238044, Note_off_c, 0, 66, 0
2, 238077, Note_off_c, 0, 76, 0
2, 238077, Note_on_c, 0, 75, 79
2, 238245, Note_on_c, 0, 71, 87
2, 238333, Note_off_c, 0, 75, 0
2, 238390, Note_off_c, 0, 47, 0
2, 238390, Note_on_c, 0, 81, 70
2, 238391, Note_on_c, 0, 47, 90
2, 238458, Note_off_c, 0, 71, 0
2, 238547, Note_off_c, 0, 81, 0
2, 238547, Note_on_c, 0, 80, 91
2, 238703, Note_on_c, 0, 78, 80
2, 238725, Note_off_c, 0, 80, 0
2, 238870, Note_off_c, 0, 47, 0
2, 238870, Note_on_c, 0, 74, 95
2, 238870, Note_on_c, 0, 47, 75
2, 238904, Note_off_c, 0, 78, 0
2, 239026, Note_off_c, 0, 74, 0
2, 239026, Note_on_c, 0, 73, 88
2, 239182, Note_on_c, 0, 71, 82
2, 239238, Note_off_c, 0, 73, 0
2, 239372, Note_on_c, 0, 69, 78
2, 239372, Note_on_c, 0, 45, 52
2, 239472, Note_off_c, 0, 71, 0
2, 239472, Note_on_c, 0, 71, 65
2, 239472, Note_on_c, 0, 66, 36
2, 239483, Note_off_c, 0, 47, 0
2, 239483, Note_on_c, 0, 47, 67
2, 239550, Note_off_c, 0, 69, 0
2, 239606, Note_off_c, 0, 66, 0
2, 239717, Note_on_c, 0, 69, 81
2, 239728, Note_on_c, 0, 45, 52
2, 239729, Note_off_c, 0, 45, 0
2, 239840, Note_off_c, 0, 71, 0
2, 239840, Note_off_c, 0, 47, 0
2, 239840, Note_on_c, 0, 71, 73
2, 239840, Note_on_c, 0, 47, 68
2, 239906, Note_off_c, 0, 69, 0
2, 240085, Note_off_c, 0, 45, 0
2, 240085, Note_on_c, 0, 69, 80
2, 240085, Note_on_c, 0, 45, 65
2, 240196, Note_on_c, 0, 71, 75
2, 240196, Note_on_c, 0, 47, 66
2, 240197, Note_off_c, 0, 71, 0
2, 240197, Note_off_c, 0, 47, 0
2, 240274, Note_off_c, 0, 69, 0
2, 240297, Note_off_c, 0, 45, 0
2, 240432, Note_on_c, 0, 69, 80
2, 240432, Note_on_c, 0, 45, 52
2, 240543, Note_off_c, 0, 71, 0
2, 240543, Note_off_c, 0, 47, 0
2, 240543, Note_on_c, 0, 71, 76
2, 240543, Note_on_c, 0, 59, 39
2, 240543, Note_on_c, 0, 47, 65
2, 240621, Note_off_c, 0, 69, 0
2, 240688, Note_off_c, 0, 59, 0
2, 240788, Note_on_c, 0, 69, 74
2, 240799, Note_on_c, 0, 45, 69
2, 240800, Note_off_c, 0, 45, 0
2, 240911, Note_off_c, 0, 47, 0
2, 240911, Note_on_c, 0, 47, 71
2, 240922, Note_off_c, 0, 71, 0
2, 240922, Note_on_c, 0, 71, 74
2, 241011, Note_off_c, 0, 45, 0
2, 241022, Note_on_c, 0, 74, 97
2, 241033, Note_off_c, 0, 69, 0
2, 241034, Note_on_c, 0, 69, 45
2, 241034, Note_on_c, 0, 50, 71
2, 241089, Note_off_c, 0, 71, 0
2, 241168, Note_off_c, 0, 69, 0
2, 241267, Note_off_c, 0, 74, 0
2, 241268, Note_on_c, 0, 74, 82
2, 241279, Note_off_c, 0, 47, 0
2, 241279, Note_on_c, 0, 71, 68
2, 241279, Note_on_c, 0, 47, 88
2, 241424, Note_off_c, 0, 50, 0
2, 241736, Note_off_c, 0, 74, 0
2, 241847, Note_off_c, 0, 71, 0
2, 242014, Note_on_c, 0, 74, 46
2, 242238, Note_off_c, 0, 74, 0
2, 242529, Note_off_c, 0, 47, 0
2, 243197, Note_on_c, 0, 74, 76
2, 243197, Note_on_c, 0, 71, 70
2, 243197, Note_on_c, 0, 47, 88
2, 243676, Note_off_c, 0, 74, 0
2, 243676, Note_off_c, 0, 71, 0
2, 243676, Note_off_c, 0, 47, 0
2, 243676, Note_on_c, 0, 74, 75
2, 243676, Note_on_c, 0, 71, 69
2, 243676, Note_on_c, 0, 47, 88
2, 244156, Note_off_c, 0, 74, 0
2, 244156, Note_off_c, 0, 71, 0
2, 244156, Note_off_c, 0, 47, 0
2, 244157, Note_on_c, 0, 74, 78
2, 244157, Note_on_c, 0, 71, 72
2, 244157, Note_on_c, 0, 47, 90
2, 244636, Note_off_c, 0, 74, 0
2, 244636, Note_off_c, 0, 71, 0
2, 244636, Note_off_c, 0, 47, 0
2, 244636, Note_on_c, 0, 74, 83
2, 244636, Note_on_c, 0, 71, 74
2, 244636, Note_on_c, 0, 47, 89
2, 245026, Note_off_c, 0, 74, 0
2, 245048, Note_off_c, 0, 71, 0
2, 245104, Note_off_c, 0, 47, 0
2, 245104, Note_on_c, 0, 90, 51
2, 245104, Note_on_c, 0, 78, 75
2, 245104, Note_on_c, 0, 66, 37
2, 245104, Note_on_c, 0, 47, 96
2, 245238, Note_off_c, 0, 90, 0
2, 245360, Note_off_c, 0, 66, 0
2, 245371, Note_off_c, 0, 78, 0
2, 245806, Note_off_c, 0, 47, 0
2, 245840, Note_on_c, 0, 74, 86
2, 245851, Note_on_c, 0, 44, 97
2, 246276, Note_off_c, 0, 74, 0
2, 246755, Note_off_c, 0, 44, 0
2, 246788, Note_on_c, 0, 74, 90
2, 247000, Note_off_c, 0, 74, 0
2, 247022, Note_on_c, 0, 77, 61
2, 247034, Note_on_c, 0, 49, 77
2, 247356, Note_off_c, 0, 77, 0
2, 247401, Note_on_c, 0, 76, 94
2, 247747, Note_on_c, 0, 74, 97
2, 247758, Note_off_c, 0, 76, 0
2, 247949, Note_off_c, 0, 49, 0
2, 247982, Note_off_c, 0, 74, 0
2, 247982, Note_on_c, 0, 73, 81
2, 247982, Note_on_c, 0, 42, 89
2, 248305, Note_off_c, 0, 73, 0
2, 248339, Note_on_c, 0, 74, 87
2, 248696, Note_off_c, 0, 74, 0
2, 248707, Note_on_c, 0, 76, 90
2, 248952, Note_on_c, 0, 78, 66
2, 248952, Note_on_c, 0, 66, 44
2, 248952, Note_on_c, 0, 47, 95
2, 248974, Note_off_c, 0, 42, 0
2, 248986, Note_off_c, 0, 76, 0
2, 249108, Note_off_c, 0, 66, 0
2, 249242, Note_off_c, 0, 78, 0
2, 249643, Note_off_c, 0, 47, 0
2, 249665, Note_on_c, 0, 83, 88
2, 249687, Note_on_c, 0, 44, 88
2, 250224, Note_off_c, 0, 83, 0
2, 250391, Note_on_c, 0, 71, 89
2, 250535, Note_off_c, 0, 44, 0
2, 250625, Note_on_c, 0, 73, 101
2, 250759, Note_off_c, 0, 71, 0
2, 250870, Note_off_c, 0, 73, 0
2, 250870, Note_on_c, 0, 74, 85
2, 250881, Note_on_c, 0, 49, 80
2, 251216, Note_off_c, 0, 74, 0
2, 251238, Note_on_c, 0, 76, 93
2, 251583, Note_on_c, 0, 74, 98
2, 251595, Note_off_c, 0, 76, 0
2, 251774, Note_off_c, 0, 49, 0
2, 251818, Note_off_c, 0, 74, 0
2, 251819, Note_on_c, 0, 73, 77
2, 251819, Note_on_c, 0, 42, 84
2, 251830, Note_on_c, 0, 54, 38
2, 251964, Note_off_c, 0, 54, 0
2, 252153, Note_off_c, 0, 73, 0
2, 252187, Note_on_c, 0, 81, 83
2, 252544, Note_off_c, 0, 81, 0
2, 252554, Note_on_c, 0, 79, 90
2, 252788, Note_off_c, 0, 79, 0
2, 252788, Note_on_c, 0, 78, 71
2, 252788, Note_on_c, 0, 47, 94
2, 252789, Note_off_c, 0, 42, 0
2, 253055, Note_off_c, 0, 78, 0
2, 253267, Note_off_c, 0, 47, 0
2, 253268, Note_on_c, 0, 47, 86
2, 253513, Note_on_c, 0, 74, 91
2, 253770, Note_on_c, 0, 44, 96
2, 253849, Note_off_c, 0, 47, 0
2, 253927, Note_off_c, 0, 74, 0
2, 254249, Note_off_c, 0, 44, 0
2, 254250, Note_on_c, 0, 44, 81
2, 254461, Note_on_c, 0, 74, 88
2, 254562, Note_on_c, 0, 76, 88
2, 254673, Note_off_c, 0, 74, 0
2, 254696, Note_off_c, 0, 76, 0
2, 254707, Note_on_c, 0, 77, 58
2, 254718, Note_on_c, 0, 49, 91
2, 254930, Note_off_c, 0, 44, 0
2, 255019, Note_off_c, 0, 77, 0
2, 255074, Note_on_c, 0, 76, 87
2, 255208, Note_off_c, 0, 49, 0
2, 255208, Note_on_c, 0, 49, 92
2, 255431, Note_off_c, 0, 76, 0
2, 255431, Note_on_c, 0, 74, 93
2, 255666, Note_off_c, 0, 74, 0
2, 255666, Note_on_c, 0, 73, 81
2, 255678, Note_on_c, 0, 54, 41
2, 255678, Note_on_c, 0, 42, 91
2, 255688, Note_off_c, 0, 49, 0
2, 255867, Note_off_c, 0, 54, 0
2, 255978, Note_off_c, 0, 73, 0
2, 256023, Note_on_c, 0, 74, 85
2, 256168, Note_off_c, 0, 42, 0
2, 256168, Note_on_c, 0, 42, 86
2, 256357, Note_off_c, 0, 74, 0
2, 256391, Note_on_c, 0, 76, 83
2, 256625, Note_on_c, 0, 78, 71
2, 256625, Note_on_c, 0, 66, 42
2, 256647, Note_on_c, 0, 90, 59
2, 256647, Note_on_c, 0, 59, 45
2, 256647, Note_on_c, 0, 47, 99
2, 256658, Note_off_c, 0, 76, 0
2, 256792, Note_off_c, 0, 90, 0
2, 256803, Note_off_c, 0, 59, 0
2, 256904, Note_off_c, 0, 42, 0
2, 256937, Note_off_c, 0, 78, 0
2, 257115, Note_off_c, 0, 47, 0
2, 257115, Note_on_c, 0, 47, 89
2, 257160, Note_off_c, 0, 66, 0
2, 257349, Note_on_c, 0, 83, 78
2, 257607, Note_on_c, 0, 44, 98
2, 257729, Note_off_c, 0, 47, 0
2, 258064, Note_off_c, 0, 83, 0
2, 258064, Note_on_c, 0, 83, 88
2, 258075, Note_off_c, 0, 44, 0
2, 258075, Note_on_c, 0, 44, 83
2, 258309, Note_on_c, 0, 85, 64
2, 258376, Note_off_c, 0, 83, 0
2, 258498, Note_off_c, 0, 85, 0
2, 258554, Note_on_c, 0, 86, 52
2, 258554, Note_on_c, 0, 49, 91
2, 258710, Note_off_c, 0, 86, 0
2, 258755, Note_off_c, 0, 44, 0
2, 258911, Note_on_c, 0, 79, 80
2, 259044, Note_off_c, 0, 49, 0
2, 259045, Note_on_c, 0, 49, 90
2, 259257, Note_off_c, 0, 79, 0
2, 259268, Note_on_c, 0, 78, 80
2, 259503, Note_off_c, 0, 49, 0
2, 259503, Note_off_c, 0, 78, 0
2, 259503, Note_on_c, 0, 77, 78
2, 259514, Note_on_c, 0, 42, 92
2, 259860, Note_off_c, 0, 77, 0
2, 259871, Note_on_c, 0, 74, 85
2, 260016, Note_off_c, 0, 42, 0
2, 260016, Note_on_c, 0, 42, 85
2, 260205, Note_off_c, 0, 74, 0
2, 260227, Note_on_c, 0, 76, 87
2, 260461, Note_on_c, 0, 78, 70
2, 260473, Note_on_c, 0, 66, 41
2, 260473, Note_on_c, 0, 47, 93
2, 260483, Note_off_c, 0, 76, 0
2, 260729, Note_off_c, 0, 42, 0
2, 260740, Note_off_c, 0, 78, 0
2, 260952, Note_off_c, 0, 66, 0
2, 260952, Note_off_c, 0, 47, 0
2, 260952, Note_on_c, 0, 47, 97
2, 261186, Note_on_c, 0, 74, 90
2, 261197, Note_off_c, 0, 47, 0
2, 261197, Note_on_c, 0, 47, 84
2, 261444, Note_on_c, 0, 44, 97
2, 261499, Note_off_c, 0, 47, 0
2, 261611, Note_off_c, 0, 74, 0
2, 261934, Note_off_c, 0, 44, 0
2, 261934, Note_on_c, 0, 44, 80
2, 262146, Note_on_c, 0, 74, 87
2, 262246, Note_on_c, 0, 76, 87
2, 262347, Note_off_c, 0, 74, 0
2, 262380, Note_off_c, 0, 76, 0
2, 262391, Note_on_c, 0, 77, 61
2, 262402, Note_on_c, 0, 49, 90
2, 262592, Note_off_c, 0, 44, 0
2, 262703, Note_off_c, 0, 77, 0
2, 262748, Note_on_c, 0, 76, 88
2, 262881, Note_off_c, 0, 49, 0
2, 262881, Note_on_c, 0, 49, 91
2, 263115, Note_on_c, 0, 74, 92
2, 263116, Note_off_c, 0, 76, 0
2, 263339, Note_off_c, 0, 74, 0
2, 263339, Note_on_c, 0, 73, 82
2, 263362, Note_on_c, 0, 42, 91
2, 263373, Note_off_c, 0, 49, 0
2, 263662, Note_off_c, 0, 73, 0
2, 263707, Note_on_c, 0, 74, 83
2, 263852, Note_off_c, 0, 42, 0
2, 263852, Note_on_c, 0, 42, 83
2, 264041, Note_off_c, 0, 74, 0
2, 264064, Note_on_c, 0, 76, 86
2, 264298, Note_on_c, 0, 78, 68
2, 264309, Note_on_c, 0, 66, 41
2, 264309, Note_on_c, 0, 47, 94
2, 264320, Note_off_c, 0, 76, 0
2, 264543, Note_off_c, 0, 42, 0
2, 264588, Note_off_c, 0, 78, 0
2, 264666, Note_off_c, 0, 66, 0
2, 264799, Note_off_c, 0, 47, 0
2, 264800, Note_on_c, 0, 47, 86
2, 265034, Note_on_c, 0, 83, 85
2, 265280, Note_on_c, 0, 44, 95
2, 265370, Note_off_c, 0, 47, 0
2, 265548, Note_off_c, 0, 83, 0
2, 265748, Note_on_c, 0, 71, 87
2, 265759, Note_off_c, 0, 44, 0
2, 265759, Note_on_c, 0, 44, 82
2, 265982, Note_on_c, 0, 73, 101
2, 266038, Note_off_c, 0, 71, 0
2, 266227, Note_off_c, 0, 73, 0
2, 266227, Note_on_c, 0, 74, 86
2, 266239, Note_on_c, 0, 49, 94
2, 266439, Note_off_c, 0, 44, 0
2, 266584, Note_off_c, 0, 74, 0
2, 266595, Note_on_c, 0, 76, 87
2, 266729, Note_off_c, 0, 49, 0
2, 266729, Note_on_c, 0, 49, 92
2, 266952, Note_off_c, 0, 76, 0
2, 266952, Note_on_c, 0, 74, 94
2, 267176, Note_off_c, 0, 74, 0
2, 267176, Note_on_c, 0, 73, 81
2, 267187, Note_on_c, 0, 42, 90
2, 267198, Note_on_c, 0, 54, 40
2, 267209, Note_off_c, 0, 49, 0
2, 267332, Note_off_c, 0, 54, 0
2, 267499, Note_off_c, 0, 73, 0
2, 267544, Note_on_c, 0, 81, 76
2, 267700, Note_off_c, 0, 42, 0
2, 267700, Note_on_c, 0, 42, 81
2, 267878, Note_off_c, 0, 81, 0
2, 267912, Note_on_c, 0, 79, 86
2, 268146, Note_off_c, 0, 79, 0
2, 268146, Note_on_c, 0, 78, 73
2, 268157, Note_on_c, 0, 47, 92
2, 268391, Note_off_c, 0, 78, 0
2, 268402, Note_off_c, 0, 42, 0
2, 268636, Note_off_c, 0, 47, 0
2, 268636, Note_on_c, 0, 47, 86
2, 268870, Note_on_c, 0, 74, 86
2, 269117, Note_on_c, 0, 44, 96
2, 269172, Note_off_c, 0, 47, 0
2, 269295, Note_off_c, 0, 74, 0
2, 269607, Note_off_c, 0, 44, 0
2, 269607, Note_on_c, 0, 44, 91
2, 269830, Note_on_c, 0, 74, 89
2, 270031, Note_off_c, 0, 74, 0
2, 270064, Note_off_c, 0, 44, 0
2, 270064, Note_on_c, 0, 77, 64
2, 270064, Note_on_c, 0, 44, 61
2, 270075, Note_on_c, 0, 49, 91
2, 270298, Note_off_c, 0, 44, 0
2, 270376, Note_off_c, 0, 77, 0
2, 270432, Note_on_c, 0, 76, 88
2, 270565, Note_off_c, 0, 49, 0
2, 270566, Note_on_c, 0, 49, 88
2, 270788, Note_on_c, 0, 74, 95
2, 270789, Note_off_c, 0, 76, 0
2, 271023, Note_off_c, 0, 74, 0
2, 271024, Note_on_c, 0, 73, 79
2, 271035, Note_on_c, 0, 42, 92
2, 271046, Note_on_c, 0, 54, 39
2, 271091, Note_off_c, 0, 49, 0
2, 271213, Note_off_c, 0, 54, 0
2, 271347, Note_off_c, 0, 73, 0
2, 271380, Note_on_c, 0, 74, 85
2, 271525, Note_off_c, 0, 42, 0
2, 271525, Note_on_c, 0, 42, 85
2, 271726, Note_off_c, 0, 74, 0
2, 271748, Note_on_c, 0, 76, 85
2, 271982, Note_on_c, 0, 78, 71
2, 271982, Note_on_c, 0, 66, 40
2, 271993, Note_on_c, 0, 47, 95
2, 272015, Note_off_c, 0, 76, 0
2, 272249, Note_off_c, 0, 42, 0
2, 272249, Note_off_c, 0, 78, 0
2, 272483, Note_off_c, 0, 47, 0
2, 272484, Note_on_c, 0, 47, 85
2, 272539, Note_off_c, 0, 66, 0
2, 272707, Note_on_c, 0, 83, 105
2, 272964, Note_on_c, 0, 44, 97
2, 272987, Note_off_c, 0, 83, 0
2, 272987, Note_on_c, 0, 83, 63
2, 273109, Note_off_c, 0, 47, 0
2, 273421, Note_on_c, 0, 83, 90
2, 273422, Note_off_c, 0, 83, 0
2, 273443, Note_off_c, 0, 44, 0
2, 273444, Note_on_c, 0, 44, 87
2, 273666, Note_on_c, 0, 85, 72
2, 273767, Note_off_c, 0, 83, 0
2, 273867, Note_off_c, 0, 85, 0
2, 273901, Note_on_c, 0, 86, 56
2, 273912, Note_on_c, 0, 49, 94
2, 274068, Note_off_c, 0, 86, 0
2, 274124, Note_off_c, 0, 44, 0
2, 274279, Note_on_c, 0, 79, 79
2, 274402, Note_off_c, 0, 49, 0
2, 274402, Note_on_c, 0, 49, 91
2, 274625, Note_off_c, 0, 79, 0
2, 274625, Note_on_c, 0, 78, 82
2, 274860, Note_off_c, 0, 78, 0
2, 274860, Note_on_c, 0, 77, 80
2, 274871, Note_off_c, 0, 49, 0
2, 274871, Note_on_c, 0, 42, 88
2, 275206, Note_off_c, 0, 77, 0
2, 275217, Note_on_c, 0, 86, 70
2, 275373, Note_off_c, 0, 42, 0
2, 275373, Note_on_c, 0, 42, 83
2, 275384, Note_off_c, 0, 86, 0
2, 275596, Note_on_c, 0, 82, 82
2, 275841, Note_on_c, 0, 71, 83
2, 275841, Note_on_c, 0, 59, 44
2, 275841, Note_on_c, 0, 47, 90
2, 275852, Note_off_c, 0, 82, 0
2, 275919, Note_off_c, 0, 42, 0
2, 275975, Note_off_c, 0, 59, 0
2, 276075, Note_off_c, 0, 71, 0
2, 276075, Note_on_c, 0, 71, 92
2, 276320, Note_off_c, 0, 47, 0
2, 276320, Note_off_c, 0, 71, 0
2, 276320, Note_on_c, 0, 71, 85
2, 276320, Note_on_c, 0, 47, 85
2, 276443, Note_on_c, 0, 69, 95
2, 276443, Note_on_c, 0, 66, 53
2, 276487, Note_off_c, 0, 71, 0
2, 276611, Note_off_c, 0, 66, 0
2, 276667, Note_on_c, 0, 71, 91
2, 276678, Note_off_c, 0, 69, 0
2, 276789, Note_off_c, 0, 47, 0
2, 276790, Note_on_c, 0, 47, 85
2, 276845, Note_off_c, 0, 71, 0
2, 276901, Note_on_c, 0, 74, 91
2, 277146, Note_off_c, 0, 74, 0
2, 277157, Note_on_c, 0, 71, 89
2, 277280, Note_off_c, 0, 47, 0
2, 277280, Note_on_c, 0, 47, 82
2, 277324, Note_off_c, 0, 71, 0
2, 277392, Note_on_c, 0, 66, 75
2, 277525, Note_on_c, 0, 69, 98
2, 277759, Note_off_c, 0, 47, 0
2, 277759, Note_on_c, 0, 71, 71
2, 277759, Note_on_c, 0, 47, 86
2, 277781, Note_off_c, 0, 69, 0
2, 277816, Note_off_c, 0, 66, 0
2, 277993, Note_off_c, 0, 71, 0
2, 277993, Note_on_c, 0, 71, 88
2, 278238, Note_off_c, 0, 47, 0
2, 278238, Note_off_c, 0, 71, 0
2, 278239, Note_on_c, 0, 71, 83
2, 278239, Note_on_c, 0, 47, 82
2, 278361, Note_on_c, 0, 69, 92
2, 278372, Note_on_c, 0, 66, 51
2, 278395, Note_off_c, 0, 71, 0
2, 278507, Note_off_c, 0, 66, 0
2, 278585, Note_off_c, 0, 69, 0
2, 278585, Note_on_c, 0, 71, 89
2, 278708, Note_off_c, 0, 47, 0
2, 278708, Note_on_c, 0, 47, 88
2, 278786, Note_off_c, 0, 71, 0
2, 278831, Note_on_c, 0, 77, 81
2, 279043, Note_off_c, 0, 77, 0
2, 279076, Note_on_c, 0, 76, 87
2, 279198, Note_off_c, 0, 47, 0
2, 279198, Note_on_c, 0, 47, 87
2, 279288, Note_off_c, 0, 76, 0
2, 279310, Note_on_c, 0, 74, 83
2, 279444, Note_on_c, 0, 69, 98
2, 279444, Note_on_c, 0, 66, 53
2, 279577, Note_off_c, 0, 74, 0
2, 279677, Note_off_c, 0, 47, 0
2, 279678, Note_on_c, 0, 71, 79
2, 279678, Note_on_c, 0, 47, 91
2, 279711, Note_off_c, 0, 69, 0
2, 279745, Note_off_c, 0, 66, 0
2, 279912, Note_off_c, 0, 71, 0
2, 279912, Note_on_c, 0, 71, 88
2, 280157, Note_off_c, 0, 47, 0
2, 280157, Note_off_c, 0, 71, 0
2, 280157, Note_on_c, 0, 71, 87
2, 280157, Note_on_c, 0, 47, 82
2, 280291, Note_on_c, 0, 69, 92
2, 280291, Note_on_c, 0, 66, 49
2, 280324, Note_off_c, 0, 71, 0
2, 280448, Note_off_c, 0, 66, 0
2, 280504, Note_off_c, 0, 69, 0
2, 280515, Note_on_c, 0, 71, 90
2, 280637, Note_off_c, 0, 47, 0
2, 280637, Note_on_c, 0, 47, 83
2, 280693, Note_off_c, 0, 71, 0
2, 280749, Note_on_c, 0, 74, 90
2, 280961, Note_off_c, 0, 74, 0
2, 280994, Note_on_c, 0, 71, 88
2, 281116, Note_off_c, 0, 47, 0
2, 281117, Note_on_c, 0, 47, 83
2, 281161, Note_off_c, 0, 71, 0
2, 281228, Note_on_c, 0, 66, 75
2, 281362, Note_on_c, 0, 69, 98
2, 281596, Note_off_c, 0, 47, 0
2, 281596, Note_on_c, 0, 71, 65
2, 281596, Note_on_c, 0, 47, 88
2, 281618, Note_off_c, 0, 69, 0
2, 281652, Note_off_c, 0, 66, 0
2, 281841, Note_off_c, 0, 71, 0
2, 281841, Note_on_c, 0, 71, 92
2, 282075, Note_off_c, 0, 71, 0
2, 282075, Note_on_c, 0, 71, 75
2, 282075, Note_on_c, 0, 66, 38
2, 282086, Note_off_c, 0, 47, 0
2, 282086, Note_on_c, 0, 47, 84
2, 282209, Note_on_c, 0, 69, 85
2, 282310, Note_off_c, 0, 71, 0
2, 282310, Note_off_c, 0, 66, 0
2, 282310, Note_on_c, 0, 71, 78
2, 282422, Note_off_c, 0, 69, 0
2, 282422, Note_on_c, 0, 74, 91
2, 282522, Note_off_c, 0, 71, 0
2, 282544, Note_off_c, 0, 47, 0
2, 282544, Note_on_c, 0, 47, 88
2, 282645, Note_off_c, 0, 74, 0
2, 282667, Note_on_c, 0, 77, 81
2, 282879, Note_off_c, 0, 77, 0
2, 282912, Note_on_c, 0, 76, 85
2, 283034, Note_off_c, 0, 47, 0
2, 283035, Note_on_c, 0, 47, 87
2, 283113, Note_off_c, 0, 76, 0
2, 283146, Note_on_c, 0, 74, 83
2, 283269, Note_on_c, 0, 69, 99
2, 283280, Note_on_c, 0, 66, 50
2, 283425, Note_off_c, 0, 74, 0
2, 283514, Note_on_c, 0, 71, 67
2, 283525, Note_off_c, 0, 47, 0
2, 283525, Note_on_c, 0, 47, 89
2, 283548, Note_off_c, 0, 69, 0
2, 283603, Note_off_c, 0, 66, 0
2, 283759, Note_off_c, 0, 71, 0
2, 283759, Note_on_c, 0, 71, 81
2, 284004, Note_off_c, 0, 47, 0
2, 284004, Note_off_c, 0, 71, 0
2, 284005, Note_on_c, 0, 71, 86
2, 284005, Note_on_c, 0, 47, 83
2, 284127, Note_on_c, 0, 69, 90
2, 284127, Note_on_c, 0, 66, 50
2, 284161, Note_off_c, 0, 71, 0
2, 284273, Note_off_c, 0, 66, 0
2, 284340, Note_off_c, 0, 69, 0
2, 284351, Note_on_c, 0, 71, 88
2, 284474, Note_off_c, 0, 47, 0
2, 284474, Note_on_c, 0, 47, 84
2, 284518, Note_off_c, 0, 71, 0
2, 284585, Note_on_c, 0, 74, 90
2, 284808, Note_off_c, 0, 74, 0
2, 284831, Note_on_c, 0, 71, 86
2, 284942, Note_on_c, 0, 66, 35
2, 284998, Note_off_c, 0, 71, 0
2, 285076, Note_off_c, 0, 47, 0
2, 285076, Note_off_c, 0, 66, 0
2, 285076, Note_on_c, 0, 66, 73
2, 285076, Note_on_c, 0, 47, 83
2, 285198, Note_on_c, 0, 69, 96
2, 285432, Note_on_c, 0, 71, 69
2, 285444, Note_off_c, 0, 47, 0
2, 285444, Note_on_c, 0, 47, 87
2, 285465, Note_off_c, 0, 69, 0
2, 285488, Note_off_c, 0, 66, 0
2, 285677, Note_off_c, 0, 71, 0
2, 285678, Note_on_c, 0, 71, 84
2, 285912, Note_off_c, 0, 71, 0
2, 285912, Note_on_c, 0, 71, 83
2, 285912, Note_on_c, 0, 66, 25
2, 285923, Note_off_c, 0, 47, 0
2, 285923, Note_on_c, 0, 47, 81
2, 286045, Note_on_c, 0, 69, 90
2, 286045, Note_on_c, 0, 66, 50
2, 286046, Note_off_c, 0, 66, 0
2, 286080, Note_off_c, 0, 71, 0
2, 286202, Note_off_c, 0, 66, 0
2, 286258, Note_off_c, 0, 69, 0
2, 286270, Note_on_c, 0, 71, 91
2, 286392, Note_off_c, 0, 47, 0
2, 286392, Note_on_c, 0, 47, 87
2, 286437, Note_off_c, 0, 71, 0
2, 286504, Note_on_c, 0, 77, 76
2, 286716, Note_off_c, 0, 77, 0
2, 286749, Note_on_c, 0, 76, 86
2, 286871, Note_off_c, 0, 47, 0
2, 286871, Note_on_c, 0, 47, 87
2, 286961, Note_off_c, 0, 76, 0
2, 286983, Note_on_c, 0, 74, 83
2, 287117, Note_on_c, 0, 69, 99
2, 287117, Note_on_c, 0, 66, 51
2, 287262, Note_off_c, 0, 74, 0
2, 287351, Note_on_c, 0, 71, 74
2, 287361, Note_off_c, 0, 47, 0
2, 287362, Note_on_c, 0, 47, 89
2, 287384, Note_off_c, 0, 69, 0
2, 287429, Note_off_c, 0, 66, 0
2, 287596, Note_off_c, 0, 71, 0
2, 287596, Note_on_c, 0, 71, 88
2, 287830, Note_off_c, 0, 71, 0
2, 287830, Note_on_c, 0, 71, 86
2, 287830, Note_on_c, 0, 66, 28
2, 287841, Note_off_c, 0, 47, 0
2, 287841, Note_on_c, 0, 47, 84
2, 287964, Note_off_c, 0, 66, 0
2, 287964, Note_on_c, 0, 69, 91
2, 287964, Note_on_c, 0, 66, 55
2, 287998, Note_off_c, 0, 71, 0
2, 288144, Note_off_c, 0, 66, 0
2, 288188, Note_off_c, 0, 69, 0
2, 288188, Note_on_c, 0, 71, 89
2, 288310, Note_off_c, 0, 47, 0
2, 288310, Note_on_c, 0, 47, 87
2, 288366, Note_off_c, 0, 71, 0
2, 288422, Note_on_c, 0, 74, 89
2, 288645, Note_off_c, 0, 74, 0
2, 288678, Note_on_c, 0, 71, 88
2, 288689, Note_off_c, 0, 47, 0
2, 288689, Note_on_c, 0, 47, 79
2, 288834, Note_off_c, 0, 71, 0
2, 288912, Note_off_c, 0, 47, 0
2, 288912, Note_on_c, 0, 66, 78
2, 288912, Note_on_c, 0, 47, 83
2, 289035, Note_on_c, 0, 69, 97
2, 289269, Note_on_c, 0, 71, 67
2, 289280, Note_off_c, 0, 47, 0
2, 289280, Note_on_c, 0, 47, 89
2, 289291, Note_off_c, 0, 66, 0
2, 289302, Note_off_c, 0, 69, 0
2, 289514, Note_off_c, 0, 71, 0
2, 289514, Note_on_c, 0, 71, 81
2, 289759, Note_off_c, 0, 71, 0
2, 289759, Note_on_c, 0, 71, 86
2, 289770, Note_off_c, 0, 47, 0
2, 289771, Note_on_c, 0, 47, 84
2, 289939, Note_off_c, 0, 71, 0
2, 289995, Note_on_c, 0, 69, 83
2, 290106, Note_on_c, 0, 71, 87
2, 290218, Note_off_c, 0, 69, 0
2, 290229, Note_off_c, 0, 47, 0
2, 290229, Note_on_c, 0, 47, 90
2, 290295, Note_off_c, 0, 71, 0
2, 290463, Note_on_c, 0, 74, 96
2, 290474, Note_on_c, 0, 69, 99
2, 290474, Note_on_c, 0, 66, 45
2, 290708, Note_off_c, 0, 74, 0
2, 290708, Note_on_c, 0, 74, 91
2, 290719, Note_off_c, 0, 47, 0
2, 290719, Note_off_c, 0, 69, 0
2, 290719, Note_off_c, 0, 66, 0
2, 290719, Note_on_c, 0, 69, 98
2, 290719, Note_on_c, 0, 66, 54
2, 290719, Note_on_c, 0, 47, 89
2, 290920, Note_off_c, 0, 66, 0
2, 290942, Note_off_c, 0, 74, 0
2, 290942, Note_on_c, 0, 74, 87
2, 290953, Note_off_c, 0, 69, 0
2, 290953, Note_on_c, 0, 69, 100
2, 290953, Note_on_c, 0, 66, 47
2, 291142, Note_off_c, 0, 66, 0
2, 291187, Note_off_c, 0, 74, 0
2, 291187, Note_on_c, 0, 71, 81
2, 291198, Note_off_c, 0, 47, 0
2, 291198, Note_off_c, 0, 69, 0
2, 291198, Note_on_c, 0, 47, 87
2, 291443, Note_off_c, 0, 71, 0
2, 291444, Note_on_c, 0, 71, 88
2, 291678, Note_off_c, 0, 71, 0
2, 291678, Note_on_c, 0, 71, 84
2, 291678, Note_on_c, 0, 66, 40
2, 291688, Note_off_c, 0, 47, 0
2, 291689, Note_on_c, 0, 47, 82
2, 291790, Note_on_c, 0, 69, 92
2, 291835, Note_off_c, 0, 71, 0
2, 291980, Note_off_c, 0, 66, 0
2, 292024, Note_on_c, 0, 71, 91
2, 292035, Note_off_c, 0, 69, 0
2, 292147, Note_off_c, 0, 47, 0
2, 292147, Note_on_c, 0, 47, 82
2, 292202, Note_off_c, 0, 71, 0
2, 292258, Note_on_c, 0, 74, 90
2, 292492, Note_off_c, 0, 74, 0
2, 292515, Note_on_c, 0, 71, 87
2, 292626, Note_off_c, 0, 47, 0
2, 292626, Note_on_c, 0, 47, 82
2, 292682, Note_off_c, 0, 71, 0
2, 292749, Note_on_c, 0, 66, 79
2, 292883, Note_on_c, 0, 69, 97
2, 293116, Note_off_c, 0, 47, 0
2, 293117, Note_on_c, 0, 71, 71
2, 293117, Note_on_c, 0, 47, 86
2, 293139, Note_off_c, 0, 66, 0
2, 293150, Note_off_c, 0, 69, 0
2, 293362, Note_off_c, 0, 71, 0
2, 293362, Note_on_c, 0, 71, 87
2, 293596, Note_off_c, 0, 71, 0
2, 293596, Note_on_c, 0, 71, 85
2, 293596, Note_on_c, 0, 66, 26
2, 293607, Note_off_c, 0, 47, 0
2, 293607, Note_on_c, 0, 47, 82
2, 293709, Note_on_c, 0, 69, 93
2, 293720, Note_off_c, 0, 66, 0
2, 293720, Note_on_c, 0, 66, 51
2, 293742, Note_off_c, 0, 71, 0
2, 293887, Note_off_c, 0, 66, 0
2, 293943, Note_off_c, 0, 69, 0
2, 293943, Note_on_c, 0, 71, 87
2, 294065, Note_off_c, 0, 47, 0
2, 294065, Note_on_c, 0, 47, 87
2, 294144, Note_off_c, 0, 71, 0
2, 294177, Note_on_c, 0, 77, 78
2, 294389, Note_off_c, 0, 77, 0
2, 294433, Note_on_c, 0, 76, 86
2, 294555, Note_off_c, 0, 47, 0
2, 294556, Note_on_c, 0, 47, 87
2, 294645, Note_off_c, 0, 76, 0
2, 294667, Note_on_c, 0, 74, 83
2, 294801, Note_on_c, 0, 69, 99
2, 294801, Note_on_c, 0, 66, 55
2, 294934, Note_off_c, 0, 74, 0
2, 295035, Note_off_c, 0, 47, 0
2, 295035, Note_off_c, 0, 66, 0
2, 295035, Note_on_c, 0, 71, 78
2, 295035, Note_on_c, 0, 47, 90
2, 295068, Note_off_c, 0, 69, 0
2, 295280, Note_off_c, 0, 71, 0
2, 295280, Note_on_c, 0, 71, 87
2, 295514, Note_off_c, 0, 71, 0
2, 295514, Note_on_c, 0, 71, 87
2, 295514, Note_on_c, 0, 66, 25
2, 295525, Note_off_c, 0, 47, 0
2, 295525, Note_on_c, 0, 47, 86
2, 295627, Note_on_c, 0, 69, 92
2, 295638, Note_off_c, 0, 66, 0
2, 295638, Note_on_c, 0, 66, 55
2, 295671, Note_off_c, 0, 71, 0
2, 295805, Note_off_c, 0, 66, 0
2, 295872, Note_off_c, 0, 69, 0
2, 295872, Note_on_c, 0, 71, 92
2, 295983, Note_off_c, 0, 47, 0
2, 295984, Note_on_c, 0, 47, 81
2, 296050, Note_off_c, 0, 71, 0
2, 296106, Note_on_c, 0, 74, 88
2, 296329, Note_off_c, 0, 74, 0
2, 296351, Note_on_c, 0, 71, 90
2, 296518, Note_off_c, 0, 71, 0
2, 296585, Note_on_c, 0, 66, 73
2, 296597, Note_off_c, 0, 47, 0
2, 296597, Note_on_c, 0, 47, 84
2, 296719, Note_on_c, 0, 69, 96
2, 296953, Note_on_c, 0, 71, 65
2, 296964, Note_on_c, 0, 47, 89
2, 296965, Note_off_c, 0, 47, 0
2, 296986, Note_off_c, 0, 69, 0
2, 297042, Note_off_c, 0, 66, 0
2, 297198, Note_off_c, 0, 71, 0
2, 297198, Note_on_c, 0, 71, 85
2, 297432, Note_off_c, 0, 71, 0
2, 297432, Note_on_c, 0, 71, 71
2, 297432, Note_on_c, 0, 66, 24
2, 297443, Note_off_c, 0, 47, 0
2, 297444, Note_on_c, 0, 47, 82
2, 297545, Note_on_c, 0, 69, 85
2, 297556, Note_off_c, 0, 66, 0
2, 297556, Note_on_c, 0, 66, 49
2, 297667, Note_off_c, 0, 71, 0
2, 297668, Note_on_c, 0, 71, 79
2, 297745, Note_off_c, 0, 66, 0
2, 297779, Note_off_c, 0, 69, 0
2, 297790, Note_on_c, 0, 74, 89
2, 297880, Note_off_c, 0, 71, 0
2, 297913, Note_off_c, 0, 47, 0
2, 297913, Note_on_c, 0, 47, 90
2, 298013, Note_off_c, 0, 74, 0
2, 298024, Note_on_c, 0, 77, 82
2, 298236, Note_off_c, 0, 77, 0
2, 298270, Note_on_c, 0, 76, 84
2, 298392, Note_off_c, 0, 47, 0
2, 298392, Note_on_c, 0, 47, 88
2, 298471, Note_off_c, 0, 76, 0
2, 298504, Note_on_c, 0, 74, 85
2, 298637, Note_on_c, 0, 69, 100
2, 298637, Note_on_c, 0, 66, 54
2, 298783, Note_off_c, 0, 74, 0
2, 298871, Note_on_c, 0, 71, 69
2, 298882, Note_off_c, 0, 47, 0
2, 298883, Note_on_c, 0, 47, 89
2, 298904, Note_off_c, 0, 69, 0
2, 298938, Note_off_c, 0, 66, 0
2, 299116, Note_off_c, 0, 71, 0
2, 299117, Note_on_c, 0, 71, 82
2, 299362, Note_off_c, 0, 47, 0
2, 299362, Note_off_c, 0, 71, 0
2, 299362, Note_on_c, 0, 71, 82
2, 299362, Note_on_c, 0, 66, 40
2, 299362, Note_on_c, 0, 47, 81
2, 299475, Note_on_c, 0, 69, 89
2, 299519, Note_off_c, 0, 71, 0
2, 299642, Note_off_c, 0, 66, 0
2, 299698, Note_off_c, 0, 69, 0
2, 299709, Note_on_c, 0, 71, 87
2, 299831, Note_off_c, 0, 47, 0
2, 299831, Note_on_c, 0, 47, 83
2, 299876, Note_off_c, 0, 71, 0
2, 299943, Note_on_c, 0, 74, 87
2, 300177, Note_off_c, 0, 74, 0
2, 300188, Note_on_c, 0, 71, 88
2, 300310, Note_off_c, 0, 47, 0
2, 300310, Note_on_c, 0, 47, 84
2, 300355, Note_off_c, 0, 71, 0
2, 300422, Note_on_c, 0, 66, 72
2, 300556, Note_on_c, 0, 69, 98
2, 300800, Note_off_c, 0, 47, 0
2, 300801, Note_on_c, 0, 71, 75
2, 300801, Note_on_c, 0, 47, 91
2, 300823, Note_off_c, 0, 69, 0
2, 300890, Note_off_c, 0, 66, 0
2, 301035, Note_off_c, 0, 71, 0
2, 301035, Note_on_c, 0, 71, 88
2, 301280, Note_off_c, 0, 47, 0
2, 301280, Note_off_c, 0, 71, 0
2, 301280, Note_on_c, 0, 71, 86
2, 301280, Note_on_c, 0, 47, 84
2, 301393, Note_on_c, 0, 69, 90
2, 301393, Note_on_c, 0, 66, 54
2, 301448, Note_off_c, 0, 71, 0
2, 301582, Note_off_c, 0, 66, 0
2, 301627, Note_off_c, 0, 69, 0
2, 301627, Note_on_c, 0, 71, 90
2, 301749, Note_off_c, 0, 47, 0
2, 301750, Note_on_c, 0, 47, 88
2, 301816, Note_off_c, 0, 71, 0
2, 301861, Note_on_c, 0, 77, 81
2, 302062, Note_off_c, 0, 77, 0
2, 302106, Note_on_c, 0, 76, 85
2, 302229, Note_off_c, 0, 47, 0
2, 302229, Note_on_c, 0, 47, 87
2, 302318, Note_off_c, 0, 76, 0
2, 302351, Note_on_c, 0, 74, 84
2, 302485, Note_on_c, 0, 69, 98
2, 302485, Note_on_c, 0, 66, 52
2, 302618, Note_off_c, 0, 74, 0
2, 302719, Note_off_c, 0, 47, 0
2, 302719, Note_on_c, 0, 71, 72
2, 302719, Note_on_c, 0, 47, 90
2, 302752, Note_off_c, 0, 69, 0
2, 302786, Note_off_c, 0, 66, 0
2, 302953, Note_off_c, 0, 71, 0
2, 302953, Note_on_c, 0, 71, 87
2, 303198, Note_off_c, 0, 47, 0
2, 303198, Note_off_c, 0, 71, 0
2, 303198, Note_on_c, 0, 71, 88
2, 303198, Note_on_c, 0, 47, 85
2, 303311, Note_on_c, 0, 69, 92
2, 303311, Note_on_c, 0, 66, 54
2, 303355, Note_off_c, 0, 71, 0
2, 303500, Note_off_c, 0, 66, 0
2, 303545, Note_off_c, 0, 69, 0
2, 303545, Note_on_c, 0, 71, 91
2, 303667, Note_off_c, 0, 47, 0
2, 303668, Note_on_c, 0, 47, 85
2, 303723, Note_off_c, 0, 71, 0
2, 303779, Note_on_c, 0, 74, 89
2, 304013, Note_off_c, 0, 74, 0
2, 304036, Note_on_c, 0, 71, 89
2, 304158, Note_off_c, 0, 47, 0
2, 304158, Note_on_c, 0, 47, 85
2, 304192, Note_off_c, 0, 71, 0
2, 304270, Note_on_c, 0, 66, 78
2, 304403, Note_on_c, 0, 69, 99
2, 304637, Note_off_c, 0, 47, 0
2, 304637, Note_on_c, 0, 71, 75
2, 304637, Note_on_c, 0, 47, 87
2, 304659, Note_off_c, 0, 69, 0
2, 304660, Note_off_c, 0, 66, 0
2, 304871, Note_off_c, 0, 71, 0
2, 304872, Note_on_c, 0, 71, 85
2, 305116, Note_off_c, 0, 47, 0
2, 305117, Note_off_c, 0, 71, 0
2, 305117, Note_on_c, 0, 71, 71
2, 305117, Note_on_c, 0, 66, 38
2, 305117, Note_on_c, 0, 47, 80
2, 305229, Note_on_c, 0, 69, 83
2, 305319, Note_off_c, 0, 66, 0
2, 305341, Note_off_c, 0, 71, 0
2, 305341, Note_on_c, 0, 71, 80
2, 305430, Note_off_c, 0, 69, 0
2, 305463, Note_on_c, 0, 74, 91
2, 305575, Note_off_c, 0, 71, 0
2, 305597, Note_off_c, 0, 47, 0
2, 305597, Note_on_c, 0, 47, 89
2, 305686, Note_off_c, 0, 74, 0
2, 305709, Note_on_c, 0, 77, 83
2, 305921, Note_off_c, 0, 77, 0
2, 305954, Note_on_c, 0, 76, 86
2, 306076, Note_off_c, 0, 47, 0
2, 306076, Note_on_c, 0, 47, 87
2, 306166, Note_off_c, 0, 76, 0
2, 306188, Note_on_c, 0, 74, 84
2, 306311, Note_on_c, 0, 66, 56
2, 306322, Note_on_c, 0, 69, 92
2, 306455, Note_off_c, 0, 74, 0
2, 306634, Note_off_c, 0, 66, 0
2, 306723, Note_off_c, 0, 69, 0
2, 306968, Note_off_c, 0, 47, 0
2, 307515, Note_on_c, 0, 73, 57
2, 307515, Note_on_c, 0, 64, 85
2, 307515, Note_on_c, 0, 47, 89
2, 307527, Note_on_c, 0, 69, 72
2, 308240, Note_off_c, 0, 69, 0
2, 308607, Note_off_c, 0, 73, 0
2, 308607, Note_off_c, 0, 64, 0
2, 308607, Note_off_c, 0, 47, 0
2, 308608, Note_on_c, 0, 73, 69
2, 308608, Note_on_c, 0, 64, 86
2, 308608, Note_on_c, 0, 47, 81
2, 308663, Note_on_c, 0, 81, 43
2, 308919, Note_off_c, 0, 81, 0
2, 310415, Note_off_c, 0, 47, 0
2, 310504, Note_off_c, 0, 73, 0
2, 310615, Note_off_c, 0, 64, 0
2, 311341, Note_on_c, 0, 74, 65
2, 311352, Note_on_c, 0, 71, 60
2, 311363, Note_on_c, 0, 47, 81
2, 311831, Note_off_c, 0, 74, 0
2, 311831, Note_on_c, 0, 74, 87
2, 311842, Note_off_c, 0, 71, 0
2, 311842, Note_off_c, 0, 47, 0
2, 311842, Note_on_c, 0, 71, 78
2, 311842, Note_on_c, 0, 47, 89
2, 312221, Note_off_c, 0, 74, 0
2, 312232, Note_off_c, 0, 71, 0
2, 312310, Note_off_c, 0, 47, 0
2, 312311, Note_on_c, 0, 78, 71
2, 312311, Note_on_c, 0, 66, 42
2, 312311, Note_on_c, 0, 47, 98
2, 312545, Note_off_c, 0, 78, 0
2, 312657, Note_off_c, 0, 66, 0
2, 312981, Note_off_c, 0, 47, 0
2, 313025, Note_on_c, 0, 74, 89
2, 313036, Note_on_c, 0, 44, 98
2, 313471, Note_off_c, 0, 74, 0
2, 313950, Note_off_c, 0, 44, 0
2, 313995, Note_on_c, 0, 74, 94
2, 314084, Note_on_c, 0, 76, 100
2, 314207, Note_off_c, 0, 74, 0
2, 314218, Note_off_c, 0, 76, 0
2, 314229, Note_on_c, 0, 77, 60
2, 314240, Note_on_c, 0, 49, 79
2, 314552, Note_off_c, 0, 77, 0
2, 314597, Note_on_c, 0, 76, 95
2, 314943, Note_on_c, 0, 74, 99
2, 314955, Note_off_c, 0, 76, 0
2, 315144, Note_off_c, 0, 49, 0
2, 315188, Note_off_c, 0, 74, 0
2, 315189, Note_on_c, 0, 73, 83
2, 315189, Note_on_c, 0, 42, 88
2, 315211, Note_on_c, 0, 54, 43
2, 315423, Note_off_c, 0, 54, 0
2, 315501, Note_off_c, 0, 73, 0
2, 315545, Note_on_c, 0, 74, 92
2, 315913, Note_off_c, 0, 74, 0
2, 315913, Note_on_c, 0, 76, 92
2, 316147, Note_on_c, 0, 78, 71
2, 316147, Note_on_c, 0, 66, 49
2, 316147, Note_on_c, 0, 59, 43
2, 316147, Note_on_c, 0, 47, 97
2, 316180, Note_off_c, 0, 76, 0
2, 316248, Note_off_c, 0, 42, 0
2, 316303, Note_off_c, 0, 59, 0
2, 316370, Note_off_c, 0, 78, 0
2, 316493, Note_off_c, 0, 66, 0
2, 316828, Note_off_c, 0, 47, 0
2, 316862, Note_on_c, 0, 83, 88
2, 316873, Note_on_c, 0, 44, 95
2, 317430, Note_off_c, 0, 83, 0
2, 317597, Note_on_c, 0, 71, 90
2, 317631, Note_off_c, 0, 44, 0
2, 317820, Note_on_c, 0, 73, 103
2, 317954, Note_off_c, 0, 71, 0
2, 318076, Note_off_c, 0, 73, 0
2, 318076, Note_on_c, 0, 74, 101
2, 318088, Note_on_c, 0, 49, 112
2, 318277, Note_off_c, 0, 74, 0
2, 318277, Note_off_c, 0, 49, 0
2, 318277, Note_on_c, 0, 65, 0
2, 318288, Note_off_c, 0, 65, 0
2, 318288, End_track
0, 0, End_of_file
