0, 0, Header, 1, 2, 480
1, 0, Start_track
1, 0, Title_t, ""
1, 0, Tempo, 500000
1, 0, End_track
2, 0, Start_track
2, 0, Title_t, ""
2, 0, Program_c, 0, 4
2, 6011, Note_on_c, 0, 56, 82
2, 6256, Note_off_c, 0, 56, 0
2, 6256, Note_on_c, 0, 56, 86
2, 6523, Note_off_c, 0, 56, 0
2, 6524, Note_on_c, 0, 56, 83
2, 6780, Note_off_c, 0, 56, 0
2, 6780, Note_on_c, 0, 56, 84
2, 7025, Note_off_c, 0, 56, 0
2, 7025, Note_on_c, 0, 56, 81
2, 7281, Note_off_c, 0, 56, 0
2, 7282, Note_on_c, 0, 56, 83
2, 7538, Note_off_c, 0, 56, 0
2, 7538, Note_on_c, 0, 56, 81
2, 7784, Note_off_c, 0, 56, 0
2, 7785, Note_on_c, 0, 56, 84
2, 8041, Note_off_c, 0, 56, 0
2, 8041, Note_on_c, 0, 56, 92
2, 8208, Note_off_c, 0, 56, 0
2, 8208, Note_on_c, 0, 57, 75
2, 8297, Note_on_c, 0, 63, 63
2, 8297, Note_on_c, 0, 51, 88
2, 8464, Note_off_c, 0, 63, 0
2, 8598, Note_off_c, 0, 57, 0
2, 8687, Note_off_c, 0, 51, 0
2, 8721, Note_on_c, 0, 56, 80
2, 8977, Note_off_c, 0, 56, 0
2, 8977, Note_on_c, 0, 56, 86
2, 9233, Note_off_c, 0, 56, 0
2, 9233, Note_on_c, 0, 56, 80
2, 9489, Note_off_c, 0, 56, 0
2, 9490, Note_on_c, 0, 56, 82
2, 9736, Note_off_c, 0, 56, 0
2, 9736, Note_on_c, 0, 56, 81
2, 9992, Note_off_c, 0, 56, 0
2, 9993, Note_on_c, 0, 56, 83
2, 10249, Note_off_c, 0, 56, 0
2, 10249, Note_on_c, 0, 56, 82
2, 10494, Note_off_c, 0, 56, 0
2, 10494, Note_on_c, 0, 56, 81
2, 10750, Note_off_c, 0, 56, 0
2, 10751, Note_on_c, 0, 56, 91
2, 10918, Note_off_c, 0, 56, 0
2, 10918, Note_on_c, 0, 57, 77
2, 11007, Note_on_c, 0, 63, 61
2, 11007, Note_on_c, 0, 51, 90
2, 11196, Note_off_c, 0, 63, 0
2, 11308, Note_off_c, 0, 57, 0
2, 11408, Note_off_c, 0, 51, 0
2, 11442, Note_on_c, 0, 56, 82
2, 11677, Note_off_c, 0, 56, 0
2, 11677, Note_on_c, 0, 56, 87
2, 11933, Note_off_c, 0, 56, 0
2, 11933, Note_on_c, 0, 56, 81
2, 12189, Note_off_c, 0, 56, 0
2, 12190, Note_on_c, 0, 56, 82
2, 12446, Note_off_c, 0, 56, 0
2, 12446, Note_on_c, 0, 56, 82
2, 12702, Note_off_c, 0, 56, 0
2, 12702, Note_on_c, 0, 56, 81
2, 12958, Note_off_c, 0, 56, 0
2, 12959, Note_on_c, 0, 56, 81
2, 13215, Note_off_c, 0, 56, 0
2, 13215, Note_on_c, 0, 56, 84
2, 13461, Note_off_c, 0, 56, 0
2, 13461, Note_on_c, 0, 56, 91
2, 13628, Note_off_c, 0, 56, 0
2, 13629, Note_on_c, 0, 57, 73
2, 13718, Note_on_c, 0, 63, 60
2, 13718, Note_on_c, 0, 51, 89
2, 13885, Note_off_c, 0, 63, 0
2, 14030, Note_off_c, 0, 57, 0
2, 14108, Note_off_c, 0, 51, 0
2, 14141, Note_on_c, 0, 56, 82
2, 14397, Note_off_c, 0, 56, 0
2, 14398, Note_on_c, 0, 56, 87
2, 14654, Note_off_c, 0, 56, 0
2, 14654, Note_on_c, 0, 56, 81
2, 14910, Note_off_c, 0, 56, 0
2, 14910, Note_on_c, 0, 56, 85
2, 15166, Note_off_c, 0, 56, 0
2, 15167, Note_on_c, 0, 56, 82
2, 15402, Note_off_c, 0, 56, 0
2, 15402, Note_on_c, 0, 56, 77
2, 15881, Note_off_c, 0, 56, 0
2, 16004, Note_on_c, 0, 80, 59
2, 16004, Note_on_c, 0, 68, 88
2, 16171, Note_off_c, 0, 80, 0
2, 16171, Note_off_c, 0, 68, 0
2, 16171, Note_on_c, 0, 80, 55
2, 16171, Note_on_c, 0, 68, 93
2, 16338, Note_off_c, 0, 80, 0
2, 16338, Note_off_c, 0, 68, 0
2, 16338, Note_on_c, 0, 80, 54
2, 16338, Note_on_c, 0, 68, 93
2, 16516, Note_off_c, 0, 80, 0
2, 16516, Note_off_c, 0, 68, 0
2, 16516, Note_on_c, 0, 80, 57
2, 16516, Note_on_c, 0, 68, 97
2, 16683, Note_off_c, 0, 80, 0
2, 16683, Note_off_c, 0, 68, 0
2, 16684, Note_on_c, 0, 80, 56
2, 16684, Note_on_c, 0, 68, 95
2, 16851, Note_off_c, 0, 80, 0
2, 16851, Note_off_c, 0, 68, 0
2, 16851, Note_on_c, 0, 80, 54
2, 16851, Note_on_c, 0, 68, 93
2, 17085, Note_off_c, 0, 80, 0
2, 17107, Note_off_c, 0, 68, 0
2, 17107, Note_on_c, 0, 69, 85
2, 17175, Note_on_c, 0, 63, 90
2, 17264, Note_off_c, 0, 69, 0
2, 17354, Note_on_c, 0, 80, 56
2, 17354, Note_on_c, 0, 68, 92
2, 17387, Note_off_c, 0, 63, 0
2, 17588, Note_off_c, 0, 80, 0
2, 17610, Note_off_c, 0, 68, 0
2, 17610, Note_on_c, 0, 69, 85
2, 17688, Note_on_c, 0, 63, 86
2, 17788, Note_off_c, 0, 69, 0
2, 17866, Note_on_c, 0, 80, 53
2, 17866, Note_on_c, 0, 68, 94
2, 17900, Note_off_c, 0, 63, 0
2, 18100, Note_off_c, 0, 80, 0
2, 18122, Note_off_c, 0, 68, 0
2, 18123, Note_on_c, 0, 69, 83
2, 18201, Note_on_c, 0, 63, 89
2, 18290, Note_off_c, 0, 69, 0
2, 18368, Note_on_c, 0, 80, 60
2, 18379, Note_on_c, 0, 68, 89
2, 18390, Note_off_c, 0, 63, 0
2, 18546, Note_off_c, 0, 80, 0
2, 18546, Note_off_c, 0, 68, 0
2, 18546, Note_on_c, 0, 80, 53
2, 18546, Note_on_c, 0, 68, 89
2, 18713, Note_off_c, 0, 80, 0
2, 18713, Note_off_c, 0, 68, 0
2, 18713, Note_on_c, 0, 80, 46
2, 18713, Note_on_c, 0, 68, 93
2, 18880, Note_off_c, 0, 80, 0
2, 18880, Note_off_c, 0, 68, 0
2, 18881, Note_on_c, 0, 80, 52
2, 18881, Note_on_c, 0, 68, 94
2, 19116, Note_off_c, 0, 80, 0
2, 19138, Note_on_c, 0, 69, 84
2, 19139, Note_off_c, 0, 68, 0
2, 19216, Note_on_c, 0, 63, 92
2, 19294, Note_off_c, 0, 69, 0
2, 19550, Note_off_c, 0, 63, 0
2, 19562, Note_on_c, 0, 80, 51
2, 19562, Note_on_c, 0, 68, 93
2, 19807, Note_off_c, 0, 80, 0
2, 19807, Note_off_c, 0, 68, 0
2, 19807, Note_on_c, 0, 69, 83
2, 19896, Note_on_c, 0, 63, 89
2, 19985, Note_off_c, 0, 69, 0
2, 20063, Note_on_c, 0, 80, 51
2, 20063, Note_on_c, 0, 68, 93
2, 20097, Note_off_c, 0, 63, 0
2, 20308, Note_off_c, 0, 80, 0
2, 20319, Note_off_c, 0, 68, 0
2, 20320, Note_on_c, 0, 69, 84
2, 20409, Note_on_c, 0, 63, 88
2, 20498, Note_off_c, 0, 69, 0
2, 20587, Note_on_c, 0, 80, 56
2, 20587, Note_on_c, 0, 68, 94
2, 20610, Note_off_c, 0, 63, 0
2, 20832, Note_off_c, 0, 80, 0
2, 20832, Note_off_c, 0, 68, 0
2, 20832, Note_on_c, 0, 69, 82
2, 20921, Note_on_c, 0, 63, 90
2, 21000, Note_off_c, 0, 69, 0
2, 21079, Note_on_c, 0, 80, 61
2, 21079, Note_on_c, 0, 68, 87
2, 21101, Note_off_c, 0, 63, 0
2, 21257, Note_off_c, 0, 80, 0
2, 21257, Note_off_c, 0, 68, 0
2, 21257, Note_on_c, 0, 80, 49
2, 21257, Note_on_c, 0, 68, 87
2, 21424, Note_off_c, 0, 80, 0
2, 21424, Note_off_c, 0, 68, 0
2, 21424, Note_on_c, 0, 80, 46
2, 21424, Note_on_c, 0, 68, 90
2, 21591, Note_off_c, 0, 80, 0
2, 21591, Note_off_c, 0, 68, 0
2, 21591, Note_on_c, 0, 80, 50
2, 21591, Note_on_c, 0, 68, 92
2, 21825, Note_off_c, 0, 80, 0
2, 21847, Note_off_c, 0, 68, 0
2, 21848, Note_on_c, 0, 69, 85
2, 21926, Note_on_c, 0, 63, 91
2, 22004, Note_off_c, 0, 69, 0
2, 22394, Note_off_c, 0, 63, 0
2, 22450, Note_on_c, 0, 80, 47
2, 22450, Note_on_c, 0, 68, 88
2, 22606, Note_off_c, 0, 80, 0
2, 22617, Note_off_c, 0, 68, 0
2, 22617, Note_on_c, 0, 69, 82
2, 22695, Note_on_c, 0, 63, 89
2, 22784, Note_off_c, 0, 69, 0
2, 22941, Note_off_c, 0, 63, 0
2, 22941, Note_on_c, 0, 80, 51
2, 22941, Note_on_c, 0, 68, 93
2, 23186, Note_off_c, 0, 80, 0
2, 23197, Note_off_c, 0, 68, 0
2, 23198, Note_on_c, 0, 69, 85
2, 23276, Note_on_c, 0, 63, 88
2, 23365, Note_off_c, 0, 69, 0
2, 23454, Note_on_c, 0, 80, 60
2, 23454, Note_on_c, 0, 68, 87
2, 23477, Note_off_c, 0, 63, 0
2, 23632, Note_off_c, 0, 80, 0
2, 23632, Note_off_c, 0, 68, 0
2, 23632, Note_on_c, 0, 80, 52
2, 23632, Note_on_c, 0, 68, 93
2, 23799, Note_off_c, 0, 80, 0
2, 23799, Note_off_c, 0, 68, 0
2, 23799, Note_on_c, 0, 80, 55
2, 23799, Note_on_c, 0, 68, 90
2, 23966, Note_off_c, 0, 80, 0
2, 23966, Note_off_c, 0, 68, 0
2, 23967, Note_on_c, 0, 80, 56
2, 23967, Note_on_c, 0, 68, 92
2, 24134, Note_off_c, 0, 80, 0
2, 24134, Note_off_c, 0, 68, 0
2, 24134, Note_on_c, 0, 80, 47
2, 24134, Note_on_c, 0, 68, 92
2, 24301, Note_off_c, 0, 80, 0
2, 24301, Note_on_c, 0, 80, 50
2, 24312, Note_off_c, 0, 68, 0
2, 24312, Note_on_c, 0, 68, 94
2, 24524, Note_off_c, 0, 80, 0
2, 24557, Note_off_c, 0, 68, 0
2, 24557, Note_on_c, 0, 69, 84
2, 24647, Note_on_c, 0, 63, 91
2, 24713, Note_off_c, 0, 69, 0
2, 25094, Note_off_c, 0, 63, 0
2, 25149, Note_on_c, 0, 80, 57
2, 25149, Note_on_c, 0, 68, 87
2, 25316, Note_off_c, 0, 80, 0
2, 25316, Note_on_c, 0, 80, 55
2, 25327, Note_off_c, 0, 68, 0
2, 25328, Note_on_c, 0, 68, 86
2, 25494, Note_off_c, 0, 80, 0
2, 25495, Note_off_c, 0, 68, 0
2, 25495, Note_on_c, 0, 80, 50
2, 25495, Note_on_c, 0, 68, 93
2, 25662, Note_off_c, 0, 80, 0
2, 25662, Note_off_c, 0, 68, 0
2, 25662, Note_on_c, 0, 80, 49
2, 25662, Note_on_c, 0, 68, 91
2, 25896, Note_off_c, 0, 80, 0
2, 25918, Note_off_c, 0, 68, 0
2, 25918, Note_on_c, 0, 69, 82
2, 25996, Note_on_c, 0, 63, 66
2, 26074, Note_off_c, 0, 69, 0
2, 26164, Note_on_c, 0, 80, 57
2, 26253, Note_on_c, 0, 68, 71
2, 26330, Note_off_c, 0, 63, 0
2, 26331, Note_on_c, 0, 63, 92
2, 26353, Note_off_c, 0, 80, 0
2, 26509, Note_off_c, 0, 68, 0
2, 26509, Note_on_c, 0, 80, 62
2, 26509, Note_on_c, 0, 68, 89
2, 26532, Note_off_c, 0, 63, 0
2, 26676, Note_off_c, 0, 80, 0
2, 26676, Note_off_c, 0, 68, 0
2, 26676, Note_on_c, 0, 80, 50
2, 26676, Note_on_c, 0, 68, 86
2, 26844, Note_off_c, 0, 80, 0
2, 26844, Note_off_c, 0, 68, 0
2, 26845, Note_on_c, 0, 80, 46
2, 26845, Note_on_c, 0, 68, 92
2, 27012, Note_off_c, 0, 80, 0
2, 27012, Note_off_c, 0, 68, 0
2, 27012, Note_on_c, 0, 80, 48
2, 27012, Note_on_c, 0, 68, 94
2, 27246, Note_off_c, 0, 80, 0
2, 27268, Note_off_c, 0, 68, 0
2, 27268, Note_on_c, 0, 69, 82
2, 27346, Note_on_c, 0, 63, 91
2, 27446, Note_off_c, 0, 69, 0
2, 27669, Note_off_c, 0, 63, 0
2, 27692, Note_on_c, 0, 80, 58
2, 27692, Note_on_c, 0, 68, 97
2, 27859, Note_off_c, 0, 80, 0
2, 27859, Note_off_c, 0, 68, 0
2, 27859, Note_on_c, 0, 80, 55
2, 27859, Note_on_c, 0, 68, 73
2, 28026, Note_on_c, 0, 63, 90
2, 28048, Note_off_c, 0, 80, 0
2, 28193, Note_on_c, 0, 80, 56
2, 28204, Note_on_c, 0, 68, 92
2, 28205, Note_off_c, 0, 68, 0
2, 28227, Note_off_c, 0, 63, 0
2, 28382, Note_off_c, 0, 80, 0
2, 28382, Note_off_c, 0, 68, 0
2, 28383, Note_on_c, 0, 80, 53
2, 28383, Note_on_c, 0, 68, 71
2, 28550, Note_on_c, 0, 63, 82
2, 28561, Note_off_c, 0, 80, 0
2, 28707, Note_off_c, 0, 68, 0
2, 28707, Note_on_c, 0, 80, 56
2, 28707, Note_on_c, 0, 68, 93
2, 28808, Note_off_c, 0, 63, 0
2, 28952, Note_off_c, 0, 80, 0
2, 28963, Note_off_c, 0, 68, 0
2, 28964, Note_on_c, 0, 69, 85
2, 29042, Note_on_c, 0, 63, 89
2, 29131, Note_off_c, 0, 69, 0
2, 29209, Note_on_c, 0, 80, 56
2, 29209, Note_on_c, 0, 68, 88
2, 29243, Note_off_c, 0, 63, 0
2, 29387, Note_off_c, 0, 80, 0
2, 29387, Note_off_c, 0, 68, 0
2, 29387, Note_on_c, 0, 80, 57
2, 29387, Note_on_c, 0, 68, 89
2, 29554, Note_off_c, 0, 80, 0
2, 29554, Note_off_c, 0, 68, 0
2, 29554, Note_on_c, 0, 80, 48
2, 29554, Note_on_c, 0, 68, 90
2, 29721, Note_off_c, 0, 80, 0
2, 29721, Note_off_c, 0, 68, 0
2, 29721, Note_on_c, 0, 80, 51
2, 29721, Note_on_c, 0, 68, 94
2, 29966, Note_off_c, 0, 80, 0
2, 29988, Note_off_c, 0, 68, 0
2, 29989, Note_on_c, 0, 69, 83
2, 30067, Note_on_c, 0, 63, 87
2, 30156, Note_off_c, 0, 69, 0
2, 30502, Note_off_c, 0, 63, 0
2, 30570, Note_on_c, 0, 80, 52
2, 30570, Note_on_c, 0, 68, 87
2, 30737, Note_off_c, 0, 80, 0
2, 30737, Note_off_c, 0, 68, 0
2, 30737, Note_on_c, 0, 80, 58
2, 30737, Note_on_c, 0, 68, 90
2, 30904, Note_off_c, 0, 80, 0
2, 30904, Note_off_c, 0, 68, 0
2, 30904, Note_on_c, 0, 80, 51
2, 30904, Note_on_c, 0, 68, 93
2, 31071, Note_off_c, 0, 80, 0
2, 31071, Note_off_c, 0, 68, 0
2, 31071, Note_on_c, 0, 80, 53
2, 31071, Note_on_c, 0, 68, 96
2, 31316, Note_off_c, 0, 80, 0
2, 31327, Note_off_c, 0, 68, 0
2, 31328, Note_on_c, 0, 69, 80
2, 31417, Note_on_c, 0, 63, 69
2, 31506, Note_off_c, 0, 69, 0
2, 31595, Note_on_c, 0, 80, 53
2, 31595, Note_on_c, 0, 68, 85
2, 31740, Note_off_c, 0, 80, 0
2, 31762, Note_on_c, 0, 63, 71
2, 31763, Note_off_c, 0, 63, 0
2, 31773, Note_off_c, 0, 68, 0
2, 31930, Note_on_c, 0, 80, 53
2, 31930, Note_on_c, 0, 68, 86
2, 32075, Note_off_c, 0, 80, 0
2, 32096, Note_off_c, 0, 63, 0
2, 32097, Note_on_c, 0, 63, 86
2, 32119, Note_off_c, 0, 68, 0
2, 32264, Note_on_c, 0, 80, 52
2, 32275, Note_on_c, 0, 68, 88
2, 32331, Note_off_c, 0, 63, 0
2, 32432, Note_off_c, 0, 80, 0
2, 32432, Note_off_c, 0, 68, 0
2, 32432, Note_on_c, 0, 80, 50
2, 32432, Note_on_c, 0, 68, 93
2, 32677, Note_off_c, 0, 80, 0
2, 32688, Note_off_c, 0, 68, 0
2, 32689, Note_on_c, 0, 69, 85
2, 32767, Note_on_c, 0, 63, 71
2, 32845, Note_off_c, 0, 69, 0
2, 32934, Note_on_c, 0, 80, 56
2, 32934, Note_on_c, 0, 68, 84
2, 33112, Note_off_c, 0, 80, 0
2, 33112, Note_on_c, 0, 63, 93
2, 33113, Note_off_c, 0, 63, 0
2, 33157, Note_off_c, 0, 68, 0
2, 33435, Note_off_c, 0, 63, 0
2, 33458, Note_on_c, 0, 80, 50
2, 33458, Note_on_c, 0, 68, 92
2, 33625, Note_off_c, 0, 80, 0
2, 33625, Note_off_c, 0, 68, 0
2, 33625, Note_on_c, 0, 80, 45
2, 33625, Note_on_c, 0, 68, 92
2, 33792, Note_off_c, 0, 80, 0
2, 33792, Note_off_c, 0, 68, 0
2, 33792, Note_on_c, 0, 80, 53
2, 33792, Note_on_c, 0, 68, 93
2, 33959, Note_off_c, 0, 80, 0
2, 33959, Note_off_c, 0, 68, 0
2, 33959, Note_on_c, 0, 80, 51
2, 33959, Note_on_c, 0, 68, 90
2, 34126, Note_off_c, 0, 68, 0
2, 34126, Note_on_c, 0, 68, 93
2, 34137, Note_off_c, 0, 80, 0
2, 34138, Note_on_c, 0, 80, 49
2, 34372, Note_off_c, 0, 68, 0
2, 34373, Note_on_c, 0, 68, 73
2, 34462, Note_on_c, 0, 63, 87
2, 34474, Note_off_c, 0, 80, 0
2, 34574, Note_off_c, 0, 68, 0
2, 34629, Note_on_c, 0, 69, 84
2, 34707, Note_off_c, 0, 63, 0
2, 34774, Note_off_c, 0, 69, 0
2, 34808, Note_on_c, 0, 80, 53
2, 34808, Note_on_c, 0, 68, 87
2, 34975, Note_off_c, 0, 80, 0
2, 34975, Note_off_c, 0, 68, 0
2, 34975, Note_on_c, 0, 80, 50
2, 34975, Note_on_c, 0, 68, 89
2, 35142, Note_off_c, 0, 80, 0
2, 35142, Note_off_c, 0, 68, 0
2, 35142, Note_on_c, 0, 80, 50
2, 35142, Note_on_c, 0, 68, 95
2, 35387, Note_off_c, 0, 80, 0
2, 35398, Note_off_c, 0, 68, 0
2, 35398, Note_on_c, 0, 69, 79
2, 35487, Note_on_c, 0, 63, 88
2, 35554, Note_off_c, 0, 69, 0
2, 35933, Note_off_c, 0, 63, 0
2, 35989, Note_on_c, 0, 80, 45
2, 36000, Note_on_c, 0, 68, 86
2, 36167, Note_off_c, 0, 80, 0
2, 36167, Note_off_c, 0, 68, 0
2, 36167, Note_on_c, 0, 80, 52
2, 36167, Note_on_c, 0, 68, 91
2, 36324, Note_off_c, 0, 68, 0
2, 36325, Note_on_c, 0, 68, 92
2, 36335, Note_off_c, 0, 80, 0
2, 36336, Note_on_c, 0, 80, 47
2, 36503, Note_off_c, 0, 68, 0
2, 36503, Note_off_c, 0, 80, 0
2, 36503, Note_on_c, 0, 80, 51
2, 36503, Note_on_c, 0, 68, 93
2, 36737, Note_off_c, 0, 80, 0
2, 36759, Note_off_c, 0, 68, 0
2, 36759, Note_on_c, 0, 69, 86
2, 36837, Note_on_c, 0, 63, 87
2, 36915, Note_off_c, 0, 69, 0
2, 37004, Note_on_c, 0, 80, 59
2, 37004, Note_on_c, 0, 68, 89
2, 37049, Note_off_c, 0, 63, 0
2, 37260, Note_off_c, 0, 80, 0
2, 37260, Note_off_c, 0, 68, 0
2, 37261, Note_on_c, 0, 80, 51
2, 37261, Note_on_c, 0, 68, 90
2, 37517, Note_off_c, 0, 80, 0
2, 37517, Note_off_c, 0, 68, 0
2, 37517, Note_on_c, 0, 80, 48
2, 37517, Note_on_c, 0, 68, 90
2, 37684, Note_off_c, 0, 80, 0
2, 37684, Note_off_c, 0, 68, 0
2, 37684, Note_on_c, 0, 80, 42
2, 37684, Note_on_c, 0, 68, 90
2, 37862, Note_off_c, 0, 80, 0
2, 37862, Note_off_c, 0, 68, 0
2, 37863, Note_on_c, 0, 80, 47
2, 37863, Note_on_c, 0, 68, 93
2, 38119, Note_off_c, 0, 80, 0
2, 38119, Note_off_c, 0, 68, 0
2, 38119, Note_on_c, 0, 69, 80
2, 38187, Note_on_c, 0, 63, 92
2, 38265, Note_off_c, 0, 69, 0
2, 38510, Note_off_c, 0, 63, 0
2, 38533, Note_on_c, 0, 80, 107
2, 38878, Note_on_c, 0, 80, 109
2, 38879, Note_off_c, 0, 80, 0
2, 39034, Note_off_c, 0, 80, 0
2, 39034, Note_on_c, 0, 80, 105
2, 39391, Note_off_c, 0, 80, 0
2, 39391, Note_on_c, 0, 80, 107
2, 39558, Note_off_c, 0, 80, 0
2, 39558, Note_on_c, 0, 80, 102
2, 39892, Note_off_c, 0, 80, 0
2, 39892, Note_on_c, 0, 80, 100
2, 40050, Note_on_c, 0, 84, 97
2, 40060, Note_off_c, 0, 80, 0
2, 40395, Note_on_c, 0, 84, 96
2, 40396, Note_off_c, 0, 84, 0
2, 40551, Note_off_c, 0, 84, 0
2, 40562, Note_on_c, 0, 82, 95
2, 40829, Note_off_c, 0, 82, 0
2, 40908, Note_on_c, 0, 80, 91
2, 41421, Note_off_c, 0, 80, 0
2, 41421, Note_on_c, 0, 80, 106
2, 41755, Note_off_c, 0, 80, 0
2, 41755, Note_on_c, 0, 80, 107
2, 41922, Note_off_c, 0, 80, 0
2, 41922, Note_on_c, 0, 80, 104
2, 42258, Note_off_c, 0, 80, 0
2, 42258, Note_on_c, 0, 80, 108
2, 42425, Note_off_c, 0, 80, 0
2, 42425, Note_on_c, 0, 80, 107
2, 42770, Note_on_c, 0, 80, 99
2, 42771, Note_off_c, 0, 80, 0
2, 42938, Note_on_c, 0, 84, 98
2, 42948, Note_off_c, 0, 80, 0
2, 43116, Note_off_c, 0, 84, 0
2, 43116, Note_on_c, 0, 84, 97
2, 43272, Note_off_c, 0, 84, 0
2, 43272, Note_on_c, 0, 82, 95
2, 43539, Note_off_c, 0, 82, 0
2, 43617, Note_on_c, 0, 80, 99
2, 44031, Note_off_c, 0, 80, 0
2, 44287, Note_on_c, 0, 84, 95
2, 44465, Note_off_c, 0, 84, 0
2, 44466, Note_on_c, 0, 84, 91
2, 44622, Note_off_c, 0, 84, 0
2, 44633, Note_on_c, 0, 82, 96
2, 44900, Note_off_c, 0, 82, 0
2, 44978, Note_on_c, 0, 80, 101
2, 45312, Note_off_c, 0, 80, 0
2, 45480, Note_on_c, 0, 84, 95
2, 45647, Note_off_c, 0, 84, 0
2, 45647, Note_on_c, 0, 84, 102
2, 45815, Note_off_c, 0, 84, 0
2, 45816, Note_on_c, 0, 84, 97
2, 45983, Note_on_c, 0, 82, 94
2, 45994, Note_off_c, 0, 84, 0
2, 46250, Note_off_c, 0, 82, 0
2, 46328, Note_on_c, 0, 80, 101
2, 46651, Note_off_c, 0, 80, 0
2, 46830, Note_on_c, 0, 84, 95
2, 46997, Note_off_c, 0, 84, 0
2, 47008, Note_on_c, 0, 82, 83
2, 47142, Note_on_c, 0, 84, 84
2, 47287, Note_off_c, 0, 84, 0
2, 47354, Note_off_c, 0, 82, 0
2, 47354, Note_on_c, 0, 82, 95
2, 47621, Note_off_c, 0, 82, 0
2, 47678, Note_on_c, 0, 80, 101
2, 48202, Note_off_c, 0, 80, 0
2, 48525, Note_on_c, 0, 87, 81
2, 48703, Note_off_c, 0, 87, 0
2, 48704, Note_on_c, 0, 87, 82
2, 48860, Note_off_c, 0, 87, 0
2, 48871, Note_on_c, 0, 85, 102
2, 49038, Note_off_c, 0, 85, 0
2, 49038, Note_on_c, 0, 84, 92
2, 49216, Note_on_c, 0, 82, 97
2, 49227, Note_off_c, 0, 84, 0
2, 49383, Note_off_c, 0, 82, 0
2, 49383, Note_on_c, 0, 82, 96
2, 49619, Note_on_c, 0, 84, 78
2, 49641, Note_off_c, 0, 82, 0
2, 49708, Note_on_c, 0, 80, 98
2, 49786, Note_off_c, 0, 84, 0
2, 49875, Note_on_c, 0, 87, 79
2, 49909, Note_off_c, 0, 80, 0
2, 50053, Note_off_c, 0, 87, 0
2, 50053, Note_on_c, 0, 87, 83
2, 50209, Note_off_c, 0, 87, 0
2, 50221, Note_on_c, 0, 85, 99
2, 50399, Note_off_c, 0, 85, 0
2, 50399, Note_on_c, 0, 84, 95
2, 50555, Note_on_c, 0, 82, 95
2, 50577, Note_off_c, 0, 84, 0
2, 50733, Note_off_c, 0, 82, 0
2, 50733, Note_on_c, 0, 82, 98
2, 50990, Note_on_c, 0, 84, 78
2, 51000, Note_off_c, 0, 82, 0
2, 51068, Note_on_c, 0, 80, 97
2, 51168, Note_off_c, 0, 84, 0
2, 51246, Note_off_c, 0, 80, 0
2, 51246, Note_on_c, 0, 87, 82
2, 51413, Note_off_c, 0, 87, 0
2, 51413, Note_on_c, 0, 87, 85
2, 51570, Note_off_c, 0, 87, 0
2, 51570, Note_on_c, 0, 85, 103
2, 51737, Note_off_c, 0, 85, 0
2, 51738, Note_on_c, 0, 84, 94
2, 51905, Note_on_c, 0, 82, 97
2, 51916, Note_off_c, 0, 84, 0
2, 52094, Note_off_c, 0, 82, 0
2, 52094, Note_on_c, 0, 82, 95
2, 52339, Note_on_c, 0, 84, 82
2, 52361, Note_off_c, 0, 82, 0
2, 52429, Note_on_c, 0, 80, 100
2, 52506, Note_off_c, 0, 84, 0
2, 52596, Note_on_c, 0, 82, 95
2, 52607, Note_off_c, 0, 80, 0
2, 52841, Note_on_c, 0, 84, 81
2, 52863, Note_off_c, 0, 82, 0
2, 52930, Note_on_c, 0, 80, 98
2, 53008, Note_off_c, 0, 84, 0
2, 53097, Note_on_c, 0, 82, 95
2, 53119, Note_off_c, 0, 80, 0
2, 53365, Note_on_c, 0, 84, 80
2, 53376, Note_off_c, 0, 82, 0
2, 53433, Note_on_c, 0, 80, 102
2, 53511, Note_off_c, 0, 84, 0
2, 53901, Note_off_c, 0, 80, 0
2, 53957, Note_on_c, 0, 87, 82
2, 54124, Note_off_c, 0, 87, 0
2, 54124, Note_on_c, 0, 87, 85
2, 54269, Note_off_c, 0, 87, 0
2, 54291, Note_on_c, 0, 85, 101
2, 54458, Note_off_c, 0, 85, 0
2, 54458, Note_on_c, 0, 84, 92
2, 54626, Note_on_c, 0, 82, 96
2, 54647, Note_off_c, 0, 84, 0
2, 54804, Note_off_c, 0, 82, 0
2, 54804, Note_on_c, 0, 82, 96
2, 55049, Note_on_c, 0, 80, 82
2, 55060, Note_off_c, 0, 82, 0
2, 55138, Note_on_c, 0, 84, 87
2, 55227, Note_off_c, 0, 80, 0
2, 55596, Note_off_c, 0, 84, 0
2, 55808, Note_on_c, 0, 80, 100
2, 56343, Note_off_c, 0, 80, 0
2, 56756, Note_on_c, 0, 75, 79
2, 56845, Note_on_c, 0, 87, 73
2, 56957, Note_off_c, 0, 75, 0
2, 56979, Note_off_c, 0, 87, 0
2, 57001, Note_on_c, 0, 85, 102
2, 57168, Note_off_c, 0, 85, 0
2, 57168, Note_on_c, 0, 84, 91
2, 57336, Note_on_c, 0, 82, 97
2, 57348, Note_off_c, 0, 84, 0
2, 57503, Note_off_c, 0, 82, 0
2, 57504, Note_on_c, 0, 82, 95
2, 57771, Note_off_c, 0, 82, 0
2, 57849, Note_on_c, 0, 80, 100
2, 58339, Note_off_c, 0, 80, 0
2, 58529, Note_on_c, 0, 80, 100
2, 59064, Note_off_c, 0, 80, 0
2, 59366, Note_on_c, 0, 87, 82
2, 59544, Note_off_c, 0, 87, 0
2, 59544, Note_on_c, 0, 87, 82
2, 59700, Note_off_c, 0, 87, 0
2, 59700, Note_on_c, 0, 85, 102
2, 59878, Note_off_c, 0, 85, 0
2, 59879, Note_on_c, 0, 84, 95
2, 60046, Note_on_c, 0, 82, 96
2, 60057, Note_off_c, 0, 84, 0
2, 60224, Note_off_c, 0, 82, 0
2, 60224, Note_on_c, 0, 82, 95
2, 60470, Note_on_c, 0, 84, 81
2, 60491, Note_off_c, 0, 82, 0
2, 60559, Note_on_c, 0, 80, 98
2, 60637, Note_off_c, 0, 84, 0
2, 60726, Note_on_c, 0, 87, 88
2, 60737, Note_off_c, 0, 80, 0
2, 60904, Note_off_c, 0, 87, 0
2, 60904, Note_on_c, 0, 87, 85
2, 61050, Note_off_c, 0, 87, 0
2, 61061, Note_on_c, 0, 85, 101
2, 61228, Note_off_c, 0, 85, 0
2, 61229, Note_on_c, 0, 84, 91
2, 61396, Note_on_c, 0, 82, 94
2, 61418, Note_off_c, 0, 84, 0
2, 61574, Note_off_c, 0, 82, 0
2, 61574, Note_on_c, 0, 82, 95
2, 61831, Note_on_c, 0, 84, 82
2, 61841, Note_off_c, 0, 82, 0
2, 61909, Note_on_c, 0, 80, 95
2, 61998, Note_off_c, 0, 84, 0
2, 62087, Note_on_c, 0, 87, 90
2, 62098, Note_off_c, 0, 80, 0
2, 62254, Note_off_c, 0, 87, 0
2, 62254, Note_on_c, 0, 87, 86
2, 62410, Note_off_c, 0, 87, 0
2, 62421, Note_on_c, 0, 85, 101
2, 62588, Note_off_c, 0, 85, 0
2, 62588, Note_on_c, 0, 84, 95
2, 62756, Note_on_c, 0, 82, 98
2, 62766, Note_off_c, 0, 84, 0
2, 62934, Note_off_c, 0, 82, 0
2, 62934, Note_on_c, 0, 82, 98
2, 63180, Note_on_c, 0, 84, 84
2, 63192, Note_off_c, 0, 82, 0
2, 63258, Note_on_c, 0, 80, 99
2, 63347, Note_off_c, 0, 84, 0
2, 63437, Note_on_c, 0, 82, 96
2, 63447, Note_off_c, 0, 80, 0
2, 63682, Note_on_c, 0, 84, 82
2, 63704, Note_off_c, 0, 82, 0
2, 63771, Note_on_c, 0, 80, 99
2, 63860, Note_off_c, 0, 84, 0
2, 63938, Note_on_c, 0, 82, 94
2, 63960, Note_off_c, 0, 80, 0
2, 64195, Note_on_c, 0, 84, 83
2, 64217, Note_off_c, 0, 82, 0
2, 64284, Note_on_c, 0, 80, 100
2, 64362, Note_off_c, 0, 84, 0
2, 64763, Note_off_c, 0, 80, 0
2, 64796, Note_on_c, 0, 87, 79
2, 64964, Note_off_c, 0, 87, 0
2, 64965, Note_on_c, 0, 87, 84
2, 65121, Note_off_c, 0, 87, 0
2, 65132, Note_on_c, 0, 85, 101
2, 65299, Note_off_c, 0, 85, 0
2, 65299, Note_on_c, 0, 84, 94
2, 65466, Note_on_c, 0, 82, 95
2, 65477, Note_off_c, 0, 84, 0
2, 65644, Note_off_c, 0, 82, 0
2, 65645, Note_on_c, 0, 82, 96
2, 65890, Note_on_c, 0, 80, 81
2, 65901, Note_off_c, 0, 82, 0
2, 65979, Note_on_c, 0, 84, 87
2, 66057, Note_off_c, 0, 80, 0
2, 66525, Note_off_c, 0, 84, 0
2, 66648, Note_on_c, 0, 80, 101
2, 67162, Note_off_c, 0, 80, 0
2, 67585, Note_on_c, 0, 80, 81
2, 67675, Note_on_c, 0, 87, 91
2, 67774, Note_off_c, 0, 80, 0
2, 67842, Note_off_c, 0, 87, 0
2, 67842, Note_on_c, 0, 85, 99
2, 68020, Note_off_c, 0, 85, 0
2, 68020, Note_on_c, 0, 84, 92
2, 68176, Note_on_c, 0, 82, 93
2, 68198, Note_off_c, 0, 84, 0
2, 68354, Note_off_c, 0, 82, 0
2, 68354, Note_on_c, 0, 82, 97
2, 68621, Note_off_c, 0, 82, 0
2, 68690, Note_on_c, 0, 80, 101
2, 69214, Note_off_c, 0, 80, 0
2, 69381, Note_on_c, 0, 87, 76
2, 69715, Note_off_c, 0, 87, 0
2, 69883, Note_on_c, 0, 75, 108
2, 70217, Note_off_c, 0, 75, 0
2, 70217, Note_on_c, 0, 75, 88
2, 70384, Note_on_c, 0, 84, 90
2, 70518, Note_off_c, 0, 75, 0
2, 70630, Note_off_c, 0, 84, 0
2, 70631, Note_on_c, 0, 82, 93
2, 70887, Note_on_c, 0, 84, 90
2, 70898, Note_off_c, 0, 82, 0
2, 71054, Note_on_c, 0, 80, 106
2, 71088, Note_off_c, 0, 84, 0
2, 71321, Note_off_c, 0, 80, 0
2, 71322, Note_on_c, 0, 80, 108
2, 71567, Note_off_c, 0, 80, 0
2, 71567, Note_on_c, 0, 80, 93
2, 71745, Note_on_c, 0, 77, 108
2, 71790, Note_off_c, 0, 80, 0
2, 71990, Note_off_c, 0, 77, 0
2, 71990, Note_on_c, 0, 77, 107
2, 72246, Note_off_c, 0, 77, 0
2, 72247, Note_on_c, 0, 77, 90
2, 72414, Note_on_c, 0, 82, 102
2, 72571, Note_off_c, 0, 77, 0
2, 72671, Note_on_c, 0, 82, 95
2, 72672, Note_off_c, 0, 82, 0
2, 72928, Note_on_c, 0, 84, 100
2, 72938, Note_off_c, 0, 82, 0
2, 73095, Note_off_c, 0, 84, 0
2, 73095, Note_on_c, 0, 84, 87
2, 73563, Note_off_c, 0, 84, 0
2, 73764, Note_on_c, 0, 84, 93
2, 74031, Note_off_c, 0, 84, 0
2, 74031, Note_on_c, 0, 80, 105
2, 74287, Note_off_c, 0, 80, 0
2, 74288, Note_on_c, 0, 80, 94
2, 74445, Note_on_c, 0, 77, 106
2, 74501, Note_off_c, 0, 80, 0
2, 74701, Note_off_c, 0, 77, 0
2, 74701, Note_on_c, 0, 77, 104
2, 74957, Note_off_c, 0, 77, 0
2, 74958, Note_on_c, 0, 77, 88
2, 75125, Note_on_c, 0, 82, 100
2, 75281, Note_off_c, 0, 77, 0
2, 75381, Note_off_c, 0, 82, 0
2, 75381, Note_on_c, 0, 82, 95
2, 75637, Note_on_c, 0, 84, 106
2, 75660, Note_off_c, 0, 82, 0
2, 75815, Note_off_c, 0, 84, 0
2, 75816, Note_on_c, 0, 84, 91
2, 76273, Note_off_c, 0, 84, 0
2, 76475, Note_on_c, 0, 84, 103
2, 76731, Note_off_c, 0, 84, 0
2, 76731, Note_on_c, 0, 84, 103
2, 76987, Note_off_c, 0, 84, 0
2, 76987, Note_on_c, 0, 84, 94
2, 77166, Note_on_c, 0, 87, 80
2, 77188, Note_off_c, 0, 84, 0
2, 77389, Note_off_c, 0, 87, 0
2, 77411, Note_on_c, 0, 85, 98
2, 77667, Note_off_c, 0, 85, 0
2, 77667, Note_on_c, 0, 84, 101
2, 77845, Note_off_c, 0, 84, 0
2, 77845, Note_on_c, 0, 84, 93
2, 78023, Note_off_c, 0, 84, 0
2, 78091, Note_on_c, 0, 80, 105
2, 78337, Note_off_c, 0, 80, 0
2, 78337, Note_on_c, 0, 80, 110
2, 78515, Note_off_c, 0, 80, 0
2, 78515, Note_on_c, 0, 80, 99
2, 78772, Note_on_c, 0, 84, 92
2, 78827, Note_off_c, 0, 80, 0
2, 79028, Note_off_c, 0, 84, 0
2, 79028, Note_on_c, 0, 82, 101
2, 79195, Note_off_c, 0, 82, 0
2, 79195, Note_on_c, 0, 82, 99
2, 79440, Note_on_c, 0, 80, 100
2, 79451, Note_off_c, 0, 82, 0
2, 79975, Note_off_c, 0, 80, 0
2, 80110, Note_on_c, 0, 84, 93
2, 80377, Note_off_c, 0, 84, 0
2, 80378, Note_on_c, 0, 82, 99
2, 80545, Note_off_c, 0, 82, 0
2, 80545, Note_on_c, 0, 82, 98
2, 80801, Note_on_c, 0, 80, 98
2, 80812, Note_off_c, 0, 82, 0
2, 81369, Note_off_c, 0, 80, 0
2, 81559, Note_on_c, 0, 80, 107
2, 81916, Note_off_c, 0, 80, 0
2, 81916, Note_on_c, 0, 80, 107
2, 82240, Note_off_c, 0, 80, 0
2, 82240, Note_on_c, 0, 80, 109
2, 82407, Note_off_c, 0, 80, 0
2, 82408, Note_on_c, 0, 80, 107
2, 82753, Note_on_c, 0, 80, 109
2, 82754, Note_off_c, 0, 80, 0
2, 82920, Note_off_c, 0, 80, 0
2, 82920, Note_on_c, 0, 80, 104
2, 83254, Note_off_c, 0, 80, 0
2, 83255, Note_on_c, 0, 80, 101
2, 83422, Note_on_c, 0, 84, 98
2, 83444, Note_off_c, 0, 80, 0
2, 83779, Note_off_c, 0, 84, 0
2, 83779, Note_on_c, 0, 84, 96
2, 83925, Note_on_c, 0, 82, 94
2, 83936, Note_off_c, 0, 84, 0
2, 84192, Note_off_c, 0, 82, 0
2, 84270, Note_on_c, 0, 80, 107
2, 84616, Note_off_c, 0, 80, 0
2, 84616, Note_on_c, 0, 80, 107
2, 84950, Note_off_c, 0, 80, 0
2, 84950, Note_on_c, 0, 80, 110
2, 85128, Note_off_c, 0, 80, 0
2, 85128, Note_on_c, 0, 80, 107
2, 85474, Note_off_c, 0, 80, 0
2, 85474, Note_on_c, 0, 80, 110
2, 85630, Note_off_c, 0, 80, 0
2, 85630, Note_on_c, 0, 80, 103
2, 85966, Note_off_c, 0, 80, 0
2, 85966, Note_on_c, 0, 80, 102
2, 86133, Note_on_c, 0, 84, 98
2, 86155, Note_off_c, 0, 80, 0
2, 86478, Note_on_c, 0, 84, 95
2, 86479, Note_off_c, 0, 84, 0
2, 86645, Note_off_c, 0, 84, 0
2, 86645, Note_on_c, 0, 82, 95
2, 86912, Note_off_c, 0, 82, 0
2, 86991, Note_on_c, 0, 80, 108
2, 87325, Note_off_c, 0, 80, 0
2, 87325, Note_on_c, 0, 80, 106
2, 87671, Note_off_c, 0, 80, 0
2, 87671, Note_on_c, 0, 80, 111
2, 87828, Note_off_c, 0, 80, 0
2, 87828, Note_on_c, 0, 80, 108
2, 88174, Note_off_c, 0, 80, 0
2, 88174, Note_on_c, 0, 80, 107
2, 88341, Note_off_c, 0, 80, 0
2, 88341, Note_on_c, 0, 80, 104
2, 88686, Note_on_c, 0, 80, 109
2, 88687, Note_off_c, 0, 80, 0
2, 88853, Note_off_c, 0, 80, 0
2, 88854, Note_on_c, 0, 80, 107
2, 89188, Note_off_c, 0, 80, 0
2, 89188, Note_on_c, 0, 80, 93
2, 89366, Note_on_c, 0, 77, 97
2, 89422, Note_off_c, 0, 80, 0
2, 89679, Note_off_c, 0, 77, 0
2, 89691, Note_on_c, 0, 80, 102
2, 90036, Note_on_c, 0, 82, 96
2, 90037, Note_off_c, 0, 80, 0
2, 90281, Note_on_c, 0, 84, 80
2, 90292, Note_off_c, 0, 82, 0
2, 90371, Note_on_c, 0, 80, 98
2, 90448, Note_off_c, 0, 84, 0
2, 90538, Note_on_c, 0, 82, 93
2, 90560, Note_off_c, 0, 80, 0
2, 90794, Note_on_c, 0, 84, 81
2, 90805, Note_off_c, 0, 82, 0
2, 90872, Note_on_c, 0, 80, 100
2, 90950, Note_off_c, 0, 84, 0
2, 91050, Note_on_c, 0, 82, 93
2, 91061, Note_off_c, 0, 80, 0
2, 91307, Note_on_c, 0, 84, 82
2, 91317, Note_off_c, 0, 82, 0
2, 91396, Note_on_c, 0, 80, 98
2, 91474, Note_off_c, 0, 84, 0
2, 92122, Note_off_c, 0, 80, 0
2, 93203, Note_on_c, 0, 80, 46
2, 93203, Note_on_c, 0, 68, 90
2, 93426, Note_off_c, 0, 80, 0
2, 93426, Note_off_c, 0, 68, 0
2, 93426, Note_on_c, 0, 80, 50
2, 93426, Note_on_c, 0, 68, 88
2, 93650, Note_off_c, 0, 80, 0
2, 93650, Note_off_c, 0, 68, 0
2, 93650, Note_on_c, 0, 80, 58
2, 93650, Note_on_c, 0, 68, 92
2, 93873, Note_off_c, 0, 80, 0
2, 93873, Note_off_c, 0, 68, 0
2, 93873, Note_on_c, 0, 80, 51
2, 93873, Note_on_c, 0, 68, 89
2, 94096, Note_off_c, 0, 80, 0
2, 94096, Note_off_c, 0, 68, 0
2, 94096, Note_on_c, 0, 80, 52
2, 94096, Note_on_c, 0, 68, 86
2, 94296, Note_on_c, 0, 63, 99
2, 94319, Note_on_c, 0, 97, 38
2, 94341, Note_off_c, 0, 80, 0
2, 94386, Note_off_c, 0, 68, 0
2, 94441, Note_off_c, 0, 63, 0
2, 94441, Note_on_c, 0, 63, 95
2, 94520, Note_off_c, 0, 97, 0
2, 94764, Note_off_c, 0, 63, 0
2, 94787, Note_on_c, 0, 80, 51
2, 94787, Note_on_c, 0, 68, 88
2, 95010, Note_off_c, 0, 80, 0
2, 95010, Note_off_c, 0, 68, 0
2, 95010, Note_on_c, 0, 80, 54
2, 95010, Note_on_c, 0, 68, 89
2, 95232, Note_on_c, 0, 80, 54
2, 95232, Note_on_c, 0, 68, 89
2, 95233, Note_off_c, 0, 80, 0
2, 95233, Note_off_c, 0, 68, 0
2, 95456, Note_off_c, 0, 80, 0
2, 95456, Note_off_c, 0, 68, 0
2, 95457, Note_on_c, 0, 80, 50
2, 95457, Note_on_c, 0, 68, 86
2, 95635, Note_on_c, 0, 63, 93
2, 95668, Note_on_c, 0, 97, 40
2, 95680, Note_off_c, 0, 80, 0
2, 95736, Note_off_c, 0, 68, 0
2, 95780, Note_off_c, 0, 63, 0
2, 95791, Note_on_c, 0, 63, 93
2, 95880, Note_off_c, 0, 97, 0
2, 96482, Note_off_c, 0, 63, 0
2, 96482, Note_on_c, 0, 63, 102
2, 96482, Note_on_c, 0, 97, 40
2, 96627, Note_off_c, 0, 97, 0
2, 96705, Note_off_c, 0, 63, 0
2, 96705, Note_on_c, 0, 63, 88
2, 96816, Note_on_c, 0, 80, 57
2, 96816, Note_on_c, 0, 68, 85
2, 97039, Note_on_c, 0, 97, 40
2, 97050, Note_off_c, 0, 80, 0
2, 97106, Note_off_c, 0, 68, 0
2, 97151, Note_off_c, 0, 63, 0
2, 97151, Note_on_c, 0, 63, 95
2, 97251, Note_off_c, 0, 97, 0
2, 97486, Note_on_c, 0, 80, 43
2, 97486, Note_on_c, 0, 68, 81
2, 97598, Note_off_c, 0, 63, 0
2, 97598, Note_on_c, 0, 63, 98
2, 97709, Note_off_c, 0, 68, 0
2, 97709, Note_on_c, 0, 68, 74
2, 97798, Note_off_c, 0, 80, 0
2, 97832, Note_off_c, 0, 63, 0
2, 97832, Note_on_c, 0, 63, 97
2, 97943, Note_off_c, 0, 68, 0
2, 97943, Note_on_c, 0, 80, 37
2, 97943, Note_on_c, 0, 68, 76
2, 98055, Note_off_c, 0, 63, 0
2, 98055, Note_on_c, 0, 63, 88
2, 98166, Note_off_c, 0, 80, 0
2, 98166, Note_off_c, 0, 68, 0
2, 98166, Note_on_c, 0, 80, 52
2, 98166, Note_on_c, 0, 68, 84
2, 98378, Note_off_c, 0, 80, 0
2, 98389, Note_on_c, 0, 97, 40
2, 98445, Note_off_c, 0, 68, 0
2, 98512, Note_off_c, 0, 63, 0
2, 98512, Note_on_c, 0, 63, 91
2, 98578, Note_off_c, 0, 97, 0
2, 99171, Note_off_c, 0, 63, 0
2, 99171, Note_on_c, 0, 63, 90
2, 99293, Note_on_c, 0, 80, 56
2, 99293, Note_on_c, 0, 68, 83
2, 99405, Note_off_c, 0, 63, 0
2, 99527, Note_off_c, 0, 80, 0
2, 99527, Note_off_c, 0, 68, 0
2, 99527, Note_on_c, 0, 69, 97
2, 99895, Note_off_c, 0, 69, 0
2, 99973, Note_on_c, 0, 80, 57
2, 99973, Note_on_c, 0, 68, 92
2, 100196, Note_off_c, 0, 80, 0
2, 100196, Note_off_c, 0, 68, 0
2, 100196, Note_on_c, 0, 80, 52
2, 100196, Note_on_c, 0, 68, 82
2, 100307, Note_on_c, 0, 63, 95
2, 100419, Note_off_c, 0, 80, 0
2, 100419, Note_on_c, 0, 80, 47
2, 100430, Note_off_c, 0, 68, 0
2, 100430, Note_on_c, 0, 68, 80
2, 100530, Note_off_c, 0, 63, 0
2, 100530, Note_on_c, 0, 63, 87
2, 100753, Note_off_c, 0, 63, 0
2, 100764, Note_off_c, 0, 68, 0
2, 100764, Note_on_c, 0, 80, 55
2, 100764, Note_on_c, 0, 68, 81
2, 100765, Note_off_c, 0, 80, 0
2, 100887, Note_on_c, 0, 72, 106
2, 100920, Note_off_c, 0, 80, 0
2, 100998, Note_off_c, 0, 68, 0
2, 101223, Note_off_c, 0, 72, 0
2, 101223, Note_on_c, 0, 72, 96
2, 101803, Note_off_c, 0, 72, 0
2, 101869, Note_on_c, 0, 69, 91
2, 102003, Note_off_c, 0, 69, 0
2, 102014, Note_on_c, 0, 69, 100
2, 102237, Note_off_c, 0, 69, 0
2, 102237, Note_on_c, 0, 69, 102
2, 102460, Note_off_c, 0, 69, 0
2, 102460, Note_on_c, 0, 80, 56
2, 102460, Note_on_c, 0, 68, 94
2, 102694, Note_off_c, 0, 80, 0
2, 102694, Note_off_c, 0, 68, 0
2, 102694, Note_on_c, 0, 80, 57
2, 102694, Note_on_c, 0, 68, 90
2, 102839, Note_off_c, 0, 80, 0
2, 102917, Note_off_c, 0, 68, 0
2, 102917, Note_on_c, 0, 69, 99
2, 103130, Note_off_c, 0, 69, 0
2, 103130, Note_on_c, 0, 80, 49
2, 103130, Note_on_c, 0, 68, 71
2, 103353, Note_off_c, 0, 68, 0
2, 103353, Note_on_c, 0, 68, 86
2, 103364, Note_off_c, 0, 80, 0
2, 103364, Note_on_c, 0, 80, 57
2, 103542, Note_off_c, 0, 80, 0
2, 103587, Note_off_c, 0, 68, 0
2, 103587, Note_on_c, 0, 69, 95
2, 103854, Note_off_c, 0, 69, 0
2, 103932, Note_on_c, 0, 80, 51
2, 103932, Note_on_c, 0, 68, 80
2, 104322, Note_off_c, 0, 80, 0
2, 104723, Note_off_c, 0, 68, 0
2, 104724, Note_on_c, 0, 80, 53
2, 104724, Note_on_c, 0, 68, 92
2, 104937, Note_off_c, 0, 80, 0
2, 104937, Note_off_c, 0, 68, 0
2, 104937, Note_on_c, 0, 80, 53
2, 104937, Note_on_c, 0, 68, 94
2, 105171, Note_off_c, 0, 80, 0
2, 105193, Note_off_c, 0, 68, 0
2, 105193, Note_on_c, 0, 69, 85
2, 105271, Note_on_c, 0, 63, 88
2, 105371, Note_off_c, 0, 69, 0
2, 105438, Note_on_c, 0, 80, 56
2, 105449, Note_on_c, 0, 68, 96
2, 105483, Note_off_c, 0, 63, 0
2, 105705, Note_off_c, 0, 68, 0
2, 105706, Note_on_c, 0, 69, 85
2, 105717, Note_off_c, 0, 80, 0
2, 105795, Note_on_c, 0, 63, 86
2, 105884, Note_off_c, 0, 69, 0
2, 105962, Note_on_c, 0, 80, 54
2, 105962, Note_on_c, 0, 68, 95
2, 105996, Note_off_c, 0, 63, 0
2, 106185, Note_off_c, 0, 80, 0
2, 106218, Note_off_c, 0, 68, 0
2, 106218, Note_on_c, 0, 69, 84
2, 106296, Note_on_c, 0, 63, 91
2, 106374, Note_off_c, 0, 69, 0
2, 106463, Note_on_c, 0, 80, 59
2, 106475, Note_on_c, 0, 68, 90
2, 106485, Note_off_c, 0, 63, 0
2, 106641, Note_off_c, 0, 80, 0
2, 106642, Note_off_c, 0, 68, 0
2, 106642, Note_on_c, 0, 80, 53
2, 106642, Note_on_c, 0, 68, 88
2, 106799, Note_off_c, 0, 80, 0
2, 106799, Note_off_c, 0, 68, 0
2, 106799, Note_on_c, 0, 80, 46
2, 106799, Note_on_c, 0, 68, 93
2, 106966, Note_off_c, 0, 80, 0
2, 106966, Note_off_c, 0, 68, 0
2, 106966, Note_on_c, 0, 80, 51
2, 106966, Note_on_c, 0, 68, 94
2, 107189, Note_off_c, 0, 80, 0
2, 107233, Note_off_c, 0, 68, 0
2, 107234, Note_on_c, 0, 69, 84
2, 107312, Note_on_c, 0, 63, 89
2, 107390, Note_off_c, 0, 69, 0
2, 107824, Note_on_c, 0, 63, 101
2, 107825, Note_off_c, 0, 63, 0
2, 108080, Note_off_c, 0, 63, 0
2, 108081, Note_on_c, 0, 63, 84
2, 108159, Note_on_c, 0, 80, 48
2, 108159, Note_on_c, 0, 68, 86
2, 108315, Note_off_c, 0, 63, 0
2, 108337, Note_off_c, 0, 80, 0
2, 108337, Note_off_c, 0, 68, 0
2, 108337, Note_on_c, 0, 80, 51
2, 108337, Note_on_c, 0, 68, 94
2, 108582, Note_off_c, 0, 80, 0
2, 108582, Note_off_c, 0, 68, 0
2, 108582, Note_on_c, 0, 69, 68
2, 108683, Note_on_c, 0, 63, 76
2, 108840, Note_off_c, 0, 69, 0
2, 108840, Note_on_c, 0, 69, 102
2, 108929, Note_off_c, 0, 63, 0
2, 109174, Note_off_c, 0, 69, 0
2, 109174, Note_on_c, 0, 80, 36
2, 109174, Note_on_c, 0, 68, 90
2, 109341, Note_off_c, 0, 80, 0
2, 109341, Note_off_c, 0, 68, 0
2, 109342, Note_on_c, 0, 80, 50
2, 109342, Note_on_c, 0, 68, 87
2, 109520, Note_off_c, 0, 80, 0
2, 109520, Note_off_c, 0, 68, 0
2, 109520, Note_on_c, 0, 80, 49
2, 109520, Note_on_c, 0, 68, 87
2, 109687, Note_off_c, 0, 80, 0
2, 109687, Note_off_c, 0, 68, 0
2, 109687, Note_on_c, 0, 80, 50
2, 109687, Note_on_c, 0, 68, 92
2, 109943, Note_off_c, 0, 80, 0
2, 109943, Note_off_c, 0, 68, 0
2, 109943, Note_on_c, 0, 69, 85
2, 110021, Note_on_c, 0, 63, 89
2, 110088, Note_off_c, 0, 69, 0
2, 110523, Note_off_c, 0, 63, 0
2, 110702, Note_on_c, 0, 63, 88
2, 110814, Note_on_c, 0, 80, 53
2, 110814, Note_on_c, 0, 68, 83
2, 110925, Note_off_c, 0, 63, 0
2, 110992, Note_off_c, 0, 80, 0
2, 111037, Note_off_c, 0, 68, 0
2, 111037, Note_on_c, 0, 69, 96
2, 111260, Note_on_c, 0, 80, 48
2, 111304, Note_off_c, 0, 69, 0
2, 111382, Note_on_c, 0, 68, 55
2, 111460, Note_on_c, 0, 63, 98
2, 111483, Note_on_c, 0, 97, 44
2, 111494, Note_off_c, 0, 80, 0
2, 111594, Note_off_c, 0, 63, 0
2, 111605, Note_on_c, 0, 63, 79
2, 111639, Note_off_c, 0, 97, 0
2, 111716, Note_off_c, 0, 68, 0
2, 111717, Note_on_c, 0, 80, 53
2, 111717, Note_on_c, 0, 68, 89
2, 111806, Note_off_c, 0, 63, 0
2, 111951, Note_off_c, 0, 80, 0
2, 111951, Note_off_c, 0, 68, 0
2, 111951, Note_on_c, 0, 80, 54
2, 111951, Note_on_c, 0, 68, 88
2, 112174, Note_off_c, 0, 80, 0
2, 112174, Note_off_c, 0, 68, 0
2, 112174, Note_on_c, 0, 69, 88
2, 112375, Note_off_c, 0, 69, 0
2, 112408, Note_on_c, 0, 80, 52
2, 112408, Note_on_c, 0, 68, 85
2, 112576, Note_on_c, 0, 63, 93
2, 112610, Note_on_c, 0, 97, 40
2, 112621, Note_off_c, 0, 80, 0
2, 112677, Note_off_c, 0, 68, 0
2, 112721, Note_off_c, 0, 63, 0
2, 112732, Note_on_c, 0, 63, 100
2, 112822, Note_off_c, 0, 97, 0
2, 113067, Note_on_c, 0, 80, 53
2, 113067, Note_on_c, 0, 68, 94
2, 113078, Note_off_c, 0, 63, 0
2, 113078, Note_on_c, 0, 63, 78
2, 113223, Note_off_c, 0, 63, 0
2, 113301, Note_off_c, 0, 80, 0
2, 113301, Note_off_c, 0, 68, 0
2, 113301, Note_on_c, 0, 80, 46
2, 113301, Note_on_c, 0, 68, 85
2, 113502, Note_off_c, 0, 80, 0
2, 113535, Note_off_c, 0, 68, 0
2, 113535, Note_on_c, 0, 69, 91
2, 113758, Note_off_c, 0, 69, 0
2, 113758, Note_on_c, 0, 80, 46
2, 113758, Note_on_c, 0, 68, 84
2, 113947, Note_on_c, 0, 63, 93
2, 113992, Note_off_c, 0, 80, 0
2, 114048, Note_off_c, 0, 68, 0
2, 114092, Note_off_c, 0, 63, 0
2, 114103, Note_on_c, 0, 63, 91
2, 114426, Note_off_c, 0, 63, 0
2, 114428, Note_on_c, 0, 56, 91
2, 114650, Note_on_c, 0, 68, 33
2, 114650, Note_on_c, 0, 56, 81
2, 114651, Note_off_c, 0, 56, 0
2, 114806, Note_off_c, 0, 68, 0
2, 114873, Note_off_c, 0, 56, 0
2, 114873, Note_on_c, 0, 57, 100
2, 115118, Note_off_c, 0, 57, 0
2, 115119, Note_on_c, 0, 56, 85
2, 115297, Note_on_c, 0, 51, 89
2, 115431, Note_off_c, 0, 56, 0
2, 115442, Note_off_c, 0, 51, 0
2, 115453, Note_on_c, 0, 63, 56
2, 115453, Note_on_c, 0, 51, 92
2, 115631, Note_off_c, 0, 63, 0
2, 115776, Note_off_c, 0, 51, 0
2, 115787, Note_on_c, 0, 80, 105
2, 116133, Note_off_c, 0, 80, 0
2, 116133, Note_on_c, 0, 80, 105
2, 116300, Note_off_c, 0, 80, 0
2, 116300, Note_on_c, 0, 80, 103
2, 116636, Note_off_c, 0, 80, 0
2, 116636, Note_on_c, 0, 80, 108
2, 116803, Note_off_c, 0, 80, 0
2, 116803, Note_on_c, 0, 80, 101
2, 117137, Note_off_c, 0, 80, 0
2, 117137, Note_on_c, 0, 80, 100
2, 117304, Note_on_c, 0, 84, 96
2, 117315, Note_off_c, 0, 80, 0
2, 117650, Note_off_c, 0, 84, 0
2, 117650, Note_on_c, 0, 84, 92
2, 117817, Note_off_c, 0, 84, 0
2, 117817, Note_on_c, 0, 82, 93
2, 118084, Note_off_c, 0, 82, 0
2, 118174, Note_on_c, 0, 80, 91
2, 118665, Note_on_c, 0, 80, 105
2, 118666, Note_off_c, 0, 80, 0
2, 118999, Note_off_c, 0, 80, 0
2, 119000, Note_on_c, 0, 80, 106
2, 119178, Note_off_c, 0, 80, 0
2, 119178, Note_on_c, 0, 80, 105
2, 119512, Note_off_c, 0, 80, 0
2, 119512, Note_on_c, 0, 80, 108
2, 119690, Note_off_c, 0, 80, 0
2, 119691, Note_on_c, 0, 80, 108
2, 120025, Note_off_c, 0, 80, 0
2, 120025, Note_on_c, 0, 80, 99
2, 120182, Note_on_c, 0, 84, 100
2, 120193, Note_off_c, 0, 80, 0
2, 120360, Note_off_c, 0, 84, 0
2, 120361, Note_on_c, 0, 84, 97
2, 120517, Note_off_c, 0, 84, 0
2, 120517, Note_on_c, 0, 82, 94
2, 120796, Note_off_c, 0, 82, 0
2, 120862, Note_on_c, 0, 80, 101
2, 121286, Note_off_c, 0, 80, 0
2, 121542, Note_on_c, 0, 84, 94
2, 121720, Note_off_c, 0, 84, 0
2, 121720, Note_on_c, 0, 84, 92
2, 121876, Note_off_c, 0, 84, 0
2, 121888, Note_on_c, 0, 82, 95
2, 122146, Note_off_c, 0, 82, 0
2, 122223, Note_on_c, 0, 80, 103
2, 122557, Note_off_c, 0, 80, 0
2, 122725, Note_on_c, 0, 84, 95
2, 122903, Note_off_c, 0, 84, 0
2, 122903, Note_on_c, 0, 84, 101
2, 123070, Note_off_c, 0, 84, 0
2, 123070, Note_on_c, 0, 84, 93
2, 123238, Note_on_c, 0, 82, 96
2, 123259, Note_off_c, 0, 84, 0
2, 123505, Note_off_c, 0, 82, 0
2, 123583, Note_on_c, 0, 80, 102
2, 123906, Note_off_c, 0, 80, 0
2, 124086, Note_on_c, 0, 84, 94
2, 124242, Note_off_c, 0, 84, 0
2, 124242, Note_on_c, 0, 82, 81
2, 124398, Note_on_c, 0, 84, 82
2, 124532, Note_off_c, 0, 84, 0
2, 124599, Note_off_c, 0, 82, 0
2, 124599, Note_on_c, 0, 82, 96
2, 124866, Note_off_c, 0, 82, 0
2, 124933, Note_on_c, 0, 80, 101
2, 125457, Note_off_c, 0, 80, 0
2, 125791, Note_on_c, 0, 87, 77
2, 125959, Note_off_c, 0, 87, 0
2, 125960, Note_on_c, 0, 87, 84
2, 126105, Note_off_c, 0, 87, 0
2, 126116, Note_on_c, 0, 85, 102
2, 126283, Note_off_c, 0, 85, 0
2, 126283, Note_on_c, 0, 84, 91
2, 126450, Note_on_c, 0, 82, 97
2, 126472, Note_off_c, 0, 84, 0
2, 126628, Note_off_c, 0, 82, 0
2, 126628, Note_on_c, 0, 82, 97
2, 126873, Note_on_c, 0, 84, 82
2, 126895, Note_off_c, 0, 82, 0
2, 126963, Note_on_c, 0, 80, 98
2, 127029, Note_off_c, 0, 84, 0
2, 127141, Note_on_c, 0, 87, 78
2, 127164, Note_off_c, 0, 80, 0
2, 127308, Note_off_c, 0, 87, 0
2, 127308, Note_on_c, 0, 87, 86
2, 127464, Note_off_c, 0, 87, 0
2, 127475, Note_on_c, 0, 85, 102
2, 127653, Note_off_c, 0, 85, 0
2, 127654, Note_on_c, 0, 84, 93
2, 127811, Note_on_c, 0, 82, 98
2, 127822, Note_off_c, 0, 84, 0
2, 127978, Note_off_c, 0, 82, 0
2, 127978, Note_on_c, 0, 82, 96
2, 128234, Note_on_c, 0, 84, 81
2, 128257, Note_off_c, 0, 82, 0
2, 128312, Note_on_c, 0, 80, 96
2, 128412, Note_off_c, 0, 84, 0
2, 128490, Note_off_c, 0, 80, 0
2, 128491, Note_on_c, 0, 87, 83
2, 128658, Note_off_c, 0, 87, 0
2, 128658, Note_on_c, 0, 87, 86
2, 128825, Note_off_c, 0, 87, 0
2, 128825, Note_on_c, 0, 85, 102
2, 128992, Note_off_c, 0, 85, 0
2, 128992, Note_on_c, 0, 84, 92
2, 129171, Note_on_c, 0, 82, 97
2, 129193, Note_off_c, 0, 84, 0
2, 129349, Note_off_c, 0, 82, 0
2, 129349, Note_on_c, 0, 82, 96
2, 129594, Note_on_c, 0, 84, 80
2, 129616, Note_off_c, 0, 82, 0
2, 129683, Note_on_c, 0, 80, 100
2, 129751, Note_off_c, 0, 84, 0
2, 129841, Note_on_c, 0, 82, 96
2, 129851, Note_off_c, 0, 80, 0
2, 130097, Note_on_c, 0, 84, 82
2, 130108, Note_off_c, 0, 82, 0
2, 130175, Note_on_c, 0, 80, 100
2, 130253, Note_off_c, 0, 84, 0
2, 130353, Note_on_c, 0, 82, 96
2, 130364, Note_off_c, 0, 80, 0
2, 130599, Note_on_c, 0, 84, 83
2, 130620, Note_off_c, 0, 82, 0
2, 130699, Note_on_c, 0, 80, 101
2, 130777, Note_off_c, 0, 84, 0
2, 131167, Note_off_c, 0, 80, 0
2, 131200, Note_on_c, 0, 87, 81
2, 131378, Note_off_c, 0, 87, 0
2, 131379, Note_on_c, 0, 87, 85
2, 131535, Note_off_c, 0, 87, 0
2, 131546, Note_on_c, 0, 85, 103
2, 131703, Note_off_c, 0, 85, 0
2, 131703, Note_on_c, 0, 84, 94
2, 131870, Note_on_c, 0, 82, 97
2, 131881, Note_off_c, 0, 84, 0
2, 132048, Note_off_c, 0, 82, 0
2, 132049, Note_on_c, 0, 82, 96
2, 132305, Note_on_c, 0, 80, 82
2, 132316, Note_off_c, 0, 82, 0
2, 132383, Note_on_c, 0, 84, 89
2, 132483, Note_off_c, 0, 80, 0
2, 132862, Note_off_c, 0, 84, 0
2, 133052, Note_on_c, 0, 80, 100
2, 133599, Note_off_c, 0, 80, 0
2, 134000, Note_on_c, 0, 75, 76
2, 134090, Note_on_c, 0, 87, 71
2, 134212, Note_off_c, 0, 75, 0
2, 134235, Note_off_c, 0, 87, 0
2, 134246, Note_on_c, 0, 85, 99
2, 134424, Note_off_c, 0, 85, 0
2, 134424, Note_on_c, 0, 84, 93
2, 134591, Note_on_c, 0, 82, 96
2, 134602, Note_off_c, 0, 84, 0
2, 134758, Note_off_c, 0, 82, 0
2, 134758, Note_on_c, 0, 82, 95
2, 135025, Note_off_c, 0, 82, 0
2, 135104, Note_on_c, 0, 80, 100
2, 135584, Note_off_c, 0, 80, 0
2, 135774, Note_on_c, 0, 80, 100
2, 136309, Note_off_c, 0, 80, 0
2, 136621, Note_on_c, 0, 87, 81
2, 136799, Note_off_c, 0, 87, 0
2, 136799, Note_on_c, 0, 87, 82
2, 136955, Note_off_c, 0, 87, 0
2, 136955, Note_on_c, 0, 85, 102
2, 137133, Note_off_c, 0, 85, 0
2, 137134, Note_on_c, 0, 84, 94
2, 137312, Note_off_c, 0, 84, 0
2, 137312, Note_on_c, 0, 82, 97
2, 137469, Note_off_c, 0, 82, 0
2, 137469, Note_on_c, 0, 82, 96
2, 137714, Note_on_c, 0, 84, 79
2, 137736, Note_off_c, 0, 82, 0
2, 137804, Note_on_c, 0, 80, 99
2, 137881, Note_off_c, 0, 84, 0
2, 137982, Note_off_c, 0, 80, 0
2, 137982, Note_on_c, 0, 87, 89
2, 138149, Note_off_c, 0, 87, 0
2, 138149, Note_on_c, 0, 87, 84
2, 138305, Note_off_c, 0, 87, 0
2, 138316, Note_on_c, 0, 85, 103
2, 138483, Note_off_c, 0, 85, 0
2, 138483, Note_on_c, 0, 84, 93
2, 138662, Note_on_c, 0, 82, 97
2, 138672, Note_off_c, 0, 84, 0
2, 138840, Note_off_c, 0, 82, 0
2, 138840, Note_on_c, 0, 82, 96
2, 139085, Note_on_c, 0, 84, 82
2, 139096, Note_off_c, 0, 82, 0
2, 139163, Note_on_c, 0, 80, 96
2, 139242, Note_off_c, 0, 84, 0
2, 139332, Note_on_c, 0, 87, 89
2, 139343, Note_off_c, 0, 80, 0
2, 139510, Note_off_c, 0, 87, 0
2, 139510, Note_on_c, 0, 87, 82
2, 139666, Note_off_c, 0, 87, 0
2, 139666, Note_on_c, 0, 85, 102
2, 139833, Note_off_c, 0, 85, 0
2, 139833, Note_on_c, 0, 84, 93
2, 140000, Note_on_c, 0, 82, 98
2, 140011, Note_off_c, 0, 84, 0
2, 140189, Note_off_c, 0, 82, 0
2, 140190, Note_on_c, 0, 82, 97
2, 140435, Note_on_c, 0, 84, 82
2, 140446, Note_off_c, 0, 82, 0
2, 140524, Note_on_c, 0, 80, 99
2, 140602, Note_off_c, 0, 84, 0
2, 140691, Note_on_c, 0, 82, 94
2, 140702, Note_off_c, 0, 80, 0
2, 140937, Note_on_c, 0, 84, 80
2, 140958, Note_off_c, 0, 82, 0
2, 141037, Note_on_c, 0, 80, 100
2, 141115, Note_off_c, 0, 84, 0
2, 141183, Note_on_c, 0, 82, 97
2, 141205, Note_off_c, 0, 80, 0
2, 141439, Note_on_c, 0, 84, 85
2, 141462, Note_off_c, 0, 82, 0
2, 141529, Note_on_c, 0, 80, 100
2, 141606, Note_off_c, 0, 84, 0
2, 142008, Note_off_c, 0, 80, 0
2, 142041, Note_on_c, 0, 87, 81
2, 142219, Note_off_c, 0, 87, 0
2, 142220, Note_on_c, 0, 87, 86
2, 142376, Note_off_c, 0, 87, 0
2, 142387, Note_on_c, 0, 85, 102
2, 142554, Note_off_c, 0, 85, 0
2, 142554, Note_on_c, 0, 84, 93
2, 142721, Note_on_c, 0, 82, 95
2, 142732, Note_off_c, 0, 84, 0
2, 142899, Note_off_c, 0, 82, 0
2, 142900, Note_on_c, 0, 82, 97
2, 143135, Note_on_c, 0, 80, 81
2, 143146, Note_off_c, 0, 82, 0
2, 143224, Note_on_c, 0, 84, 89
2, 143302, Note_off_c, 0, 80, 0
2, 143759, Note_off_c, 0, 84, 0
2, 143893, Note_on_c, 0, 80, 101
2, 144428, Note_off_c, 0, 80, 0
2, 144840, Note_on_c, 0, 80, 80
2, 144940, Note_on_c, 0, 87, 87
2, 145031, Note_off_c, 0, 80, 0
2, 145086, Note_off_c, 0, 87, 0
2, 145087, Note_on_c, 0, 85, 99
2, 145265, Note_off_c, 0, 85, 0
2, 145265, Note_on_c, 0, 84, 94
2, 145432, Note_on_c, 0, 82, 95
2, 145443, Note_off_c, 0, 84, 0
2, 145599, Note_off_c, 0, 82, 0
2, 145599, Note_on_c, 0, 82, 97
2, 145855, Note_off_c, 0, 82, 0
2, 145945, Note_on_c, 0, 80, 101
2, 146480, Note_off_c, 0, 80, 0
2, 146636, Note_on_c, 0, 87, 75
2, 146960, Note_off_c, 0, 87, 0
2, 147127, Note_on_c, 0, 75, 106
2, 147461, Note_off_c, 0, 75, 0
2, 147462, Note_on_c, 0, 75, 89
2, 147629, Note_on_c, 0, 84, 90
2, 147774, Note_off_c, 0, 75, 0
2, 147885, Note_off_c, 0, 84, 0
2, 147885, Note_on_c, 0, 82, 92
2, 148142, Note_on_c, 0, 84, 87
2, 148164, Note_off_c, 0, 82, 0
2, 148320, Note_on_c, 0, 80, 106
2, 148343, Note_off_c, 0, 84, 0
2, 148576, Note_off_c, 0, 80, 0
2, 148576, Note_on_c, 0, 80, 107
2, 148822, Note_off_c, 0, 80, 0
2, 148823, Note_on_c, 0, 80, 92
2, 148990, Note_on_c, 0, 77, 108
2, 149035, Note_off_c, 0, 80, 0
2, 149235, Note_off_c, 0, 77, 0
2, 149235, Note_on_c, 0, 77, 105
2, 149491, Note_off_c, 0, 77, 0
2, 149491, Note_on_c, 0, 77, 90
2, 149670, Note_on_c, 0, 82, 102
2, 149825, Note_off_c, 0, 77, 0
2, 149926, Note_off_c, 0, 82, 0
2, 149926, Note_on_c, 0, 82, 96
2, 150171, Note_on_c, 0, 84, 99
2, 150193, Note_off_c, 0, 82, 0
2, 150349, Note_off_c, 0, 84, 0
2, 150350, Note_on_c, 0, 84, 89
2, 150808, Note_off_c, 0, 84, 0
2, 151009, Note_on_c, 0, 84, 93
2, 151276, Note_off_c, 0, 84, 0
2, 151276, Note_on_c, 0, 80, 104
2, 151532, Note_off_c, 0, 80, 0
2, 151532, Note_on_c, 0, 80, 93
2, 151711, Note_on_c, 0, 77, 106
2, 151766, Note_off_c, 0, 80, 0
2, 151956, Note_off_c, 0, 77, 0
2, 151956, Note_on_c, 0, 77, 105
2, 152212, Note_off_c, 0, 77, 0
2, 152212, Note_on_c, 0, 77, 88
2, 152379, Note_on_c, 0, 82, 99
2, 152535, Note_off_c, 0, 77, 0
2, 152625, Note_off_c, 0, 82, 0
2, 152626, Note_on_c, 0, 82, 100
2, 152882, Note_on_c, 0, 84, 105
2, 152905, Note_off_c, 0, 82, 0
2, 153060, Note_off_c, 0, 84, 0
2, 153061, Note_on_c, 0, 84, 92
2, 153518, Note_off_c, 0, 84, 0
2, 153729, Note_on_c, 0, 84, 101
2, 153985, Note_off_c, 0, 84, 0
2, 153986, Note_on_c, 0, 84, 101
2, 154242, Note_off_c, 0, 84, 0
2, 154242, Note_on_c, 0, 84, 91
2, 154420, Note_on_c, 0, 87, 80
2, 154454, Note_off_c, 0, 84, 0
2, 154633, Note_off_c, 0, 87, 0
2, 154667, Note_on_c, 0, 85, 99
2, 154912, Note_off_c, 0, 85, 0
2, 154912, Note_on_c, 0, 84, 99
2, 155090, Note_off_c, 0, 84, 0
2, 155090, Note_on_c, 0, 84, 92
2, 155268, Note_off_c, 0, 84, 0
2, 155335, Note_on_c, 0, 80, 106
2, 155591, Note_off_c, 0, 80, 0
2, 155592, Note_on_c, 0, 80, 110
2, 155770, Note_off_c, 0, 80, 0
2, 155770, Note_on_c, 0, 80, 99
2, 156026, Note_on_c, 0, 84, 93
2, 156082, Note_off_c, 0, 80, 0
2, 156282, Note_off_c, 0, 84, 0
2, 156283, Note_on_c, 0, 82, 101
2, 156440, Note_off_c, 0, 82, 0
2, 156440, Note_on_c, 0, 82, 98
2, 156696, Note_on_c, 0, 80, 99
2, 156707, Note_off_c, 0, 82, 0
2, 157220, Note_off_c, 0, 80, 0
2, 157365, Note_on_c, 0, 84, 96
2, 157632, Note_off_c, 0, 84, 0
2, 157633, Note_on_c, 0, 82, 97
2, 157811, Note_off_c, 0, 82, 0
2, 157811, Note_on_c, 0, 82, 97
2, 158056, Note_on_c, 0, 80, 99
2, 158078, Note_off_c, 0, 82, 0
2, 158615, Note_off_c, 0, 80, 0
2, 158815, Note_on_c, 0, 80, 110
2, 159161, Note_off_c, 0, 80, 0
2, 159161, Note_on_c, 0, 80, 105
2, 159328, Note_off_c, 0, 80, 0
2, 159328, Note_on_c, 0, 79, 100
2, 159495, Note_on_c, 0, 77, 97
2, 159517, Note_off_c, 0, 79, 0
2, 159662, Note_on_c, 0, 75, 100
2, 159684, Note_off_c, 0, 77, 0
2, 160008, Note_on_c, 0, 70, 87
2, 160019, Note_off_c, 0, 75, 0
2, 160175, Note_on_c, 0, 72, 97
2, 160254, Note_off_c, 0, 70, 0
2, 160511, Note_off_c, 0, 72, 0
2, 160511, Note_on_c, 0, 70, 90
2, 160734, Note_on_c, 0, 72, 79
2, 160845, Note_off_c, 0, 70, 0
2, 160845, Note_on_c, 0, 70, 85
2, 160879, Note_off_c, 0, 72, 0
2, 161023, Note_on_c, 0, 80, 44
2, 161023, Note_on_c, 0, 68, 86
2, 161057, Note_off_c, 0, 70, 0
2, 161402, Note_off_c, 0, 80, 0
2, 161725, Note_off_c, 0, 68, 0
2, 161870, Note_on_c, 0, 80, 105
2, 162037, Note_off_c, 0, 80, 0
2, 162038, Note_on_c, 0, 79, 97
2, 162206, Note_on_c, 0, 77, 97
2, 162229, Note_off_c, 0, 79, 0
2, 162373, Note_on_c, 0, 75, 97
2, 162395, Note_off_c, 0, 77, 0
2, 162719, Note_on_c, 0, 70, 86
2, 162741, Note_off_c, 0, 75, 0
2, 162886, Note_on_c, 0, 72, 96
2, 162975, Note_off_c, 0, 70, 0
2, 163220, Note_on_c, 0, 70, 91
2, 163232, Note_off_c, 0, 72, 0
2, 163477, Note_on_c, 0, 72, 94
2, 163543, Note_off_c, 0, 70, 0
2, 163722, Note_off_c, 0, 72, 0
2, 163733, Note_on_c, 0, 80, 46
2, 163733, Note_on_c, 0, 68, 88
2, 164169, Note_off_c, 0, 80, 0
2, 164470, Note_off_c, 0, 68, 0
2, 164570, Note_on_c, 0, 80, 105
2, 164737, Note_off_c, 0, 80, 0
2, 164737, Note_on_c, 0, 79, 98
2, 164916, Note_on_c, 0, 77, 95
2, 164938, Note_off_c, 0, 79, 0
2, 165083, Note_on_c, 0, 75, 98
2, 165105, Note_off_c, 0, 77, 0
2, 165440, Note_on_c, 0, 70, 89
2, 165462, Note_off_c, 0, 75, 0
2, 165596, Note_on_c, 0, 72, 96
2, 165685, Note_off_c, 0, 70, 0
2, 165931, Note_on_c, 0, 70, 91
2, 165943, Note_off_c, 0, 72, 0
2, 166154, Note_on_c, 0, 72, 83
2, 166265, Note_off_c, 0, 70, 0
2, 166266, Note_on_c, 0, 70, 88
2, 166288, Note_off_c, 0, 72, 0
2, 166433, Note_on_c, 0, 80, 46
2, 166433, Note_on_c, 0, 68, 87
2, 166478, Note_off_c, 0, 70, 0
2, 166879, Note_off_c, 0, 80, 0
2, 167146, Note_off_c, 0, 68, 0
2, 167291, Note_on_c, 0, 80, 105
2, 167458, Note_off_c, 0, 80, 0
2, 167458, Note_on_c, 0, 79, 98
2, 167625, Note_on_c, 0, 77, 96
2, 167659, Note_off_c, 0, 79, 0
2, 167792, Note_on_c, 0, 75, 98
2, 167826, Note_off_c, 0, 77, 0
2, 168128, Note_on_c, 0, 70, 84
2, 168150, Note_off_c, 0, 75, 0
2, 168306, Note_on_c, 0, 72, 97
2, 168395, Note_off_c, 0, 70, 0
2, 168652, Note_on_c, 0, 70, 90
2, 168663, Note_off_c, 0, 72, 0
2, 168897, Note_on_c, 0, 72, 96
2, 168986, Note_off_c, 0, 70, 0
2, 169142, Note_off_c, 0, 72, 0
2, 169153, Note_on_c, 0, 80, 49
2, 169153, Note_on_c, 0, 68, 89
2, 169565, Note_off_c, 0, 80, 0
2, 169901, Note_off_c, 0, 68, 0
2, 169991, Note_on_c, 0, 80, 107
2, 170336, Note_on_c, 0, 80, 108
2, 170337, Note_off_c, 0, 80, 0
2, 170503, Note_off_c, 0, 80, 0
2, 170503, Note_on_c, 0, 80, 106
2, 170849, Note_off_c, 0, 80, 0
2, 170849, Note_on_c, 0, 80, 109
2, 171016, Note_off_c, 0, 80, 0
2, 171016, Note_on_c, 0, 80, 104
2, 171350, Note_off_c, 0, 80, 0
2, 171350, Note_on_c, 0, 80, 98
2, 171518, Note_on_c, 0, 84, 98
2, 171551, Note_off_c, 0, 80, 0
2, 171864, Note_on_c, 0, 84, 95
2, 171865, Note_off_c, 0, 84, 0
2, 172031, Note_off_c, 0, 84, 0
2, 172031, Note_on_c, 0, 82, 96
2, 172287, Note_off_c, 0, 82, 0
2, 172366, Note_on_c, 0, 80, 106
2, 172711, Note_on_c, 0, 80, 107
2, 172712, Note_off_c, 0, 80, 0
2, 173045, Note_off_c, 0, 80, 0
2, 173046, Note_on_c, 0, 80, 108
2, 173224, Note_off_c, 0, 80, 0
2, 173224, Note_on_c, 0, 80, 106
2, 173548, Note_off_c, 0, 80, 0
2, 173549, Note_on_c, 0, 80, 108
2, 173727, Note_off_c, 0, 80, 0
2, 173727, Note_on_c, 0, 80, 104
2, 174061, Note_off_c, 0, 80, 0
2, 174061, Note_on_c, 0, 80, 100
2, 174228, Note_on_c, 0, 84, 97
2, 174250, Note_off_c, 0, 80, 0
2, 174562, Note_off_c, 0, 84, 0
2, 174563, Note_on_c, 0, 84, 95
2, 174741, Note_off_c, 0, 84, 0
2, 174741, Note_on_c, 0, 82, 94
2, 175008, Note_off_c, 0, 82, 0
2, 175087, Note_on_c, 0, 80, 106
2, 175421, Note_off_c, 0, 80, 0
2, 175421, Note_on_c, 0, 80, 106
2, 175757, Note_off_c, 0, 80, 0
2, 175757, Note_on_c, 0, 80, 112
2, 175924, Note_off_c, 0, 80, 0
2, 175924, Note_on_c, 0, 80, 109
2, 176269, Note_on_c, 0, 80, 108
2, 176270, Note_off_c, 0, 80, 0
2, 176436, Note_off_c, 0, 80, 0
2, 176436, Note_on_c, 0, 80, 106
2, 176782, Note_off_c, 0, 80, 0
2, 176782, Note_on_c, 0, 80, 110
2, 176949, Note_off_c, 0, 80, 0
2, 176949, Note_on_c, 0, 80, 105
2, 177283, Note_off_c, 0, 80, 0
2, 177284, Note_on_c, 0, 80, 94
2, 177452, Note_on_c, 0, 77, 98
2, 177508, Note_off_c, 0, 80, 0
2, 177775, Note_off_c, 0, 77, 0
2, 177786, Note_on_c, 0, 80, 100
2, 178132, Note_on_c, 0, 82, 95
2, 178143, Note_off_c, 0, 80, 0
2, 178377, Note_on_c, 0, 84, 81
2, 178388, Note_off_c, 0, 82, 0
2, 178466, Note_on_c, 0, 80, 98
2, 178544, Note_off_c, 0, 84, 0
2, 178633, Note_on_c, 0, 82, 95
2, 178655, Note_off_c, 0, 80, 0
2, 178890, Note_on_c, 0, 84, 80
2, 178900, Note_off_c, 0, 82, 0
2, 178979, Note_on_c, 0, 80, 99
2, 179057, Note_off_c, 0, 84, 0
2, 179146, Note_on_c, 0, 82, 93
2, 179168, Note_off_c, 0, 80, 0
2, 179392, Note_on_c, 0, 84, 81
2, 179404, Note_off_c, 0, 82, 0
2, 179471, Note_on_c, 0, 80, 96
2, 179559, Note_off_c, 0, 84, 0
2, 180218, Note_off_c, 0, 80, 0
2, 182002, Note_on_c, 0, 80, 97
2, 182504, Note_off_c, 0, 80, 0
2, 182849, Note_on_c, 0, 87, 78
2, 183027, Note_off_c, 0, 87, 0
2, 183027, Note_on_c, 0, 87, 79
2, 183162, Note_off_c, 0, 87, 0
2, 183184, Note_on_c, 0, 85, 105
2, 183351, Note_off_c, 0, 85, 0
2, 183352, Note_on_c, 0, 84, 93
2, 183519, Note_on_c, 0, 82, 99
2, 183541, Note_off_c, 0, 84, 0
2, 183697, Note_off_c, 0, 82, 0
2, 183697, Note_on_c, 0, 82, 97
2, 183942, Note_on_c, 0, 84, 85
2, 183964, Note_off_c, 0, 82, 0
2, 184032, Note_on_c, 0, 80, 97
2, 184098, Note_off_c, 0, 84, 0
2, 184199, Note_on_c, 0, 87, 80
2, 184233, Note_off_c, 0, 80, 0
2, 184377, Note_off_c, 0, 87, 0
2, 184377, Note_on_c, 0, 87, 83
2, 184533, Note_off_c, 0, 87, 0
2, 184544, Note_on_c, 0, 85, 107
2, 184700, Note_off_c, 0, 85, 0
2, 184700, Note_on_c, 0, 84, 93
2, 184879, Note_on_c, 0, 82, 100
2, 184901, Note_off_c, 0, 84, 0
2, 185047, Note_off_c, 0, 82, 0
2, 185047, Note_on_c, 0, 82, 99
2, 185303, Note_on_c, 0, 84, 87
2, 185314, Note_off_c, 0, 82, 0
2, 185381, Note_on_c, 0, 80, 98
2, 185459, Note_off_c, 0, 84, 0
2, 185548, Note_off_c, 0, 80, 0
2, 185560, Note_on_c, 0, 87, 82
2, 185727, Note_off_c, 0, 87, 0
2, 185727, Note_on_c, 0, 87, 83
2, 185894, Note_off_c, 0, 87, 0
2, 185894, Note_on_c, 0, 85, 103
2, 186072, Note_off_c, 0, 85, 0
2, 186072, Note_on_c, 0, 84, 96
2, 186240, Note_on_c, 0, 82, 101
2, 186250, Note_off_c, 0, 84, 0
2, 186407, Note_off_c, 0, 82, 0
2, 186407, Note_on_c, 0, 82, 99
2, 186663, Note_on_c, 0, 84, 86
2, 186674, Note_off_c, 0, 82, 0
2, 186730, Note_on_c, 0, 80, 99
2, 186819, Note_off_c, 0, 84, 0
2, 186898, Note_on_c, 0, 82, 96
2, 186921, Note_off_c, 0, 80, 0
2, 187155, Note_on_c, 0, 84, 85
2, 187177, Note_off_c, 0, 82, 0
2, 187244, Note_on_c, 0, 80, 99
2, 187322, Note_off_c, 0, 84, 0
2, 187422, Note_on_c, 0, 82, 96
2, 187445, Note_off_c, 0, 80, 0
2, 187679, Note_on_c, 0, 84, 87
2, 187701, Note_off_c, 0, 82, 0
2, 187757, Note_on_c, 0, 80, 102
2, 187835, Note_off_c, 0, 84, 0
2, 188203, Note_off_c, 0, 80, 0
2, 188280, Note_on_c, 0, 87, 84
2, 188447, Note_off_c, 0, 87, 0
2, 188448, Note_on_c, 0, 87, 75
2, 188593, Note_off_c, 0, 87, 0
2, 188604, Note_on_c, 0, 85, 103
2, 188782, Note_off_c, 0, 85, 0
2, 188782, Note_on_c, 0, 84, 92
2, 188939, Note_on_c, 0, 82, 100
2, 188962, Note_off_c, 0, 84, 0
2, 189117, Note_off_c, 0, 82, 0
2, 189118, Note_on_c, 0, 82, 98
2, 189363, Note_on_c, 0, 80, 84
2, 189385, Note_off_c, 0, 82, 0
2, 189452, Note_on_c, 0, 84, 88
2, 189541, Note_off_c, 0, 80, 0
2, 189876, Note_off_c, 0, 84, 0
2, 190009, Note_on_c, 0, 65, 0
2, 190020, Note_off_c, 0, 65, 0
2, 190020, End_track
0, 0, End_of_file
