0, 0, Header, 1, 2, 480
1, 0, Start_track
1, 0, Time_signature, 4, 2, 24, 8
1, 0, Tempo, 500000
1, 0, Title_t, ""
1, 104484, End_track
2, 0, Start_track
2, 0, Title_t, ""
2, 0, Program_c, 0, 4
2, 1783, Note_on_c, 0, 75, 64
2, 1783, Note_on_c, 0, 48, 84
2, 1794, Note_on_c, 0, 51, 88
2, 2899, Note_off_c, 0, 75, 0
2, 3155, Note_off_c, 0, 48, 0
2, 3155, Note_on_c, 0, 75, 53
2, 3155, Note_on_c, 0, 60, 48
2, 3155, Note_on_c, 0, 48, 77
2, 3245, Note_on_c, 0, 67, 42
2, 3422, Note_off_c, 0, 60, 0
2, 3423, Note_off_c, 0, 67, 0
2, 3601, Note_on_c, 0, 67, 43
2, 3757, Note_off_c, 0, 75, 0
2, 4003, Note_off_c, 0, 67, 0
2, 4316, Note_on_c, 0, 67, 42
2, 4572, Note_on_c, 0, 75, 43
2, 4684, Note_off_c, 0, 67, 0
2, 4717, Note_off_c, 0, 75, 0
2, 5140, Note_off_c, 0, 51, 0
2, 5240, Note_off_c, 0, 48, 0
2, 5241, Note_on_c, 0, 48, 102
2, 5811, Note_off_c, 0, 48, 0
2, 5811, Note_on_c, 0, 48, 96
2, 6390, Note_on_c, 0, 44, 81
2, 6402, Note_off_c, 0, 48, 0
2, 6669, Note_on_c, 0, 80, 94
2, 6914, Note_off_c, 0, 44, 0
2, 6959, Note_off_c, 0, 80, 0
2, 6959, Note_on_c, 0, 79, 91
2, 7103, Note_on_c, 0, 75, 91
2, 7238, Note_off_c, 0, 79, 0
2, 7248, Note_on_c, 0, 43, 90
2, 7337, Note_off_c, 0, 75, 0
2, 7382, Note_on_c, 0, 77, 76
2, 7640, Note_off_c, 0, 77, 0
2, 7673, Note_on_c, 0, 75, 97
2, 7684, Note_off_c, 0, 43, 0
2, 7974, Note_off_c, 0, 75, 0
2, 7974, Note_on_c, 0, 75, 100
2, 8108, Note_off_c, 0, 75, 0
2, 8108, Note_on_c, 0, 74, 74
2, 8119, Note_on_c, 0, 43, 84
2, 8375, Note_off_c, 0, 74, 0
2, 8398, Note_on_c, 0, 75, 78
2, 8687, Note_on_c, 0, 48, 84
2, 8755, Note_off_c, 0, 75, 0
2, 8866, Note_off_c, 0, 43, 0
2, 8966, Note_on_c, 0, 80, 89
2, 9211, Note_off_c, 0, 48, 0
2, 9267, Note_off_c, 0, 80, 0
2, 9267, Note_on_c, 0, 79, 90
2, 9412, Note_on_c, 0, 75, 92
2, 9536, Note_off_c, 0, 79, 0
2, 9547, Note_on_c, 0, 51, 86
2, 9647, Note_off_c, 0, 75, 0
2, 9692, Note_on_c, 0, 77, 91
2, 9971, Note_off_c, 0, 51, 0
2, 9971, Note_off_c, 0, 77, 0
2, 9981, Note_on_c, 0, 75, 100
2, 10271, Note_off_c, 0, 75, 0
2, 10271, Note_on_c, 0, 75, 92
2, 10416, Note_on_c, 0, 70, 53
2, 10427, Note_on_c, 0, 51, 84
2, 10472, Note_off_c, 0, 75, 0
2, 10962, Note_off_c, 0, 70, 0
2, 10996, Note_on_c, 0, 44, 81
2, 11151, Note_off_c, 0, 51, 0
2, 11285, Note_on_c, 0, 80, 95
2, 11510, Note_off_c, 0, 44, 0
2, 11565, Note_off_c, 0, 80, 0
2, 11565, Note_on_c, 0, 79, 90
2, 11710, Note_on_c, 0, 75, 91
2, 11832, Note_off_c, 0, 79, 0
2, 11855, Note_on_c, 0, 43, 90
2, 11933, Note_off_c, 0, 75, 0
2, 11989, Note_on_c, 0, 77, 76
2, 12256, Note_off_c, 0, 77, 0
2, 12279, Note_on_c, 0, 75, 97
2, 12301, Note_off_c, 0, 43, 0
2, 12568, Note_on_c, 0, 75, 103
2, 12569, Note_off_c, 0, 75, 0
2, 12724, Note_off_c, 0, 75, 0
2, 12725, Note_on_c, 0, 74, 76
2, 12725, Note_on_c, 0, 43, 83
2, 12736, Note_on_c, 0, 55, 38
2, 12892, Note_off_c, 0, 55, 0
2, 12992, Note_off_c, 0, 74, 0
2, 13014, Note_on_c, 0, 75, 88
2, 13293, Note_off_c, 0, 75, 0
2, 13293, Note_on_c, 0, 74, 94
2, 13304, Note_on_c, 0, 48, 85
2, 13439, Note_off_c, 0, 74, 0
2, 13439, Note_on_c, 0, 75, 95
2, 13484, Note_off_c, 0, 43, 0
2, 13584, Note_off_c, 0, 75, 0
2, 13584, Note_on_c, 0, 75, 101
2, 13706, Note_off_c, 0, 48, 0
2, 13718, Note_off_c, 0, 75, 0
2, 13718, Note_on_c, 0, 74, 104
2, 13863, Note_off_c, 0, 74, 0
2, 13863, Note_on_c, 0, 75, 102
2, 14007, Note_on_c, 0, 75, 104
2, 14008, Note_off_c, 0, 75, 0
2, 14152, Note_off_c, 0, 75, 0
2, 14152, Note_on_c, 0, 74, 91
2, 14175, Note_on_c, 0, 51, 77
2, 14308, Note_off_c, 0, 74, 0
2, 14308, Note_on_c, 0, 75, 99
2, 14453, Note_off_c, 0, 75, 0
2, 14453, Note_on_c, 0, 75, 103
2, 14576, Note_off_c, 0, 51, 0
2, 14587, Note_off_c, 0, 75, 0
2, 14587, Note_on_c, 0, 74, 100
2, 14743, Note_off_c, 0, 74, 0
2, 14743, Note_on_c, 0, 75, 98
2, 15022, Note_on_c, 0, 77, 85
2, 15033, Note_on_c, 0, 70, 47
2, 15033, Note_on_c, 0, 51, 82
2, 15044, Note_off_c, 0, 75, 0
2, 15302, Note_off_c, 0, 77, 0
2, 15302, Note_on_c, 0, 75, 97
2, 15369, Note_off_c, 0, 70, 0
2, 15580, Note_on_c, 0, 77, 83
2, 15591, Note_on_c, 0, 44, 89
2, 15592, Note_off_c, 0, 75, 0
2, 15692, Note_off_c, 0, 51, 0
2, 15736, Note_on_c, 0, 75, 76
2, 15769, Note_off_c, 0, 77, 0
2, 16037, Note_off_c, 0, 44, 0
2, 16037, Note_off_c, 0, 75, 0
2, 16037, Note_on_c, 0, 75, 99
2, 16327, Note_off_c, 0, 75, 0
2, 16327, Note_on_c, 0, 75, 84
2, 16461, Note_on_c, 0, 43, 91
2, 16606, Note_off_c, 0, 75, 0
2, 16606, Note_on_c, 0, 75, 79
2, 16907, Note_off_c, 0, 43, 0
2, 16907, Note_on_c, 0, 70, 100
2, 17018, Note_off_c, 0, 75, 0
2, 17175, Note_on_c, 0, 72, 88
2, 17209, Note_off_c, 0, 70, 0
2, 17331, Note_on_c, 0, 43, 81
2, 17610, Note_off_c, 0, 72, 0
2, 17621, Note_on_c, 0, 70, 86
2, 17900, Note_on_c, 0, 77, 77
2, 17911, Note_on_c, 0, 48, 91
2, 17933, Note_off_c, 0, 70, 0
2, 18045, Note_on_c, 0, 75, 76
2, 18056, Note_off_c, 0, 77, 0
2, 18111, Note_off_c, 0, 43, 0
2, 18334, Note_on_c, 0, 75, 103
2, 18335, Note_off_c, 0, 48, 0
2, 18335, Note_off_c, 0, 75, 0
2, 18624, Note_off_c, 0, 75, 0
2, 18624, Note_on_c, 0, 75, 95
2, 18769, Note_on_c, 0, 51, 81
2, 18836, Note_off_c, 0, 75, 0
2, 18914, Note_on_c, 0, 74, 90
2, 19194, Note_off_c, 0, 51, 0
2, 19205, Note_on_c, 0, 70, 104
2, 19216, Note_off_c, 0, 74, 0
2, 19495, Note_off_c, 0, 70, 0
2, 19495, Note_on_c, 0, 70, 87
2, 19629, Note_on_c, 0, 72, 91
2, 19640, Note_on_c, 0, 51, 89
2, 19684, Note_off_c, 0, 70, 0
2, 19918, Note_on_c, 0, 70, 74
2, 19929, Note_on_c, 0, 51, 76
2, 19930, Note_off_c, 0, 51, 0
2, 19963, Note_off_c, 0, 72, 0
2, 20219, Note_on_c, 0, 44, 82
2, 20264, Note_off_c, 0, 70, 0
2, 20375, Note_off_c, 0, 51, 0
2, 20509, Note_on_c, 0, 70, 95
2, 20743, Note_off_c, 0, 44, 0
2, 20788, Note_on_c, 0, 77, 79
2, 20855, Note_off_c, 0, 70, 0
2, 20933, Note_on_c, 0, 79, 94
2, 21012, Note_off_c, 0, 77, 0
2, 21079, Note_on_c, 0, 43, 90
2, 21135, Note_off_c, 0, 79, 0
2, 21201, Note_on_c, 0, 77, 78
2, 21491, Note_off_c, 0, 77, 0
2, 21502, Note_on_c, 0, 75, 99
2, 21514, Note_off_c, 0, 43, 0
2, 21792, Note_off_c, 0, 75, 0
2, 21792, Note_on_c, 0, 75, 100
2, 21926, Note_off_c, 0, 75, 0
2, 21926, Note_on_c, 0, 74, 75
2, 21937, Note_on_c, 0, 43, 81
2, 22205, Note_off_c, 0, 74, 0
2, 22227, Note_on_c, 0, 75, 87
2, 22516, Note_on_c, 0, 75, 78
2, 22516, Note_on_c, 0, 48, 82
2, 22517, Note_off_c, 0, 75, 0
2, 22695, Note_off_c, 0, 43, 0
2, 22806, Note_on_c, 0, 70, 89
2, 22817, Note_on_c, 0, 67, 49
2, 22896, Note_off_c, 0, 75, 0
2, 22941, Note_off_c, 0, 67, 0
2, 23008, Note_off_c, 0, 48, 0
2, 23086, Note_on_c, 0, 79, 101
2, 23208, Note_off_c, 0, 70, 0
2, 23365, Note_on_c, 0, 77, 80
2, 23376, Note_on_c, 0, 70, 46
2, 23376, Note_on_c, 0, 51, 79
2, 23387, Note_off_c, 0, 79, 0
2, 23577, Note_off_c, 0, 70, 0
2, 23655, Note_off_c, 0, 77, 0
2, 23655, Note_on_c, 0, 77, 96
2, 23889, Note_off_c, 0, 51, 0
2, 23955, Note_on_c, 0, 75, 100
2, 23967, Note_off_c, 0, 77, 0
2, 24234, Note_off_c, 0, 75, 0
2, 24234, Note_on_c, 0, 74, 94
2, 24256, Note_on_c, 0, 51, 76
2, 24513, Note_off_c, 0, 74, 0
2, 24524, Note_on_c, 0, 75, 100
2, 24669, Note_off_c, 0, 75, 0
2, 24669, Note_on_c, 0, 75, 100
2, 24804, Note_off_c, 0, 75, 0
2, 24804, Note_on_c, 0, 75, 83
2, 24815, Note_on_c, 0, 56, 39
2, 24815, Note_on_c, 0, 44, 86
2, 24904, Note_off_c, 0, 51, 0
2, 24949, Note_off_c, 0, 56, 0
2, 25083, Note_off_c, 0, 75, 0
2, 25094, Note_on_c, 0, 77, 90
2, 25361, Note_off_c, 0, 44, 0
2, 25384, Note_off_c, 0, 77, 0
2, 25395, Note_on_c, 0, 79, 98
2, 25684, Note_on_c, 0, 75, 82
2, 25684, Note_on_c, 0, 43, 88
2, 25696, Note_off_c, 0, 79, 0
2, 25918, Note_off_c, 0, 75, 0
2, 25963, Note_on_c, 0, 77, 86
2, 26219, Note_off_c, 0, 43, 0
2, 26253, Note_off_c, 0, 77, 0
2, 26253, Note_on_c, 0, 79, 98
2, 26542, Note_on_c, 0, 75, 80
2, 26554, Note_off_c, 0, 79, 0
2, 26554, Note_on_c, 0, 43, 89
2, 26777, Note_off_c, 0, 75, 0
2, 26822, Note_on_c, 0, 77, 78
2, 27089, Note_off_c, 0, 77, 0
2, 27123, Note_on_c, 0, 79, 70
2, 27123, Note_on_c, 0, 60, 49
2, 27123, Note_on_c, 0, 48, 83
2, 27157, Note_off_c, 0, 43, 0
2, 27312, Note_off_c, 0, 60, 0
2, 27368, Note_off_c, 0, 79, 0
2, 27402, Note_on_c, 0, 75, 94
2, 27636, Note_off_c, 0, 48, 0
2, 27681, Note_off_c, 0, 75, 0
2, 27692, Note_on_c, 0, 77, 91
2, 27982, Note_off_c, 0, 77, 0
2, 27982, Note_on_c, 0, 79, 71
2, 27982, Note_on_c, 0, 51, 83
2, 28227, Note_off_c, 0, 79, 0
2, 28271, Note_on_c, 0, 70, 94
2, 28517, Note_off_c, 0, 51, 0
2, 28572, Note_off_c, 0, 70, 0
2, 28572, Note_on_c, 0, 70, 99
2, 28852, Note_on_c, 0, 72, 93
2, 28852, Note_on_c, 0, 51, 80
2, 28874, Note_off_c, 0, 70, 0
2, 29131, Note_on_c, 0, 70, 74
2, 29175, Note_off_c, 0, 72, 0
2, 29432, Note_on_c, 0, 44, 79
2, 29488, Note_off_c, 0, 70, 0
2, 29588, Note_off_c, 0, 51, 0
2, 29710, Note_on_c, 0, 79, 101
2, 29956, Note_off_c, 0, 44, 0
2, 30000, Note_on_c, 0, 77, 88
2, 30022, Note_off_c, 0, 79, 0
2, 30145, Note_on_c, 0, 75, 81
2, 30178, Note_off_c, 0, 77, 0
2, 30301, Note_on_c, 0, 43, 91
2, 30424, Note_off_c, 0, 75, 0
2, 30424, Note_on_c, 0, 77, 79
2, 30715, Note_off_c, 0, 77, 0
2, 30715, Note_on_c, 0, 75, 99
2, 30737, Note_off_c, 0, 43, 0
2, 31004, Note_on_c, 0, 75, 98
2, 31005, Note_off_c, 0, 75, 0
2, 31149, Note_off_c, 0, 75, 0
2, 31149, Note_on_c, 0, 74, 74
2, 31149, Note_on_c, 0, 43, 80
2, 31405, Note_off_c, 0, 74, 0
2, 31439, Note_on_c, 0, 75, 80
2, 31729, Note_off_c, 0, 75, 0
2, 31729, Note_on_c, 0, 75, 82
2, 31740, Note_on_c, 0, 48, 91
2, 31951, Note_off_c, 0, 43, 0
2, 32197, Note_off_c, 0, 75, 0
2, 32264, Note_off_c, 0, 48, 0
2, 32308, Note_on_c, 0, 79, 80
2, 32588, Note_on_c, 0, 51, 80
2, 32788, Note_off_c, 0, 79, 0
2, 32867, Note_on_c, 0, 77, 94
2, 33123, Note_off_c, 0, 51, 0
2, 33168, Note_on_c, 0, 75, 100
2, 33179, Note_off_c, 0, 77, 0
2, 33458, Note_off_c, 0, 75, 0
2, 33458, Note_on_c, 0, 75, 80
2, 33469, Note_on_c, 0, 51, 91
2, 33893, Note_off_c, 0, 75, 0
2, 34026, Note_off_c, 0, 51, 0
2, 34026, Note_on_c, 0, 74, 94
2, 34037, Note_on_c, 0, 41, 96
2, 34182, Note_off_c, 0, 74, 0
2, 34182, Note_off_c, 0, 41, 0
2, 34182, Note_on_c, 0, 75, 90
2, 34182, Note_on_c, 0, 41, 83
2, 34316, Note_off_c, 0, 75, 0
2, 34316, Note_on_c, 0, 75, 93
2, 34451, Note_off_c, 0, 75, 0
2, 34451, Note_on_c, 0, 75, 96
2, 34596, Note_off_c, 0, 75, 0
2, 34596, Note_on_c, 0, 75, 90
2, 34607, Note_off_c, 0, 41, 0
2, 34607, Note_on_c, 0, 41, 97
2, 34752, Note_off_c, 0, 75, 0
2, 34752, Note_on_c, 0, 75, 88
2, 34763, Note_off_c, 0, 41, 0
2, 34763, Note_on_c, 0, 41, 85
2, 35042, Note_off_c, 0, 75, 0
2, 35042, Note_on_c, 0, 75, 84
2, 35153, Note_off_c, 0, 41, 0
2, 35198, Note_on_c, 0, 43, 94
2, 35331, Note_on_c, 0, 75, 91
2, 35332, Note_off_c, 0, 75, 0
2, 35476, Note_off_c, 0, 75, 0
2, 35476, Note_on_c, 0, 75, 86
2, 35755, Note_off_c, 0, 43, 0
2, 35755, Note_off_c, 0, 75, 0
2, 35755, Note_on_c, 0, 77, 80
2, 35755, Note_on_c, 0, 43, 94
2, 36034, Note_off_c, 0, 77, 0
2, 36045, Note_on_c, 0, 75, 87
2, 36336, Note_off_c, 0, 43, 0
2, 36336, Note_off_c, 0, 75, 0
2, 36336, Note_on_c, 0, 74, 95
2, 36347, Note_on_c, 0, 44, 88
2, 36481, Note_off_c, 0, 74, 0
2, 36481, Note_on_c, 0, 75, 83
2, 36481, Note_on_c, 0, 63, 36
2, 36648, Note_off_c, 0, 63, 0
2, 36759, Note_on_c, 0, 74, 91
2, 36760, Note_off_c, 0, 75, 0
2, 36926, Note_on_c, 0, 44, 82
2, 36927, Note_off_c, 0, 44, 0
2, 37049, Note_off_c, 0, 74, 0
2, 37049, Note_on_c, 0, 75, 89
2, 37194, Note_off_c, 0, 75, 0
2, 37194, Note_on_c, 0, 74, 98
2, 37339, Note_off_c, 0, 74, 0
2, 37339, Note_on_c, 0, 74, 88
2, 37484, Note_on_c, 0, 46, 92
2, 37539, Note_off_c, 0, 44, 0
2, 37629, Note_off_c, 0, 74, 0
2, 37629, Note_on_c, 0, 75, 91
2, 37918, Note_on_c, 0, 74, 85
2, 37919, Note_off_c, 0, 75, 0
2, 38074, Note_on_c, 0, 70, 83
2, 38074, Note_on_c, 0, 58, 34
2, 38074, Note_on_c, 0, 46, 89
2, 38075, Note_off_c, 0, 46, 0
2, 38153, Note_off_c, 0, 74, 0
2, 38254, Note_off_c, 0, 58, 0
2, 38443, Note_off_c, 0, 70, 0
2, 38633, Note_on_c, 0, 74, 93
2, 38633, Note_on_c, 0, 41, 82
2, 38733, Note_off_c, 0, 46, 0
2, 38778, Note_off_c, 0, 74, 0
2, 38778, Note_on_c, 0, 75, 83
2, 38923, Note_off_c, 0, 75, 0
2, 38923, Note_on_c, 0, 75, 90
2, 39068, Note_off_c, 0, 75, 0
2, 39068, Note_on_c, 0, 75, 90
2, 39213, Note_off_c, 0, 41, 0
2, 39213, Note_off_c, 0, 75, 0
2, 39213, Note_on_c, 0, 75, 86
2, 39213, Note_on_c, 0, 41, 82
2, 39346, Note_on_c, 0, 74, 94
2, 39347, Note_off_c, 0, 75, 0
2, 39513, Note_off_c, 0, 74, 0
2, 39513, Note_on_c, 0, 75, 84
2, 39647, Note_off_c, 0, 75, 0
2, 39647, Note_on_c, 0, 75, 81
2, 39759, Note_off_c, 0, 41, 0
2, 39803, Note_on_c, 0, 43, 85
2, 39903, Note_off_c, 0, 75, 0
2, 39937, Note_on_c, 0, 74, 79
2, 40217, Note_off_c, 0, 74, 0
2, 40217, Note_on_c, 0, 75, 78
2, 40351, Note_on_c, 0, 77, 74
2, 40362, Note_off_c, 0, 43, 0
2, 40362, Note_on_c, 0, 43, 90
2, 40429, Note_off_c, 0, 75, 0
2, 40630, Note_off_c, 0, 77, 0
2, 40652, Note_on_c, 0, 75, 84
2, 40930, Note_off_c, 0, 43, 0
2, 40931, Note_off_c, 0, 75, 0
2, 40941, Note_on_c, 0, 79, 93
2, 40964, Note_on_c, 0, 44, 85
2, 41231, Note_off_c, 0, 79, 0
2, 41231, Note_on_c, 0, 79, 92
2, 41365, Note_on_c, 0, 77, 76
2, 41409, Note_off_c, 0, 79, 0
2, 41543, Note_on_c, 0, 44, 86
2, 41544, Note_off_c, 0, 44, 0
2, 41655, Note_off_c, 0, 77, 0
2, 41811, Note_on_c, 0, 75, 86
2, 42091, Note_off_c, 0, 75, 0
2, 42091, Note_on_c, 0, 75, 85
2, 42091, Note_on_c, 0, 46, 94
2, 42102, Note_off_c, 0, 44, 0
2, 42369, Note_on_c, 0, 74, 77
2, 42370, Note_off_c, 0, 75, 0
2, 42380, Note_on_c, 0, 46, 92
2, 42381, Note_off_c, 0, 46, 0
2, 42670, Note_off_c, 0, 74, 0
2, 42670, Note_on_c, 0, 74, 78
2, 42681, Note_off_c, 0, 46, 0
2, 42681, Note_on_c, 0, 46, 89
2, 43071, Note_off_c, 0, 74, 0
2, 43216, Note_off_c, 0, 46, 0
2, 43250, Note_on_c, 0, 79, 64
2, 43250, Note_on_c, 0, 60, 43
2, 43250, Note_on_c, 0, 48, 93
2, 43451, Note_off_c, 0, 60, 0
2, 43785, Note_off_c, 0, 79, 0
2, 43818, Note_on_c, 0, 82, 72
2, 43829, Note_on_c, 0, 48, 95
2, 43830, Note_off_c, 0, 48, 0
2, 44388, Note_off_c, 0, 82, 0
2, 44388, Note_on_c, 0, 77, 86
2, 44388, Note_on_c, 0, 44, 94
2, 44399, Note_off_c, 0, 48, 0
2, 44544, Note_on_c, 0, 75, 82
2, 44566, Note_off_c, 0, 77, 0
2, 44733, Note_on_c, 0, 63, 37
2, 44822, Note_on_c, 0, 77, 81
2, 44823, Note_off_c, 0, 75, 0
2, 44867, Note_off_c, 0, 63, 0
2, 44990, Note_off_c, 0, 44, 0
2, 44990, Note_on_c, 0, 44, 88
2, 45234, Note_off_c, 0, 77, 0
2, 45257, Note_on_c, 0, 63, 39
2, 45268, Note_on_c, 0, 75, 88
2, 45458, Note_off_c, 0, 63, 0
2, 45547, Note_on_c, 0, 51, 96
2, 45602, Note_off_c, 0, 75, 0
2, 45692, Note_off_c, 0, 44, 0
2, 45838, Note_off_c, 0, 51, 0
2, 45838, Note_on_c, 0, 79, 86
2, 45838, Note_on_c, 0, 51, 88
2, 46117, Note_on_c, 0, 77, 81
2, 46128, Note_off_c, 0, 79, 0
2, 46128, Note_off_c, 0, 51, 0
2, 46128, Note_on_c, 0, 70, 45
2, 46128, Note_on_c, 0, 51, 80
2, 46306, Note_off_c, 0, 70, 0
2, 46407, Note_off_c, 0, 77, 0
2, 46417, Note_on_c, 0, 75, 94
2, 46562, Note_off_c, 0, 75, 0
2, 46562, Note_on_c, 0, 75, 67
2, 46696, Note_off_c, 0, 51, 0
2, 46696, Note_on_c, 0, 77, 77
2, 46696, Note_on_c, 0, 50, 82
2, 46841, Note_off_c, 0, 75, 0
2, 46841, Note_on_c, 0, 75, 74
2, 46863, Note_off_c, 0, 77, 0
2, 47131, Note_on_c, 0, 79, 82
2, 47164, Note_off_c, 0, 75, 0
2, 47287, Note_off_c, 0, 50, 0
2, 47287, Note_on_c, 0, 50, 90
2, 47677, Note_off_c, 0, 79, 0
2, 47846, Note_off_c, 0, 50, 0
2, 47856, Note_on_c, 0, 75, 83
2, 47856, Note_on_c, 0, 48, 93
2, 48257, Note_off_c, 0, 75, 0
2, 48425, Note_on_c, 0, 79, 68
2, 48425, Note_on_c, 0, 60, 41
2, 48436, Note_off_c, 0, 48, 0
2, 48436, Note_on_c, 0, 48, 87
2, 48603, Note_off_c, 0, 60, 0
2, 48715, Note_off_c, 0, 79, 0
2, 48715, Note_on_c, 0, 79, 90
2, 48715, Note_on_c, 0, 60, 54
2, 48982, Note_off_c, 0, 60, 0
2, 49004, Note_off_c, 0, 48, 0
2, 49004, Note_on_c, 0, 77, 78
2, 49016, Note_off_c, 0, 79, 0
2, 49016, Note_on_c, 0, 44, 87
2, 49161, Note_on_c, 0, 75, 76
2, 49171, Note_off_c, 0, 77, 0
2, 49439, Note_on_c, 0, 77, 76
2, 49440, Note_off_c, 0, 75, 0
2, 49596, Note_on_c, 0, 44, 82
2, 49597, Note_off_c, 0, 44, 0
2, 49808, Note_off_c, 0, 77, 0
2, 49864, Note_on_c, 0, 75, 84
2, 49864, Note_on_c, 0, 63, 31
2, 50031, Note_off_c, 0, 63, 0
2, 50154, Note_on_c, 0, 51, 92
2, 50176, Note_off_c, 0, 75, 0
2, 50309, Note_off_c, 0, 44, 0
2, 50455, Note_on_c, 0, 70, 83
2, 50466, Note_off_c, 0, 51, 0
2, 50466, Note_on_c, 0, 51, 83
2, 50733, Note_on_c, 0, 77, 84
2, 50744, Note_on_c, 0, 70, 45
2, 50744, Note_on_c, 0, 51, 87
2, 50745, Note_off_c, 0, 70, 0
2, 50745, Note_off_c, 0, 51, 0
2, 51023, Note_off_c, 0, 77, 0
2, 51023, Note_on_c, 0, 75, 90
2, 51123, Note_off_c, 0, 70, 0
2, 51312, Note_off_c, 0, 51, 0
2, 51313, Note_on_c, 0, 79, 81
2, 51313, Note_on_c, 0, 50, 86
2, 51335, Note_off_c, 0, 75, 0
2, 51593, Note_on_c, 0, 75, 90
2, 51660, Note_off_c, 0, 79, 0
2, 51883, Note_off_c, 0, 75, 0
2, 51883, Note_on_c, 0, 75, 75
2, 51894, Note_off_c, 0, 50, 0
2, 51894, Note_on_c, 0, 50, 93
2, 52329, Note_off_c, 0, 75, 0
2, 52462, Note_off_c, 0, 50, 0
2, 52462, Note_on_c, 0, 79, 64
2, 52462, Note_on_c, 0, 60, 44
2, 52473, Note_on_c, 0, 48, 91
2, 52640, Note_off_c, 0, 60, 0
2, 52997, Note_off_c, 0, 79, 0
2, 53031, Note_on_c, 0, 82, 66
2, 53041, Note_off_c, 0, 48, 0
2, 53042, Note_on_c, 0, 48, 93
2, 53578, Note_off_c, 0, 82, 0
2, 53611, Note_on_c, 0, 77, 81
2, 53612, Note_off_c, 0, 48, 0
2, 53622, Note_on_c, 0, 44, 88
2, 53756, Note_on_c, 0, 75, 77
2, 53778, Note_off_c, 0, 77, 0
2, 54035, Note_off_c, 0, 75, 0
2, 54035, Note_on_c, 0, 77, 77
2, 54213, Note_off_c, 0, 44, 0
2, 54213, Note_on_c, 0, 44, 82
2, 54403, Note_off_c, 0, 77, 0
2, 54481, Note_on_c, 0, 75, 82
2, 54759, Note_on_c, 0, 51, 94
2, 54804, Note_off_c, 0, 75, 0
2, 54915, Note_off_c, 0, 44, 0
2, 55049, Note_on_c, 0, 79, 84
2, 55060, Note_off_c, 0, 51, 0
2, 55060, Note_on_c, 0, 51, 89
2, 55329, Note_on_c, 0, 77, 82
2, 55340, Note_off_c, 0, 79, 0
2, 55340, Note_off_c, 0, 51, 0
2, 55340, Note_on_c, 0, 70, 50
2, 55340, Note_on_c, 0, 51, 84
2, 55496, Note_off_c, 0, 70, 0
2, 55619, Note_off_c, 0, 77, 0
2, 55630, Note_on_c, 0, 75, 92
2, 55908, Note_off_c, 0, 51, 0
2, 55909, Note_on_c, 0, 77, 80
2, 55920, Note_off_c, 0, 75, 0
2, 55920, Note_on_c, 0, 50, 79
2, 56199, Note_off_c, 0, 77, 0
2, 56209, Note_on_c, 0, 75, 77
2, 56343, Note_on_c, 0, 79, 82
2, 56454, Note_off_c, 0, 75, 0
2, 56499, Note_on_c, 0, 50, 91
2, 56500, Note_off_c, 0, 50, 0
2, 56900, Note_off_c, 0, 79, 0
2, 57079, Note_off_c, 0, 50, 0
2, 57079, Note_on_c, 0, 75, 88
2, 57079, Note_on_c, 0, 48, 91
2, 57337, Note_off_c, 0, 75, 0
2, 57348, Note_on_c, 0, 77, 83
2, 57615, Note_off_c, 0, 77, 0
2, 57637, Note_on_c, 0, 79, 72
2, 57648, Note_on_c, 0, 60, 47
2, 57648, Note_on_c, 0, 48, 81
2, 57649, Note_off_c, 0, 48, 0
2, 57826, Note_off_c, 0, 60, 0
2, 57904, Note_off_c, 0, 79, 0
2, 57927, Note_on_c, 0, 75, 99
2, 58072, Note_off_c, 0, 75, 0
2, 58072, Note_on_c, 0, 75, 90
2, 58183, Note_off_c, 0, 48, 0
2, 58217, Note_on_c, 0, 77, 82
2, 58217, Note_on_c, 0, 44, 89
2, 58239, Note_off_c, 0, 75, 0
2, 58473, Note_off_c, 0, 77, 0
2, 58518, Note_on_c, 0, 79, 89
2, 58797, Note_off_c, 0, 79, 0
2, 58808, Note_off_c, 0, 44, 0
2, 58808, Note_on_c, 0, 75, 82
2, 58808, Note_on_c, 0, 63, 34
2, 58808, Note_on_c, 0, 44, 88
2, 58986, Note_off_c, 0, 63, 0
2, 59031, Note_off_c, 0, 75, 0
2, 59086, Note_on_c, 0, 77, 87
2, 59332, Note_off_c, 0, 77, 0
2, 59366, Note_on_c, 0, 79, 73
2, 59366, Note_on_c, 0, 51, 88
2, 59389, Note_off_c, 0, 44, 0
2, 59578, Note_off_c, 0, 79, 0
2, 59656, Note_on_c, 0, 75, 91
2, 59923, Note_off_c, 0, 75, 0
2, 59946, Note_on_c, 0, 77, 84
2, 59957, Note_off_c, 0, 51, 0
2, 59957, Note_on_c, 0, 70, 51
2, 59957, Note_on_c, 0, 51, 90
2, 60158, Note_off_c, 0, 70, 0
2, 60213, Note_off_c, 0, 77, 0
2, 60235, Note_on_c, 0, 79, 82
2, 60247, Note_off_c, 0, 51, 0
2, 60247, Note_on_c, 0, 51, 84
2, 60502, Note_off_c, 0, 79, 0
2, 60525, Note_on_c, 0, 77, 80
2, 60525, Note_on_c, 0, 50, 87
2, 60526, Note_off_c, 0, 51, 0
2, 60815, Note_off_c, 0, 77, 0
2, 60815, Note_on_c, 0, 74, 93
2, 61095, Note_off_c, 0, 50, 0
2, 61095, Note_off_c, 0, 74, 0
2, 61095, Note_on_c, 0, 74, 85
2, 61095, Note_on_c, 0, 50, 88
2, 61496, Note_off_c, 0, 74, 0
2, 61686, Note_on_c, 0, 75, 75
2, 61686, Note_on_c, 0, 44, 77
2, 61708, Note_off_c, 0, 50, 0
2, 61964, Note_on_c, 0, 80, 93
2, 62087, Note_off_c, 0, 75, 0
2, 62210, Note_off_c, 0, 44, 0
2, 62243, Note_off_c, 0, 80, 0
2, 62254, Note_on_c, 0, 79, 89
2, 62399, Note_on_c, 0, 75, 90
2, 62533, Note_off_c, 0, 79, 0
2, 62544, Note_on_c, 0, 43, 90
2, 62633, Note_off_c, 0, 75, 0
2, 62678, Note_on_c, 0, 77, 74
2, 62934, Note_off_c, 0, 77, 0
2, 62969, Note_on_c, 0, 75, 98
2, 62991, Note_off_c, 0, 43, 0
2, 63270, Note_off_c, 0, 75, 0
2, 63270, Note_on_c, 0, 75, 101
2, 63403, Note_on_c, 0, 74, 74
2, 63404, Note_off_c, 0, 75, 0
2, 63414, Note_on_c, 0, 43, 83
2, 63670, Note_off_c, 0, 74, 0
2, 63693, Note_on_c, 0, 75, 79
2, 63983, Note_on_c, 0, 48, 83
2, 64061, Note_off_c, 0, 75, 0
2, 64150, Note_off_c, 0, 43, 0
2, 64261, Note_on_c, 0, 80, 91
2, 64518, Note_off_c, 0, 48, 0
2, 64562, Note_off_c, 0, 80, 0
2, 64574, Note_on_c, 0, 79, 91
2, 64707, Note_on_c, 0, 75, 91
2, 64841, Note_off_c, 0, 79, 0
2, 64842, Note_on_c, 0, 51, 87
2, 64909, Note_off_c, 0, 75, 0
2, 64976, Note_on_c, 0, 77, 84
2, 65232, Note_off_c, 0, 77, 0
2, 65266, Note_off_c, 0, 51, 0
2, 65277, Note_on_c, 0, 75, 100
2, 65567, Note_off_c, 0, 75, 0
2, 65567, Note_on_c, 0, 75, 93
2, 65712, Note_on_c, 0, 70, 58
2, 65723, Note_on_c, 0, 51, 85
2, 65756, Note_off_c, 0, 75, 0
2, 66147, Note_off_c, 0, 70, 0
2, 66302, Note_on_c, 0, 44, 81
2, 66447, Note_off_c, 0, 51, 0
2, 66581, Note_on_c, 0, 68, 100
2, 66805, Note_off_c, 0, 44, 0
2, 66872, Note_off_c, 0, 68, 0
2, 66872, Note_on_c, 0, 67, 103
2, 67006, Note_off_c, 0, 67, 0
2, 67006, Note_on_c, 0, 68, 93
2, 67151, Note_on_c, 0, 43, 79
2, 67296, Note_off_c, 0, 68, 0
2, 67296, Note_on_c, 0, 68, 94
2, 67440, Note_on_c, 0, 68, 81
2, 67441, Note_off_c, 0, 68, 0
2, 67563, Note_off_c, 0, 43, 0
2, 67585, Note_on_c, 0, 70, 96
2, 67830, Note_off_c, 0, 68, 0
2, 67875, Note_off_c, 0, 70, 0
2, 67875, Note_on_c, 0, 70, 93
2, 68020, Note_on_c, 0, 72, 79
2, 68031, Note_on_c, 0, 43, 87
2, 68064, Note_off_c, 0, 70, 0
2, 68154, Note_on_c, 0, 74, 85
2, 68243, Note_off_c, 0, 72, 0
2, 68310, Note_off_c, 0, 74, 0
2, 68310, Note_on_c, 0, 75, 83
2, 68588, Note_on_c, 0, 79, 72
2, 68600, Note_off_c, 0, 75, 0
2, 68600, Note_on_c, 0, 48, 85
2, 68633, Note_off_c, 0, 43, 0
2, 68868, Note_on_c, 0, 82, 78
2, 68879, Note_off_c, 0, 79, 0
2, 69002, Note_off_c, 0, 48, 0
2, 69013, Note_on_c, 0, 77, 71
2, 69202, Note_off_c, 0, 82, 0
2, 69314, Note_on_c, 0, 75, 84
2, 69448, Note_off_c, 0, 77, 0
2, 69448, Note_on_c, 0, 77, 79
2, 69459, Note_on_c, 0, 70, 45
2, 69459, Note_on_c, 0, 51, 73
2, 69503, Note_off_c, 0, 75, 0
2, 69727, Note_off_c, 0, 77, 0
2, 69749, Note_on_c, 0, 75, 94
2, 69871, Note_off_c, 0, 70, 0
2, 70039, Note_off_c, 0, 51, 0
2, 70328, Note_on_c, 0, 51, 89
2, 70351, Note_off_c, 0, 75, 0
2, 70898, Note_on_c, 0, 79, 61
2, 70898, Note_on_c, 0, 60, 42
2, 70898, Note_on_c, 0, 48, 93
2, 70953, Note_off_c, 0, 51, 0
2, 71065, Note_off_c, 0, 60, 0
2, 71444, Note_off_c, 0, 79, 0
2, 71466, Note_on_c, 0, 82, 65
2, 71478, Note_off_c, 0, 48, 0
2, 71478, Note_on_c, 0, 48, 93
2, 72012, Note_off_c, 0, 82, 0
2, 72035, Note_off_c, 0, 48, 0
2, 72035, Note_on_c, 0, 77, 79
2, 72057, Note_on_c, 0, 44, 88
2, 72191, Note_on_c, 0, 75, 74
2, 72213, Note_off_c, 0, 77, 0
2, 72471, Note_off_c, 0, 75, 0
2, 72471, Note_on_c, 0, 77, 75
2, 72638, Note_off_c, 0, 44, 0
2, 72638, Note_on_c, 0, 44, 83
2, 72828, Note_off_c, 0, 77, 0
2, 72905, Note_on_c, 0, 75, 83
2, 73195, Note_on_c, 0, 51, 94
2, 73239, Note_off_c, 0, 75, 0
2, 73362, Note_off_c, 0, 44, 0
2, 73485, Note_off_c, 0, 51, 0
2, 73485, Note_on_c, 0, 79, 85
2, 73485, Note_on_c, 0, 51, 88
2, 73764, Note_on_c, 0, 77, 82
2, 73775, Note_off_c, 0, 79, 0
2, 73775, Note_off_c, 0, 51, 0
2, 73775, Note_on_c, 0, 70, 42
2, 73775, Note_on_c, 0, 51, 80
2, 74054, Note_off_c, 0, 77, 0
2, 74076, Note_on_c, 0, 75, 96
2, 74121, Note_off_c, 0, 70, 0
2, 74210, Note_off_c, 0, 75, 0
2, 74210, Note_on_c, 0, 75, 67
2, 74343, Note_off_c, 0, 51, 0
2, 74354, Note_on_c, 0, 77, 75
2, 74354, Note_on_c, 0, 50, 81
2, 74489, Note_on_c, 0, 75, 74
2, 74490, Note_off_c, 0, 75, 0
2, 74511, Note_off_c, 0, 77, 0
2, 74779, Note_on_c, 0, 79, 82
2, 74812, Note_off_c, 0, 75, 0
2, 74924, Note_off_c, 0, 50, 0
2, 74924, Note_on_c, 0, 50, 90
2, 75292, Note_off_c, 0, 79, 0
2, 75492, Note_off_c, 0, 50, 0
2, 75504, Note_on_c, 0, 75, 82
2, 75504, Note_on_c, 0, 48, 93
2, 75905, Note_off_c, 0, 75, 0
2, 76083, Note_on_c, 0, 79, 71
2, 76083, Note_on_c, 0, 60, 43
2, 76083, Note_on_c, 0, 48, 87
2, 76084, Note_off_c, 0, 48, 0
2, 76363, Note_off_c, 0, 79, 0
2, 76363, Note_off_c, 0, 60, 0
2, 76363, Note_on_c, 0, 79, 88
2, 76363, Note_on_c, 0, 60, 56
2, 76630, Note_off_c, 0, 60, 0
2, 76642, Note_off_c, 0, 48, 0
2, 76642, Note_on_c, 0, 77, 77
2, 76653, Note_off_c, 0, 79, 0
2, 76653, Note_on_c, 0, 44, 85
2, 76798, Note_on_c, 0, 75, 79
2, 76809, Note_off_c, 0, 77, 0
2, 77076, Note_on_c, 0, 77, 76
2, 77077, Note_off_c, 0, 75, 0
2, 77255, Note_off_c, 0, 44, 0
2, 77255, Note_on_c, 0, 44, 82
2, 77466, Note_off_c, 0, 77, 0
2, 77522, Note_on_c, 0, 75, 82
2, 77522, Note_on_c, 0, 63, 32
2, 77689, Note_off_c, 0, 63, 0
2, 77812, Note_on_c, 0, 51, 88
2, 77845, Note_off_c, 0, 75, 0
2, 77968, Note_off_c, 0, 44, 0
2, 78102, Note_on_c, 0, 70, 83
2, 78371, Note_on_c, 0, 77, 80
2, 78382, Note_off_c, 0, 51, 0
2, 78382, Note_off_c, 0, 70, 0
2, 78382, Note_on_c, 0, 70, 52
2, 78382, Note_on_c, 0, 51, 85
2, 78594, Note_off_c, 0, 70, 0
2, 78650, Note_off_c, 0, 77, 0
2, 78660, Note_on_c, 0, 75, 90
2, 78961, Note_on_c, 0, 79, 80
2, 78961, Note_on_c, 0, 50, 86
2, 78962, Note_off_c, 0, 51, 0
2, 78983, Note_off_c, 0, 75, 0
2, 79251, Note_on_c, 0, 75, 91
2, 79329, Note_off_c, 0, 79, 0
2, 79541, Note_off_c, 0, 50, 0
2, 79541, Note_off_c, 0, 75, 0
2, 79541, Note_on_c, 0, 75, 76
2, 79541, Note_on_c, 0, 50, 88
2, 79819, Note_on_c, 0, 77, 84
2, 79820, Note_off_c, 0, 75, 0
2, 80098, Note_off_c, 0, 50, 0
2, 80099, Note_on_c, 0, 79, 61
2, 80110, Note_off_c, 0, 77, 0
2, 80110, Note_on_c, 0, 60, 44
2, 80110, Note_on_c, 0, 48, 90
2, 80377, Note_off_c, 0, 60, 0
2, 80634, Note_off_c, 0, 79, 0
2, 80690, Note_off_c, 0, 48, 0
2, 80690, Note_on_c, 0, 82, 65
2, 80690, Note_on_c, 0, 48, 89
2, 81125, Note_on_c, 0, 75, 63
2, 81147, Note_off_c, 0, 82, 0
2, 81225, Note_off_c, 0, 48, 0
2, 81258, Note_on_c, 0, 77, 76
2, 81258, Note_on_c, 0, 44, 87
2, 81403, Note_on_c, 0, 75, 72
2, 81404, Note_off_c, 0, 75, 0
2, 81425, Note_off_c, 0, 77, 0
2, 81670, Note_off_c, 0, 75, 0
2, 81682, Note_on_c, 0, 77, 76
2, 81860, Note_off_c, 0, 44, 0
2, 81860, Note_on_c, 0, 44, 84
2, 82051, Note_off_c, 0, 77, 0
2, 82129, Note_on_c, 0, 75, 83
2, 82408, Note_on_c, 0, 51, 93
2, 82452, Note_off_c, 0, 75, 0
2, 82563, Note_off_c, 0, 44, 0
2, 82697, Note_on_c, 0, 79, 85
2, 82709, Note_off_c, 0, 51, 0
2, 82709, Note_on_c, 0, 51, 89
2, 82976, Note_on_c, 0, 77, 82
2, 82987, Note_off_c, 0, 79, 0
2, 82987, Note_on_c, 0, 70, 43
2, 82987, Note_on_c, 0, 51, 86
2, 82988, Note_off_c, 0, 51, 0
2, 83266, Note_off_c, 0, 77, 0
2, 83277, Note_on_c, 0, 75, 89
2, 83333, Note_off_c, 0, 70, 0
2, 83567, Note_off_c, 0, 51, 0
2, 83567, Note_on_c, 0, 77, 78
2, 83567, Note_on_c, 0, 50, 85
2, 83578, Note_off_c, 0, 75, 0
2, 83712, Note_on_c, 0, 75, 72
2, 83745, Note_off_c, 0, 77, 0
2, 83992, Note_on_c, 0, 79, 81
2, 84014, Note_off_c, 0, 75, 0
2, 84136, Note_on_c, 0, 50, 90
2, 84137, Note_off_c, 0, 50, 0
2, 84471, Note_off_c, 0, 79, 0
2, 84716, Note_off_c, 0, 50, 0
2, 84716, Note_on_c, 0, 75, 87
2, 84716, Note_on_c, 0, 48, 90
2, 84995, Note_on_c, 0, 77, 86
2, 85017, Note_off_c, 0, 75, 0
2, 85296, Note_off_c, 0, 77, 0
2, 85296, Note_on_c, 0, 79, 72
2, 85307, Note_off_c, 0, 48, 0
2, 85307, Note_on_c, 0, 60, 50
2, 85307, Note_on_c, 0, 48, 82
2, 85508, Note_off_c, 0, 60, 0
2, 85585, Note_on_c, 0, 75, 96
2, 85597, Note_off_c, 0, 79, 0
2, 85730, Note_off_c, 0, 75, 0
2, 85730, Note_on_c, 0, 75, 87
2, 85832, Note_off_c, 0, 48, 0
2, 85854, Note_on_c, 0, 77, 79
2, 85865, Note_on_c, 0, 44, 88
2, 85876, Note_off_c, 0, 75, 0
2, 86144, Note_off_c, 0, 77, 0
2, 86155, Note_on_c, 0, 79, 87
2, 86445, Note_off_c, 0, 44, 0
2, 86445, Note_on_c, 0, 75, 80
2, 86445, Note_on_c, 0, 44, 87
2, 86534, Note_off_c, 0, 79, 0
2, 86724, Note_off_c, 0, 75, 0
2, 86735, Note_on_c, 0, 77, 86
2, 87024, Note_on_c, 0, 79, 70
2, 87024, Note_on_c, 0, 51, 89
2, 87025, Note_off_c, 0, 77, 0
2, 87036, Note_off_c, 0, 44, 0
2, 87314, Note_on_c, 0, 75, 94
2, 87358, Note_off_c, 0, 79, 0
2, 87593, Note_on_c, 0, 77, 81
2, 87604, Note_off_c, 0, 51, 0
2, 87604, Note_off_c, 0, 75, 0
2, 87604, Note_on_c, 0, 70, 53
2, 87604, Note_on_c, 0, 51, 91
2, 87795, Note_off_c, 0, 70, 0
2, 87873, Note_off_c, 0, 77, 0
2, 87884, Note_off_c, 0, 51, 0
2, 87884, Note_on_c, 0, 79, 84
2, 87884, Note_on_c, 0, 51, 84
2, 88162, Note_on_c, 0, 77, 78
2, 88163, Note_off_c, 0, 79, 0
2, 88163, Note_off_c, 0, 51, 0
2, 88174, Note_on_c, 0, 50, 85
2, 88452, Note_on_c, 0, 74, 99
2, 88474, Note_off_c, 0, 77, 0
2, 88742, Note_off_c, 0, 74, 0
2, 88742, Note_on_c, 0, 74, 87
2, 88753, Note_on_c, 0, 50, 88
2, 88754, Note_off_c, 0, 50, 0
2, 89132, Note_off_c, 0, 74, 0
2, 89333, Note_on_c, 0, 75, 75
2, 89333, Note_on_c, 0, 44, 77
2, 89355, Note_off_c, 0, 50, 0
2, 89611, Note_on_c, 0, 80, 99
2, 89713, Note_off_c, 0, 75, 0
2, 89836, Note_off_c, 0, 44, 0
2, 89902, Note_off_c, 0, 80, 0
2, 89902, Note_on_c, 0, 79, 81
2, 90047, Note_on_c, 0, 75, 97
2, 90225, Note_off_c, 0, 79, 0
2, 90326, Note_on_c, 0, 77, 88
2, 90348, Note_off_c, 0, 75, 0
2, 90616, Note_off_c, 0, 77, 0
2, 90627, Note_on_c, 0, 75, 98
2, 90917, Note_off_c, 0, 75, 0
2, 90917, Note_on_c, 0, 75, 99
2, 91050, Note_on_c, 0, 74, 86
2, 91051, Note_off_c, 0, 75, 0
2, 91062, Note_on_c, 0, 44, 87
2, 91340, Note_off_c, 0, 74, 0
2, 91351, Note_on_c, 0, 75, 86
2, 91621, Note_off_c, 0, 44, 0
2, 91631, Note_off_c, 0, 75, 0
2, 91631, Note_on_c, 0, 79, 80
2, 91631, Note_on_c, 0, 46, 98
2, 92177, Note_off_c, 0, 79, 0
2, 92200, Note_on_c, 0, 82, 69
2, 92211, Note_off_c, 0, 46, 0
2, 92211, Note_on_c, 0, 46, 83
2, 92735, Note_off_c, 0, 82, 0
2, 92779, Note_on_c, 0, 77, 95
2, 92980, Note_off_c, 0, 46, 0
2, 93080, Note_on_c, 0, 75, 99
2, 93091, Note_off_c, 0, 77, 0
2, 93359, Note_off_c, 0, 75, 0
2, 93359, Note_on_c, 0, 74, 96
2, 93906, Note_off_c, 0, 74, 0
2, 93928, Note_on_c, 0, 75, 83
2, 93940, Note_on_c, 0, 48, 95
2, 94430, Note_off_c, 0, 75, 0
2, 94475, Note_off_c, 0, 48, 0
2, 94475, Note_on_c, 0, 75, 59
2, 94475, Note_on_c, 0, 48, 77
2, 94620, Note_off_c, 0, 75, 0
2, 94676, Note_off_c, 0, 48, 0
2, 95758, Note_on_c, 0, 46, 47
2, 95914, Note_off_c, 0, 46, 0
2, 96159, Note_on_c, 0, 79, 67
2, 96170, Note_on_c, 0, 48, 98
2, 96203, Note_on_c, 0, 60, 52
2, 96660, Note_off_c, 0, 60, 0
2, 96738, Note_off_c, 0, 48, 0
2, 96738, Note_on_c, 0, 82, 76
2, 96738, Note_on_c, 0, 48, 98
2, 96739, Note_off_c, 0, 79, 0
2, 97297, Note_off_c, 0, 82, 0
2, 97297, Note_on_c, 0, 77, 88
2, 97308, Note_off_c, 0, 48, 0
2, 97308, Note_on_c, 0, 44, 94
2, 97453, Note_on_c, 0, 75, 82
2, 97486, Note_off_c, 0, 77, 0
2, 97743, Note_off_c, 0, 75, 0
2, 97743, Note_on_c, 0, 77, 76
2, 97910, Note_off_c, 0, 44, 0
2, 97910, Note_on_c, 0, 44, 85
2, 98111, Note_off_c, 0, 77, 0
2, 98177, Note_on_c, 0, 75, 88
2, 98177, Note_on_c, 0, 63, 28
2, 98344, Note_off_c, 0, 63, 0
2, 98467, Note_on_c, 0, 51, 95
2, 98500, Note_off_c, 0, 75, 0
2, 98612, Note_off_c, 0, 44, 0
2, 98757, Note_off_c, 0, 51, 0
2, 98757, Note_on_c, 0, 79, 89
2, 98757, Note_on_c, 0, 51, 90
2, 99036, Note_on_c, 0, 77, 87
2, 99047, Note_off_c, 0, 79, 0
2, 99047, Note_off_c, 0, 51, 0
2, 99047, Note_on_c, 0, 70, 46
2, 99047, Note_on_c, 0, 51, 82
2, 99327, Note_off_c, 0, 77, 0
2, 99327, Note_on_c, 0, 75, 98
2, 99383, Note_off_c, 0, 70, 0
2, 99472, Note_off_c, 0, 75, 0
2, 99472, Note_on_c, 0, 75, 68
2, 99605, Note_on_c, 0, 77, 76
2, 99606, Note_off_c, 0, 51, 0
2, 99616, Note_on_c, 0, 50, 84
2, 99761, Note_on_c, 0, 75, 76
2, 99762, Note_off_c, 0, 75, 0
2, 99783, Note_off_c, 0, 77, 0
2, 100040, Note_on_c, 0, 79, 84
2, 100073, Note_off_c, 0, 75, 0
2, 100196, Note_off_c, 0, 50, 0
2, 100196, Note_on_c, 0, 50, 90
2, 100575, Note_off_c, 0, 79, 0
2, 100764, Note_off_c, 0, 50, 0
2, 100776, Note_on_c, 0, 75, 85
2, 100776, Note_on_c, 0, 48, 95
2, 101156, Note_off_c, 0, 75, 0
2, 101345, Note_on_c, 0, 79, 70
2, 101345, Note_on_c, 0, 60, 50
2, 101345, Note_on_c, 0, 48, 89
2, 101346, Note_off_c, 0, 48, 0
2, 101635, Note_off_c, 0, 79, 0
2, 101635, Note_on_c, 0, 79, 89
2, 101891, Note_off_c, 0, 60, 0
2, 101913, Note_off_c, 0, 48, 0
2, 101914, Note_on_c, 0, 77, 81
2, 101914, Note_on_c, 0, 44, 88
2, 101925, Note_off_c, 0, 79, 0
2, 102059, Note_on_c, 0, 75, 76
2, 102081, Note_off_c, 0, 77, 0
2, 102348, Note_on_c, 0, 77, 79
2, 102360, Note_off_c, 0, 75, 0
2, 102527, Note_off_c, 0, 44, 0
2, 102527, Note_on_c, 0, 44, 84
2, 102738, Note_off_c, 0, 77, 0
2, 102794, Note_on_c, 0, 75, 89
2, 103074, Note_on_c, 0, 51, 88
2, 103096, Note_off_c, 0, 75, 0
2, 103186, Note_off_c, 0, 44, 0
2, 103364, Note_on_c, 0, 70, 88
2, 103642, Note_on_c, 0, 77, 87
2, 103642, Note_on_c, 0, 70, 46
2, 103643, Note_off_c, 0, 70, 0
2, 103654, Note_off_c, 0, 51, 0
2, 103654, Note_on_c, 0, 51, 88
2, 103943, Note_off_c, 0, 77, 0
2, 103943, Note_on_c, 0, 75, 101
2, 103999, Note_off_c, 0, 70, 0
2, 104233, Note_on_c, 0, 79, 97
2, 104233, Note_on_c, 0, 50, 90
2, 104234, Note_off_c, 0, 51, 0
2, 104255, Note_off_c, 0, 75, 0
2, 104389, Note_off_c, 0, 79, 0
2, 104389, Note_off_c, 0, 50, 0
2, 104484, End_track
0, 0, End_of_file
