0, 0, Header, 1, 2, 480
1, 0, Start_track
1, 0, Title_t, ""
1, 0, Tempo, 500000
1, 0, End_track
2, 0, Start_track
2, 0, Title_t, ""
2, 0, Program_c, 0, 4
2, 6045, Note_on_c, 0, 44, 87
2, 6401, Note_on_c, 0, 68, 68
2, 6557, Note_off_c, 0, 68, 0
2, 6569, Note_off_c, 0, 44, 0
2, 6580, Note_on_c, 0, 63, 62
2, 6747, Note_on_c, 0, 68, 76
2, 6925, Note_off_c, 0, 68, 0
2, 6925, Note_on_c, 0, 63, 85
2, 6926, Note_off_c, 0, 63, 0
2, 7103, Note_on_c, 0, 68, 77
2, 7114, Note_off_c, 0, 63, 0
2, 7270, Note_off_c, 0, 68, 0
2, 7271, Note_on_c, 0, 63, 86
2, 7449, Note_on_c, 0, 68, 78
2, 7460, Note_off_c, 0, 63, 0
2, 7616, Note_off_c, 0, 68, 0
2, 7616, Note_on_c, 0, 63, 84
2, 7785, Note_on_c, 0, 68, 70
2, 7796, Note_off_c, 0, 63, 0
2, 7874, Note_on_c, 0, 45, 81
2, 7930, Note_off_c, 0, 68, 0
2, 7963, Note_on_c, 0, 63, 77
2, 8130, Note_off_c, 0, 63, 0
2, 8130, Note_on_c, 0, 80, 44
2, 8130, Note_on_c, 0, 68, 75
2, 8264, Note_off_c, 0, 45, 0
2, 8264, Note_off_c, 0, 80, 0
2, 8297, Note_off_c, 0, 68, 0
2, 8308, Note_on_c, 0, 63, 69
2, 8308, Note_on_c, 0, 42, 94
2, 8476, Note_on_c, 0, 75, 78
2, 8587, Note_off_c, 0, 63, 0
2, 8621, Note_off_c, 0, 75, 0
2, 8821, Note_off_c, 0, 42, 0
2, 8821, Note_on_c, 0, 44, 85
2, 9178, Note_on_c, 0, 68, 68
2, 9334, Note_off_c, 0, 68, 0
2, 9345, Note_off_c, 0, 44, 0
2, 9345, Note_on_c, 0, 63, 83
2, 9534, Note_on_c, 0, 68, 79
2, 9536, Note_off_c, 0, 63, 0
2, 9691, Note_off_c, 0, 68, 0
2, 9692, Note_on_c, 0, 63, 62
2, 9870, Note_on_c, 0, 68, 79
2, 10037, Note_off_c, 0, 68, 0
2, 10037, Note_on_c, 0, 63, 63
2, 10038, Note_off_c, 0, 63, 0
2, 10216, Note_on_c, 0, 68, 76
2, 10394, Note_off_c, 0, 63, 0
2, 10394, Note_off_c, 0, 68, 0
2, 10394, Note_on_c, 0, 63, 85
2, 10561, Note_on_c, 0, 68, 68
2, 10561, Note_on_c, 0, 45, 88
2, 10572, Note_off_c, 0, 63, 0
2, 10706, Note_off_c, 0, 68, 0
2, 10728, Note_on_c, 0, 63, 78
2, 10906, Note_off_c, 0, 63, 0
2, 10907, Note_on_c, 0, 80, 43
2, 10907, Note_on_c, 0, 68, 74
2, 10918, Note_off_c, 0, 45, 0
2, 10918, Note_on_c, 0, 45, 64
2, 11052, Note_off_c, 0, 80, 0
2, 11052, Note_off_c, 0, 45, 0
2, 11096, Note_on_c, 0, 63, 78
2, 11107, Note_on_c, 0, 49, 80
2, 11108, Note_off_c, 0, 68, 0
2, 11263, Note_on_c, 0, 75, 84
2, 11274, Note_off_c, 0, 63, 0
2, 11443, Note_off_c, 0, 75, 0
2, 11565, Note_off_c, 0, 49, 0
2, 11610, Note_on_c, 0, 80, 39
2, 11610, Note_on_c, 0, 68, 42
2, 11610, Note_on_c, 0, 56, 36
2, 11610, Note_on_c, 0, 44, 86
2, 11777, Note_off_c, 0, 68, 0
2, 11777, Note_on_c, 0, 68, 52
2, 11855, Note_off_c, 0, 56, 0
2, 11866, Note_off_c, 0, 80, 0
2, 11944, Note_off_c, 0, 68, 0
2, 11944, Note_on_c, 0, 80, 44
2, 11944, Note_on_c, 0, 68, 79
2, 12112, Note_off_c, 0, 44, 0
2, 12122, Note_off_c, 0, 80, 0
2, 12122, Note_off_c, 0, 68, 0
2, 12123, Note_on_c, 0, 80, 49
2, 12123, Note_on_c, 0, 68, 87
2, 12301, Note_off_c, 0, 80, 0
2, 12301, Note_off_c, 0, 68, 0
2, 12301, Note_on_c, 0, 80, 43
2, 12301, Note_on_c, 0, 68, 88
2, 12468, Note_off_c, 0, 80, 0
2, 12468, Note_off_c, 0, 68, 0
2, 12468, Note_on_c, 0, 80, 38
2, 12468, Note_on_c, 0, 68, 88
2, 12646, Note_off_c, 0, 68, 0
2, 12646, Note_on_c, 0, 68, 85
2, 12713, Note_off_c, 0, 80, 0
2, 12824, Note_off_c, 0, 68, 0
2, 12825, Note_on_c, 0, 68, 84
2, 13003, Note_off_c, 0, 68, 0
2, 13003, Note_on_c, 0, 68, 78
2, 13170, Note_off_c, 0, 68, 0
2, 13170, Note_on_c, 0, 63, 86
2, 13348, Note_off_c, 0, 63, 0
2, 13349, Note_on_c, 0, 68, 66
2, 13383, Note_on_c, 0, 45, 82
2, 13484, Note_off_c, 0, 68, 0
2, 13506, Note_on_c, 0, 63, 79
2, 13673, Note_off_c, 0, 63, 0
2, 13684, Note_on_c, 0, 68, 74
2, 13807, Note_off_c, 0, 45, 0
2, 13851, Note_off_c, 0, 68, 0
2, 13863, Note_on_c, 0, 63, 66
2, 13863, Note_on_c, 0, 42, 96
2, 14030, Note_on_c, 0, 75, 73
2, 14119, Note_off_c, 0, 63, 0
2, 14186, Note_off_c, 0, 75, 0
2, 14376, Note_off_c, 0, 42, 0
2, 14453, Note_on_c, 0, 44, 86
2, 14732, Note_on_c, 0, 68, 75
2, 14888, Note_off_c, 0, 68, 0
2, 14899, Note_on_c, 0, 63, 64
2, 14910, Note_off_c, 0, 44, 0
2, 15077, Note_on_c, 0, 68, 81
2, 15255, Note_off_c, 0, 68, 0
2, 15256, Note_off_c, 0, 63, 0
2, 15256, Note_on_c, 0, 63, 67
2, 15413, Note_on_c, 0, 68, 80
2, 15591, Note_off_c, 0, 68, 0
2, 15591, Note_on_c, 0, 63, 86
2, 15592, Note_off_c, 0, 63, 0
2, 15770, Note_on_c, 0, 68, 79
2, 15792, Note_off_c, 0, 63, 0
2, 15937, Note_off_c, 0, 68, 0
2, 15948, Note_on_c, 0, 63, 85
2, 16115, Note_on_c, 0, 68, 68
2, 16115, Note_on_c, 0, 45, 83
2, 16126, Note_off_c, 0, 63, 0
2, 16260, Note_off_c, 0, 68, 0
2, 16294, Note_on_c, 0, 63, 77
2, 16461, Note_off_c, 0, 63, 0
2, 16461, Note_on_c, 0, 68, 72
2, 16594, Note_off_c, 0, 45, 0
2, 16639, Note_on_c, 0, 63, 75
2, 16650, Note_off_c, 0, 68, 0
2, 16650, Note_on_c, 0, 49, 77
2, 16806, Note_on_c, 0, 75, 81
2, 16817, Note_off_c, 0, 63, 0
2, 16984, Note_off_c, 0, 75, 0
2, 17129, Note_off_c, 0, 49, 0
2, 17163, Note_on_c, 0, 80, 57
2, 17163, Note_on_c, 0, 44, 85
2, 17331, Note_off_c, 0, 80, 0
2, 17499, Note_on_c, 0, 80, 90
2, 17855, Note_off_c, 0, 44, 0
2, 17855, Note_on_c, 0, 80, 65
2, 17855, Note_on_c, 0, 56, 37
2, 17855, Note_on_c, 0, 44, 92
2, 17856, Note_off_c, 0, 80, 0
2, 18011, Note_off_c, 0, 56, 0
2, 18078, Note_off_c, 0, 80, 0
2, 18201, Note_on_c, 0, 78, 85
2, 18368, Note_on_c, 0, 80, 59
2, 18379, Note_off_c, 0, 44, 0
2, 18379, Note_off_c, 0, 78, 0
2, 18379, Note_on_c, 0, 44, 94
2, 18580, Note_off_c, 0, 80, 0
2, 18713, Note_on_c, 0, 80, 64
2, 18725, Note_off_c, 0, 44, 0
2, 18725, Note_on_c, 0, 56, 42
2, 18725, Note_on_c, 0, 44, 87
2, 18881, Note_off_c, 0, 56, 0
2, 18914, Note_off_c, 0, 80, 0
2, 19070, Note_on_c, 0, 78, 71
2, 19071, Note_off_c, 0, 44, 0
2, 19071, Note_on_c, 0, 42, 72
2, 19205, Note_off_c, 0, 78, 0
2, 19238, Note_on_c, 0, 80, 55
2, 19238, Note_on_c, 0, 44, 89
2, 19405, Note_off_c, 0, 42, 0
2, 19483, Note_off_c, 0, 80, 0
2, 19929, Note_on_c, 0, 75, 62
2, 19929, Note_on_c, 0, 56, 44
2, 19996, Note_off_c, 0, 44, 0
2, 19996, Note_on_c, 0, 44, 91
2, 20107, Note_off_c, 0, 75, 0
2, 20107, Note_off_c, 0, 56, 0
2, 20275, Note_on_c, 0, 73, 82
2, 20464, Note_off_c, 0, 44, 0
2, 20464, Note_on_c, 0, 44, 89
2, 20576, Note_off_c, 0, 73, 0
2, 20632, Note_on_c, 0, 75, 65
2, 20888, Note_off_c, 0, 75, 0
2, 20977, Note_on_c, 0, 76, 66
2, 20978, Note_off_c, 0, 44, 0
2, 20978, Note_on_c, 0, 44, 89
2, 21223, Note_off_c, 0, 76, 0
2, 21313, Note_on_c, 0, 75, 74
2, 21335, Note_off_c, 0, 44, 0
2, 21335, Note_on_c, 0, 45, 98
2, 21603, Note_off_c, 0, 75, 0
2, 21658, Note_on_c, 0, 73, 78
2, 21848, Note_off_c, 0, 45, 0
2, 21848, Note_on_c, 0, 45, 98
2, 21970, Note_off_c, 0, 73, 0
2, 22015, Note_on_c, 0, 75, 84
2, 22360, Note_on_c, 0, 75, 82
2, 22361, Note_off_c, 0, 75, 0
2, 22372, Note_off_c, 0, 45, 0
2, 22372, Note_on_c, 0, 45, 99
2, 22694, Note_off_c, 0, 75, 0
2, 22717, Note_on_c, 0, 80, 63
2, 22717, Note_on_c, 0, 44, 89
2, 22718, Note_off_c, 0, 45, 0
2, 22884, Note_off_c, 0, 80, 0
2, 22884, Note_on_c, 0, 83, 72
2, 23052, Note_off_c, 0, 83, 0
2, 23053, Note_on_c, 0, 78, 74
2, 23209, Note_off_c, 0, 78, 0
2, 23220, Note_on_c, 0, 80, 57
2, 23231, Note_off_c, 0, 44, 0
2, 23231, Note_on_c, 0, 44, 93
2, 23398, Note_on_c, 0, 75, 64
2, 23409, Note_off_c, 0, 80, 0
2, 23665, Note_off_c, 0, 75, 0
2, 23766, Note_off_c, 0, 44, 0
2, 23766, Note_on_c, 0, 44, 90
2, 23922, Note_on_c, 0, 75, 73
2, 23933, Note_on_c, 0, 56, 46
2, 24100, Note_off_c, 0, 75, 0
2, 24100, Note_on_c, 0, 80, 65
2, 24112, Note_off_c, 0, 44, 0
2, 24112, Note_on_c, 0, 44, 92
2, 24234, Note_off_c, 0, 56, 0
2, 24268, Note_on_c, 0, 83, 74
2, 24278, Note_off_c, 0, 80, 0
2, 24446, Note_on_c, 0, 78, 76
2, 24469, Note_off_c, 0, 83, 0
2, 24613, Note_on_c, 0, 73, 81
2, 24624, Note_off_c, 0, 78, 0
2, 24635, Note_on_c, 0, 44, 93
2, 24636, Note_off_c, 0, 44, 0
2, 24791, Note_on_c, 0, 75, 68
2, 24791, Note_on_c, 0, 56, 42
2, 24826, Note_off_c, 0, 73, 0
2, 24915, Note_off_c, 0, 56, 0
2, 25015, Note_off_c, 0, 75, 0
2, 25138, Note_off_c, 0, 44, 0
2, 25138, Note_on_c, 0, 44, 81
2, 25305, Note_on_c, 0, 75, 74
2, 25316, Note_on_c, 0, 56, 44
2, 25472, Note_off_c, 0, 56, 0
2, 25484, Note_on_c, 0, 80, 74
2, 25484, Note_on_c, 0, 40, 85
2, 25506, Note_off_c, 0, 75, 0
2, 25606, Note_off_c, 0, 44, 0
2, 25662, Note_off_c, 0, 80, 0
2, 25707, Note_on_c, 0, 59, 45
2, 25829, Note_on_c, 0, 78, 69
2, 25963, Note_off_c, 0, 78, 0
2, 25974, Note_off_c, 0, 59, 0
2, 26008, Note_on_c, 0, 80, 69
2, 26019, Note_on_c, 0, 52, 45
2, 26030, Note_off_c, 0, 40, 0
2, 26030, Note_on_c, 0, 40, 85
2, 26153, Note_off_c, 0, 52, 0
2, 26175, Note_on_c, 0, 75, 82
2, 26197, Note_off_c, 0, 80, 0
2, 26353, Note_on_c, 0, 78, 71
2, 26353, Note_on_c, 0, 59, 51
2, 26364, Note_off_c, 0, 75, 0
2, 26498, Note_off_c, 0, 78, 0
2, 26498, Note_off_c, 0, 59, 0
2, 26531, Note_on_c, 0, 73, 61
2, 26531, Note_on_c, 0, 40, 85
2, 26532, Note_off_c, 0, 40, 0
2, 26699, Note_on_c, 0, 80, 47
2, 26699, Note_on_c, 0, 68, 72
2, 26867, Note_off_c, 0, 73, 0
2, 26867, Note_on_c, 0, 73, 59
2, 26889, Note_off_c, 0, 40, 0
2, 26889, Note_on_c, 0, 39, 102
2, 26890, Note_off_c, 0, 80, 0
2, 26890, Note_off_c, 0, 68, 0
2, 27045, Note_on_c, 0, 75, 76
2, 27212, Note_on_c, 0, 73, 79
2, 27213, Note_off_c, 0, 73, 0
2, 27223, Note_off_c, 0, 75, 0
2, 27391, Note_on_c, 0, 75, 71
2, 27402, Note_off_c, 0, 39, 0
2, 27402, Note_on_c, 0, 39, 105
2, 27424, Note_off_c, 0, 73, 0
2, 27558, Note_off_c, 0, 39, 0
2, 27558, Note_on_c, 0, 39, 101
2, 27569, Note_on_c, 0, 68, 70
2, 27603, Note_off_c, 0, 75, 0
2, 27781, Note_off_c, 0, 68, 0
2, 27926, Note_off_c, 0, 39, 0
2, 27926, Note_on_c, 0, 39, 92
2, 28082, Note_on_c, 0, 75, 76
2, 28260, Note_on_c, 0, 80, 64
2, 28260, Note_on_c, 0, 56, 44
2, 28271, Note_off_c, 0, 75, 0
2, 28271, Note_on_c, 0, 44, 94
2, 28394, Note_off_c, 0, 56, 0
2, 28438, Note_off_c, 0, 80, 0
2, 28438, Note_on_c, 0, 83, 74
2, 28483, Note_off_c, 0, 39, 0
2, 28607, Note_on_c, 0, 78, 72
2, 28618, Note_off_c, 0, 83, 0
2, 28774, Note_on_c, 0, 73, 82
2, 28785, Note_off_c, 0, 78, 0
2, 28796, Note_off_c, 0, 44, 0
2, 28796, Note_on_c, 0, 44, 94
2, 28952, Note_on_c, 0, 75, 69
2, 28952, Note_on_c, 0, 56, 44
2, 28997, Note_off_c, 0, 73, 0
2, 29086, Note_off_c, 0, 56, 0
2, 29175, Note_off_c, 0, 75, 0
2, 29309, Note_off_c, 0, 44, 0
2, 29309, Note_on_c, 0, 44, 88
2, 29465, Note_on_c, 0, 75, 75
2, 29476, Note_on_c, 0, 56, 45
2, 29643, Note_on_c, 0, 80, 64
2, 29654, Note_off_c, 0, 75, 0
2, 29666, Note_off_c, 0, 44, 0
2, 29666, Note_on_c, 0, 44, 92
2, 29777, Note_off_c, 0, 56, 0
2, 29811, Note_on_c, 0, 83, 74
2, 29821, Note_off_c, 0, 80, 0
2, 30000, Note_on_c, 0, 78, 76
2, 30012, Note_off_c, 0, 83, 0
2, 30167, Note_off_c, 0, 78, 0
2, 30178, Note_on_c, 0, 80, 66
2, 30190, Note_off_c, 0, 44, 0
2, 30190, Note_on_c, 0, 44, 94
2, 30345, Note_off_c, 0, 80, 0
2, 30346, Note_on_c, 0, 80, 71
2, 30537, Note_off_c, 0, 80, 0
2, 30692, Note_on_c, 0, 44, 81
2, 30693, Note_off_c, 0, 44, 0
2, 30860, Note_on_c, 0, 75, 73
2, 30860, Note_on_c, 0, 56, 43
2, 31016, Note_on_c, 0, 40, 84
2, 31027, Note_on_c, 0, 80, 72
2, 31038, Note_off_c, 0, 75, 0
2, 31038, Note_on_c, 0, 52, 42
2, 31049, Note_off_c, 0, 56, 0
2, 31160, Note_off_c, 0, 44, 0
2, 31183, Note_off_c, 0, 52, 0
2, 31216, Note_off_c, 0, 80, 0
2, 31238, Note_on_c, 0, 59, 48
2, 31372, Note_on_c, 0, 78, 68
2, 31517, Note_off_c, 0, 59, 0
2, 31517, Note_off_c, 0, 78, 0
2, 31562, Note_on_c, 0, 80, 65
2, 31573, Note_on_c, 0, 52, 43
2, 31584, Note_off_c, 0, 40, 0
2, 31584, Note_on_c, 0, 40, 83
2, 31707, Note_off_c, 0, 52, 0
2, 31729, Note_on_c, 0, 75, 81
2, 31740, Note_off_c, 0, 80, 0
2, 31907, Note_on_c, 0, 78, 72
2, 31918, Note_off_c, 0, 75, 0
2, 32041, Note_off_c, 0, 78, 0
2, 32086, Note_on_c, 0, 73, 61
2, 32097, Note_off_c, 0, 40, 0
2, 32097, Note_on_c, 0, 40, 90
2, 32242, Note_off_c, 0, 40, 0
2, 32242, Note_on_c, 0, 40, 83
2, 32253, Note_on_c, 0, 80, 45
2, 32253, Note_on_c, 0, 68, 69
2, 32420, Note_off_c, 0, 73, 0
2, 32420, Note_on_c, 0, 73, 60
2, 32421, Note_on_c, 0, 39, 104
2, 32422, Note_off_c, 0, 40, 0
2, 32433, Note_off_c, 0, 80, 0
2, 32444, Note_off_c, 0, 68, 0
2, 32588, Note_on_c, 0, 75, 74
2, 32766, Note_off_c, 0, 75, 0
2, 32767, Note_off_c, 0, 73, 0
2, 32767, Note_on_c, 0, 73, 82
2, 32934, Note_on_c, 0, 75, 73
2, 32956, Note_off_c, 0, 39, 0
2, 32956, Note_on_c, 0, 39, 109
2, 32968, Note_off_c, 0, 73, 0
2, 33112, Note_off_c, 0, 39, 0
2, 33112, Note_on_c, 0, 39, 102
2, 33123, Note_on_c, 0, 68, 60
2, 33146, Note_off_c, 0, 75, 0
2, 33458, Note_off_c, 0, 39, 0
2, 33458, Note_on_c, 0, 39, 92
2, 33469, Note_off_c, 0, 68, 0
2, 33469, Note_on_c, 0, 68, 66
2, 33770, Note_off_c, 0, 68, 0
2, 33814, Note_on_c, 0, 75, 51
2, 33814, Note_on_c, 0, 56, 50
2, 33870, Note_on_c, 0, 44, 86
2, 33981, Note_off_c, 0, 56, 0
2, 34026, Note_off_c, 0, 39, 0
2, 34070, Note_off_c, 0, 75, 0
2, 34071, Note_on_c, 0, 75, 57
2, 34171, Note_off_c, 0, 44, 0
2, 34171, Note_on_c, 0, 56, 44
2, 34171, Note_on_c, 0, 44, 85
2, 34327, Note_off_c, 0, 75, 0
2, 34327, Note_on_c, 0, 75, 70
2, 34451, Note_off_c, 0, 56, 0
2, 34507, Note_off_c, 0, 44, 0
2, 34507, Note_on_c, 0, 43, 91
2, 34551, Note_off_c, 0, 75, 0
2, 34674, Note_on_c, 0, 80, 52
2, 34674, Note_on_c, 0, 68, 67
2, 34852, Note_off_c, 0, 80, 0
2, 34852, Note_on_c, 0, 71, 58
2, 34863, Note_on_c, 0, 43, 94
2, 34864, Note_off_c, 0, 43, 0
2, 34875, Note_off_c, 0, 68, 0
2, 35030, Note_off_c, 0, 71, 0
2, 35030, Note_on_c, 0, 73, 89
2, 35197, Note_off_c, 0, 43, 0
2, 35198, Note_on_c, 0, 42, 95
2, 35209, Note_on_c, 0, 75, 83
2, 35219, Note_off_c, 0, 73, 0
2, 35454, Note_off_c, 0, 75, 0
2, 35454, Note_on_c, 0, 75, 85
2, 35565, Note_on_c, 0, 42, 101
2, 35566, Note_off_c, 0, 42, 0
2, 35721, Note_off_c, 0, 75, 0
2, 35721, Note_on_c, 0, 75, 86
2, 35888, Note_off_c, 0, 42, 0
2, 35889, Note_on_c, 0, 41, 83
2, 35933, Note_off_c, 0, 75, 0
2, 36067, Note_on_c, 0, 80, 42
2, 36067, Note_on_c, 0, 68, 71
2, 36234, Note_off_c, 0, 80, 0
2, 36247, Note_on_c, 0, 71, 67
2, 36258, Note_off_c, 0, 68, 0
2, 36313, Note_on_c, 0, 41, 80
2, 36314, Note_off_c, 0, 41, 0
2, 36414, Note_on_c, 0, 73, 81
2, 36425, Note_off_c, 0, 71, 0
2, 36592, Note_on_c, 0, 75, 73
2, 36615, Note_off_c, 0, 73, 0
2, 36625, Note_off_c, 0, 41, 0
2, 36625, Note_on_c, 0, 40, 80
2, 36737, Note_on_c, 0, 78, 68
2, 36781, Note_off_c, 0, 75, 0
2, 36871, Note_off_c, 0, 78, 0
2, 36937, Note_off_c, 0, 40, 0
2, 36938, Note_on_c, 0, 75, 70
2, 36938, Note_on_c, 0, 40, 78
2, 37283, Note_on_c, 0, 75, 72
2, 37284, Note_off_c, 0, 75, 0
2, 37350, Note_off_c, 0, 40, 0
2, 37350, Note_on_c, 0, 39, 105
2, 37450, Note_on_c, 0, 78, 66
2, 37461, Note_off_c, 0, 75, 0
2, 37484, Note_off_c, 0, 39, 0
2, 37484, Note_on_c, 0, 39, 99
2, 37595, Note_off_c, 0, 78, 0
2, 37629, Note_on_c, 0, 75, 62
2, 37684, Note_on_c, 0, 39, 103
2, 37685, Note_off_c, 0, 39, 0
2, 37985, Note_off_c, 0, 39, 0
2, 37985, Note_on_c, 0, 75, 54
2, 37985, Note_on_c, 0, 38, 84
2, 37986, Note_off_c, 0, 75, 0
2, 38143, Note_on_c, 0, 78, 72
2, 38321, Note_off_c, 0, 75, 0
2, 38321, Note_off_c, 0, 78, 0
2, 38321, Note_on_c, 0, 75, 73
2, 38343, Note_off_c, 0, 38, 0
2, 38343, Note_on_c, 0, 38, 85
2, 38488, Note_on_c, 0, 78, 75
2, 38522, Note_off_c, 0, 75, 0
2, 38644, Note_off_c, 0, 78, 0
2, 38666, Note_off_c, 0, 38, 0
2, 38666, Note_on_c, 0, 80, 53
2, 38666, Note_on_c, 0, 39, 100
2, 38822, Note_off_c, 0, 39, 0
2, 38822, Note_on_c, 0, 39, 88
2, 38833, Note_off_c, 0, 80, 0
2, 38834, Note_on_c, 0, 68, 77
2, 38845, Note_on_c, 0, 80, 44
2, 38990, Note_off_c, 0, 80, 0
2, 39011, Note_off_c, 0, 39, 0
2, 39012, Note_on_c, 0, 39, 106
2, 39023, Note_on_c, 0, 71, 67
2, 39035, Note_off_c, 0, 68, 0
2, 39179, Note_off_c, 0, 39, 0
2, 39179, Note_on_c, 0, 39, 88
2, 39190, Note_on_c, 0, 73, 76
2, 39212, Note_off_c, 0, 71, 0
2, 39369, Note_on_c, 0, 75, 53
2, 39369, Note_on_c, 0, 56, 47
2, 39402, Note_off_c, 0, 73, 0
2, 39435, Note_on_c, 0, 44, 87
2, 39525, Note_off_c, 0, 56, 0
2, 39580, Note_off_c, 0, 39, 0
2, 39625, Note_off_c, 0, 75, 0
2, 39625, Note_on_c, 0, 75, 63
2, 39625, Note_on_c, 0, 63, 41
2, 39714, Note_on_c, 0, 56, 47
2, 39725, Note_off_c, 0, 44, 0
2, 39725, Note_on_c, 0, 44, 88
2, 39759, Note_off_c, 0, 63, 0
2, 39892, Note_off_c, 0, 75, 0
2, 39892, Note_on_c, 0, 75, 72
2, 40015, Note_off_c, 0, 56, 0
2, 40072, Note_off_c, 0, 44, 0
2, 40072, Note_on_c, 0, 43, 93
2, 40083, Note_off_c, 0, 75, 0
2, 40228, Note_on_c, 0, 80, 50
2, 40228, Note_on_c, 0, 68, 66
2, 40395, Note_off_c, 0, 80, 0
2, 40406, Note_off_c, 0, 43, 0
2, 40406, Note_on_c, 0, 71, 59
2, 40406, Note_on_c, 0, 43, 95
2, 40417, Note_off_c, 0, 68, 0
2, 40573, Note_on_c, 0, 73, 88
2, 40584, Note_off_c, 0, 71, 0
2, 40740, Note_off_c, 0, 43, 0
2, 40741, Note_on_c, 0, 42, 95
2, 40752, Note_on_c, 0, 75, 83
2, 40762, Note_off_c, 0, 73, 0
2, 41008, Note_off_c, 0, 75, 0
2, 41008, Note_on_c, 0, 75, 88
2, 41120, Note_off_c, 0, 42, 0
2, 41120, Note_on_c, 0, 42, 98
2, 41275, Note_off_c, 0, 75, 0
2, 41276, Note_on_c, 0, 75, 83
2, 41487, Note_on_c, 0, 41, 85
2, 41488, Note_off_c, 0, 42, 0
2, 41488, Note_off_c, 0, 75, 0
2, 41621, Note_on_c, 0, 68, 72
2, 41632, Note_on_c, 0, 80, 44
2, 41766, Note_off_c, 0, 80, 0
2, 41800, Note_on_c, 0, 71, 68
2, 41810, Note_off_c, 0, 41, 0
2, 41810, Note_off_c, 0, 68, 0
2, 41811, Note_on_c, 0, 41, 86
2, 41957, Note_on_c, 0, 73, 81
2, 41980, Note_off_c, 0, 71, 0
2, 42135, Note_on_c, 0, 75, 76
2, 42157, Note_on_c, 0, 40, 82
2, 42158, Note_off_c, 0, 41, 0
2, 42158, Note_off_c, 0, 73, 0
2, 42302, Note_on_c, 0, 78, 73
2, 42324, Note_off_c, 0, 75, 0
2, 42436, Note_off_c, 0, 78, 0
2, 42481, Note_on_c, 0, 75, 79
2, 42491, Note_off_c, 0, 40, 0
2, 42492, Note_on_c, 0, 40, 81
2, 42837, Note_on_c, 0, 75, 71
2, 42838, Note_off_c, 0, 75, 0
2, 42848, Note_on_c, 0, 39, 101
2, 42849, Note_off_c, 0, 40, 0
2, 43004, Note_off_c, 0, 75, 0
2, 43004, Note_on_c, 0, 78, 68
2, 43037, Note_off_c, 0, 39, 0
2, 43038, Note_on_c, 0, 39, 101
2, 43149, Note_off_c, 0, 78, 0
2, 43183, Note_off_c, 0, 39, 0
2, 43183, Note_on_c, 0, 75, 72
2, 43183, Note_on_c, 0, 39, 94
2, 43350, Note_on_c, 0, 80, 68
2, 43372, Note_off_c, 0, 75, 0
2, 43528, Note_on_c, 0, 46, 93
2, 43662, Note_off_c, 0, 80, 0
2, 43696, Note_off_c, 0, 39, 0
2, 43707, Note_on_c, 0, 78, 74
2, 43863, Note_off_c, 0, 78, 0
2, 43864, Note_on_c, 0, 80, 68
2, 43875, Note_off_c, 0, 46, 0
2, 43875, Note_on_c, 0, 46, 94
2, 44065, Note_off_c, 0, 80, 0
2, 44209, Note_on_c, 0, 39, 100
2, 44221, Note_off_c, 0, 46, 0
2, 44221, Note_on_c, 0, 80, 67
2, 44221, Note_on_c, 0, 46, 70
2, 44444, Note_off_c, 0, 80, 0
2, 44466, Note_off_c, 0, 46, 0
2, 44566, Note_off_c, 0, 39, 0
2, 44566, Note_on_c, 0, 39, 110
2, 44577, Note_on_c, 0, 71, 69
2, 44733, Note_off_c, 0, 39, 0
2, 44733, Note_on_c, 0, 39, 89
2, 44744, Note_on_c, 0, 73, 79
2, 44766, Note_off_c, 0, 71, 0
2, 44923, Note_on_c, 0, 75, 73
2, 44923, Note_on_c, 0, 52, 90
2, 44945, Note_off_c, 0, 73, 0
2, 45146, Note_off_c, 0, 75, 0
2, 45179, Note_off_c, 0, 39, 0
2, 45257, Note_on_c, 0, 83, 67
2, 45424, Note_off_c, 0, 83, 0
2, 45435, Note_on_c, 0, 82, 63
2, 45435, Note_on_c, 0, 52, 101
2, 45436, Note_off_c, 0, 52, 0
2, 45591, Note_off_c, 0, 82, 0
2, 45613, Note_off_c, 0, 52, 0
2, 45614, Note_on_c, 0, 63, 53
2, 45614, Note_on_c, 0, 51, 90
2, 45782, Note_on_c, 0, 78, 83
2, 45872, Note_off_c, 0, 63, 0
2, 45971, Note_off_c, 0, 78, 0
2, 46128, Note_on_c, 0, 73, 84
2, 46150, Note_on_c, 0, 44, 90
2, 46195, Note_off_c, 0, 51, 0
2, 46384, Note_off_c, 0, 73, 0
2, 46484, Note_on_c, 0, 71, 75
2, 46529, Note_off_c, 0, 44, 0
2, 46529, Note_on_c, 0, 44, 91
2, 46652, Note_on_c, 0, 73, 87
2, 46673, Note_off_c, 0, 71, 0
2, 46819, Note_on_c, 0, 71, 65
2, 46830, Note_off_c, 0, 44, 0
2, 46830, Note_on_c, 0, 43, 91
2, 46841, Note_off_c, 0, 73, 0
2, 46997, Note_on_c, 0, 75, 81
2, 47019, Note_off_c, 0, 43, 0
2, 47019, Note_on_c, 0, 42, 95
2, 47031, Note_off_c, 0, 71, 0
2, 47231, Note_off_c, 0, 75, 0
2, 47353, Note_off_c, 0, 42, 0
2, 47354, Note_on_c, 0, 68, 79
2, 47354, Note_on_c, 0, 42, 61
2, 47365, Note_on_c, 0, 47, 79
2, 47521, Note_on_c, 0, 75, 81
2, 47543, Note_off_c, 0, 42, 0
2, 47577, Note_off_c, 0, 68, 0
2, 47689, Note_on_c, 0, 73, 76
2, 47700, Note_on_c, 0, 49, 85
2, 47712, Note_off_c, 0, 75, 0
2, 47734, Note_off_c, 0, 47, 0
2, 47890, Note_off_c, 0, 73, 0
2, 48034, Note_off_c, 0, 49, 0
2, 48035, Note_on_c, 0, 68, 62
2, 48035, Note_on_c, 0, 49, 76
2, 48213, Note_on_c, 0, 75, 89
2, 48224, Note_off_c, 0, 49, 0
2, 48224, Note_on_c, 0, 49, 73
2, 48258, Note_off_c, 0, 68, 0
2, 48380, Note_off_c, 0, 75, 0
2, 48380, Note_on_c, 0, 73, 81
2, 48380, Note_on_c, 0, 63, 61
2, 48425, Note_on_c, 0, 51, 92
2, 48436, Note_off_c, 0, 49, 0
2, 48558, Note_off_c, 0, 63, 0
2, 48614, Note_off_c, 0, 73, 0
2, 48726, Note_on_c, 0, 75, 83
2, 48726, Note_on_c, 0, 63, 52
2, 48915, Note_off_c, 0, 51, 0
2, 48915, Note_off_c, 0, 75, 0
2, 48915, Note_on_c, 0, 78, 79
2, 48915, Note_on_c, 0, 51, 97
2, 49038, Note_off_c, 0, 63, 0
2, 49082, Note_off_c, 0, 78, 0
2, 49082, Note_off_c, 0, 51, 0
2, 49083, Note_on_c, 0, 83, 66
2, 49083, Note_on_c, 0, 51, 66
2, 49083, Note_on_c, 0, 44, 85
2, 49239, Note_off_c, 0, 51, 0
2, 49250, Note_off_c, 0, 83, 0
2, 49261, Note_on_c, 0, 82, 69
2, 49417, Note_off_c, 0, 44, 0
2, 49428, Note_on_c, 0, 43, 87
2, 49439, Note_off_c, 0, 82, 0
2, 49439, Note_on_c, 0, 78, 73
2, 49596, Note_on_c, 0, 73, 97
2, 49607, Note_off_c, 0, 78, 0
2, 49752, Note_off_c, 0, 43, 0
2, 49764, Note_on_c, 0, 42, 97
2, 49775, Note_on_c, 0, 75, 82
2, 49797, Note_off_c, 0, 73, 0
2, 49998, Note_off_c, 0, 75, 0
2, 50120, Note_on_c, 0, 71, 75
2, 50120, Note_on_c, 0, 42, 81
2, 50121, Note_off_c, 0, 42, 0
2, 50287, Note_on_c, 0, 73, 81
2, 50309, Note_off_c, 0, 71, 0
2, 50476, Note_off_c, 0, 73, 0
2, 50477, Note_on_c, 0, 75, 74
2, 50477, Note_on_c, 0, 40, 83
2, 50599, Note_off_c, 0, 42, 0
2, 50700, Note_off_c, 0, 75, 0
2, 50822, Note_on_c, 0, 40, 81
2, 50823, Note_off_c, 0, 40, 0
2, 50990, Note_on_c, 0, 82, 59
2, 51135, Note_off_c, 0, 82, 0
2, 51179, Note_off_c, 0, 40, 0
2, 51179, Note_on_c, 0, 39, 101
2, 51335, Note_on_c, 0, 78, 67
2, 51368, Note_off_c, 0, 39, 0
2, 51369, Note_on_c, 0, 39, 101
2, 51480, Note_off_c, 0, 78, 0
2, 51526, Note_off_c, 0, 39, 0
2, 51526, Note_on_c, 0, 39, 93
2, 51671, Note_on_c, 0, 73, 78
2, 51849, Note_on_c, 0, 44, 89
2, 51905, Note_off_c, 0, 73, 0
2, 52039, Note_on_c, 0, 71, 80
2, 52106, Note_off_c, 0, 39, 0
2, 52206, Note_on_c, 0, 73, 79
2, 52217, Note_off_c, 0, 71, 0
2, 52273, Note_off_c, 0, 44, 0
2, 52273, Note_on_c, 0, 44, 79
2, 52373, Note_on_c, 0, 78, 70
2, 52440, Note_off_c, 0, 73, 0
2, 52551, Note_off_c, 0, 78, 0
2, 52551, Note_on_c, 0, 75, 79
2, 52562, Note_on_c, 0, 42, 94
2, 52641, Note_off_c, 0, 44, 0
2, 52774, Note_off_c, 0, 75, 0
2, 52897, Note_on_c, 0, 68, 71
2, 52919, Note_off_c, 0, 42, 0
2, 52919, Note_on_c, 0, 42, 87
2, 53064, Note_on_c, 0, 75, 88
2, 53086, Note_off_c, 0, 68, 0
2, 53242, Note_on_c, 0, 73, 71
2, 53242, Note_on_c, 0, 37, 90
2, 53253, Note_off_c, 0, 75, 0
2, 53411, Note_off_c, 0, 42, 0
2, 53589, Note_off_c, 0, 73, 0
2, 53589, Note_on_c, 0, 73, 75
2, 53935, Note_off_c, 0, 73, 0
2, 53935, Note_on_c, 0, 73, 86
2, 53935, Note_on_c, 0, 49, 31
2, 54102, Note_off_c, 0, 49, 0
2, 54202, Note_off_c, 0, 73, 0
2, 54202, Note_on_c, 0, 73, 81
2, 54458, Note_off_c, 0, 73, 0
2, 54458, Note_on_c, 0, 73, 83
2, 54692, Note_off_c, 0, 73, 0
2, 54804, Note_on_c, 0, 71, 74
2, 54982, Note_on_c, 0, 73, 81
2, 54993, Note_off_c, 0, 37, 0
2, 54993, Note_off_c, 0, 71, 0
2, 54993, Note_on_c, 0, 37, 89
2, 55161, Note_on_c, 0, 71, 70
2, 55183, Note_off_c, 0, 73, 0
2, 55318, Note_on_c, 0, 73, 59
2, 55352, Note_off_c, 0, 71, 0
2, 55496, Note_on_c, 0, 71, 72
2, 55674, Note_on_c, 0, 73, 79
2, 55675, Note_off_c, 0, 73, 0
2, 55685, Note_off_c, 0, 71, 0
2, 55842, Note_on_c, 0, 76, 82
2, 55897, Note_off_c, 0, 73, 0
2, 56020, Note_off_c, 0, 37, 0
2, 56020, Note_off_c, 0, 76, 0
2, 56020, Note_on_c, 0, 75, 72
2, 56087, Note_on_c, 0, 39, 95
2, 56254, Note_off_c, 0, 75, 0
2, 56499, Note_off_c, 0, 39, 0
2, 56544, Note_on_c, 0, 76, 72
2, 56544, Note_on_c, 0, 40, 79
2, 56722, Note_off_c, 0, 76, 0
2, 56722, Note_on_c, 0, 75, 69
2, 56733, Note_off_c, 0, 40, 0
2, 56733, Note_on_c, 0, 39, 82
2, 56934, Note_off_c, 0, 75, 0
2, 57068, Note_on_c, 0, 80, 98
2, 57225, Note_off_c, 0, 39, 0
2, 57225, Note_on_c, 0, 39, 99
2, 57236, Note_off_c, 0, 80, 0
2, 57236, Note_on_c, 0, 79, 70
2, 57448, Note_off_c, 0, 79, 0
2, 57570, Note_on_c, 0, 39, 97
2, 57571, Note_off_c, 0, 39, 0
2, 57582, Note_on_c, 0, 80, 68
2, 57716, Note_off_c, 0, 80, 0
2, 57749, Note_on_c, 0, 79, 91
2, 57749, Note_on_c, 0, 51, 52
2, 57883, Note_off_c, 0, 51, 0
2, 57916, Note_off_c, 0, 39, 0
2, 57916, Note_off_c, 0, 79, 0
2, 57916, Note_on_c, 0, 80, 67
2, 57916, Note_on_c, 0, 39, 102
2, 58094, Note_off_c, 0, 80, 0
2, 58094, Note_on_c, 0, 82, 56
2, 58128, Note_off_c, 0, 39, 0
2, 58128, Note_on_c, 0, 39, 92
2, 58272, Note_off_c, 0, 82, 0
2, 58451, Note_on_c, 0, 76, 85
2, 58563, Note_off_c, 0, 39, 0
2, 58618, Note_on_c, 0, 79, 97
2, 58696, Note_off_c, 0, 76, 0
2, 58796, Note_on_c, 0, 81, 43
2, 58796, Note_on_c, 0, 41, 91
2, 58830, Note_off_c, 0, 79, 0
2, 58930, Note_off_c, 0, 81, 0
2, 59165, Note_off_c, 0, 41, 0
2, 59166, Note_on_c, 0, 41, 89
2, 59489, Note_off_c, 0, 41, 0
2, 59489, Note_on_c, 0, 40, 84
2, 59834, Note_on_c, 0, 79, 76
2, 59868, Note_off_c, 0, 40, 0
2, 59868, Note_on_c, 0, 40, 80
2, 60013, Note_on_c, 0, 81, 51
2, 60046, Note_off_c, 0, 79, 0
2, 60147, Note_off_c, 0, 81, 0
2, 60180, Note_on_c, 0, 45, 91
2, 60414, Note_off_c, 0, 40, 0
2, 60536, Note_on_c, 0, 45, 98
2, 60537, Note_off_c, 0, 45, 0
2, 60704, Note_on_c, 0, 79, 85
2, 60714, Note_off_c, 0, 45, 0
2, 60715, Note_on_c, 0, 45, 75
2, 60882, Note_on_c, 0, 48, 96
2, 60905, Note_off_c, 0, 79, 0
2, 61039, Note_off_c, 0, 45, 0
2, 61218, Note_on_c, 0, 79, 41
2, 61218, Note_on_c, 0, 76, 66
2, 61229, Note_off_c, 0, 48, 0
2, 61229, Note_on_c, 0, 48, 81
2, 61385, Note_off_c, 0, 79, 0
2, 61385, Note_on_c, 0, 79, 80
2, 61418, Note_on_c, 0, 60, 57
2, 61430, Note_off_c, 0, 76, 0
2, 61552, Note_off_c, 0, 60, 0
2, 61574, Note_on_c, 0, 57, 48
2, 61585, Note_on_c, 0, 38, 91
2, 61586, Note_off_c, 0, 79, 0
2, 61697, Note_off_c, 0, 48, 0
2, 61730, Note_off_c, 0, 57, 0
2, 61920, Note_on_c, 0, 84, 55
2, 61931, Note_off_c, 0, 38, 0
2, 61931, Note_on_c, 0, 38, 79
2, 62054, Note_off_c, 0, 84, 0
2, 62265, Note_on_c, 0, 40, 88
2, 62377, Note_off_c, 0, 38, 0
2, 62611, Note_on_c, 0, 79, 82
2, 62633, Note_off_c, 0, 40, 0
2, 62633, Note_on_c, 0, 40, 84
2, 62789, Note_on_c, 0, 81, 59
2, 62823, Note_off_c, 0, 79, 0
2, 62935, Note_off_c, 0, 81, 0
2, 63013, Note_on_c, 0, 45, 93
2, 63125, Note_on_c, 0, 83, 63
2, 63136, Note_off_c, 0, 40, 0
2, 63270, Note_off_c, 0, 83, 0
2, 63303, Note_off_c, 0, 45, 0
2, 63303, Note_on_c, 0, 84, 70
2, 63303, Note_on_c, 0, 45, 85
2, 63448, Note_off_c, 0, 84, 0
2, 63660, Note_on_c, 0, 48, 91
2, 63816, Note_off_c, 0, 45, 0
2, 64005, Note_on_c, 0, 48, 88
2, 64006, Note_off_c, 0, 48, 0
2, 64339, Note_off_c, 0, 48, 0
2, 64340, Note_on_c, 0, 41, 88
2, 64730, Note_off_c, 0, 41, 0
2, 64730, Note_on_c, 0, 41, 87
2, 65043, Note_off_c, 0, 41, 0
2, 65043, Note_on_c, 0, 40, 85
2, 65377, Note_on_c, 0, 79, 79
2, 65411, Note_off_c, 0, 40, 0
2, 65411, Note_on_c, 0, 40, 80
2, 65556, Note_on_c, 0, 81, 52
2, 65589, Note_off_c, 0, 79, 0
2, 65701, Note_off_c, 0, 81, 0
2, 65790, Note_on_c, 0, 45, 92
2, 65957, Note_off_c, 0, 40, 0
2, 66091, Note_off_c, 0, 45, 0
2, 66091, Note_on_c, 0, 45, 98
2, 66258, Note_on_c, 0, 79, 86
2, 66269, Note_off_c, 0, 45, 0
2, 66269, Note_on_c, 0, 45, 76
2, 66436, Note_on_c, 0, 48, 96
2, 66459, Note_off_c, 0, 79, 0
2, 66615, Note_off_c, 0, 45, 0
2, 66772, Note_on_c, 0, 76, 68
2, 66783, Note_off_c, 0, 48, 0
2, 66783, Note_on_c, 0, 48, 79
2, 66783, Note_on_c, 0, 79, 39
2, 66928, Note_off_c, 0, 79, 0
2, 66939, Note_on_c, 0, 79, 76
2, 66961, Note_off_c, 0, 76, 0
2, 67128, Note_on_c, 0, 57, 41
2, 67128, Note_on_c, 0, 38, 87
2, 67140, Note_off_c, 0, 79, 0
2, 67218, Note_off_c, 0, 48, 0
2, 67284, Note_off_c, 0, 57, 0
2, 67463, Note_on_c, 0, 84, 51
2, 67474, Note_off_c, 0, 38, 0
2, 67474, Note_on_c, 0, 38, 77
2, 67608, Note_off_c, 0, 84, 0
2, 67819, Note_on_c, 0, 40, 85
2, 67909, Note_off_c, 0, 38, 0
2, 68165, Note_on_c, 0, 79, 77
2, 68187, Note_off_c, 0, 40, 0
2, 68187, Note_on_c, 0, 40, 81
2, 68343, Note_on_c, 0, 81, 53
2, 68377, Note_off_c, 0, 79, 0
2, 68477, Note_off_c, 0, 81, 0
2, 68566, Note_on_c, 0, 45, 94
2, 68679, Note_on_c, 0, 81, 61
2, 68690, Note_off_c, 0, 40, 0
2, 68835, Note_off_c, 0, 81, 0
2, 68857, Note_off_c, 0, 45, 0
2, 68857, Note_on_c, 0, 45, 99
2, 69024, Note_off_c, 0, 45, 0
2, 69024, Note_on_c, 0, 79, 86
2, 69024, Note_on_c, 0, 45, 96
2, 69202, Note_off_c, 0, 45, 0
2, 69203, Note_on_c, 0, 81, 51
2, 69203, Note_on_c, 0, 45, 98
2, 69225, Note_off_c, 0, 79, 0
2, 69337, Note_off_c, 0, 81, 0
2, 69548, Note_on_c, 0, 84, 64
2, 69559, Note_on_c, 0, 45, 86
2, 69560, Note_off_c, 0, 45, 0
2, 69749, Note_off_c, 0, 84, 0
2, 69894, Note_on_c, 0, 41, 87
2, 69905, Note_on_c, 0, 81, 48
2, 70039, Note_off_c, 0, 81, 0
2, 70072, Note_off_c, 0, 45, 0
2, 70273, Note_off_c, 0, 41, 0
2, 70273, Note_on_c, 0, 41, 86
2, 70418, Note_on_c, 0, 79, 68
2, 70586, Note_off_c, 0, 41, 0
2, 70586, Note_on_c, 0, 40, 80
2, 70598, Note_off_c, 0, 79, 0
2, 70943, Note_off_c, 0, 40, 0
2, 70943, Note_on_c, 0, 40, 79
2, 71288, Note_on_c, 0, 81, 54
2, 71288, Note_on_c, 0, 45, 94
2, 71422, Note_off_c, 0, 81, 0
2, 71534, Note_off_c, 0, 40, 0
2, 71645, Note_off_c, 0, 45, 0
2, 71645, Note_on_c, 0, 45, 100
2, 71801, Note_on_c, 0, 79, 84
2, 71812, Note_off_c, 0, 45, 0
2, 71812, Note_on_c, 0, 45, 97
2, 71990, Note_off_c, 0, 45, 0
2, 71990, Note_on_c, 0, 45, 98
2, 72013, Note_off_c, 0, 79, 0
2, 72157, Note_on_c, 0, 84, 75
2, 72313, Note_off_c, 0, 84, 0
2, 72336, Note_off_c, 0, 45, 0
2, 72336, Note_on_c, 0, 45, 97
2, 72671, Note_on_c, 0, 38, 87
2, 72683, Note_off_c, 0, 45, 0
2, 72683, Note_on_c, 0, 45, 72
2, 72928, Note_off_c, 0, 45, 0
2, 73017, Note_on_c, 0, 84, 55
2, 73039, Note_off_c, 0, 38, 0
2, 73039, Note_on_c, 0, 38, 78
2, 73151, Note_off_c, 0, 84, 0
2, 73362, Note_on_c, 0, 40, 82
2, 73440, Note_off_c, 0, 38, 0
2, 73730, Note_off_c, 0, 40, 0
2, 73730, Note_on_c, 0, 40, 79
2, 74065, Note_on_c, 0, 45, 92
2, 74276, Note_off_c, 0, 40, 0
2, 74411, Note_on_c, 0, 44, 86
2, 74412, Note_off_c, 0, 45, 0
2, 74757, Note_on_c, 0, 79, 78
2, 74768, Note_off_c, 0, 44, 0
2, 74768, Note_on_c, 0, 43, 92
2, 74924, Note_on_c, 0, 81, 47
2, 74969, Note_off_c, 0, 79, 0
2, 75058, Note_off_c, 0, 81, 0
2, 75102, Note_off_c, 0, 43, 0
2, 75102, Note_on_c, 0, 76, 69
2, 75102, Note_on_c, 0, 48, 76
2, 75102, Note_on_c, 0, 43, 69
2, 75114, Note_on_c, 0, 79, 38
2, 75247, Note_off_c, 0, 43, 0
2, 75259, Note_off_c, 0, 79, 0
2, 75270, Note_on_c, 0, 79, 76
2, 75291, Note_off_c, 0, 76, 0
2, 75303, Note_on_c, 0, 60, 53
2, 75437, Note_off_c, 0, 60, 0
2, 75437, Note_on_c, 0, 41, 90
2, 75448, Note_on_c, 0, 53, 33
2, 75459, Note_off_c, 0, 79, 0
2, 75593, Note_off_c, 0, 53, 0
2, 75626, Note_off_c, 0, 48, 0
2, 75838, Note_off_c, 0, 41, 0
2, 75838, Note_on_c, 0, 41, 86
2, 75972, Note_on_c, 0, 79, 71
2, 76150, Note_off_c, 0, 41, 0
2, 76150, Note_off_c, 0, 79, 0
2, 76150, Note_on_c, 0, 40, 79
2, 76497, Note_off_c, 0, 40, 0
2, 76497, Note_on_c, 0, 40, 79
2, 76831, Note_on_c, 0, 81, 53
2, 76887, Note_on_c, 0, 45, 96
2, 76976, Note_off_c, 0, 81, 0
2, 77065, Note_off_c, 0, 40, 0
2, 77188, Note_off_c, 0, 45, 0
2, 77188, Note_on_c, 0, 44, 85
2, 77444, Note_on_c, 0, 79, 79
2, 77545, Note_off_c, 0, 44, 0
2, 77545, Note_on_c, 0, 43, 94
2, 77589, Note_off_c, 0, 79, 0
2, 77712, Note_on_c, 0, 84, 71
2, 77857, Note_off_c, 0, 84, 0
2, 77890, Note_on_c, 0, 48, 82
2, 77890, Note_on_c, 0, 43, 73
2, 77891, Note_off_c, 0, 43, 0
2, 78057, Note_off_c, 0, 43, 0
2, 78237, Note_on_c, 0, 38, 86
2, 78337, Note_off_c, 0, 48, 0
2, 78582, Note_on_c, 0, 38, 80
2, 78583, Note_off_c, 0, 38, 0
2, 78716, Note_on_c, 0, 84, 61
2, 78861, Note_off_c, 0, 84, 0
2, 78917, Note_on_c, 0, 79, 76
2, 78917, Note_on_c, 0, 40, 80
2, 78950, Note_off_c, 0, 38, 0
2, 79095, Note_on_c, 0, 81, 51
2, 79129, Note_off_c, 0, 79, 0
2, 79229, Note_off_c, 0, 81, 0
2, 79273, Note_on_c, 0, 76, 71
2, 79284, Note_on_c, 0, 40, 76
2, 79285, Note_off_c, 0, 40, 0
2, 79440, Note_on_c, 0, 81, 51
2, 79440, Note_on_c, 0, 45, 92
2, 79451, Note_off_c, 0, 76, 0
2, 79596, Note_off_c, 0, 81, 0
2, 79741, Note_off_c, 0, 40, 0
2, 79797, Note_on_c, 0, 81, 66
2, 79953, Note_off_c, 0, 81, 0
2, 79975, Note_off_c, 0, 45, 0
2, 79975, Note_on_c, 0, 45, 98
2, 80122, Note_on_c, 0, 79, 83
2, 80132, Note_off_c, 0, 45, 0
2, 80133, Note_on_c, 0, 45, 95
2, 80311, Note_off_c, 0, 45, 0
2, 80311, Note_on_c, 0, 81, 46
2, 80311, Note_on_c, 0, 45, 98
2, 80334, Note_off_c, 0, 79, 0
2, 80445, Note_off_c, 0, 81, 0
2, 80668, Note_off_c, 0, 45, 0
2, 80668, Note_on_c, 0, 45, 98
2, 81013, Note_on_c, 0, 45, 99
2, 81014, Note_off_c, 0, 45, 0
2, 81347, Note_off_c, 0, 45, 0
2, 81348, Note_on_c, 0, 64, 75
2, 81348, Note_on_c, 0, 45, 73
2, 81526, Note_off_c, 0, 64, 0
2, 81526, Note_on_c, 0, 57, 71
2, 81537, Note_off_c, 0, 45, 0
2, 81693, Note_on_c, 0, 64, 86
2, 81871, Note_on_c, 0, 57, 86
2, 81872, Note_off_c, 0, 57, 0
2, 81894, Note_off_c, 0, 64, 0
2, 82040, Note_on_c, 0, 64, 58
2, 82040, Note_on_c, 0, 45, 100
2, 82051, Note_off_c, 0, 57, 0
2, 82185, Note_off_c, 0, 64, 0
2, 82218, Note_on_c, 0, 57, 69
2, 82229, Note_off_c, 0, 45, 0
2, 82229, Note_on_c, 0, 45, 98
2, 82352, Note_off_c, 0, 57, 0
2, 82385, Note_off_c, 0, 45, 0
2, 82385, Note_on_c, 0, 64, 68
2, 82385, Note_on_c, 0, 45, 62
2, 82564, Note_on_c, 0, 57, 88
2, 82574, Note_off_c, 0, 64, 0
2, 82731, Note_off_c, 0, 45, 0
2, 82731, Note_on_c, 0, 64, 59
2, 82731, Note_on_c, 0, 45, 98
2, 82742, Note_off_c, 0, 57, 0
2, 82876, Note_off_c, 0, 64, 0
2, 82909, Note_on_c, 0, 57, 67
2, 82920, Note_off_c, 0, 45, 0
2, 82920, Note_on_c, 0, 45, 94
2, 83054, Note_off_c, 0, 57, 0
2, 83087, Note_off_c, 0, 45, 0
2, 83088, Note_on_c, 0, 64, 74
2, 83088, Note_on_c, 0, 45, 81
2, 83244, Note_off_c, 0, 64, 0
2, 83255, Note_off_c, 0, 45, 0
2, 83255, Note_on_c, 0, 45, 98
2, 83433, Note_off_c, 0, 45, 0
2, 83433, Note_on_c, 0, 69, 77
2, 83433, Note_on_c, 0, 45, 94
2, 83589, Note_off_c, 0, 69, 0
2, 83790, Note_off_c, 0, 45, 0
2, 83790, Note_on_c, 0, 45, 101
2, 84125, Note_on_c, 0, 64, 72
2, 84125, Note_on_c, 0, 45, 75
2, 84126, Note_off_c, 0, 45, 0
2, 84293, Note_on_c, 0, 57, 70
2, 84303, Note_off_c, 0, 64, 0
2, 84314, Note_off_c, 0, 45, 0
2, 84471, Note_on_c, 0, 64, 87
2, 84638, Note_on_c, 0, 57, 90
2, 84639, Note_off_c, 0, 57, 0
2, 84660, Note_off_c, 0, 64, 0
2, 84816, Note_off_c, 0, 57, 0
2, 84816, Note_on_c, 0, 64, 61
2, 84816, Note_on_c, 0, 45, 99
2, 84961, Note_off_c, 0, 64, 0
2, 84984, Note_on_c, 0, 57, 69
2, 84994, Note_off_c, 0, 45, 0
2, 84995, Note_on_c, 0, 45, 96
2, 85140, Note_off_c, 0, 57, 0
2, 85173, Note_off_c, 0, 45, 0
2, 85173, Note_on_c, 0, 64, 72
2, 85173, Note_on_c, 0, 45, 63
2, 85340, Note_on_c, 0, 57, 87
2, 85351, Note_off_c, 0, 64, 0
2, 85519, Note_off_c, 0, 45, 0
2, 85519, Note_on_c, 0, 64, 60
2, 85519, Note_on_c, 0, 45, 101
2, 85529, Note_off_c, 0, 57, 0
2, 85664, Note_off_c, 0, 64, 0
2, 85686, Note_on_c, 0, 57, 68
2, 85697, Note_off_c, 0, 45, 0
2, 85697, Note_on_c, 0, 45, 95
2, 85821, Note_off_c, 0, 57, 0
2, 85854, Note_off_c, 0, 45, 0
2, 85854, Note_on_c, 0, 64, 72
2, 85854, Note_on_c, 0, 45, 83
2, 86021, Note_off_c, 0, 64, 0
2, 86032, Note_off_c, 0, 45, 0
2, 86032, Note_on_c, 0, 45, 100
2, 86199, Note_off_c, 0, 45, 0
2, 86200, Note_on_c, 0, 69, 77
2, 86200, Note_on_c, 0, 45, 94
2, 86356, Note_off_c, 0, 69, 0
2, 86556, Note_on_c, 0, 64, 62
2, 86601, Note_off_c, 0, 45, 0
2, 86601, Note_on_c, 0, 45, 99
2, 86701, Note_off_c, 0, 64, 0
2, 86735, Note_off_c, 0, 45, 0
2, 86735, Note_on_c, 0, 57, 70
2, 86735, Note_on_c, 0, 45, 95
2, 86869, Note_off_c, 0, 57, 0
2, 86902, Note_off_c, 0, 45, 0
2, 86902, Note_on_c, 0, 64, 70
2, 86902, Note_on_c, 0, 45, 76
2, 87080, Note_off_c, 0, 64, 0
2, 87080, Note_on_c, 0, 57, 73
2, 87103, Note_off_c, 0, 45, 0
2, 87247, Note_on_c, 0, 64, 87
2, 87426, Note_off_c, 0, 57, 0
2, 87426, Note_on_c, 0, 57, 89
2, 87448, Note_off_c, 0, 64, 0
2, 87593, Note_on_c, 0, 45, 99
2, 87604, Note_off_c, 0, 57, 0
2, 87604, Note_on_c, 0, 64, 59
2, 87728, Note_off_c, 0, 64, 0
2, 87761, Note_on_c, 0, 57, 68
2, 87772, Note_on_c, 0, 45, 95
2, 87773, Note_off_c, 0, 45, 0
2, 87906, Note_off_c, 0, 57, 0
2, 87939, Note_off_c, 0, 45, 0
2, 87940, Note_on_c, 0, 64, 69
2, 87940, Note_on_c, 0, 45, 62
2, 88107, Note_on_c, 0, 57, 89
2, 88118, Note_off_c, 0, 64, 0
2, 88285, Note_on_c, 0, 45, 100
2, 88286, Note_off_c, 0, 45, 0
2, 88296, Note_off_c, 0, 57, 0
2, 88296, Note_on_c, 0, 64, 59
2, 88430, Note_off_c, 0, 64, 0
2, 88463, Note_on_c, 0, 57, 70
2, 88474, Note_off_c, 0, 45, 0
2, 88475, Note_on_c, 0, 45, 97
2, 88608, Note_off_c, 0, 57, 0
2, 88642, Note_off_c, 0, 45, 0
2, 88642, Note_on_c, 0, 64, 71
2, 88642, Note_on_c, 0, 45, 85
2, 88798, Note_off_c, 0, 64, 0
2, 88809, Note_off_c, 0, 45, 0
2, 88809, Note_on_c, 0, 45, 100
2, 88987, Note_off_c, 0, 45, 0
2, 88987, Note_on_c, 0, 69, 75
2, 88987, Note_on_c, 0, 45, 93
2, 89143, Note_off_c, 0, 69, 0
2, 89333, Note_off_c, 0, 45, 0
2, 89333, Note_on_c, 0, 45, 100
2, 89668, Note_on_c, 0, 64, 77
2, 89668, Note_on_c, 0, 45, 75
2, 89669, Note_off_c, 0, 45, 0
2, 89847, Note_on_c, 0, 57, 71
2, 89857, Note_off_c, 0, 64, 0
2, 89869, Note_off_c, 0, 45, 0
2, 90025, Note_on_c, 0, 64, 84
2, 90192, Note_on_c, 0, 57, 88
2, 90193, Note_off_c, 0, 57, 0
2, 90226, Note_off_c, 0, 64, 0
2, 90371, Note_on_c, 0, 64, 60
2, 90371, Note_on_c, 0, 45, 101
2, 90381, Note_off_c, 0, 57, 0
2, 90516, Note_off_c, 0, 64, 0
2, 90538, Note_on_c, 0, 57, 66
2, 90549, Note_off_c, 0, 45, 0
2, 90549, Note_on_c, 0, 45, 99
2, 90683, Note_off_c, 0, 57, 0
2, 90716, Note_off_c, 0, 45, 0
2, 90716, Note_on_c, 0, 64, 68
2, 90716, Note_on_c, 0, 45, 60
2, 90894, Note_on_c, 0, 57, 88
2, 90905, Note_off_c, 0, 64, 0
2, 91062, Note_off_c, 0, 45, 0
2, 91062, Note_on_c, 0, 64, 59
2, 91062, Note_on_c, 0, 45, 99
2, 91072, Note_off_c, 0, 57, 0
2, 91207, Note_off_c, 0, 64, 0
2, 91240, Note_off_c, 0, 45, 0
2, 91240, Note_on_c, 0, 57, 83
2, 91240, Note_on_c, 0, 45, 90
2, 91429, Note_off_c, 0, 57, 0
2, 91474, Note_off_c, 0, 45, 0
2, 91474, Note_on_c, 0, 45, 97
2, 91876, Note_off_c, 0, 45, 0
2, 91876, Note_on_c, 0, 57, 81
2, 91876, Note_on_c, 0, 45, 92
2, 92099, Note_off_c, 0, 57, 0
2, 92099, Note_on_c, 0, 57, 55
2, 92110, Note_off_c, 0, 45, 0
2, 92110, Note_on_c, 0, 45, 93
2, 92445, Note_off_c, 0, 57, 0
2, 92445, Note_on_c, 0, 57, 84
2, 92802, Note_off_c, 0, 57, 0
2, 92802, Note_on_c, 0, 57, 76
2, 93269, Note_off_c, 0, 45, 0
2, 93270, Note_off_c, 0, 57, 0
2, 93270, Note_on_c, 0, 57, 59
2, 93270, Note_on_c, 0, 45, 93
2, 93494, Note_off_c, 0, 57, 0
2, 93494, Note_off_c, 0, 45, 0
2, 93494, Note_on_c, 0, 57, 80
2, 93494, Note_on_c, 0, 45, 88
2, 93839, Note_on_c, 0, 57, 53
2, 93839, Note_on_c, 0, 45, 101
2, 93840, Note_off_c, 0, 57, 0
2, 93840, Note_off_c, 0, 45, 0
2, 94062, Note_off_c, 0, 45, 0
2, 94062, Note_on_c, 0, 45, 93
2, 94096, Note_on_c, 0, 81, 36
2, 94185, Note_off_c, 0, 57, 0
2, 94185, Note_on_c, 0, 57, 87
2, 94196, Note_off_c, 0, 45, 0
2, 94196, Note_on_c, 0, 45, 94
2, 94230, Note_off_c, 0, 81, 0
2, 94541, Note_on_c, 0, 45, 68
2, 94542, Note_off_c, 0, 45, 0
2, 94664, Note_off_c, 0, 57, 0
2, 94664, Note_on_c, 0, 57, 83
2, 94887, Note_off_c, 0, 57, 0
2, 94887, Note_on_c, 0, 57, 51
2, 94898, Note_off_c, 0, 45, 0
2, 94898, Note_on_c, 0, 45, 96
2, 95232, Note_on_c, 0, 57, 76
2, 95233, Note_off_c, 0, 57, 0
2, 95456, Note_off_c, 0, 57, 0
2, 95457, Note_off_c, 0, 45, 0
2, 95457, Note_on_c, 0, 57, 86
2, 95457, Note_on_c, 0, 45, 73
2, 95691, Note_off_c, 0, 57, 0
2, 95691, Note_on_c, 0, 57, 83
2, 95925, Note_off_c, 0, 45, 0
2, 95925, Note_off_c, 0, 57, 0
2, 95925, Note_on_c, 0, 57, 59
2, 95925, Note_on_c, 0, 45, 94
2, 96270, Note_on_c, 0, 57, 75
2, 96271, Note_off_c, 0, 57, 0
2, 96504, Note_off_c, 0, 57, 0
2, 96504, Note_on_c, 0, 57, 66
2, 96515, Note_on_c, 0, 45, 85
2, 96516, Note_off_c, 0, 45, 0
2, 96738, Note_off_c, 0, 57, 0
2, 96738, Note_off_c, 0, 45, 0
2, 96738, Note_on_c, 0, 57, 65
2, 96738, Note_on_c, 0, 45, 93
2, 96972, Note_off_c, 0, 57, 0
2, 96972, Note_on_c, 0, 57, 83
2, 97239, Note_off_c, 0, 57, 0
2, 97308, Note_on_c, 0, 64, 65
2, 97776, Note_off_c, 0, 45, 0
2, 97776, Note_off_c, 0, 64, 0
2, 97776, Note_on_c, 0, 64, 55
2, 97776, Note_on_c, 0, 45, 96
2, 98010, Note_off_c, 0, 64, 0
2, 98010, Note_off_c, 0, 45, 0
2, 98010, Note_on_c, 0, 64, 63
2, 98010, Note_on_c, 0, 45, 87
2, 98356, Note_off_c, 0, 64, 0
2, 98356, Note_on_c, 0, 64, 77
2, 98590, Note_off_c, 0, 64, 0
2, 98590, Note_on_c, 0, 64, 67
2, 98701, Note_off_c, 0, 45, 0
2, 98701, Note_on_c, 0, 45, 98
2, 98824, Note_off_c, 0, 64, 0
2, 98824, Note_on_c, 0, 64, 60
2, 98946, Note_off_c, 0, 45, 0
2, 98946, Note_on_c, 0, 45, 89
2, 99047, Note_off_c, 0, 64, 0
2, 99047, Note_on_c, 0, 64, 73
2, 99393, Note_off_c, 0, 45, 0
2, 99393, Note_on_c, 0, 64, 59
2, 99393, Note_on_c, 0, 45, 100
2, 99394, Note_off_c, 0, 64, 0
2, 99627, Note_off_c, 0, 64, 0
2, 99628, Note_on_c, 0, 64, 66
2, 99750, Note_off_c, 0, 45, 0
2, 99750, Note_on_c, 0, 45, 86
2, 99850, Note_on_c, 0, 64, 72
2, 99851, Note_off_c, 0, 64, 0
2, 100084, Note_off_c, 0, 45, 0
2, 100084, Note_off_c, 0, 64, 0
2, 100085, Note_on_c, 0, 64, 63
2, 100085, Note_on_c, 0, 45, 99
2, 100252, Note_off_c, 0, 64, 0
2, 100430, Note_on_c, 0, 69, 69
2, 100441, Note_on_c, 0, 45, 96
2, 100442, Note_off_c, 0, 45, 0
2, 100664, Note_off_c, 0, 69, 0
2, 100664, Note_off_c, 0, 45, 0
2, 100664, Note_on_c, 0, 69, 80
2, 100664, Note_on_c, 0, 45, 87
2, 100909, Note_off_c, 0, 69, 0
2, 100909, Note_on_c, 0, 69, 89
2, 101133, Note_off_c, 0, 69, 0
2, 101133, Note_on_c, 0, 69, 84
2, 101590, Note_off_c, 0, 45, 0
2, 101590, Note_off_c, 0, 69, 0
2, 101590, Note_on_c, 0, 69, 73
2, 101590, Note_on_c, 0, 45, 91
2, 101824, Note_off_c, 0, 69, 0
2, 101824, Note_off_c, 0, 45, 0
2, 101824, Note_on_c, 0, 69, 75
2, 101824, Note_on_c, 0, 45, 95
2, 102047, Note_off_c, 0, 69, 0
2, 102047, Note_on_c, 0, 69, 75
2, 102058, Note_off_c, 0, 45, 0
2, 102059, Note_on_c, 0, 45, 90
2, 102281, Note_off_c, 0, 69, 0
2, 102281, Note_on_c, 0, 69, 78
2, 102293, Note_off_c, 0, 45, 0
2, 102293, Note_on_c, 0, 45, 91
2, 102526, Note_off_c, 0, 69, 0
2, 102527, Note_on_c, 0, 69, 68
2, 102571, Note_on_c, 0, 45, 101
2, 102572, Note_off_c, 0, 45, 0
2, 102739, Note_off_c, 0, 69, 0
2, 102872, Note_off_c, 0, 45, 0
2, 102872, Note_on_c, 0, 76, 84
2, 102872, Note_on_c, 0, 45, 73
2, 103029, Note_off_c, 0, 45, 0
2, 103029, Note_on_c, 0, 79, 96
2, 103096, Note_off_c, 0, 76, 0
2, 103197, Note_on_c, 0, 41, 91
2, 103241, Note_off_c, 0, 79, 0
2, 103576, Note_off_c, 0, 41, 0
2, 103576, Note_on_c, 0, 41, 88
2, 103899, Note_off_c, 0, 41, 0
2, 103899, Note_on_c, 0, 40, 84
2, 104244, Note_on_c, 0, 79, 78
2, 104278, Note_off_c, 0, 40, 0
2, 104278, Note_on_c, 0, 40, 81
2, 104434, Note_on_c, 0, 81, 54
2, 104467, Note_off_c, 0, 79, 0
2, 104568, Note_off_c, 0, 81, 0
2, 104657, Note_on_c, 0, 45, 94
2, 104813, Note_off_c, 0, 40, 0
2, 104948, Note_off_c, 0, 45, 0
2, 104948, Note_on_c, 0, 45, 98
2, 105115, Note_off_c, 0, 45, 0
2, 105115, Note_on_c, 0, 79, 84
2, 105115, Note_on_c, 0, 45, 71
2, 105293, Note_on_c, 0, 48, 97
2, 105304, Note_off_c, 0, 79, 0
2, 105505, Note_off_c, 0, 45, 0
2, 105639, Note_on_c, 0, 79, 45
2, 105639, Note_on_c, 0, 76, 71
2, 105650, Note_off_c, 0, 48, 0
2, 105650, Note_on_c, 0, 60, 43
2, 105650, Note_on_c, 0, 48, 79
2, 105806, Note_off_c, 0, 79, 0
2, 105806, Note_on_c, 0, 79, 78
2, 105851, Note_off_c, 0, 76, 0
2, 105984, Note_off_c, 0, 60, 0
2, 105995, Note_on_c, 0, 57, 45
2, 105995, Note_on_c, 0, 38, 92
2, 106018, Note_off_c, 0, 79, 0
2, 106140, Note_off_c, 0, 48, 0
2, 106184, Note_off_c, 0, 57, 0
2, 106341, Note_off_c, 0, 38, 0
2, 106341, Note_on_c, 0, 84, 59
2, 106341, Note_on_c, 0, 38, 81
2, 106486, Note_off_c, 0, 84, 0
2, 106675, Note_on_c, 0, 40, 90
2, 106787, Note_off_c, 0, 38, 0
2, 107011, Note_on_c, 0, 79, 77
2, 107044, Note_off_c, 0, 40, 0
2, 107044, Note_on_c, 0, 40, 83
2, 107200, Note_on_c, 0, 81, 50
2, 107234, Note_off_c, 0, 79, 0
2, 107334, Note_off_c, 0, 81, 0
2, 107434, Note_on_c, 0, 45, 93
2, 107546, Note_on_c, 0, 83, 65
2, 107557, Note_off_c, 0, 40, 0
2, 107680, Note_off_c, 0, 83, 0
2, 107713, Note_on_c, 0, 84, 71
2, 107724, Note_off_c, 0, 45, 0
2, 107724, Note_on_c, 0, 45, 84
2, 107869, Note_off_c, 0, 84, 0
2, 108070, Note_on_c, 0, 48, 92
2, 108226, Note_off_c, 0, 45, 0
2, 108415, Note_on_c, 0, 48, 88
2, 108416, Note_off_c, 0, 48, 0
2, 108751, Note_on_c, 0, 41, 91
2, 108762, Note_off_c, 0, 48, 0
2, 109141, Note_off_c, 0, 41, 0
2, 109141, Note_on_c, 0, 41, 89
2, 109453, Note_off_c, 0, 41, 0
2, 109453, Note_on_c, 0, 40, 83
2, 109798, Note_on_c, 0, 79, 80
2, 109821, Note_off_c, 0, 40, 0
2, 109821, Note_on_c, 0, 40, 81
2, 109977, Note_on_c, 0, 81, 49
2, 110010, Note_off_c, 0, 79, 0
2, 110111, Note_off_c, 0, 81, 0
2, 110144, Note_on_c, 0, 45, 93
2, 110367, Note_off_c, 0, 40, 0
2, 110512, Note_off_c, 0, 45, 0
2, 110512, Note_on_c, 0, 45, 99
2, 110669, Note_off_c, 0, 45, 0
2, 110669, Note_on_c, 0, 79, 86
2, 110669, Note_on_c, 0, 45, 77
2, 110847, Note_on_c, 0, 48, 95
2, 110858, Note_off_c, 0, 79, 0
2, 111015, Note_off_c, 0, 45, 0
2, 111182, Note_on_c, 0, 76, 67
2, 111193, Note_off_c, 0, 48, 0
2, 111193, Note_on_c, 0, 48, 79
2, 111360, Note_on_c, 0, 79, 74
2, 111383, Note_off_c, 0, 76, 0
2, 111394, Note_on_c, 0, 60, 54
2, 111527, Note_on_c, 0, 41, 90
2, 111528, Note_off_c, 0, 60, 0
2, 111538, Note_on_c, 0, 53, 36
2, 111549, Note_off_c, 0, 79, 0
2, 111672, Note_off_c, 0, 53, 0
2, 111717, Note_off_c, 0, 48, 0
2, 111917, Note_off_c, 0, 41, 0
2, 111917, Note_on_c, 0, 41, 87
2, 112240, Note_off_c, 0, 41, 0
2, 112241, Note_on_c, 0, 40, 81
2, 112497, Note_on_c, 0, 79, 77
2, 112519, Note_on_c, 0, 40, 74
2, 112520, Note_off_c, 0, 40, 0
2, 112677, Note_off_c, 0, 79, 0
2, 112755, Note_on_c, 0, 81, 55
2, 112755, Note_on_c, 0, 45, 93
2, 112855, Note_off_c, 0, 40, 0
2, 112889, Note_off_c, 0, 81, 0
2, 113100, Note_on_c, 0, 81, 67
2, 113256, Note_off_c, 0, 81, 0
2, 113278, Note_on_c, 0, 45, 98
2, 113279, Note_off_c, 0, 45, 0
2, 113446, Note_on_c, 0, 79, 86
2, 113624, Note_off_c, 0, 45, 0
2, 113624, Note_on_c, 0, 45, 100
2, 113647, Note_off_c, 0, 79, 0
2, 113981, Note_off_c, 0, 45, 0
2, 113981, Note_on_c, 0, 45, 101
2, 114137, Note_on_c, 0, 79, 85
2, 114148, Note_off_c, 0, 45, 0
2, 114148, Note_on_c, 0, 45, 80
2, 114304, Note_on_c, 0, 41, 90
2, 114315, Note_on_c, 0, 81, 49
2, 114338, Note_off_c, 0, 79, 0
2, 114439, Note_off_c, 0, 81, 0
2, 114484, Note_off_c, 0, 45, 0
2, 114673, Note_off_c, 0, 41, 0
2, 114673, Note_on_c, 0, 41, 87
2, 115018, Note_on_c, 0, 40, 85
2, 115019, Note_off_c, 0, 41, 0
2, 115364, Note_off_c, 0, 40, 0
2, 115364, Note_on_c, 0, 40, 82
2, 115531, Note_on_c, 0, 81, 55
2, 115676, Note_off_c, 0, 81, 0
2, 115698, Note_on_c, 0, 45, 92
2, 115877, Note_on_c, 0, 81, 61
2, 115888, Note_off_c, 0, 40, 0
2, 116022, Note_off_c, 0, 81, 0
2, 116044, Note_on_c, 0, 84, 68
2, 116055, Note_off_c, 0, 45, 0
2, 116055, Note_on_c, 0, 45, 96
2, 116211, Note_off_c, 0, 84, 0
2, 116222, Note_on_c, 0, 81, 62
2, 116357, Note_off_c, 0, 81, 0
2, 116390, Note_on_c, 0, 45, 96
2, 116391, Note_off_c, 0, 45, 0
2, 116747, Note_off_c, 0, 45, 0
2, 116747, Note_on_c, 0, 45, 97
2, 117093, Note_off_c, 0, 45, 0
2, 117093, Note_on_c, 0, 45, 73
2, 117093, Note_on_c, 0, 38, 86
2, 117338, Note_off_c, 0, 45, 0
2, 117494, Note_off_c, 0, 38, 0
2, 117494, Note_on_c, 0, 38, 81
2, 117784, Note_on_c, 0, 40, 85
2, 117840, Note_off_c, 0, 38, 0
2, 118040, Note_on_c, 0, 79, 78
2, 118151, Note_on_c, 0, 40, 78
2, 118152, Note_off_c, 0, 40, 0
2, 118242, Note_off_c, 0, 79, 0
2, 118298, Note_on_c, 0, 76, 70
2, 118476, Note_on_c, 0, 45, 90
2, 118521, Note_off_c, 0, 76, 0
2, 118643, Note_on_c, 0, 79, 81
2, 118665, Note_off_c, 0, 40, 0
2, 118833, Note_off_c, 0, 45, 0
2, 118833, Note_on_c, 0, 74, 85
2, 118833, Note_on_c, 0, 44, 86
2, 118877, Note_off_c, 0, 79, 0
2, 119000, Note_on_c, 0, 76, 69
2, 119011, Note_off_c, 0, 74, 0
2, 119178, Note_on_c, 0, 72, 69
2, 119189, Note_off_c, 0, 76, 0
2, 119189, Note_on_c, 0, 43, 82
2, 119190, Note_off_c, 0, 44, 0
2, 119334, Note_off_c, 0, 72, 0
2, 119345, Note_on_c, 0, 74, 81
2, 119512, Note_on_c, 0, 76, 68
2, 119524, Note_on_c, 0, 48, 88
2, 119534, Note_off_c, 0, 74, 0
2, 119535, Note_on_c, 0, 79, 42
2, 119679, Note_off_c, 0, 43, 0
2, 119680, Note_off_c, 0, 79, 0
2, 119691, Note_on_c, 0, 79, 76
2, 119713, Note_on_c, 0, 60, 54
2, 119724, Note_off_c, 0, 76, 0
2, 119869, Note_off_c, 0, 60, 0
2, 119869, Note_on_c, 0, 41, 91
2, 119880, Note_off_c, 0, 79, 0
2, 119880, Note_on_c, 0, 81, 49
2, 119880, Note_on_c, 0, 48, 65
2, 119881, Note_off_c, 0, 48, 0
2, 120025, Note_off_c, 0, 81, 0
2, 120047, Note_off_c, 0, 48, 0
2, 120238, Note_off_c, 0, 41, 0
2, 120238, Note_on_c, 0, 41, 89
2, 120572, Note_off_c, 0, 41, 0
2, 120572, Note_on_c, 0, 40, 81
2, 120896, Note_on_c, 0, 44, 89
2, 121074, Note_off_c, 0, 40, 0
2, 121264, Note_off_c, 0, 44, 0
2, 121264, Note_on_c, 0, 45, 92
2, 121431, Note_on_c, 0, 81, 61
2, 121576, Note_off_c, 0, 81, 0
2, 121609, Note_on_c, 0, 44, 86
2, 121610, Note_off_c, 0, 45, 0
2, 121966, Note_off_c, 0, 44, 0
2, 121966, Note_on_c, 0, 43, 86
2, 122301, Note_on_c, 0, 48, 83
2, 122458, Note_off_c, 0, 43, 0
2, 122647, Note_on_c, 0, 38, 87
2, 122702, Note_off_c, 0, 48, 0
2, 123015, Note_off_c, 0, 38, 0
2, 123015, Note_on_c, 0, 38, 81
2, 123338, Note_on_c, 0, 59, 44
2, 123338, Note_on_c, 0, 40, 80
2, 123383, Note_off_c, 0, 38, 0
2, 123594, Note_on_c, 0, 79, 77
2, 123616, Note_on_c, 0, 40, 73
2, 123617, Note_off_c, 0, 40, 0
2, 123672, Note_off_c, 0, 59, 0
2, 123817, Note_off_c, 0, 79, 0
2, 123862, Note_on_c, 0, 45, 92
2, 123962, Note_off_c, 0, 40, 0
2, 124197, Note_on_c, 0, 81, 61
2, 124387, Note_off_c, 0, 45, 0
2, 124387, Note_on_c, 0, 45, 98
2, 124498, Note_off_c, 0, 81, 0
2, 124554, Note_off_c, 0, 45, 0
2, 124554, Note_on_c, 0, 79, 82
2, 124554, Note_on_c, 0, 45, 98
2, 124732, Note_on_c, 0, 81, 47
2, 124743, Note_off_c, 0, 45, 0
2, 124743, Note_on_c, 0, 45, 97
2, 124766, Note_off_c, 0, 79, 0
2, 124866, Note_off_c, 0, 81, 0
2, 125122, Note_off_c, 0, 45, 0
2, 125122, Note_on_c, 0, 45, 99
2, 125523, Note_off_c, 0, 45, 0
2, 125524, Note_on_c, 0, 45, 99
2, 125881, Note_on_c, 0, 69, 89
2, 125881, Note_on_c, 0, 45, 75
2, 125882, Note_off_c, 0, 45, 0
2, 126082, Note_on_c, 0, 64, 88
2, 126093, Note_off_c, 0, 69, 0
2, 126093, Note_off_c, 0, 45, 0
2, 126283, Note_on_c, 0, 69, 91
2, 126294, Note_off_c, 0, 64, 0
2, 126472, Note_on_c, 0, 64, 90
2, 126484, Note_off_c, 0, 69, 0
2, 126662, Note_on_c, 0, 69, 91
2, 126673, Note_off_c, 0, 64, 0
2, 126851, Note_on_c, 0, 64, 88
2, 126863, Note_off_c, 0, 69, 0
2, 127052, Note_on_c, 0, 69, 90
2, 127063, Note_off_c, 0, 64, 0
2, 127241, Note_on_c, 0, 64, 89
2, 127253, Note_off_c, 0, 69, 0
2, 127431, Note_on_c, 0, 69, 89
2, 127442, Note_off_c, 0, 64, 0
2, 127631, Note_on_c, 0, 64, 88
2, 127643, Note_off_c, 0, 69, 0
2, 127811, Note_off_c, 0, 64, 0
2, 127811, Note_on_c, 0, 69, 74
2, 127811, Note_on_c, 0, 46, 77
2, 127967, Note_off_c, 0, 69, 0
2, 128000, Note_on_c, 0, 64, 78
2, 128179, Note_off_c, 0, 46, 0
2, 128189, Note_off_c, 0, 64, 0
2, 128201, Note_on_c, 0, 76, 70
2, 128201, Note_on_c, 0, 43, 94
2, 128335, Note_off_c, 0, 76, 0
2, 128580, Note_on_c, 0, 45, 99
2, 128591, Note_off_c, 0, 43, 0
2, 128959, Note_off_c, 0, 45, 0
2, 128959, Note_on_c, 0, 69, 85
2, 128959, Note_on_c, 0, 45, 68
2, 129160, Note_on_c, 0, 64, 88
2, 129182, Note_off_c, 0, 69, 0
2, 129215, Note_off_c, 0, 45, 0
2, 129360, Note_on_c, 0, 69, 95
2, 129383, Note_off_c, 0, 64, 0
2, 129550, Note_on_c, 0, 64, 89
2, 129561, Note_off_c, 0, 69, 0
2, 129729, Note_on_c, 0, 69, 94
2, 129752, Note_off_c, 0, 64, 0
2, 129919, Note_on_c, 0, 64, 89
2, 129941, Note_off_c, 0, 69, 0
2, 130119, Note_on_c, 0, 69, 94
2, 130142, Note_off_c, 0, 64, 0
2, 130309, Note_on_c, 0, 64, 89
2, 130320, Note_off_c, 0, 69, 0
2, 130498, Note_on_c, 0, 69, 91
2, 130521, Note_off_c, 0, 64, 0
2, 130699, Note_on_c, 0, 64, 88
2, 130710, Note_off_c, 0, 69, 0
2, 130888, Note_off_c, 0, 64, 0
2, 130888, Note_on_c, 0, 69, 75
2, 130899, Note_on_c, 0, 46, 77
2, 131044, Note_off_c, 0, 69, 0
2, 131078, Note_on_c, 0, 64, 77
2, 131267, Note_off_c, 0, 46, 0
2, 131267, Note_off_c, 0, 64, 0
2, 131278, Note_on_c, 0, 76, 74
2, 131290, Note_on_c, 0, 50, 78
2, 131445, Note_off_c, 0, 76, 0
2, 131614, Note_off_c, 0, 50, 0
2, 131625, Note_on_c, 0, 69, 65
2, 131703, Note_on_c, 0, 45, 99
2, 131759, Note_off_c, 0, 69, 0
2, 132026, Note_off_c, 0, 45, 0
2, 132026, Note_on_c, 0, 69, 88
2, 132026, Note_on_c, 0, 45, 72
2, 132227, Note_off_c, 0, 69, 0
2, 132227, Note_off_c, 0, 45, 0
2, 132227, Note_on_c, 0, 64, 66
2, 132416, Note_on_c, 0, 76, 88
2, 132628, Note_off_c, 0, 64, 0
2, 132750, Note_off_c, 0, 76, 0
2, 132818, Note_on_c, 0, 69, 95
2, 132996, Note_on_c, 0, 64, 90
2, 133019, Note_off_c, 0, 69, 0
2, 133197, Note_on_c, 0, 69, 93
2, 133219, Note_off_c, 0, 64, 0
2, 133386, Note_on_c, 0, 64, 89
2, 133409, Note_off_c, 0, 69, 0
2, 133566, Note_on_c, 0, 69, 94
2, 133588, Note_off_c, 0, 64, 0
2, 133755, Note_on_c, 0, 64, 89
2, 133778, Note_off_c, 0, 69, 0
2, 133956, Note_off_c, 0, 64, 0
2, 133956, Note_on_c, 0, 69, 72
2, 133967, Note_on_c, 0, 46, 78
2, 134123, Note_off_c, 0, 69, 0
2, 134145, Note_on_c, 0, 64, 79
2, 134324, Note_off_c, 0, 46, 0
2, 134334, Note_off_c, 0, 64, 0
2, 134346, Note_on_c, 0, 76, 71
2, 134346, Note_on_c, 0, 43, 92
2, 134480, Note_off_c, 0, 76, 0
2, 134725, Note_on_c, 0, 45, 97
2, 134736, Note_off_c, 0, 43, 0
2, 135104, Note_off_c, 0, 45, 0
2, 135104, Note_on_c, 0, 45, 73
2, 135115, Note_on_c, 0, 69, 89
2, 135293, Note_off_c, 0, 45, 0
2, 135304, Note_off_c, 0, 69, 0
2, 135304, Note_on_c, 0, 64, 87
2, 135495, Note_on_c, 0, 69, 93
2, 135517, Note_off_c, 0, 64, 0
2, 135685, Note_on_c, 0, 64, 90
2, 135696, Note_off_c, 0, 69, 0
2, 135874, Note_on_c, 0, 69, 92
2, 135897, Note_off_c, 0, 64, 0
2, 136064, Note_on_c, 0, 64, 88
2, 136086, Note_off_c, 0, 69, 0
2, 136264, Note_on_c, 0, 69, 93
2, 136287, Note_off_c, 0, 64, 0
2, 136454, Note_on_c, 0, 64, 91
2, 136465, Note_off_c, 0, 69, 0
2, 136643, Note_on_c, 0, 69, 91
2, 136666, Note_off_c, 0, 64, 0
2, 136833, Note_on_c, 0, 64, 89
2, 136855, Note_off_c, 0, 69, 0
2, 137044, Note_on_c, 0, 69, 72
2, 137044, Note_on_c, 0, 46, 79
2, 137045, Note_off_c, 0, 64, 0
2, 137200, Note_off_c, 0, 69, 0
2, 137223, Note_on_c, 0, 64, 76
2, 137402, Note_off_c, 0, 46, 0
2, 137403, Note_off_c, 0, 64, 0
2, 137413, Note_on_c, 0, 76, 76
2, 137425, Note_on_c, 0, 50, 79
2, 137569, Note_off_c, 0, 76, 0
2, 137771, Note_off_c, 0, 50, 0
2, 137792, Note_on_c, 0, 45, 100
2, 138182, Note_off_c, 0, 45, 0
2, 138182, Note_on_c, 0, 76, 87
2, 138182, Note_on_c, 0, 45, 67
2, 138449, Note_off_c, 0, 76, 0
2, 138483, Note_off_c, 0, 45, 0
2, 138550, Note_on_c, 0, 77, 102
2, 138695, Note_off_c, 0, 77, 0
2, 138695, Note_on_c, 0, 76, 71
2, 138829, Note_on_c, 0, 74, 88
2, 138951, Note_off_c, 0, 76, 0
2, 138952, Note_on_c, 0, 76, 88
2, 139030, Note_off_c, 0, 74, 0
2, 139443, Note_on_c, 0, 77, 93
2, 139444, Note_off_c, 0, 76, 0
2, 139588, Note_on_c, 0, 81, 88
2, 139710, Note_off_c, 0, 77, 0
2, 139711, Note_on_c, 0, 77, 93
2, 139744, Note_off_c, 0, 81, 0
2, 140045, Note_off_c, 0, 77, 0
2, 140101, Note_on_c, 0, 69, 73
2, 140101, Note_on_c, 0, 46, 87
2, 140234, Note_on_c, 0, 74, 62
2, 140234, Note_on_c, 0, 46, 80
2, 140235, Note_off_c, 0, 46, 0
2, 140279, Note_off_c, 0, 69, 0
2, 140357, Note_on_c, 0, 76, 61
2, 140457, Note_off_c, 0, 46, 0
2, 140490, Note_off_c, 0, 74, 0
2, 140491, Note_on_c, 0, 74, 73
2, 140491, Note_on_c, 0, 43, 91
2, 140613, Note_off_c, 0, 76, 0
2, 140613, Note_on_c, 0, 76, 51
2, 140647, Note_off_c, 0, 74, 0
2, 140859, Note_off_c, 0, 43, 0
2, 140869, Note_off_c, 0, 76, 0
2, 140870, Note_on_c, 0, 76, 61
2, 140881, Note_on_c, 0, 45, 91
2, 141128, Note_off_c, 0, 76, 0
2, 141562, Note_off_c, 0, 45, 0
2, 141640, Note_on_c, 0, 69, 87
2, 141774, Note_on_c, 0, 74, 91
2, 141863, Note_off_c, 0, 69, 0
2, 141874, Note_on_c, 0, 77, 100
2, 141986, Note_off_c, 0, 74, 0
2, 142019, Note_off_c, 0, 77, 0
2, 142019, Note_on_c, 0, 76, 84
2, 142532, Note_off_c, 0, 76, 0
2, 142532, Note_on_c, 0, 77, 89
2, 142665, Note_on_c, 0, 81, 85
2, 142788, Note_off_c, 0, 77, 0
2, 142788, Note_on_c, 0, 77, 85
2, 142821, Note_off_c, 0, 81, 0
2, 143168, Note_off_c, 0, 77, 0
2, 143168, Note_on_c, 0, 77, 75
2, 143179, Note_on_c, 0, 46, 87
2, 143269, Note_on_c, 0, 81, 60
2, 143335, Note_off_c, 0, 77, 0
2, 143425, Note_off_c, 0, 81, 0
2, 143425, Note_on_c, 0, 84, 82
2, 143525, Note_on_c, 0, 77, 84
2, 143558, Note_off_c, 0, 46, 0
2, 143558, Note_on_c, 0, 50, 67
2, 143559, Note_off_c, 0, 84, 0
2, 143670, Note_off_c, 0, 77, 0
2, 143681, Note_on_c, 0, 76, 58
2, 143815, Note_on_c, 0, 74, 91
2, 143848, Note_off_c, 0, 50, 0
2, 143937, Note_off_c, 0, 76, 0
2, 143937, Note_on_c, 0, 76, 61
2, 143948, Note_on_c, 0, 45, 91
2, 143982, Note_off_c, 0, 74, 0
2, 144193, Note_off_c, 0, 76, 0
2, 144639, Note_off_c, 0, 45, 0
2, 144717, Note_on_c, 0, 76, 89
2, 144851, Note_off_c, 0, 76, 0
2, 144862, Note_on_c, 0, 77, 91
2, 144953, Note_on_c, 0, 74, 91
2, 145042, Note_off_c, 0, 77, 0
2, 145087, Note_on_c, 0, 76, 92
2, 145165, Note_off_c, 0, 74, 0
2, 145410, Note_off_c, 0, 76, 0
2, 145477, Note_on_c, 0, 77, 68
2, 145610, Note_on_c, 0, 81, 87
2, 145722, Note_on_c, 0, 84, 89
2, 145755, Note_off_c, 0, 81, 0
2, 145856, Note_off_c, 0, 77, 0
2, 145856, Note_on_c, 0, 77, 92
2, 145900, Note_off_c, 0, 84, 0
2, 146202, Note_off_c, 0, 77, 0
2, 146246, Note_on_c, 0, 69, 74
2, 146368, Note_on_c, 0, 76, 79
2, 146368, Note_on_c, 0, 46, 82
2, 146424, Note_off_c, 0, 69, 0
2, 146491, Note_on_c, 0, 74, 87
2, 146524, Note_off_c, 0, 76, 0
2, 146613, Note_off_c, 0, 46, 0
2, 146625, Note_off_c, 0, 74, 0
2, 146636, Note_on_c, 0, 74, 74
2, 146636, Note_on_c, 0, 43, 89
2, 146758, Note_on_c, 0, 76, 51
2, 146792, Note_off_c, 0, 74, 0
2, 147004, Note_off_c, 0, 76, 0
2, 147005, Note_off_c, 0, 43, 0
2, 147005, Note_on_c, 0, 76, 60
2, 147016, Note_on_c, 0, 45, 91
2, 147272, Note_off_c, 0, 76, 0
2, 147707, Note_off_c, 0, 45, 0
2, 147785, Note_on_c, 0, 69, 83
2, 147908, Note_on_c, 0, 74, 89
2, 147997, Note_off_c, 0, 69, 0
2, 147997, Note_on_c, 0, 77, 89
2, 148120, Note_off_c, 0, 74, 0
2, 148153, Note_off_c, 0, 77, 0
2, 148164, Note_on_c, 0, 76, 87
2, 148487, Note_off_c, 0, 76, 0
2, 148532, Note_on_c, 0, 77, 78
2, 148565, Note_on_c, 0, 46, 84
2, 148666, Note_off_c, 0, 77, 0
2, 148677, Note_on_c, 0, 76, 75
2, 148800, Note_on_c, 0, 74, 83
2, 148812, Note_off_c, 0, 76, 0
2, 148923, Note_off_c, 0, 46, 0
2, 148923, Note_on_c, 0, 40, 85
2, 148978, Note_off_c, 0, 74, 0
2, 149191, Note_on_c, 0, 71, 70
2, 149313, Note_on_c, 0, 69, 61
2, 149313, Note_on_c, 0, 45, 91
2, 149324, Note_off_c, 0, 40, 0
2, 149325, Note_off_c, 0, 71, 0
2, 149703, Note_off_c, 0, 69, 0
2, 150049, Note_off_c, 0, 45, 0
2, 150093, Note_on_c, 0, 46, 81
2, 150216, Note_on_c, 0, 64, 72
2, 150339, Note_on_c, 0, 62, 79
2, 150383, Note_off_c, 0, 64, 0
2, 150439, Note_off_c, 0, 46, 0
2, 150506, Note_on_c, 0, 40, 82
2, 150551, Note_off_c, 0, 62, 0
2, 150595, Note_on_c, 0, 60, 77
2, 150719, Note_off_c, 0, 60, 0
2, 150719, Note_on_c, 0, 59, 64
2, 150841, Note_on_c, 0, 57, 53
2, 150852, Note_on_c, 0, 45, 92
2, 150875, Note_off_c, 0, 40, 0
2, 150931, Note_off_c, 0, 59, 0
2, 151175, Note_off_c, 0, 57, 0
2, 151243, Note_on_c, 0, 72, 92
2, 151420, Note_off_c, 0, 45, 0
2, 151421, Note_on_c, 0, 74, 98
2, 151444, Note_off_c, 0, 72, 0
2, 151610, Note_on_c, 0, 76, 75
2, 151610, Note_on_c, 0, 53, 88
2, 151633, Note_off_c, 0, 74, 0
2, 151844, Note_off_c, 0, 76, 0
2, 152145, Note_on_c, 0, 83, 75
2, 152323, Note_off_c, 0, 53, 0
2, 152324, Note_on_c, 0, 52, 88
2, 152346, Note_off_c, 0, 83, 0
2, 152513, Note_on_c, 0, 79, 87
2, 152759, Note_off_c, 0, 79, 0
2, 152871, Note_on_c, 0, 57, 96
2, 152882, Note_on_c, 0, 74, 89
2, 152916, Note_off_c, 0, 52, 0
2, 153149, Note_off_c, 0, 74, 0
2, 153250, Note_off_c, 0, 57, 0
2, 153250, Note_on_c, 0, 72, 91
2, 153250, Note_on_c, 0, 57, 78
2, 153428, Note_on_c, 0, 74, 95
2, 153451, Note_off_c, 0, 72, 0
2, 153607, Note_on_c, 0, 79, 80
2, 153618, Note_off_c, 0, 57, 0
2, 153618, Note_on_c, 0, 56, 80
2, 153651, Note_off_c, 0, 74, 0
2, 153796, Note_off_c, 0, 56, 0
2, 153796, Note_on_c, 0, 76, 81
2, 153796, Note_on_c, 0, 55, 87
2, 153819, Note_off_c, 0, 79, 0
2, 154008, Note_off_c, 0, 76, 0
2, 154164, Note_on_c, 0, 69, 84
2, 154164, Note_on_c, 0, 48, 84
2, 154220, Note_off_c, 0, 55, 0
2, 154331, Note_on_c, 0, 79, 48
2, 154342, Note_on_c, 0, 76, 73
2, 154365, Note_off_c, 0, 69, 0
2, 154476, Note_off_c, 0, 79, 0
2, 154522, Note_off_c, 0, 76, 0
2, 154522, Note_on_c, 0, 74, 78
2, 154522, Note_on_c, 0, 50, 81
2, 154656, Note_off_c, 0, 48, 0
2, 154734, Note_off_c, 0, 74, 0
2, 154878, Note_on_c, 0, 69, 73
2, 155057, Note_on_c, 0, 76, 85
2, 155079, Note_off_c, 0, 50, 0
2, 155079, Note_on_c, 0, 50, 71
2, 155112, Note_off_c, 0, 69, 0
2, 155246, Note_off_c, 0, 76, 0
2, 155246, Note_off_c, 0, 50, 0
2, 155246, Note_on_c, 0, 74, 87
2, 155246, Note_on_c, 0, 52, 95
2, 155480, Note_off_c, 0, 74, 0
2, 155603, Note_on_c, 0, 76, 88
2, 155614, Note_off_c, 0, 52, 0
2, 155614, Note_on_c, 0, 52, 65
2, 155759, Note_off_c, 0, 52, 0
2, 155792, Note_on_c, 0, 79, 98
2, 155859, Note_off_c, 0, 76, 0
2, 155982, Note_on_c, 0, 60, 49
2, 155982, Note_on_c, 0, 48, 92
2, 156026, Note_off_c, 0, 79, 0
2, 156160, Note_on_c, 0, 83, 73
2, 156283, Note_off_c, 0, 60, 0
2, 156338, Note_off_c, 0, 83, 0
2, 156339, Note_on_c, 0, 79, 76
2, 156361, Note_off_c, 0, 48, 0
2, 156361, Note_on_c, 0, 47, 81
2, 156518, Note_on_c, 0, 74, 94
2, 156574, Note_off_c, 0, 79, 0
2, 156696, Note_on_c, 0, 76, 80
2, 156708, Note_off_c, 0, 47, 0
2, 156708, Note_on_c, 0, 46, 92
2, 156730, Note_off_c, 0, 74, 0
2, 156963, Note_off_c, 0, 76, 0
2, 157064, Note_on_c, 0, 71, 83
2, 157232, Note_off_c, 0, 46, 0
2, 157243, Note_on_c, 0, 73, 91
2, 157298, Note_off_c, 0, 71, 0
2, 157432, Note_on_c, 0, 75, 78
2, 157432, Note_on_c, 0, 52, 94
2, 157488, Note_off_c, 0, 73, 0
2, 157677, Note_off_c, 0, 75, 0
2, 157800, Note_on_c, 0, 83, 65
2, 157800, Note_on_c, 0, 64, 52
2, 157811, Note_off_c, 0, 52, 0
2, 157811, Note_on_c, 0, 52, 87
2, 157945, Note_off_c, 0, 64, 0
2, 157967, Note_off_c, 0, 83, 0
2, 157989, Note_on_c, 0, 82, 75
2, 158167, Note_off_c, 0, 82, 0
2, 158168, Note_on_c, 0, 63, 51
2, 158179, Note_off_c, 0, 52, 0
2, 158179, Note_on_c, 0, 51, 92
2, 158336, Note_on_c, 0, 78, 80
2, 158448, Note_off_c, 0, 63, 0
2, 158603, Note_off_c, 0, 78, 0
2, 158704, Note_on_c, 0, 73, 89
2, 158704, Note_on_c, 0, 56, 79
2, 158738, Note_off_c, 0, 51, 0
2, 159005, Note_off_c, 0, 73, 0
2, 159083, Note_on_c, 0, 71, 87
2, 159261, Note_on_c, 0, 73, 92
2, 159295, Note_off_c, 0, 71, 0
2, 159439, Note_on_c, 0, 55, 86
2, 159440, Note_off_c, 0, 56, 0
2, 159451, Note_on_c, 0, 78, 64
2, 159484, Note_off_c, 0, 73, 0
2, 159607, Note_off_c, 0, 78, 0
2, 159618, Note_on_c, 0, 75, 84
2, 159628, Note_off_c, 0, 55, 0
2, 159629, Note_on_c, 0, 54, 85
2, 159885, Note_off_c, 0, 75, 0
2, 159986, Note_on_c, 0, 68, 80
2, 160008, Note_on_c, 0, 47, 83
2, 160019, Note_off_c, 0, 54, 0
2, 160164, Note_on_c, 0, 75, 82
2, 160221, Note_off_c, 0, 68, 0
2, 160344, Note_on_c, 0, 73, 77
2, 160355, Note_on_c, 0, 49, 80
2, 160366, Note_off_c, 0, 47, 0
2, 160366, Note_off_c, 0, 75, 0
2, 160556, Note_off_c, 0, 73, 0
2, 160711, Note_on_c, 0, 80, 53
2, 160711, Note_on_c, 0, 68, 62
2, 160890, Note_on_c, 0, 75, 93
2, 160934, Note_off_c, 0, 68, 0
2, 160990, Note_off_c, 0, 80, 0
2, 161079, Note_on_c, 0, 73, 84
2, 161090, Note_on_c, 0, 63, 61
2, 161091, Note_off_c, 0, 49, 0
2, 161091, Note_off_c, 0, 75, 0
2, 161124, Note_on_c, 0, 51, 88
2, 161279, Note_off_c, 0, 63, 0
2, 161335, Note_off_c, 0, 73, 0
2, 161447, Note_on_c, 0, 66, 90
2, 161447, Note_on_c, 0, 63, 44
2, 161581, Note_off_c, 0, 63, 0
2, 161625, Note_on_c, 0, 80, 43
2, 161625, Note_on_c, 0, 68, 55
2, 161636, Note_on_c, 0, 44, 86
2, 161637, Note_off_c, 0, 51, 0
2, 161670, Note_off_c, 0, 66, 0
2, 161759, Note_off_c, 0, 68, 0
2, 161848, Note_off_c, 0, 80, 0
2, 161993, Note_on_c, 0, 80, 56
2, 162273, Note_off_c, 0, 80, 0
2, 162351, Note_on_c, 0, 66, 87
2, 162351, Note_on_c, 0, 63, 45
2, 162485, Note_off_c, 0, 63, 0
2, 162529, Note_on_c, 0, 80, 56
2, 162540, Note_on_c, 0, 68, 61
2, 162618, Note_off_c, 0, 66, 0
2, 162796, Note_off_c, 0, 68, 0
2, 162841, Note_off_c, 0, 80, 0
2, 163087, Note_on_c, 0, 68, 42
2, 163087, Note_on_c, 0, 56, 86
2, 163232, Note_off_c, 0, 68, 0
2, 163253, Note_off_c, 0, 44, 0
2, 163443, Note_on_c, 0, 78, 81
2, 163632, Note_off_c, 0, 78, 0
2, 163633, Note_on_c, 0, 80, 78
2, 163633, Note_on_c, 0, 68, 41
2, 163644, Note_off_c, 0, 56, 0
2, 163644, Note_on_c, 0, 56, 74
2, 163834, Note_off_c, 0, 80, 0
2, 163945, Note_off_c, 0, 68, 0
2, 164000, Note_on_c, 0, 80, 91
2, 164080, Note_off_c, 0, 56, 0
2, 164180, Note_on_c, 0, 75, 96
2, 164235, Note_off_c, 0, 80, 0
2, 164358, Note_on_c, 0, 77, 88
2, 164392, Note_off_c, 0, 75, 0
2, 164526, Note_on_c, 0, 80, 97
2, 164637, Note_off_c, 0, 77, 0
2, 164704, Note_on_c, 0, 82, 62
2, 164704, Note_on_c, 0, 42, 93
2, 164727, Note_off_c, 0, 80, 0
2, 164871, Note_off_c, 0, 82, 0
2, 165072, Note_off_c, 0, 42, 0
2, 165072, Note_on_c, 0, 42, 95
2, 165417, Note_on_c, 0, 41, 87
2, 165418, Note_off_c, 0, 42, 0
2, 165752, Note_on_c, 0, 80, 72
2, 165785, Note_off_c, 0, 41, 0
2, 165785, Note_on_c, 0, 41, 88
2, 165920, Note_off_c, 0, 80, 0
2, 165920, Note_on_c, 0, 82, 67
2, 166076, Note_off_c, 0, 82, 0
2, 166109, Note_off_c, 0, 41, 0
2, 166109, Note_on_c, 0, 41, 89
2, 166433, Note_on_c, 0, 82, 59
2, 166466, Note_off_c, 0, 41, 0
2, 166466, Note_on_c, 0, 41, 79
2, 166578, Note_off_c, 0, 82, 0
2, 166611, Note_on_c, 0, 80, 74
2, 166778, Note_on_c, 0, 82, 60
2, 166789, Note_off_c, 0, 80, 0
2, 166800, Note_on_c, 0, 49, 91
2, 166979, Note_off_c, 0, 82, 0
2, 167023, Note_off_c, 0, 41, 0
2, 167146, Note_off_c, 0, 49, 0
2, 167146, Note_on_c, 0, 77, 82
2, 167146, Note_on_c, 0, 49, 86
2, 167313, Note_on_c, 0, 80, 70
2, 167358, Note_off_c, 0, 77, 0
2, 167480, Note_off_c, 0, 80, 0
2, 167492, Note_off_c, 0, 49, 0
2, 167492, Note_on_c, 0, 82, 63
2, 167492, Note_on_c, 0, 60, 39
2, 167492, Note_on_c, 0, 48, 98
2, 167715, Note_off_c, 0, 82, 0
2, 167759, Note_off_c, 0, 60, 0
2, 167827, Note_on_c, 0, 85, 61
2, 167838, Note_on_c, 0, 60, 37
2, 167838, Note_on_c, 0, 48, 100
2, 167839, Note_off_c, 0, 48, 0
2, 168005, Note_off_c, 0, 85, 0
2, 168072, Note_off_c, 0, 60, 0
2, 168173, Note_on_c, 0, 60, 47
2, 168184, Note_off_c, 0, 48, 0
2, 168184, Note_on_c, 0, 48, 98
2, 168429, Note_off_c, 0, 60, 0
2, 168518, Note_on_c, 0, 80, 73
2, 168529, Note_on_c, 0, 48, 76
2, 168530, Note_off_c, 0, 48, 0
2, 168696, Note_on_c, 0, 46, 80
2, 168707, Note_off_c, 0, 80, 0
2, 168852, Note_off_c, 0, 48, 0
2, 169053, Note_on_c, 0, 41, 82
2, 169142, Note_off_c, 0, 46, 0
2, 169220, Note_on_c, 0, 85, 63
2, 169220, Note_on_c, 0, 45, 91
2, 169354, Note_off_c, 0, 85, 0
2, 169387, Note_off_c, 0, 41, 0
2, 169398, Note_off_c, 0, 45, 0
2, 169399, Note_on_c, 0, 44, 87
2, 169566, Note_off_c, 0, 44, 0
2, 169566, Note_on_c, 0, 43, 85
2, 169901, Note_on_c, 0, 37, 82
2, 169902, Note_off_c, 0, 43, 0
2, 170235, Note_off_c, 0, 37, 0
2, 170258, Note_on_c, 0, 82, 60
2, 170269, Note_on_c, 0, 42, 97
2, 170414, Note_off_c, 0, 82, 0
2, 170626, Note_off_c, 0, 42, 0
2, 170626, Note_on_c, 0, 42, 94
2, 170949, Note_on_c, 0, 82, 53
2, 170971, Note_on_c, 0, 41, 88
2, 170972, Note_off_c, 0, 42, 0
2, 171116, Note_off_c, 0, 82, 0
2, 171306, Note_on_c, 0, 80, 71
2, 171328, Note_off_c, 0, 41, 0
2, 171328, Note_on_c, 0, 41, 81
2, 171473, Note_on_c, 0, 82, 61
2, 171484, Note_off_c, 0, 80, 0
2, 171640, Note_off_c, 0, 82, 0
2, 171641, Note_on_c, 0, 46, 95
2, 171820, Note_on_c, 0, 89, 66
2, 171853, Note_off_c, 0, 41, 0
2, 171954, Note_off_c, 0, 89, 0
2, 171998, Note_off_c, 0, 46, 0
2, 171998, Note_on_c, 0, 46, 99
2, 172165, Note_off_c, 0, 46, 0
2, 172165, Note_on_c, 0, 80, 76
2, 172165, Note_on_c, 0, 46, 77
2, 172332, Note_on_c, 0, 82, 60
2, 172354, Note_off_c, 0, 80, 0
2, 172355, Note_on_c, 0, 49, 91
2, 172510, Note_off_c, 0, 82, 0
2, 172533, Note_off_c, 0, 46, 0
2, 172689, Note_on_c, 0, 77, 77
2, 172700, Note_on_c, 0, 49, 77
2, 172701, Note_off_c, 0, 49, 0
2, 172856, Note_on_c, 0, 80, 67
2, 172901, Note_off_c, 0, 77, 0
2, 173023, Note_off_c, 0, 80, 0
2, 173023, Note_on_c, 0, 39, 104
2, 173035, Note_on_c, 0, 82, 58
2, 173124, Note_off_c, 0, 49, 0
2, 173169, Note_off_c, 0, 82, 0
2, 173391, Note_on_c, 0, 85, 63
2, 173391, Note_on_c, 0, 51, 44
2, 173402, Note_off_c, 0, 39, 0
2, 173402, Note_on_c, 0, 39, 88
2, 173593, Note_off_c, 0, 85, 0
2, 173637, Note_off_c, 0, 51, 0
2, 173738, Note_on_c, 0, 41, 88
2, 173927, Note_off_c, 0, 39, 0
2, 174072, Note_on_c, 0, 80, 71
2, 174106, Note_off_c, 0, 41, 0
2, 174106, Note_on_c, 0, 41, 81
2, 174250, Note_off_c, 0, 80, 0
2, 174251, Note_on_c, 0, 82, 67
2, 174396, Note_off_c, 0, 82, 0
2, 174418, Note_on_c, 0, 46, 92
2, 174574, Note_off_c, 0, 41, 0
2, 174596, Note_on_c, 0, 82, 65
2, 174730, Note_off_c, 0, 82, 0
2, 174786, Note_off_c, 0, 46, 0
2, 174786, Note_on_c, 0, 46, 100
2, 174942, Note_on_c, 0, 80, 75
2, 174953, Note_off_c, 0, 46, 0
2, 174953, Note_on_c, 0, 46, 98
2, 175131, Note_off_c, 0, 46, 0
2, 175131, Note_on_c, 0, 46, 97
2, 175143, Note_off_c, 0, 80, 0
2, 175467, Note_on_c, 0, 85, 66
2, 175478, Note_off_c, 0, 46, 0
2, 175478, Note_on_c, 0, 46, 87
2, 175734, Note_off_c, 0, 85, 0
2, 175801, Note_on_c, 0, 82, 61
2, 175812, Note_on_c, 0, 42, 95
2, 175957, Note_off_c, 0, 46, 0
2, 175990, Note_off_c, 0, 82, 0
2, 176169, Note_off_c, 0, 42, 0
2, 176169, Note_on_c, 0, 42, 95
2, 176503, Note_on_c, 0, 82, 52
2, 176526, Note_off_c, 0, 42, 0
2, 176526, Note_on_c, 0, 41, 87
2, 176637, Note_off_c, 0, 82, 0
2, 176682, Note_on_c, 0, 85, 82
2, 176838, Note_off_c, 0, 85, 0
2, 176882, Note_on_c, 0, 41, 80
2, 176883, Note_off_c, 0, 41, 0
2, 177027, Note_on_c, 0, 89, 63
2, 177161, Note_off_c, 0, 89, 0
2, 177194, Note_on_c, 0, 46, 97
2, 177205, Note_on_c, 0, 82, 57
2, 177350, Note_off_c, 0, 82, 0
2, 177441, Note_off_c, 0, 41, 0
2, 177552, Note_off_c, 0, 46, 0
2, 177552, Note_on_c, 0, 46, 99
2, 177708, Note_on_c, 0, 80, 76
2, 177909, Note_off_c, 0, 80, 0
2, 177920, Note_off_c, 0, 46, 0
2, 177920, Note_on_c, 0, 46, 96
2, 178065, Note_on_c, 0, 85, 80
2, 178232, Note_off_c, 0, 85, 0
2, 178254, Note_off_c, 0, 46, 0
2, 178254, Note_on_c, 0, 46, 96
2, 178588, Note_off_c, 0, 46, 0
2, 178589, Note_on_c, 0, 82, 55
2, 178589, Note_on_c, 0, 46, 67
2, 178600, Note_on_c, 0, 39, 103
2, 178723, Note_off_c, 0, 82, 0
2, 178767, Note_off_c, 0, 46, 0
2, 178934, Note_on_c, 0, 85, 58
2, 178934, Note_on_c, 0, 51, 43
2, 178945, Note_on_c, 0, 39, 91
2, 178946, Note_off_c, 0, 39, 0
2, 179146, Note_off_c, 0, 85, 0
2, 179224, Note_off_c, 0, 51, 0
2, 179281, Note_on_c, 0, 41, 87
2, 179414, Note_off_c, 0, 39, 0
2, 179448, Note_on_c, 0, 85, 78
2, 179604, Note_off_c, 0, 85, 0
2, 179660, Note_off_c, 0, 41, 0
2, 179660, Note_on_c, 0, 41, 81
2, 179805, Note_on_c, 0, 85, 77
2, 179950, Note_off_c, 0, 85, 0
2, 179972, Note_on_c, 0, 46, 88
2, 180162, Note_off_c, 0, 41, 0
2, 180318, Note_on_c, 0, 82, 55
2, 180384, Note_off_c, 0, 46, 0
2, 180384, Note_on_c, 0, 45, 92
2, 180452, Note_off_c, 0, 82, 0
2, 180496, Note_on_c, 0, 85, 70
2, 180663, Note_off_c, 0, 85, 0
2, 180663, Note_on_c, 0, 80, 60
2, 180674, Note_off_c, 0, 45, 0
2, 180674, Note_on_c, 0, 44, 84
2, 180841, Note_on_c, 0, 77, 84
2, 180864, Note_off_c, 0, 80, 0
2, 181020, Note_on_c, 0, 49, 76
2, 181042, Note_off_c, 0, 77, 0
2, 181255, Note_off_c, 0, 44, 0
2, 181355, Note_on_c, 0, 85, 55
2, 181366, Note_on_c, 0, 42, 94
2, 181489, Note_off_c, 0, 85, 0
2, 181512, Note_off_c, 0, 49, 0
2, 181723, Note_off_c, 0, 42, 0
2, 181723, Note_on_c, 0, 42, 93
2, 182069, Note_off_c, 0, 42, 0
2, 182069, Note_on_c, 0, 41, 87
2, 182225, Note_on_c, 0, 85, 78
2, 182381, Note_off_c, 0, 85, 0
2, 182425, Note_on_c, 0, 41, 79
2, 182426, Note_off_c, 0, 41, 0
2, 182760, Note_on_c, 0, 46, 90
2, 182971, Note_off_c, 0, 41, 0
2, 183151, Note_off_c, 0, 46, 0
2, 183151, Note_on_c, 0, 45, 87
2, 183262, Note_on_c, 0, 80, 85
2, 183441, Note_off_c, 0, 45, 0
2, 183441, Note_on_c, 0, 44, 83
2, 183463, Note_off_c, 0, 80, 0
2, 183608, Note_on_c, 0, 85, 69
2, 183764, Note_off_c, 0, 85, 0
2, 183797, Note_on_c, 0, 49, 77
2, 183998, Note_off_c, 0, 44, 0
2, 184121, Note_on_c, 0, 39, 102
2, 184176, Note_off_c, 0, 49, 0
2, 184511, Note_off_c, 0, 39, 0
2, 184511, Note_on_c, 0, 39, 90
2, 184656, Note_on_c, 0, 85, 70
2, 184667, Note_on_c, 0, 51, 54
2, 184823, Note_off_c, 0, 51, 0
2, 184834, Note_off_c, 0, 85, 0
2, 184834, Note_on_c, 0, 80, 73
2, 184856, Note_on_c, 0, 41, 84
2, 184990, Note_off_c, 0, 39, 0
2, 185002, Note_off_c, 0, 80, 0
2, 185002, Note_on_c, 0, 82, 66
2, 185136, Note_off_c, 0, 82, 0
2, 185170, Note_on_c, 0, 77, 76
2, 185181, Note_on_c, 0, 53, 42
2, 185225, Note_off_c, 0, 41, 0
2, 185225, Note_on_c, 0, 41, 72
2, 185315, Note_off_c, 0, 53, 0
2, 185337, Note_on_c, 0, 46, 92
2, 185382, Note_off_c, 0, 77, 0
2, 185593, Note_off_c, 0, 41, 0
2, 185693, Note_on_c, 0, 82, 67
2, 185871, Note_off_c, 0, 82, 0
2, 185883, Note_off_c, 0, 46, 0
2, 185883, Note_on_c, 0, 46, 101
2, 186050, Note_off_c, 0, 46, 0
2, 186050, Note_on_c, 0, 80, 76
2, 186050, Note_on_c, 0, 46, 97
2, 186217, Note_on_c, 0, 82, 61
2, 186228, Note_off_c, 0, 46, 0
2, 186228, Note_on_c, 0, 46, 100
2, 186251, Note_off_c, 0, 80, 0
2, 186373, Note_off_c, 0, 82, 0
2, 186574, Note_off_c, 0, 46, 0
2, 186574, Note_on_c, 0, 46, 87
2, 186910, Note_on_c, 0, 54, 95
2, 187110, Note_off_c, 0, 46, 0
2, 187266, Note_on_c, 0, 54, 99
2, 187267, Note_off_c, 0, 54, 0
2, 187433, Note_on_c, 0, 82, 62
2, 187444, Note_off_c, 0, 54, 0
2, 187445, Note_on_c, 0, 54, 89
2, 187589, Note_off_c, 0, 82, 0
2, 187612, Note_off_c, 0, 54, 0
2, 187612, Note_on_c, 0, 53, 95
2, 187779, Note_on_c, 0, 85, 85
2, 187968, Note_on_c, 0, 53, 83
2, 187969, Note_off_c, 0, 53, 0
2, 187980, Note_off_c, 0, 85, 0
2, 188124, Note_on_c, 0, 89, 73
2, 188258, Note_off_c, 0, 89, 0
2, 188303, Note_on_c, 0, 82, 70
2, 188303, Note_on_c, 0, 58, 99
2, 188492, Note_off_c, 0, 82, 0
2, 188503, Note_off_c, 0, 53, 0
2, 188648, Note_on_c, 0, 58, 92
2, 188649, Note_off_c, 0, 58, 0
2, 188817, Note_on_c, 0, 80, 75
2, 188995, Note_on_c, 0, 68, 49
2, 189006, Note_on_c, 0, 56, 79
2, 189017, Note_off_c, 0, 58, 0
2, 189118, Note_off_c, 0, 80, 0
2, 189151, Note_off_c, 0, 68, 0
2, 189162, Note_on_c, 0, 82, 67
2, 189329, Note_off_c, 0, 82, 0
2, 189341, Note_on_c, 0, 85, 67
2, 189341, Note_on_c, 0, 61, 86
2, 189352, Note_off_c, 0, 56, 0
2, 189497, Note_off_c, 0, 85, 0
2, 189697, Note_on_c, 0, 51, 101
2, 189831, Note_off_c, 0, 61, 0
2, 190043, Note_off_c, 0, 51, 0
2, 190043, Note_on_c, 0, 63, 50
2, 190043, Note_on_c, 0, 51, 94
2, 190188, Note_off_c, 0, 63, 0
2, 190188, Note_on_c, 0, 89, 68
2, 190322, Note_off_c, 0, 89, 0
2, 190388, Note_on_c, 0, 53, 90
2, 190433, Note_off_c, 0, 51, 0
2, 190567, Note_on_c, 0, 80, 85
2, 190724, Note_on_c, 0, 77, 79
2, 190735, Note_off_c, 0, 53, 0
2, 190735, Note_on_c, 0, 53, 75
2, 190758, Note_off_c, 0, 80, 0
2, 190902, Note_on_c, 0, 82, 65
2, 190902, Note_on_c, 0, 58, 92
2, 190925, Note_off_c, 0, 77, 0
2, 191091, Note_off_c, 0, 82, 0
2, 191192, Note_off_c, 0, 53, 0
2, 191236, Note_off_c, 0, 58, 0
2, 191248, Note_on_c, 0, 82, 92
2, 191549, Note_off_c, 0, 82, 0
2, 191593, Note_on_c, 0, 80, 97
2, 191771, Note_on_c, 0, 82, 89
2, 191805, Note_off_c, 0, 80, 0
2, 192117, Note_off_c, 0, 82, 0
2, 192474, Note_on_c, 0, 42, 93
2, 192631, Note_on_c, 0, 82, 62
2, 192765, Note_off_c, 0, 82, 0
2, 192843, Note_off_c, 0, 42, 0
2, 192843, Note_on_c, 0, 42, 89
2, 192976, Note_on_c, 0, 82, 62
2, 193110, Note_off_c, 0, 82, 0
2, 193222, Note_off_c, 0, 42, 0
2, 193222, Note_on_c, 0, 41, 85
2, 193322, Note_on_c, 0, 82, 66
2, 193489, Note_off_c, 0, 82, 0
2, 193534, Note_off_c, 0, 41, 0
2, 193534, Note_on_c, 0, 41, 82
2, 193690, Note_on_c, 0, 82, 66
2, 193824, Note_off_c, 0, 82, 0
2, 193857, Note_on_c, 0, 85, 75
2, 193868, Note_on_c, 0, 46, 97
2, 194024, Note_off_c, 0, 85, 0
2, 194047, Note_off_c, 0, 41, 0
2, 194225, Note_off_c, 0, 46, 0
2, 194225, Note_on_c, 0, 46, 99
2, 194549, Note_off_c, 0, 46, 0
2, 194549, Note_on_c, 0, 46, 101
2, 194716, Note_off_c, 0, 46, 0
2, 194716, Note_on_c, 0, 80, 74
2, 194716, Note_on_c, 0, 46, 95
2, 194894, Note_off_c, 0, 46, 0
2, 194895, Note_on_c, 0, 46, 94
2, 194917, Note_off_c, 0, 80, 0
2, 195062, Note_on_c, 0, 85, 80
2, 195229, Note_off_c, 0, 46, 0
2, 195229, Note_on_c, 0, 46, 74
2, 195229, Note_on_c, 0, 39, 102
2, 195251, Note_off_c, 0, 85, 0
2, 195251, Note_on_c, 0, 80, 66
2, 195407, Note_off_c, 0, 80, 0
2, 195418, Note_off_c, 0, 46, 0
2, 195419, Note_on_c, 0, 82, 69
2, 195564, Note_off_c, 0, 82, 0
2, 195586, Note_on_c, 0, 80, 65
2, 195597, Note_off_c, 0, 39, 0
2, 195597, Note_on_c, 0, 39, 90
2, 195764, Note_off_c, 0, 80, 0
2, 195764, Note_on_c, 0, 82, 70
2, 195920, Note_off_c, 0, 82, 0
2, 195942, Note_on_c, 0, 41, 83
2, 196087, Note_off_c, 0, 39, 0
2, 196110, Note_on_c, 0, 82, 62
2, 196266, Note_off_c, 0, 82, 0
2, 196310, Note_off_c, 0, 41, 0
2, 196310, Note_on_c, 0, 41, 79
2, 196445, Note_on_c, 0, 85, 76
2, 196612, Note_off_c, 0, 85, 0
2, 196623, Note_on_c, 0, 80, 64
2, 196623, Note_on_c, 0, 46, 96
2, 196790, Note_off_c, 0, 41, 0
2, 196791, Note_on_c, 0, 85, 82
2, 196846, Note_off_c, 0, 80, 0
2, 196980, Note_off_c, 0, 85, 0
2, 196991, Note_off_c, 0, 46, 0
2, 196991, Note_on_c, 0, 46, 88
2, 197315, Note_on_c, 0, 44, 84
2, 197392, Note_off_c, 0, 46, 0
2, 197671, Note_on_c, 0, 85, 63
2, 197671, Note_on_c, 0, 73, 54
2, 197682, Note_on_c, 0, 61, 39
2, 197682, Note_on_c, 0, 49, 76
2, 197816, Note_off_c, 0, 85, 0
2, 197849, Note_off_c, 0, 61, 0
2, 197883, Note_off_c, 0, 73, 0
2, 197917, Note_off_c, 0, 44, 0
2, 198028, Note_on_c, 0, 42, 90
2, 198128, Note_off_c, 0, 49, 0
2, 198195, Note_on_c, 0, 82, 60
2, 198329, Note_off_c, 0, 82, 0
2, 198386, Note_off_c, 0, 42, 0
2, 198386, Note_on_c, 0, 42, 90
2, 198542, Note_on_c, 0, 82, 59
2, 198676, Note_off_c, 0, 82, 0
2, 198776, Note_off_c, 0, 42, 0
2, 198776, Note_on_c, 0, 41, 86
2, 198876, Note_on_c, 0, 82, 65
2, 199043, Note_off_c, 0, 82, 0
2, 199088, Note_off_c, 0, 41, 0
2, 199088, Note_on_c, 0, 41, 82
2, 199233, Note_on_c, 0, 82, 69
2, 199367, Note_off_c, 0, 82, 0
2, 199411, Note_on_c, 0, 85, 74
2, 199411, Note_on_c, 0, 46, 98
2, 199567, Note_off_c, 0, 85, 0
2, 199590, Note_off_c, 0, 41, 0
2, 199768, Note_off_c, 0, 46, 0
2, 199768, Note_on_c, 0, 46, 96
2, 199902, Note_on_c, 0, 89, 67
2, 200036, Note_off_c, 0, 89, 0
2, 200113, Note_on_c, 0, 46, 96
2, 200114, Note_off_c, 0, 46, 0
2, 200271, Note_on_c, 0, 85, 80
2, 200438, Note_off_c, 0, 85, 0
2, 200438, Note_on_c, 0, 84, 64
2, 200460, Note_off_c, 0, 46, 0
2, 200460, Note_on_c, 0, 46, 103
2, 200572, Note_off_c, 0, 84, 0
2, 200616, Note_off_c, 0, 46, 0
2, 200616, Note_on_c, 0, 80, 76
2, 200616, Note_on_c, 0, 46, 92
2, 200783, Note_on_c, 0, 39, 102
2, 200794, Note_off_c, 0, 80, 0
2, 200794, Note_off_c, 0, 46, 0
2, 200794, Note_on_c, 0, 80, 65
2, 200794, Note_on_c, 0, 46, 74
2, 200962, Note_on_c, 0, 82, 67
2, 200972, Note_off_c, 0, 80, 0
2, 200972, Note_off_c, 0, 46, 0
2, 201107, Note_off_c, 0, 82, 0
2, 201129, Note_on_c, 0, 80, 66
2, 201151, Note_off_c, 0, 39, 0
2, 201151, Note_on_c, 0, 39, 90
2, 201318, Note_off_c, 0, 80, 0
2, 201318, Note_on_c, 0, 82, 66
2, 201463, Note_off_c, 0, 82, 0
2, 201541, Note_on_c, 0, 41, 89
2, 201641, Note_off_c, 0, 39, 0
2, 201664, Note_on_c, 0, 82, 68
2, 201820, Note_off_c, 0, 82, 0
2, 201864, Note_off_c, 0, 41, 0
2, 201864, Note_on_c, 0, 41, 83
2, 202009, Note_on_c, 0, 82, 71
2, 202154, Note_off_c, 0, 82, 0
2, 202178, Note_on_c, 0, 85, 74
2, 202178, Note_on_c, 0, 46, 104
2, 202345, Note_on_c, 0, 80, 76
2, 202356, Note_off_c, 0, 41, 0
2, 202356, Note_off_c, 0, 46, 0
2, 202356, Note_on_c, 0, 46, 98
2, 202367, Note_off_c, 0, 85, 0
2, 202534, Note_off_c, 0, 46, 0
2, 202534, Note_on_c, 0, 46, 100
2, 202568, Note_off_c, 0, 80, 0
2, 202702, Note_on_c, 0, 85, 61
2, 202880, Note_off_c, 0, 46, 0
2, 202880, Note_on_c, 0, 46, 99
2, 203047, Note_on_c, 0, 85, 91
2, 203048, Note_off_c, 0, 85, 0
2, 203225, Note_off_c, 0, 85, 0
2, 203225, Note_on_c, 0, 85, 75
2, 203248, Note_off_c, 0, 46, 0
2, 203248, Note_on_c, 0, 46, 101
2, 203426, Note_off_c, 0, 85, 0
2, 203582, Note_off_c, 0, 46, 0
2, 203582, Note_on_c, 0, 70, 63
2, 203582, Note_on_c, 0, 46, 97
2, 203816, Note_off_c, 0, 70, 0
2, 203916, Note_on_c, 0, 68, 77
2, 203928, Note_on_c, 0, 80, 50
2, 203928, Note_on_c, 0, 65, 47
2, 203972, Note_off_c, 0, 46, 0
2, 203972, Note_on_c, 0, 46, 101
2, 204085, Note_off_c, 0, 80, 0
2, 204130, Note_off_c, 0, 65, 0
2, 204207, Note_off_c, 0, 68, 0
2, 204263, Note_off_c, 0, 46, 0
2, 204263, Note_on_c, 0, 70, 63
2, 204263, Note_on_c, 0, 46, 98
2, 204508, Note_off_c, 0, 70, 0
2, 204609, Note_on_c, 0, 71, 70
2, 204620, Note_off_c, 0, 46, 0
2, 204620, Note_on_c, 0, 46, 96
2, 204899, Note_off_c, 0, 71, 0
2, 204954, Note_on_c, 0, 70, 94
2, 204976, Note_on_c, 0, 47, 86
2, 204977, Note_off_c, 0, 46, 0
2, 205277, Note_off_c, 0, 70, 0
2, 205311, Note_on_c, 0, 80, 42
2, 205311, Note_on_c, 0, 68, 88
2, 205311, Note_on_c, 0, 59, 40
2, 205322, Note_off_c, 0, 47, 0
2, 205322, Note_on_c, 0, 47, 91
2, 205500, Note_off_c, 0, 80, 0
2, 205567, Note_off_c, 0, 59, 0
2, 205612, Note_off_c, 0, 68, 0
2, 205656, Note_on_c, 0, 70, 92
2, 205667, Note_on_c, 0, 47, 85
2, 205668, Note_off_c, 0, 47, 0
2, 205957, Note_off_c, 0, 70, 0
2, 205992, Note_on_c, 0, 83, 50
2, 205992, Note_on_c, 0, 59, 59
2, 206003, Note_off_c, 0, 47, 0
2, 206003, Note_on_c, 0, 47, 88
2, 206215, Note_off_c, 0, 83, 0
2, 206315, Note_off_c, 0, 59, 0
2, 206349, Note_on_c, 0, 70, 65
2, 206360, Note_off_c, 0, 47, 0
2, 206360, Note_on_c, 0, 46, 96
2, 206594, Note_off_c, 0, 70, 0
2, 206694, Note_off_c, 0, 46, 0
2, 206694, Note_on_c, 0, 80, 47
2, 206694, Note_on_c, 0, 68, 77
2, 206694, Note_on_c, 0, 65, 49
2, 206694, Note_on_c, 0, 46, 100
2, 206850, Note_off_c, 0, 65, 0
2, 206961, Note_off_c, 0, 80, 0
2, 206984, Note_off_c, 0, 68, 0
2, 207040, Note_on_c, 0, 70, 66
2, 207051, Note_off_c, 0, 46, 0
2, 207051, Note_on_c, 0, 46, 98
2, 207307, Note_off_c, 0, 70, 0
2, 207385, Note_on_c, 0, 71, 65
2, 207396, Note_on_c, 0, 46, 101
2, 207397, Note_off_c, 0, 46, 0
2, 207619, Note_off_c, 0, 71, 0
2, 207742, Note_off_c, 0, 46, 0
2, 207742, Note_on_c, 0, 46, 90
2, 207853, Note_on_c, 0, 63, 73
2, 207955, Note_off_c, 0, 46, 0
2, 207955, Note_on_c, 0, 65, 63
2, 207955, Note_on_c, 0, 46, 81
2, 208044, Note_off_c, 0, 63, 0
2, 208044, Note_on_c, 0, 63, 74
2, 208144, Note_off_c, 0, 65, 0
2, 208144, Note_off_c, 0, 46, 0
2, 208144, Note_on_c, 0, 65, 70
2, 208144, Note_on_c, 0, 46, 84
2, 208189, Note_off_c, 0, 63, 0
2, 208245, Note_on_c, 0, 70, 75
2, 208300, Note_off_c, 0, 65, 0
2, 208345, Note_off_c, 0, 46, 0
2, 208345, Note_on_c, 0, 58, 63
2, 208345, Note_on_c, 0, 46, 90
2, 208390, Note_off_c, 0, 70, 0
2, 208490, Note_off_c, 0, 58, 0
2, 208913, Note_off_c, 0, 46, 0
2, 209985, Note_on_c, 0, 39, 78
2, 210508, Note_on_c, 0, 76, 91
2, 210553, Note_off_c, 0, 39, 0
2, 210687, Note_on_c, 0, 79, 102
2, 210753, Note_off_c, 0, 76, 0
2, 210854, Note_on_c, 0, 81, 51
2, 210854, Note_on_c, 0, 41, 94
2, 210865, Note_on_c, 0, 53, 41
2, 210899, Note_off_c, 0, 79, 0
2, 210999, Note_off_c, 0, 81, 0
2, 211010, Note_off_c, 0, 53, 0
2, 211244, Note_off_c, 0, 41, 0
2, 211244, Note_on_c, 0, 41, 90
2, 211556, Note_off_c, 0, 41, 0
2, 211556, Note_on_c, 0, 40, 86
2, 211892, Note_on_c, 0, 79, 80
2, 211914, Note_off_c, 0, 40, 0
2, 211914, Note_on_c, 0, 40, 83
2, 212070, Note_on_c, 0, 81, 60
2, 212104, Note_off_c, 0, 79, 0
2, 212215, Note_off_c, 0, 81, 0
2, 212248, Note_on_c, 0, 45, 95
2, 212438, Note_off_c, 0, 40, 0
2, 212605, Note_off_c, 0, 45, 0
2, 212605, Note_on_c, 0, 45, 85
2, 212772, Note_on_c, 0, 79, 86
2, 212939, Note_on_c, 0, 81, 54
2, 212950, Note_on_c, 0, 48, 98
2, 212973, Note_off_c, 0, 79, 0
2, 213084, Note_off_c, 0, 81, 0
2, 213140, Note_off_c, 0, 45, 0
2, 213296, Note_off_c, 0, 48, 0
2, 213296, Note_on_c, 0, 76, 70
2, 213296, Note_on_c, 0, 48, 80
2, 213463, Note_on_c, 0, 79, 77
2, 213485, Note_off_c, 0, 76, 0
2, 213643, Note_on_c, 0, 38, 89
2, 213654, Note_off_c, 0, 79, 0
2, 213732, Note_off_c, 0, 48, 0
2, 213977, Note_off_c, 0, 38, 0
2, 213977, Note_on_c, 0, 38, 81
2, 214323, Note_on_c, 0, 40, 86
2, 214401, Note_off_c, 0, 38, 0
2, 214679, Note_on_c, 0, 79, 84
2, 214702, Note_off_c, 0, 40, 0
2, 214702, Note_on_c, 0, 40, 85
2, 214891, Note_off_c, 0, 79, 0
2, 215025, Note_on_c, 0, 45, 96
2, 215192, Note_on_c, 0, 83, 59
2, 215204, Note_off_c, 0, 40, 0
2, 215337, Note_off_c, 0, 83, 0
2, 215370, Note_on_c, 0, 84, 72
2, 215381, Note_on_c, 0, 45, 85
2, 215382, Note_off_c, 0, 45, 0
2, 215505, Note_off_c, 0, 84, 0
2, 215695, Note_on_c, 0, 89, 60
2, 215728, Note_on_c, 0, 48, 93
2, 215829, Note_off_c, 0, 89, 0
2, 215884, Note_off_c, 0, 45, 0
2, 216074, Note_off_c, 0, 48, 0
2, 216074, Note_on_c, 0, 60, 48
2, 216074, Note_on_c, 0, 48, 94
2, 216263, Note_off_c, 0, 60, 0
2, 216408, Note_off_c, 0, 48, 0
2, 216408, Note_on_c, 0, 41, 91
2, 216787, Note_off_c, 0, 41, 0
2, 216787, Note_on_c, 0, 41, 92
2, 217110, Note_off_c, 0, 41, 0
2, 217110, Note_on_c, 0, 40, 86
2, 217446, Note_on_c, 0, 79, 81
2, 217479, Note_off_c, 0, 40, 0
2, 217479, Note_on_c, 0, 40, 92
2, 217624, Note_on_c, 0, 81, 58
2, 217658, Note_off_c, 0, 79, 0
2, 217769, Note_off_c, 0, 81, 0
2, 217813, Note_off_c, 0, 40, 0
2, 217814, Note_on_c, 0, 65, 0
2, 217825, Note_off_c, 0, 65, 0
2, 217825, End_track
0, 0, End_of_file
